<?xml version="1.0" encoding="UTF-8" standalone="no"?>
<svg
   xmlns:dc="http://purl.org/dc/elements/1.1/"
   xmlns:cc="http://creativecommons.org/ns#"
   xmlns:rdf="http://www.w3.org/1999/02/22-rdf-syntax-ns#"
   xmlns:svg="http://www.w3.org/2000/svg"
   xmlns="http://www.w3.org/2000/svg"
   xmlns:sodipodi="http://sodipodi.sourceforge.net/DTD/sodipodi-0.dtd"
   xmlns:inkscape="http://www.inkscape.org/namespaces/inkscape"
   version="1.1"
   id="svg10"
   width="1306.6667"
   height="1306.6667"
   viewBox="0 0 1306.6667 1306.6667"
   sodipodi:docname="aboutUs.svg"
   inkscape:version="1.0.1 (3bc2e813f5, 2020-09-07)">
  <metadata
     id="metadata16">
    <rdf:RDF>
      <cc:Work
         rdf:about="">
        <dc:format>image/svg+xml</dc:format>
        <dc:type
           rdf:resource="http://purl.org/dc/dcmitype/StillImage" />
        <dc:title></dc:title>
      </cc:Work>
    </rdf:RDF>
  </metadata>
  <defs
     id="defs14" />
  <sodipodi:namedview
     pagecolor="#ffffff"
     bordercolor="#666666"
     borderopacity="1"
     objecttolerance="10"
     gridtolerance="10"
     guidetolerance="10"
     inkscape:pageopacity="0"
     inkscape:pageshadow="2"
     inkscape:window-width="1920"
     inkscape:window-height="1001"
     id="namedview12"
     showgrid="false"
     inkscape:zoom="0.61301017"
     inkscape:cx="22.022472"
     inkscape:cy="670.73384"
     inkscape:window-x="-9"
     inkscape:window-y="-9"
     inkscape:window-maximized="1"
     inkscape:current-layer="g18"
     inkscape:document-rotation="0" />
  <g
     inkscape:groupmode="layer"
     inkscape:label="Image"
     id="g18">
    <path
       style="display:inline;fill:#ff0000;stroke:#ff0000;stroke-width:1.63129;stroke-opacity:1"
       d="m 636.20478,1304.6447 c -26.53096,-0.7476 -61.28123,-3.5056 -78.30212,-6.2145 -19.81145,-3.1531 -58.71867,-11.1898 -71.77695,-14.8265 -27.00641,-7.521 -38.6375,-11.2916 -63.62048,-20.6244 -19.64938,-7.3404 -63.78428,-27.5844 -80.54195,-36.9434 -9.75541,-5.4483 -18.06281,-9.906 -18.4609,-9.906 -0.39808,0 -3.12986,-1.8352 -6.07063,-4.0782 -2.94077,-2.2431 -5.82098,-4.0783 -6.4005,-4.0783 -0.5795,0 -5.87869,-3.3033 -11.776,-7.3408 -5.89731,-4.0374 -11.04972,-7.3408 -11.44979,-7.3408 -0.40008,0 -6.98108,-4.7715 -14.62446,-10.6034 -7.64336,-5.8319 -14.30934,-10.6034 -14.81328,-10.6034 -0.50392,0 -2.86904,-1.781 -5.25578,-3.9578 -2.38675,-2.1767 -9.11109,-7.7253 -14.94297,-12.33 -12.31785,-9.7261 -42.31378,-37.4967 -54.43482,-50.3966 -4.60352,-4.8993 -9.7711,-10.3681 -11.48353,-12.1528 -30.60226,-31.8947 -73.523655,-93.0685 -96.285131,-137.23057 -3.721764,-7.22101 -7.539126,-14.59728 -8.483024,-16.3917 -0.943898,-1.79443 -3.268796,-6.76609 -5.16644,-11.04816 -1.897644,-4.28205 -4.901168,-10.88879 -6.674499,-14.68165 -1.773333,-3.79284 -5.154536,-12.03466 -7.513787,-18.31514 -2.359252,-6.28048 -6.010863,-15.82355 -8.114695,-21.20683 -3.87128,-9.9058 -13.969706,-41.85062 -17.01765,-53.83271 -28.8860444,-113.55691 -28.8860444,-220.85842 0,-334.41533 3.418002,-13.43686 13.307206,-44.37935 17.108933,-53.53241 2.167341,-5.21812 3.965528,-10.3567 3.995971,-11.41906 0.03045,-1.06238 1.473702,-4.86793 3.207237,-8.45678 1.733536,-3.58885 3.176793,-7.18591 3.207237,-7.99349 0.03044,-0.80755 2.012611,-5.57909 4.404816,-10.60341 2.392205,-5.0243 5.811343,-12.43847 7.598082,-16.47593 1.786738,-4.03745 4.020897,-8.80898 4.964795,-10.60341 0.943898,-1.79442 4.778744,-9.13525 8.521881,-16.31294 18.018853,-34.55227 42.464264,-72.17295 65.719564,-101.14025 12.56048,-15.6456 25.81816,-31.36958 30.34462,-35.98958 1.81258,-1.85004 7.0521,-7.35565 11.64338,-12.23471 15.01951,-15.96093 47.33364,-45.50623 61.79788,-56.50273 4.48606,-3.41055 8.74351,-7.1186 9.46101,-8.24011 0.71749,-1.12152 1.98146,-2.03912 2.80884,-2.03912 0.82738,0 7.758,-4.77153 15.40136,-10.60341 7.64338,-5.83188 14.22438,-10.60341 14.62446,-10.60341 0.40007,0 5.55248,-3.30338 11.44979,-7.34083 5.89731,-4.03745 11.1965,-7.340824 11.776,-7.340824 0.57952,0 3.45973,-1.835206 6.4005,-4.078236 2.94077,-2.243029 5.67255,-4.078235 6.07063,-4.078235 0.39809,0 8.70549,-4.457695 18.4609,-9.905988 39.96039,-22.317444 91.5263,-42.909068 144.16243,-57.567844 13.35906,-3.720402 52.25313,-11.737216 72.03164,-14.8471073 50.629,-7.96069264 139.55468,-7.96586874 190.35205,-0.01108 66.90406,10.4770703 122.97222,27.4347433 181.01541,54.7476463 7.45417,3.507651 13.87628,6.377546 14.27133,6.377546 0.39505,0 9.24543,4.771536 19.66747,10.603414 10.42205,5.831877 19.28115,10.603413 19.68687,10.603413 0.40572,0 3.14375,1.835206 6.08452,4.078235 2.94076,2.24303 5.82098,4.078236 6.4005,4.078236 0.5795,0 5.8787,3.303374 11.776,7.340824 5.8973,4.03745 11.0497,7.34083 11.4498,7.34083 0.4001,0 6.9811,4.77153 14.6244,10.60341 7.6434,5.83188 14.3235,10.60341 14.8447,10.60341 0.5212,0 2.5193,1.43496 4.4402,3.18879 1.9208,1.75384 8.631,7.33218 14.9115,12.39632 13.5565,10.93096 43.5629,38.71779 55.2865,51.19685 4.5837,4.87906 9.817,10.38467 11.6296,12.23471 10.0687,10.27676 37.559,44.45176 50.5627,62.8578 20.787,29.42292 34.0551,51.77012 50.8768,85.69109 15.7297,31.71892 17.3856,35.32036 22.5013,48.93883 2.3593,6.28048 6.0109,15.82355 8.1147,21.20682 3.8713,9.90581 13.9697,41.85063 17.0177,53.83272 16.3376,64.22647 22.2359,114.57263 20.9338,178.68234 -0.4459,21.9511 -1.6698,47.986 -2.7199,57.85533 -5.1388,48.29793 -19.7759,111.19524 -35.3051,151.71037 -2.0634,5.38328 -5.6819,14.92635 -8.0412,21.20683 -5.0085,13.33289 -6.5386,16.66592 -22.0922,48.12318 -21.0079,42.48845 -41.8262,75.62264 -69.6965,110.92804 -11.3484,14.3759 -26.923,32.9762 -32.3342,38.616 -1.7124,1.7847 -6.8614,7.2232 -11.4421,12.0856 -12.2226,12.9741 -42.2774,40.8095 -54.4762,50.4534 -5.8319,4.6105 -12.5562,10.1637 -14.943,12.3404 -2.3867,2.1768 -4.7519,3.9578 -5.2558,3.9578 -0.5039,0 -7.1699,4.7715 -14.8133,10.6034 -7.6433,5.8319 -14.2243,10.6034 -14.6244,10.6034 -0.4001,0 -5.5525,3.3034 -11.4498,7.3408 -5.8973,4.0375 -11.1965,7.3408 -11.776,7.3408 -0.57952,0 -3.45974,1.8352 -6.4005,4.0783 -2.94077,2.243 -5.67255,4.0782 -6.07064,4.0782 -0.39808,0 -8.70548,4.4577 -18.4609,9.906 -39.96038,22.3174 -91.52629,42.9091 -144.16242,57.5678 -13.08128,3.6431 -51.99096,11.6781 -71.77695,14.8224 -25.84538,4.1071 -80.44494,7.1236 -112.55931,6.2186 z m 73.79208,-87.7304 c 30.4375,-2.8429 53.13404,-6.8845 84.44347,-15.0371 33.64669,-8.7611 46.84024,-12.8846 63.62048,-19.8836 4.03745,-1.684 12.11236,-5.0394 17.94424,-7.4565 40.95325,-16.9734 87.13487,-44.1954 125.60965,-74.0412 30.5764,-23.7188 60.8533,-52.9252 85.5945,-82.5682 15.967,-19.13045 36.7526,-47.14889 36.7526,-49.54161 0,-0.7946 1.1548,-2.4031 2.5662,-3.57446 1.4114,-1.17135 4.0101,-4.74812 5.7748,-7.94838 1.7648,-3.20027 6.1279,-10.5902 9.6958,-16.42208 12.3126,-20.12549 33.6991,-64.37244 40.6066,-84.01165 13.361,-37.98828 18.3854,-55.29215 25.1041,-86.4586 8.9573,-41.55059 10.0519,-54.25161 10.0519,-116.63755 0,-62.38593 -1.0946,-75.08696 -10.0519,-116.63754 -6.7187,-31.16645 -11.7431,-48.47032 -25.1041,-86.4586 -6.8672,-19.5247 -28.1794,-63.6519 -40.5753,-84.01166 -3.5507,-5.83187 -8.4512,-14.0903 -10.8899,-18.35206 -2.4388,-4.26175 -5.0516,-7.74864 -5.8062,-7.74864 -0.7546,0 -1.372,-0.74001 -1.372,-1.64446 0,-2.56662 -20.2246,-29.93877 -36.7526,-49.74132 -16.5339,-19.8096 -33.6509,-37.52967 -54.6502,-56.57547 -12.4616,-11.30237 -17.9538,-15.91575 -30.9443,-25.99278 -38.47478,-29.84579 -84.6564,-57.06775 -125.60965,-74.04119 -5.83188,-2.41707 -13.90679,-5.7725 -17.94424,-7.45651 -23.48204,-9.79431 -69.90483,-22.73387 -104.40284,-29.10051 -59.3739,-10.957518 -141.92436,-10.93813 -200.6492,0.04713 -35.8372,6.70382 -80.85361,19.23106 -104.40283,29.05338 -4.03746,1.68401 -12.11236,5.03944 -17.94424,7.45652 -39.41282,16.33498 -91.90694,47.1242 -123.16272,72.23829 -0.89721,0.7209 -5.66875,4.48516 -10.60341,8.365 -24.59137,19.33475 -55.26987,49.44598 -77.43803,76.00614 -16.528,19.80255 -36.75258,47.1747 -36.75258,49.74132 0,0.90445 -0.59891,1.64446 -1.3309,1.64446 -0.732,0 -3.04596,3.11985 -5.14214,6.933 -2.09616,3.81315 -4.6171,7.94631 -5.60209,9.18479 -8.3703,10.52459 -38.84464,72.03482 -46.56823,93.99457 -18.05151,51.32422 -26.661129,85.43459 -32.605157,129.17806 -4.859214,35.76005 -4.859214,112.07611 0,147.83617 5.944028,43.74347 14.553647,77.85383 32.605157,129.17806 7.58024,21.5522 38.35328,83.66531 46.56823,93.99457 0.98499,1.23848 3.50593,5.37164 5.60209,9.18479 2.09618,3.81315 4.41014,6.933 5.14214,6.933 0.73199,0 1.3309,0.74532 1.3309,1.65627 0,4.94542 42.27211,57.87455 63.16783,79.09285 16.53382,16.789 37.93224,36.3505 51.02278,46.6428 4.93466,3.8798 9.7062,7.6441 10.60341,8.365 31.25578,25.1141 83.7499,55.9033 123.16272,72.2383 5.83188,2.4171 13.90678,5.7725 17.94424,7.4565 35.96377,15.0004 100.79506,30.5503 145.18519,34.8229 31.14355,2.9977 84.67644,3.0427 116.20573,0.098 z"
       id="path22" />
    <g
       id="g2203"
       transform="matrix(1.1939453,0,0,1.1939453,-135.47548,-102.36498)">
      <path
         style="fill:#ff0000;stroke-width:2.20405"
         d="m 362.02554,813.54304 c 0,-22.39452 7.84726,-51.07584 19.84362,-72.52733 11.22325,-20.06904 29.11122,-39.98487 48.05532,-53.50312 19.49214,-13.9093 50.40487,-25.52503 72.94108,-27.40825 9.9186,-0.82886 13.56612,-3.19249 4.9266,-3.19249 -6.74262,0 -24.20221,-6.55068 -34.47849,-12.936 -34.71616,-21.57146 -51.41882,-61.32102 -42.19687,-100.42154 0.80907,-3.43038 4.20936,-11.97304 7.55621,-18.98369 5.06231,-10.60402 7.9389,-14.60035 17.11309,-23.77454 24.27026,-24.27027 57.41484,-33.00611 89.30687,-23.53841 l 10.04908,2.98324 -2.61692,5.12958 c -1.43931,2.82128 -4.23997,10.49453 -6.22369,17.05169 -3.21182,10.61666 -3.60896,14.14165 -3.62681,32.19237 -0.0163,16.49344 0.51201,22.20866 2.83557,30.6736 5.86578,21.36961 17.30012,41.05713 32.91404,56.67105 l 7.81382,7.81382 -7.00089,6.12422 c -8.39666,7.3452 -22.75678,14.64047 -34.7792,17.66865 -17.85607,4.49755 -17.63779,4.40472 -10.72116,4.55935 7.01571,0.15685 20.05519,2.3033 26.66486,4.38935 l 4.45722,1.40673 -6.48425,4.11054 c -48.90758,31.00387 -85.39389,86.31306 -94.71035,143.57033 l -2.31443,14.22406 -49.66216,0.002 -49.66216,0.002 z"
         id="path1082" />
      <path
         style="fill:#ff0000;stroke-width:2.20405"
         d="M 472.0631,831.96467 C 478.14867,741.116 541.43779,668.12 629.71801,650.12963 c 7.22562,-1.47248 15.89458,-2.67724 19.26438,-2.67724 3.36978,0 6.50271,-0.60811 6.96207,-1.35135 0.46813,-0.75746 -0.58959,-1.35135 -2.40679,-1.35135 -6.10839,0 -24.61919,-5.44788 -34.63544,-10.19349 -29.42637,-13.94197 -50.87742,-38.65988 -60.93231,-70.21192 -4.26706,-13.38998 -5.30306,-40.86863 -2.086,-55.32873 19.50869,-87.68782 126.83263,-119.25052 190.15951,-55.92365 21.13501,21.13501 32.36048,48.6784 32.36048,79.40131 0,44.61431 -25.03998,83.96783 -65.46264,102.88284 -9.19461,4.30245 -27.37242,9.35047 -33.90217,9.41473 -7.72939,0.0761 -0.62355,2.26668 10.47445,3.2291 5.82788,0.50539 17.38193,2.64158 25.67568,4.74708 50.60382,12.84662 93.91508,45.59254 120.9925,91.47762 15.50209,26.26967 25.82463,62.50781 25.83837,90.70781 l 0.005,11.14865 H 666.57085 471.11616 Z"
         id="path1084" />
      <path
         style="fill:#ff0000;stroke-width:2.20405"
         d="m 870.89813,816.20659 c -2.36112,-20.86951 -13.13474,-52.29924 -25.19461,-73.49985 -15.49463,-27.23872 -41.75003,-55.86092 -66.21691,-72.18603 -7.00224,-4.67212 -12.90692,-8.95596 -13.12152,-9.51963 -0.21459,-0.56368 5.56243,-1.81595 12.83784,-2.78283 l 13.22801,-1.75794 -11.45203,-2.47097 c -12.67678,-2.73525 -28.61235,-9.73269 -36.63501,-16.08676 l -5.22341,-4.137 7.79519,-6.48723 c 17.77878,-14.79565 31.52905,-36.12978 38.99748,-60.50625 3.2856,-10.72398 3.6499,-14.00319 3.72259,-33.5089 0.0876,-23.49914 -1.32123,-31.45174 -8.7729,-49.52221 -2.6703,-6.47556 -3.34175,-9.49186 -2.26155,-10.15946 3.62609,-2.24105 30.44693,-2.13721 40.76265,0.15782 33.00863,7.34372 60.11078,33.58795 69.14506,66.95628 2.82924,10.44986 3.22863,34.12728 0.72943,43.24325 -7.68478,28.0306 -25.41167,50.44954 -49.03682,62.0161 -10.61704,5.19798 -23.94671,9.48679 -30.14919,9.7005 -2.73454,0.0942 -2.73497,0.10433 -0.0539,1.25637 1.48649,0.63877 4.90513,1.20413 7.59699,1.25636 6.63821,0.12879 28.38215,5.75194 39.60711,10.24263 44.10085,17.64312 79.31586,55.73029 94.48075,102.1867 4.21622,12.91602 7.63947,32.92846 7.63947,44.66055 v 9.22133 h -43.74436 -43.74438 z"
         id="path1086" />
    </g>
  </g>
</svg>
