<?xml version="1.0" encoding="UTF-8" standalone="no"?>
<svg
   xmlns:dc="http://purl.org/dc/elements/1.1/"
   xmlns:cc="http://creativecommons.org/ns#"
   xmlns:rdf="http://www.w3.org/1999/02/22-rdf-syntax-ns#"
   xmlns:svg="http://www.w3.org/2000/svg"
   xmlns="http://www.w3.org/2000/svg"
   xmlns:sodipodi="http://sodipodi.sourceforge.net/DTD/sodipodi-0.dtd"
   xmlns:inkscape="http://www.inkscape.org/namespaces/inkscape"
   version="1.1"
   id="svg10"
   width="1306.6667"
   height="1306.6667"
   viewBox="0 0 1306.6667 1306.6667"
   sodipodi:docname="address.svg"
   inkscape:version="1.0.1 (3bc2e813f5, 2020-09-07)">
  <metadata
     id="metadata16">
    <rdf:RDF>
      <cc:Work
         rdf:about="">
        <dc:format>image/svg+xml</dc:format>
        <dc:type
           rdf:resource="http://purl.org/dc/dcmitype/StillImage" />
        <dc:title></dc:title>
      </cc:Work>
    </rdf:RDF>
  </metadata>
  <defs
     id="defs14" />
  <sodipodi:namedview
     pagecolor="#ffffff"
     bordercolor="#ffffff"
     borderopacity="1"
     objecttolerance="10"
     gridtolerance="10"
     guidetolerance="10"
     inkscape:pageopacity="0"
     inkscape:pageshadow="2"
     inkscape:window-width="1920"
     inkscape:window-height="1001"
     id="namedview12"
     showgrid="false"
     inkscape:zoom="0.61301017"
     inkscape:cx="293.91948"
     inkscape:cy="696.69509"
     inkscape:window-x="-9"
     inkscape:window-y="-9"
     inkscape:window-maximized="1"
     inkscape:current-layer="g2117"
     inkscape:document-rotation="0" />
  <g
     inkscape:groupmode="layer"
     inkscape:label="Image"
     id="g18">
    <path
       style="fill:#ffffff;stroke-width:2.66064;stroke-miterlimit:4;stroke-dasharray:none"
       d=""
       id="path946" />
    <path
       style="fill:#ffffff;stroke-width:2.66064;stroke-miterlimit:4;stroke-dasharray:none"
       d=""
       id="path948" />
    <path
       style="fill:#ffffff;stroke-width:2.66064;stroke-miterlimit:4;stroke-dasharray:none"
       d=""
       id="path952" />
    <g
       id="g2158"
       transform="translate(-1199.5854,6.1345496)">
      <g
         id="g2117"
         transform="matrix(1.0390769,0,0,1.0390769,-726.90024,-243.86023)"
         style="fill:#ffffff">
        <path
           style="fill:#ffffff;stroke-width:2.56058"
           d="m 2438.6079,1482.1668 c -4.7491,-0.5803 -17.0869,-1.8578 -27.4174,-2.8391 -22.1898,-2.1077 -59.468,-9.1311 -87.9736,-16.5744 -73.4448,-19.1781 -146.6427,-54.4869 -214.964,-103.6932 -29.2163,-21.0421 -83.6991,-72.9246 -107.0898,-101.9785 -91.3492,-113.4666 -138.8985,-239.4009 -144.339,-382.2818 -0.991,-26.0238 0.9704,-63.8924 4.96,-95.7667 14.3672,-114.78439 59.9486,-221.99069 133.8106,-314.71903 17.1069,-21.47658 66.2658,-71.46476 87.5074,-88.98375 79.5848,-65.63735 172.2725,-110.27745 273.0837,-131.52211 23.6496,-4.98386 48.5089,-8.92463 66.9714,-10.6165 14.9543,-1.3704 105.434,-1.3704 120.3884,0 49.0314,4.49317 107.7682,18.05114 155.6733,35.93341 44.8944,16.75842 80.1027,34.18283 119.3159,59.0488 43.2404,27.41971 67.5458,47.20912 109.1725,88.88797 48.3333,48.39365 80.1173,91.79108 111.4536,152.17708 38.4978,74.18626 61.3093,151.62969 68.2706,231.77337 1.7367,19.99516 2.1606,78.84538 0.752,104.4014 -2.679,48.60214 -17.7455,116.21036 -37.96,170.33906 -10.8242,28.9844 -35.8984,80.5347 -52.6901,108.3263 -39.6719,65.6602 -104.1212,135.5232 -166.0298,179.9764 -51.4863,36.9695 -107.1331,65.5851 -169.1565,86.9863 -44.2739,15.2768 -102.0592,27.2322 -147.9725,30.6146 -19.0836,1.4059 -85.5382,1.76 -95.7667,0.5104 z m 115.391,-83.6615 c 25.6968,-3.458 39.3984,-6.227 70.7126,-14.2907 41.5987,-10.712 72.3255,-22.5726 111.4011,-43.001 108.3476,-56.6435 193.7009,-146.8711 244.8162,-258.7968 22.6828,-49.668 41.1192,-118.11496 44.9277,-166.79842 1.6589,-21.20696 1.1694,-110.10319 -0.7046,-127.95057 -3.9328,-37.45352 -21.5591,-103.00378 -38.1658,-141.93376 -12.9137,-30.27271 -34.4747,-70.9686 -46.2408,-87.27832 -2.4918,-3.45387 -7.1084,-10.1654 -10.2593,-14.91448 -30.856,-46.50653 -91.4296,-105.6716 -144.1351,-140.78336 -79.1085,-52.70115 -173.989,-84.89702 -264.1934,-89.64906 -74.0179,-3.89931 -129.5502,2.05358 -195.2876,20.93422 -109.3828,31.41619 -210.8882,102.55104 -282.1405,197.72361 -5.818,7.77123 -11.9472,16.35774 -13.6203,19.08111 -1.6731,2.72338 -6.5252,10.14137 -10.7824,16.48443 -9.6177,14.32983 -29.6536,52.87079 -39.9007,76.75277 -19.7165,45.9513 -37.7558,117.28289 -40.121,158.64758 -4.2191,73.78764 -1.868,116.37588 9.3605,169.55681 4.5185,21.40055 15.1445,57.58824 23.3375,79.47734 11.81,31.5525 34.0113,75.1439 53.1281,104.3149 59.823,91.2857 146.0888,162.715 248.674,205.9051 45.1078,18.9912 107.3024,34.3748 155.9531,38.5743 24.546,2.1188 101.794,0.8302 123.2407,-2.0557 z"
           id="path850" />
        <g
           id="g873"
           transform="translate(1117.0164,-43.173493)"
           style="fill:#ffffff">
          <path
             style="fill:#ffffff;stroke-width:2.56058"
             d="m 1287.0739,1217.6487 c -33.4332,-28.0866 -80.5771,-73.7289 -112.2667,-108.6904 -70.1145,-77.354 -111.8671,-145.29876 -128.6898,-209.41914 -6.6528,-25.3577 -8.4468,-43.1291 -7.4095,-73.40006 1.4084,-41.10191 8.7,-69.43456 27.7386,-107.7835 36.7945,-74.11424 106.2552,-126.149 187.7673,-140.66136 24.6937,-4.39644 66.3558,-4.71499 89.3781,-0.68338 78.1272,13.68142 146.0701,61.69127 185.1295,130.81617 15.6766,27.7435 27.4709,62.73816 30.7298,91.17821 1.954,17.05136 2.0709,60.30411 0.1611,59.59884 -1.6547,-0.61108 -40.135,-35.34745 -45.1843,-40.7882 -2.3822,-2.56685 -4.4463,-8.72217 -6.7665,-20.17802 -9.4153,-46.48912 -29.5584,-83.52386 -62.3974,-114.72303 -29.1452,-27.68982 -68.1377,-47.87416 -106.5013,-55.13006 -14.6502,-2.77086 -65.883,-2.7158 -78.378,0.0842 -42.2698,9.47236 -76.4395,27.5237 -105.7526,55.86749 -30.6556,29.64196 -48.7358,60.43549 -59.4236,101.20821 -5.3603,20.44892 -6.9191,67.30897 -2.9416,88.42893 13.5495,71.94512 80.6899,169.8565 180.2849,262.9108 l 27.8665,26.0365 -0.2065,14.2941 c -0.1137,7.8618 -0.6435,22.3879 -1.1775,32.2801 l -0.9709,17.9858 z"
             id="path891" />
          <path
             style="fill:#ffffff;stroke-width:2.56058"
             d="m 1287.0739,1217.649 c -33.4372,-28.0908 -80.5779,-73.73 -112.2667,-108.6907 -81.0082,-89.3726 -124.7032,-167.13312 -135.1182,-240.45931 -2.7123,-19.09619 -1.0085,-64.31167 3.154,-83.69875 23.0951,-107.56636 105.4355,-188.24536 211.3708,-207.106 24.6937,-4.39644 66.3558,-4.71499 89.3781,-0.68338 78.4954,13.7459 145.886,61.36546 185.1295,130.81617 15.3929,27.24135 27.1178,61.68065 30.6851,90.13027 2.0051,15.99101 2.1591,61.36812 0.2058,60.64678 -1.6567,-0.6118 -40.1085,-35.32411 -45.2578,-40.85638 -2.4824,-2.667 -4.4531,-8.53932 -6.7718,-20.17803 -9.1559,-45.95892 -29.5667,-83.62005 -61.9121,-114.23773 -29.3562,-27.7881 -69.0226,-48.36275 -107.183,-55.59509 -14.218,-2.69467 -65.6659,-2.58887 -78.1028,0.1606 -82.3068,18.19583 -144.2062,77.0489 -165.1762,157.04726 -5.4144,20.65525 -6.9697,67.91472 -2.9017,88.1729 15.2818,76.10167 79.8932,169.15659 187.3097,269.76789 l 20.8018,19.484 -0.1997,15.0548 c -0.1099,8.2802 -0.6397,22.7954 -1.1775,32.256 l -0.9777,17.2011 z"
             id="path897" />
          <path
             style="fill:#ffffff;stroke-width:2.56058"
             d="m 1275.2993,941.1828 c -4.7491,-1.23936 -15.3071,-5.53073 -23.4623,-9.53637 -12.2163,-6.00042 -17.2271,-9.66341 -28.4531,-20.8 -11.1374,-11.04872 -14.7966,-15.95383 -20.0386,-26.86156 -8.1385,-16.93483 -11.2007,-30.03029 -11.2299,-48.02469 -0.047,-29.1536 10.9462,-55.73694 31.4893,-76.14341 6.5982,-6.55434 16.1668,-14.45017 21.2636,-17.54629 21.8231,-13.25684 50.212,-18.14963 76.0146,-13.10102 38.1647,7.46743 70.6098,36.54793 82.5207,73.96321 16.3027,51.21145 -8.345,106.86134 -57.7137,130.30641 -20.1197,9.5548 -50.6012,12.9081 -70.3906,7.74372 z m 49.0365,-53.64649 c 9.9721,-4.49895 22.4266,-17.2716 27.5954,-28.30039 3.6987,-7.89205 4.2203,-10.94504 4.2203,-24.70433 0,-14.50634 -0.358,-16.34612 -4.7099,-24.20839 -6.0071,-10.85265 -16.2412,-21.08742 -26.4942,-26.49608 -7.3302,-3.86681 -9.5781,-4.24363 -25.314,-4.24363 -15.1029,0 -18.1344,0.46142 -24.1646,3.67804 -10.4074,5.55146 -21.5978,16.86601 -26.447,26.74038 -3.9373,8.01748 -4.3365,10.41969 -4.3365,26.09962 0,15.67356 0.3864,18.00141 4.1812,25.19079 5.6766,10.75429 15.3223,20.02234 26.9495,25.8943 9.272,4.6825 10.362,4.86703 25.3874,4.29783 11.7058,-0.44343 17.5903,-1.44778 23.1324,-3.94814 z"
             id="path899" />
          <path
             style="fill:#ffffff;stroke-width:2.56058"
             d="m 1398.9886,1226.2043 c -21.527,-3.6791 -44.3475,-24.9634 -50.4668,-47.0696 -1.7493,-6.3194 -2.6813,-21.1917 -3.4755,-55.4634 l -1.0853,-46.8287 -6.6331,6.5099 -6.6332,6.51 -13.4393,-14.6294 c -7.3916,-8.0461 -14.9067,-16.5025 -16.7003,-18.792 l -3.2611,-4.1626 11.3744,-10.906 c 13.9891,-13.413 73.5699,-67.99412 132.2601,-121.16139 24.1772,-21.90202 46.227,-41.95061 48.9996,-44.5524 l 5.041,-4.73055 13.7983,12.39575 c 65.1251,58.50531 169.8983,154.61639 179.1771,164.36359 l 5.2444,5.5092 -11.5242,13.0014 c -6.3382,7.1508 -13.6446,15.4193 -16.2363,18.3744 l -4.7122,5.373 -7.4548,-6.5621 -7.4549,-6.562 -0.1412,21.7201 c -0.078,11.9461 -0.6075,34.8071 -1.1775,50.8023 -1.0234,28.7207 -1.0999,29.2112 -6.1567,39.478 -6.2145,12.6175 -20.71,26.8261 -34.2391,33.5618 l -9.3088,4.6344 -94.1967,0.2256 c -51.8082,0.124 -97.5273,-0.3436 -101.5979,-1.0393 z m 182.949,-51.284 c 11.4529,-1.7786 11.226,-0.2742 11.6657,-77.3513 l 0.39,-68.3641 -48.0508,-43.76881 c -26.4279,-24.07281 -49.0323,-43.85412 -50.2318,-43.95847 -1.1995,-0.10436 -24.0991,19.59159 -50.8878,43.76875 l -48.7069,43.95853 0.4709,68.2926 c 0.2589,37.5609 1.064,69.5486 1.7891,71.0836 2.5802,5.4623 7.6922,6.5333 36.2727,7.5991 30.8502,1.1505 137.651,0.237 147.2889,-1.2599 z"
             id="path901" />
          <path
             style="fill:#ffffff;stroke-width:2.56058"
             d="m 1457.413,1086.5079 v -39.2487 h 38.4636 38.4637 v 39.2487 39.2486 h -38.4637 -38.4636 z"
             id="path903" />
        </g>
      </g>
    </g>
  </g>
</svg>
