<?xml version="1.0" encoding="UTF-8" standalone="no"?>
<svg
   xmlns:dc="http://purl.org/dc/elements/1.1/"
   xmlns:cc="http://creativecommons.org/ns#"
   xmlns:rdf="http://www.w3.org/1999/02/22-rdf-syntax-ns#"
   xmlns:svg="http://www.w3.org/2000/svg"
   xmlns="http://www.w3.org/2000/svg"
   xmlns:sodipodi="http://sodipodi.sourceforge.net/DTD/sodipodi-0.dtd"
   xmlns:inkscape="http://www.inkscape.org/namespaces/inkscape"
   version="1.1"
   id="svg10"
   width="1306.6667"
   height="1306.6667"
   viewBox="0 0 1306.6667 1306.6667"
   sodipodi:docname="cooperate.svg"
   inkscape:version="1.0.1 (3bc2e813f5, 2020-09-07)">
  <metadata
     id="metadata16">
    <rdf:RDF>
      <cc:Work
         rdf:about="">
        <dc:format>image/svg+xml</dc:format>
        <dc:type
           rdf:resource="http://purl.org/dc/dcmitype/StillImage" />
      </cc:Work>
    </rdf:RDF>
  </metadata>
  <defs
     id="defs14" />
  <sodipodi:namedview
     pagecolor="#ffffff"
     bordercolor="#666666"
     borderopacity="1"
     objecttolerance="10"
     gridtolerance="10"
     guidetolerance="10"
     inkscape:pageopacity="0"
     inkscape:pageshadow="2"
     inkscape:window-width="1677"
     inkscape:window-height="1030"
     id="namedview12"
     showgrid="false"
     inkscape:zoom="0.61301017"
     inkscape:cx="45.676239"
     inkscape:cy="504.88559"
     inkscape:window-x="192"
     inkscape:window-y="0"
     inkscape:window-maximized="0"
     inkscape:current-layer="g18"
     inkscape:document-rotation="0" />
  <g
     inkscape:groupmode="layer"
     inkscape:label="Image"
     id="g18">
    <path
       style="display:inline;fill:#ff0000;stroke:#ff0000;stroke-width:1.63129;stroke-opacity:1"
       d="m 636.20478,1304.6447 c -26.53096,-0.7476 -61.28123,-3.5056 -78.30212,-6.2145 -19.81145,-3.1531 -58.71867,-11.1898 -71.77695,-14.8265 -27.00641,-7.521 -38.6375,-11.2916 -63.62048,-20.6244 -19.64938,-7.3404 -63.78428,-27.5844 -80.54195,-36.9434 -9.75541,-5.4483 -18.06281,-9.906 -18.4609,-9.906 -0.39808,0 -3.12986,-1.8352 -6.07063,-4.0782 -2.94077,-2.2431 -5.82098,-4.0783 -6.4005,-4.0783 -0.5795,0 -5.87869,-3.3033 -11.776,-7.3408 -5.89731,-4.0374 -11.04972,-7.3408 -11.44979,-7.3408 -0.40008,0 -6.98108,-4.7715 -14.62446,-10.6034 -7.64336,-5.8319 -14.30934,-10.6034 -14.81328,-10.6034 -0.50392,0 -2.86904,-1.781 -5.25578,-3.9578 -2.38675,-2.1767 -9.11109,-7.7253 -14.94297,-12.33 -12.31785,-9.7261 -42.31378,-37.4967 -54.43482,-50.3966 -4.60352,-4.8993 -9.7711,-10.3681 -11.48353,-12.1528 -30.60226,-31.8947 -73.523655,-93.0685 -96.285131,-137.23057 -3.721764,-7.22101 -7.539126,-14.59728 -8.483024,-16.3917 -0.943898,-1.79443 -3.268796,-6.76609 -5.16644,-11.04816 -1.897644,-4.28205 -4.901168,-10.88879 -6.674499,-14.68165 -1.773333,-3.79284 -5.154536,-12.03466 -7.513787,-18.31514 -2.359252,-6.28048 -6.010863,-15.82355 -8.114695,-21.20683 -3.87128,-9.9058 -13.969706,-41.85062 -17.01765,-53.83271 -28.8860444,-113.55691 -28.8860444,-220.85842 0,-334.41533 3.418002,-13.43686 13.307206,-44.37935 17.108933,-53.53241 2.167341,-5.21812 3.965528,-10.3567 3.995971,-11.41906 0.03045,-1.06238 1.473702,-4.86793 3.207237,-8.45678 1.733536,-3.58885 3.176793,-7.18591 3.207237,-7.99349 0.03044,-0.80755 2.012611,-5.57909 4.404816,-10.60341 2.392205,-5.0243 5.811343,-12.43847 7.598082,-16.47593 1.786738,-4.03745 4.020897,-8.80898 4.964795,-10.60341 0.943898,-1.79442 4.778744,-9.13525 8.521881,-16.31294 18.018853,-34.55227 42.464264,-72.17295 65.719564,-101.14025 12.56048,-15.6456 25.81816,-31.36958 30.34462,-35.98958 1.81258,-1.85004 7.0521,-7.35565 11.64338,-12.23471 15.01951,-15.96093 47.33364,-45.50623 61.79788,-56.50273 4.48606,-3.41055 8.74351,-7.1186 9.46101,-8.24011 0.71749,-1.12152 1.98146,-2.03912 2.80884,-2.03912 0.82738,0 7.758,-4.77153 15.40136,-10.60341 7.64338,-5.83188 14.22438,-10.60341 14.62446,-10.60341 0.40007,0 5.55248,-3.30338 11.44979,-7.34083 5.89731,-4.03745 11.1965,-7.340824 11.776,-7.340824 0.57952,0 3.45973,-1.835206 6.4005,-4.078236 2.94077,-2.243029 5.67255,-4.078235 6.07063,-4.078235 0.39809,0 8.70549,-4.457695 18.4609,-9.905988 39.96039,-22.317444 91.5263,-42.909068 144.16243,-57.567844 13.35906,-3.720402 52.25313,-11.737216 72.03164,-14.8471073 50.629,-7.96069264 139.55468,-7.96586874 190.35205,-0.01108 66.90406,10.4770703 122.97222,27.4347433 181.01541,54.7476463 7.45417,3.507651 13.87628,6.377546 14.27133,6.377546 0.39505,0 9.24543,4.771536 19.66747,10.603414 10.42205,5.831877 19.28115,10.603413 19.68687,10.603413 0.40572,0 3.14375,1.835206 6.08452,4.078235 2.94076,2.24303 5.82098,4.078236 6.4005,4.078236 0.5795,0 5.8787,3.303374 11.776,7.340824 5.8973,4.03745 11.0497,7.34083 11.4498,7.34083 0.4001,0 6.9811,4.77153 14.6244,10.60341 7.6434,5.83188 14.3235,10.60341 14.8447,10.60341 0.5212,0 2.5193,1.43496 4.4402,3.18879 1.9208,1.75384 8.631,7.33218 14.9115,12.39632 13.5565,10.93096 43.5629,38.71779 55.2865,51.19685 4.5837,4.87906 9.817,10.38467 11.6296,12.23471 10.0687,10.27676 37.559,44.45176 50.5627,62.8578 20.787,29.42292 34.0551,51.77012 50.8768,85.69109 15.7297,31.71892 17.3856,35.32036 22.5013,48.93883 2.3593,6.28048 6.0109,15.82355 8.1147,21.20682 3.8713,9.90581 13.9697,41.85063 17.0177,53.83272 16.3376,64.22647 22.2359,114.57263 20.9338,178.68234 -0.4459,21.9511 -1.6698,47.986 -2.7199,57.85533 -5.1388,48.29793 -19.7759,111.19524 -35.3051,151.71037 -2.0634,5.38328 -5.6819,14.92635 -8.0412,21.20683 -5.0085,13.33289 -6.5386,16.66592 -22.0922,48.12318 -21.0079,42.48845 -41.8262,75.62264 -69.6965,110.92804 -11.3484,14.3759 -26.923,32.9762 -32.3342,38.616 -1.7124,1.7847 -6.8614,7.2232 -11.4421,12.0856 -12.2226,12.9741 -42.2774,40.8095 -54.4762,50.4534 -5.8319,4.6105 -12.5562,10.1637 -14.943,12.3404 -2.3867,2.1768 -4.7519,3.9578 -5.2558,3.9578 -0.5039,0 -7.1699,4.7715 -14.8133,10.6034 -7.6433,5.8319 -14.2243,10.6034 -14.6244,10.6034 -0.4001,0 -5.5525,3.3034 -11.4498,7.3408 -5.8973,4.0375 -11.1965,7.3408 -11.776,7.3408 -0.57952,0 -3.45974,1.8352 -6.4005,4.0783 -2.94077,2.243 -5.67255,4.0782 -6.07064,4.0782 -0.39808,0 -8.70548,4.4577 -18.4609,9.906 -39.96038,22.3174 -91.52629,42.9091 -144.16242,57.5678 -13.08128,3.6431 -51.99096,11.6781 -71.77695,14.8224 -25.84538,4.1071 -80.44494,7.1236 -112.55931,6.2186 z m 73.79208,-87.7304 c 30.4375,-2.8429 53.13404,-6.8845 84.44347,-15.0371 33.64669,-8.7611 46.84024,-12.8846 63.62048,-19.8836 4.03745,-1.684 12.11236,-5.0394 17.94424,-7.4565 40.95325,-16.9734 87.13487,-44.1954 125.60965,-74.0412 30.5764,-23.7188 60.8533,-52.9252 85.5945,-82.5682 15.967,-19.13045 36.7526,-47.14889 36.7526,-49.54161 0,-0.7946 1.1548,-2.4031 2.5662,-3.57446 1.4114,-1.17135 4.0101,-4.74812 5.7748,-7.94838 1.7648,-3.20027 6.1279,-10.5902 9.6958,-16.42208 12.3126,-20.12549 33.6991,-64.37244 40.6066,-84.01165 13.361,-37.98828 18.3854,-55.29215 25.1041,-86.4586 8.9573,-41.55059 10.0519,-54.25161 10.0519,-116.63755 0,-62.38593 -1.0946,-75.08696 -10.0519,-116.63754 -6.7187,-31.16645 -11.7431,-48.47032 -25.1041,-86.4586 -6.8672,-19.5247 -28.1794,-63.6519 -40.5753,-84.01166 -3.5507,-5.83187 -8.4512,-14.0903 -10.8899,-18.35206 -2.4388,-4.26175 -5.0516,-7.74864 -5.8062,-7.74864 -0.7546,0 -1.372,-0.74001 -1.372,-1.64446 0,-2.56662 -20.2246,-29.93877 -36.7526,-49.74132 -16.5339,-19.8096 -33.6509,-37.52967 -54.6502,-56.57547 -12.4616,-11.30237 -17.9538,-15.91575 -30.9443,-25.99278 -38.47478,-29.84579 -84.6564,-57.06775 -125.60965,-74.04119 -5.83188,-2.41707 -13.90679,-5.7725 -17.94424,-7.45651 -23.48204,-9.79431 -69.90483,-22.73387 -104.40284,-29.10051 -59.3739,-10.957518 -141.92436,-10.93813 -200.6492,0.04713 -35.8372,6.70382 -80.85361,19.23106 -104.40283,29.05338 -4.03746,1.68401 -12.11236,5.03944 -17.94424,7.45652 -39.41282,16.33498 -91.90694,47.1242 -123.16272,72.23829 -0.89721,0.7209 -5.66875,4.48516 -10.60341,8.365 -24.59137,19.33475 -55.26987,49.44598 -77.43803,76.00614 -16.528,19.80255 -36.75258,47.1747 -36.75258,49.74132 0,0.90445 -0.59891,1.64446 -1.3309,1.64446 -0.732,0 -3.04596,3.11985 -5.14214,6.933 -2.09616,3.81315 -4.6171,7.94631 -5.60209,9.18479 -8.3703,10.52459 -38.84464,72.03482 -46.56823,93.99457 -18.05151,51.32422 -26.661129,85.43459 -32.605157,129.17806 -4.859214,35.76005 -4.859214,112.07611 0,147.83617 5.944028,43.74347 14.553647,77.85383 32.605157,129.17806 7.58024,21.5522 38.35328,83.66531 46.56823,93.99457 0.98499,1.23848 3.50593,5.37164 5.60209,9.18479 2.09618,3.81315 4.41014,6.933 5.14214,6.933 0.73199,0 1.3309,0.74532 1.3309,1.65627 0,4.94542 42.27211,57.87455 63.16783,79.09285 16.53382,16.789 37.93224,36.3505 51.02278,46.6428 4.93466,3.8798 9.7062,7.6441 10.60341,8.365 31.25578,25.1141 83.7499,55.9033 123.16272,72.2383 5.83188,2.4171 13.90678,5.7725 17.94424,7.4565 35.96377,15.0004 100.79506,30.5503 145.18519,34.8229 31.14355,2.9977 84.67644,3.0427 116.20573,0.098 z"
       id="path22" />
    <g
       id="g14"
       transform="matrix(0.73713358,0,0,0.73713358,171.58859,171.44545)">
      <path
         style="fill:#ff0000;stroke-width:1.63129"
         d="m 256.11321,658.60201 c -54.35311,-28.30522 -52.74519,-27.05984 -52.74519,-40.85224 0,-7.97846 1.16206,-12.08321 6.60892,-23.34482 7.76861,-16.06187 20.82136,-43.53735 27.80332,-58.52477 2.71681,-5.83187 8.76163,-18.67832 13.43293,-28.54765 10.50929,-22.20356 18.80963,-39.89151 23.73081,-50.57012 2.06737,-4.48606 8.21926,-17.53489 13.67086,-28.99739 5.4516,-11.46251 9.912,-21.12949 9.912,-21.48218 0,-0.35269 3.30337,-7.61613 7.34082,-16.14096 4.03746,-8.52484 7.34083,-15.88923 7.34083,-16.3653 0,-0.47608 3.20358,-7.69191 7.11907,-16.03519 3.91548,-8.34327 8.5035,-18.69805 10.19558,-23.01061 1.69209,-4.31257 5.01573,-10.18523 7.38585,-13.05036 3.82884,-4.62848 5.19301,-5.18685 12.23471,-5.00777 6.57238,0.16714 12.93822,2.77088 37.28868,15.25171 16.14981,8.27758 31.01498,16.78031 33.03371,18.89496 3.01656,3.15989 3.67041,5.68826 3.67041,14.19315 0,5.69159 -0.68653,11.04573 -1.5256,11.89808 -0.83909,0.85235 -6.77889,13.29505 -13.19959,27.65044 -6.42067,14.35539 -14.83215,32.70745 -18.69217,40.78236 -3.86001,8.07491 -10.47486,22.38951 -14.69967,31.81024 -11.45446,25.54187 -23.4096,51.44665 -27.8597,60.36728 -1.12152,2.24819 -4.94929,10.69014 -8.50616,18.75989 -3.55687,8.06973 -8.84422,19.81083 -11.74967,26.09131 -4.74179,10.24995 -8.35014,18.08869 -18.02211,39.15106 -17.88058,38.93807 -20.73024,42.84339 -32.37971,44.37483 -4.7692,0.62696 -8.84409,-0.76302 -21.38893,-7.29595 z"
         id="path24" />
      <path
         style="fill:#ff0000;stroke-width:1.63129"
         d="m 1021.1902,662.39402 c -5.3244,-2.90855 -9.7498,-9.08197 -15.85,-22.111 -2.7305,-5.83188 -8.3562,-17.79677 -12.50151,-26.58865 -4.14531,-8.79187 -7.53692,-16.27346 -7.53692,-16.62574 0,-0.35229 -4.11298,-9.30875 -9.13996,-19.90324 -5.02697,-10.59451 -11.65119,-24.76835 -14.72049,-31.49744 -3.06929,-6.72909 -6.99332,-15.17104 -8.72006,-18.75989 -1.72674,-3.58884 -5.81153,-12.39783 -9.07731,-19.57553 -13.07494,-28.73678 -51.22486,-109.14312 -54.95332,-115.82189 -11.77103,-21.08539 -13.8141,-30.56274 -8.22106,-38.13571 1.74568,-2.36365 11.49079,-8.53984 21.77778,-13.80217 10.24006,-5.23832 24.12285,-12.39563 30.85065,-15.90512 24.12749,-12.58588 29.99921,-9.17978 47.59057,27.60666 6.29213,13.15787 15.12115,31.63126 19.62003,41.05198 4.4989,9.42073 11.686,24.46942 15.9714,33.44154 11.2448,23.54296 23.1142,48.5032 30.6414,64.43612 13.1662,27.86903 23.755,50.15974 32.1591,67.69872 25.6326,53.49423 26.1768,54.97975 23.6369,64.51382 -2.3604,8.86046 -8.4069,13.3179 -35.8509,26.42915 -37.6039,17.96507 -37.5955,17.96259 -45.6763,13.54839 z"
         id="path26" />
      <path
         style="fill:#ff0000;stroke-width:1.63129"
         d="m 597.78446,989.26991 c -8.60448,-2.50097 -19.92132,-14.405 -23.57379,-24.79697 -4.04975,-11.52225 -4.04933,-13.70438 0.005,-25.23945 1.79442,-5.10546 3.26259,-9.55082 3.26259,-9.87858 0,-0.32774 -5.38452,4.78539 -11.96558,11.36252 -22.39983,22.38647 -41.01885,23.4167 -61.55378,3.40587 -6.37661,-6.21388 -8.44269,-9.63385 -10.36771,-17.16166 -2.19923,-8.6001 -2.14858,-10.37457 0.59439,-20.82233 1.64917,-6.28157 3.91835,-12.5294 5.04264,-13.88407 4.23906,-5.10777 -0.0219,-3.98823 -8.1048,2.12947 -10.25958,7.76519 -24.27677,12.52402 -32.40057,10.99998 -13.5417,-2.54043 -27.91064,-12.69576 -34.17586,-24.15395 -4.07021,-7.44386 -3.96249,-33.96647 0.16927,-41.67359 1.60792,-2.99931 2.52099,-5.8558 2.02905,-6.34774 -0.49194,-0.49195 -4.76705,1.99651 -9.50023,5.52991 -11.56393,8.63268 -19.48334,11.98067 -28.33932,11.98067 -15.56013,0 -35.41424,-14.63232 -40.47282,-29.82814 -4.35809,-13.09158 -2.84591,-31.00761 3.35542,-39.75446 1.66004,-2.34145 3.75234,-5.44474 4.64955,-6.89618 0.89721,-1.45145 4.75114,-6.82863 8.56429,-11.94928 3.81315,-5.12067 6.933,-9.70048 6.933,-10.17737 0,-0.47691 3.35082,-5.27313 7.44625,-10.65828 7.33974,-9.65111 7.52654,-10.69442 2.91406,-16.27529 -4.3407,-5.25202 -22.091,-28.98885 -28.15912,-37.65616 -3.48014,-4.9708 -7.50584,-10.01574 -8.94601,-11.21097 -1.44016,-1.19524 -2.61847,-2.95356 -2.61847,-3.90738 0,-0.95383 -1.57954,-3.41558 -3.51009,-5.47056 l -3.51009,-3.73631 3.43561,-6.97224 c 1.88959,-3.83473 5.59748,-11.52963 8.23977,-17.09978 l 4.80416,-10.12755 10.35979,13.85985 c 5.69789,7.62293 11.49757,15.24316 12.88819,16.93385 1.39061,1.69069 5.77734,7.5355 9.74829,12.98846 3.97094,5.45296 7.78822,9.91447 8.48284,9.91447 0.69462,0 1.26294,0.73311 1.26294,1.62911 0,0.896 3.36403,5.96101 7.47563,11.25556 l 7.47562,9.62646 12.89008,-0.88351 c 14.34791,-0.98343 23.96725,1.60789 32.44283,8.73961 10.74395,9.04044 17.70889,29.12825 15.54773,44.84172 -1.00715,7.32288 -0.70425,8.52005 3.12442,12.34874 2.33184,2.33183 4.2397,4.90693 4.2397,5.72246 0,0.81552 2.57853,0.99902 5.73006,0.40779 3.15153,-0.59123 9.75935,-0.57154 14.68404,0.0437 17.90599,2.23726 35.04991,22.11587 35.04991,40.64088 0,5.04975 0.70854,9.18136 1.57453,9.18136 0.866,0 4.08275,2.20225 7.14836,4.89388 5.11245,4.48879 6.56875,4.89439 17.59318,4.89999 9.33354,0.005 13.29518,0.77584 17.72888,3.45081 6.43397,3.88179 14.56782,11.33655 14.63633,13.41437 0.025,0.7557 1.4465,3.15532 3.15907,5.33248 1.71255,2.17717 3.63137,7.72218 4.26405,12.32227 1.14193,8.30275 6.71637,15.86427 11.78991,15.99254 1.12151,0.0284 2.03911,0.68808 2.03911,1.46606 0,2.34639 11.69092,9.30866 20.5647,12.24685 8.69058,2.87754 14.20345,7.52982 16.01491,13.51486 0.92065,3.04189 7.66651,9.2381 22.36114,20.53914 2.73056,2.09997 6.76317,2.85477 15.25195,2.85477 13.3796,0 17.25448,-2.01188 22.07551,-11.46187 3.27318,-6.41598 4.40282,-16.27014 1.86513,-16.27014 -0.75658,0 -3.87643,-2.15721 -6.93301,-4.7938 -4.21262,-3.63381 -37.06206,-29.71132 -56.1275,-44.55677 -0.89721,-0.69861 -3.55462,-2.9105 -5.90535,-4.9153 -2.35074,-2.00479 -6.20468,-5.03254 -8.56429,-6.72834 -3.35928,-2.41421 -4.29024,-4.44961 -4.29024,-9.37994 0,-8.64527 4.41169,-12.82186 13.54361,-12.82186 5.86005,0 8.7544,1.30592 17.53641,7.91237 24.45708,18.39834 50.79381,37.76387 51.35809,37.76387 0.33415,0 7.18913,4.95506 15.23327,11.01124 8.04416,6.05618 16.3364,12.24905 18.42723,13.76191 2.09085,1.51288 8.9401,6.63385 15.22058,11.37997 11.1181,8.40187 11.70075,8.62802 22.10694,8.58063 11.99215,-0.0547 16.49612,-2.4329 22.78974,-12.0339 5.76752,-8.79845 6.08331,-17.92721 0.98089,-28.35617 -3.47392,-7.10042 -6.80921,-10.61005 -17.47312,-18.38648 -7.2488,-5.28603 -14.40299,-10.54206 -15.89817,-11.68007 -1.49517,-1.138 -11.36335,-8.66235 -21.92927,-16.72076 -10.56591,-8.05842 -19.92546,-14.65167 -20.79901,-14.65167 -0.87352,0 -1.58824,-0.57276 -1.58824,-1.27278 0,-0.70004 -4.10884,-4.18693 -9.13073,-7.74865 -5.02191,-3.56174 -9.97696,-7.22138 -11.01124,-8.13257 -1.03429,-0.9112 -10.12906,-7.82617 -20.21064,-15.36665 -15.51382,-11.60348 -18.48751,-14.54876 -19.35436,-19.16947 -2.82754,-15.07212 11.36797,-22.27074 24.33057,-12.33818 3.22002,2.46733 8.64306,6.46622 12.05119,8.88643 7.04311,5.00148 36.74957,26.92634 58.01992,42.8216 7.86695,5.87894 15.02425,10.68898 15.90512,10.68898 0.88087,0 1.60159,0.66667 1.60159,1.48151 0,0.81481 3.30206,3.56762 7.3379,6.11735 4.03586,2.54971 7.33923,5.18641 7.34083,5.85932 0.002,0.6729 0.8236,1.22347 1.82667,1.22347 1.00308,0 4.19047,2.01872 7.0831,4.48606 2.89262,2.46733 9.48413,7.42238 14.6478,11.01123 5.16365,3.58885 10.23469,7.28342 11.26896,8.21016 8.35437,7.48575 13.57576,9.68398 23.06047,9.7086 13.15472,0.0341 18.96407,-4.0646 23.71646,-16.73294 5.82396,-15.5249 2.65569,-25.35276 -11.70464,-36.30752 -5.25737,-4.01057 -10.47177,-8.03582 -11.58756,-8.94501 -3.87396,-3.15663 -18.84221,-14.67541 -22.65942,-17.4375 -2.11127,-1.5277 -15.584,-11.70826 -29.93939,-22.6235 -14.35539,-10.91521 -33.0745,-25.06934 -41.59801,-31.4536 -8.52351,-6.38427 -16.23138,-12.17557 -17.12859,-12.86959 -8.08769,-6.25608 -23.37251,-17.97649 -30.60833,-23.47053 -6.3452,-4.81778 -9.16078,-8.18092 -9.88641,-11.80903 -1.96485,-9.82428 3.00651,-16.52756 12.25731,-16.52756 7.07525,0 9.45314,1.316 28.69118,15.87855 7.42725,5.62219 14.21751,10.22216 15.08947,10.22216 0.87196,0 1.58697,0.55056 1.58893,1.22347 0.002,0.67291 3.28918,3.42572 7.30495,6.11735 4.01577,2.69164 7.31755,5.44445 7.33728,6.11736 0.0197,0.67291 0.85655,1.22347 1.85962,1.22347 1.00308,0 4.17643,2.01872 7.05192,4.48606 4.64064,3.98192 16.72161,13.00547 23.47824,17.53641 1.33794,0.89721 3.59816,2.61671 5.0227,3.82111 1.42455,1.20439 14.33541,10.8772 28.6908,21.49511 14.35539,10.61792 33.59391,24.89561 42.75226,31.7282 14.13097,10.54244 17.89501,12.57019 24.86605,13.3958 16.1717,1.9153 28.56045,-6.30366 34.35576,-22.79233 4.20704,-11.9698 4.07301,-18.06802 -0.61852,-28.14306 -3.63109,-7.79771 -8.86814,-13.11226 -41.66982,-42.28634 -3.06133,-2.72276 -7.53836,-6.7857 -9.94894,-9.02873 -4.69683,-4.37037 -11.62458,-10.68418 -35.94483,-32.75939 -8.4828,-7.69973 -20.17675,-18.34392 -25.98657,-23.65377 -5.80984,-5.30984 -13.07738,-11.85651 -16.15014,-14.54814 -3.07274,-2.69164 -7.94938,-7.09613 -10.83697,-9.78777 -14.24519,-13.27847 -20.95275,-19.40481 -37.48911,-34.24055 -9.86933,-8.85436 -19.11629,-17.25189 -20.54881,-18.66115 -1.43251,-1.40927 -7.56844,-6.9668 -13.63541,-12.35007 -6.06696,-5.38327 -14.805,-13.35337 -19.4179,-17.71133 C 686.25651,507.3494 676.09673,501.623 659.59673,501.623 c -12.00104,0 -26.92422,5.97716 -36.27602,14.52958 -10.18607,9.31538 -13.69816,15.63697 -16.37559,29.47524 -1.12409,5.80981 -3.44247,13.30492 -5.15195,16.65578 -1.70948,3.35087 -3.10816,6.81902 -3.10816,7.707 0,1.48079 -8.2189,14.50636 -12.18526,19.31155 -4.66586,5.65265 -10.36298,11.30978 -13.97024,13.8722 -29.18297,20.73012 -51.33957,26.0381 -72.00892,17.25097 -22.31957,-9.4887 -27.3344,-21.87153 -17.57252,-43.39078 6.86407,-15.13125 11.18598,-35.96749 12.35516,-59.56515 0.74192,-14.9744 2.00599,-22.96431 5.08788,-32.15933 4.10865,-12.25847 11.23543,-27.83309 13.43632,-29.3633 1.64433,-1.14324 4.92416,-7.59115 4.92416,-9.68052 0,-1.18763 -13.96885,-1.73854 -44.08255,-1.73854 h -44.08255 l 2.31554,-3.67041 c 1.27355,-2.01873 5.46965,-10.82772 9.32467,-19.57553 l 7.00912,-15.90512 h 68.06072 68.06072 l 11.96559,-6.32416 c 14.71821,-7.77901 29.2585,-13.63914 47.06876,-18.96999 11.54143,-3.4545 16.81641,-4.06191 34.92213,-4.02123 23.21603,0.0522 56.27401,5.06393 72.71294,11.02365 28.46165,10.3184 59.35789,17.08766 82.96368,18.17705 l 20.15887,0.93032 3.07859,5.70954 c 1.69324,3.14024 5.73061,11.58218 8.97194,18.75988 9.71571,21.5147 16.82056,36.91519 22.18189,48.08152 2.78907,5.80897 6.85936,14.61796 9.04508,19.57554 2.18572,4.95757 6.39582,14.15235 9.35577,20.43283 5.33575,11.32151 10.69021,22.90307 21.49444,46.49189 3.08207,6.72909 7.88574,16.9875 10.67483,22.79646 2.78907,5.80897 6.85117,14.61796 9.02688,19.57553 2.17569,4.95758 6.39582,14.15236 9.37802,20.43284 18.60279,39.1771 18.41907,38.6859 16.13334,43.13516 -1.17892,2.29481 -4.07247,8.94391 -6.43009,14.77579 -2.35763,5.83188 -5.7855,14.04252 -7.6175,18.24586 l -3.33087,7.64245 5.98861,9.02224 c 6.26024,9.43146 11.39255,23.23261 13.25283,35.63777 1.94209,12.9508 -6.88114,38.67108 -17.09577,49.83523 -9.70194,10.60382 -20.99152,15.8492 -44.50893,20.67976 -4.21199,0.86515 -4.48606,1.44834 -4.48606,9.54574 0,4.74337 -1.54696,13.20507 -3.43766,18.80379 -2.76467,8.1866 -5.4786,12.20041 -13.86251,20.50223 -8.79062,8.70454 -12.21205,10.89742 -21.82582,13.98866 -8.32045,2.67537 -14.00328,3.47768 -21.03199,2.96927 l -9.63101,-0.69665 -0.93951,6.85452 c -2.30574,16.82219 -14.50642,34.34602 -29.77161,42.76104 -7.27996,4.01311 -9.48542,4.39255 -25.10955,4.32001 -16.04602,-0.0746 -17.82733,-0.42394 -28.18392,-5.52883 -6.08044,-2.99713 -11.44587,-6.08119 -11.92317,-6.85348 -1.92866,-3.12065 -5.09691,-1.0514 -7.81179,5.102 -6.28345,14.24178 -23.7306,27.11673 -39.73145,29.31945 -12.85972,1.7703 -28.40514,-0.64516 -36.32387,-5.64403 -3.55548,-2.24448 -7.02967,-4.0413 -7.72041,-3.99294 -0.69073,0.0485 -4.29746,4.35582 -8.01494,9.57208 -13.49671,18.93823 -29.79208,26.27222 -47.15856,21.22448 z"
         id="path28" />
    </g>
  </g>
</svg>
