<?xml version="1.0" encoding="UTF-8" standalone="no"?>
<svg
   xmlns:dc="http://purl.org/dc/elements/1.1/"
   xmlns:cc="http://creativecommons.org/ns#"
   xmlns:rdf="http://www.w3.org/1999/02/22-rdf-syntax-ns#"
   xmlns:svg="http://www.w3.org/2000/svg"
   xmlns="http://www.w3.org/2000/svg"
   xmlns:sodipodi="http://sodipodi.sourceforge.net/DTD/sodipodi-0.dtd"
   xmlns:inkscape="http://www.inkscape.org/namespaces/inkscape"
   version="1.1"
   id="svg10"
   width="1306.6667"
   height="1306.6667"
   viewBox="0 0 1306.6667 1306.6667"
   sodipodi:docname="drive.svg"
   inkscape:version="1.0.1 (3bc2e813f5, 2020-09-07)">
  <metadata
     id="metadata16">
    <rdf:RDF>
      <cc:Work
         rdf:about="">
        <dc:format>image/svg+xml</dc:format>
        <dc:type
           rdf:resource="http://purl.org/dc/dcmitype/StillImage" />
        <dc:title />
      </cc:Work>
    </rdf:RDF>
  </metadata>
  <defs
     id="defs14" />
  <sodipodi:namedview
     pagecolor="#ffffff"
     bordercolor="#666666"
     borderopacity="1"
     objecttolerance="10"
     gridtolerance="10"
     guidetolerance="10"
     inkscape:pageopacity="0"
     inkscape:pageshadow="2"
     inkscape:window-width="1920"
     inkscape:window-height="1001"
     id="namedview12"
     showgrid="false"
     inkscape:zoom="0.61301017"
     inkscape:cx="22.022472"
     inkscape:cy="670.73384"
     inkscape:window-x="-9"
     inkscape:window-y="-9"
     inkscape:window-maximized="1"
     inkscape:current-layer="g18"
     inkscape:document-rotation="0" />
  <g
     inkscape:groupmode="layer"
     inkscape:label="Image"
     id="g18">
    <path
       style="display:inline;fill:#ff0000;stroke:#ff0000;stroke-width:1.63129;stroke-opacity:1"
       d="m 636.20478,1304.6447 c -26.53096,-0.7476 -61.28123,-3.5056 -78.30212,-6.2145 -19.81145,-3.1531 -58.71867,-11.1898 -71.77695,-14.8265 -27.00641,-7.521 -38.6375,-11.2916 -63.62048,-20.6244 -19.64938,-7.3404 -63.78428,-27.5844 -80.54195,-36.9434 -9.75541,-5.4483 -18.06281,-9.906 -18.4609,-9.906 -0.39808,0 -3.12986,-1.8352 -6.07063,-4.0782 -2.94077,-2.2431 -5.82098,-4.0783 -6.4005,-4.0783 -0.5795,0 -5.87869,-3.3033 -11.776,-7.3408 -5.89731,-4.0374 -11.04972,-7.3408 -11.44979,-7.3408 -0.40008,0 -6.98108,-4.7715 -14.62446,-10.6034 -7.64336,-5.8319 -14.30934,-10.6034 -14.81328,-10.6034 -0.50392,0 -2.86904,-1.781 -5.25578,-3.9578 -2.38675,-2.1767 -9.11109,-7.7253 -14.94297,-12.33 -12.31785,-9.7261 -42.31378,-37.4967 -54.43482,-50.3966 -4.60352,-4.8993 -9.7711,-10.3681 -11.48353,-12.1528 -30.60226,-31.8947 -73.523655,-93.0685 -96.285131,-137.23057 -3.721764,-7.22101 -7.539126,-14.59728 -8.483024,-16.3917 -0.943898,-1.79443 -3.268796,-6.76609 -5.16644,-11.04816 -1.897644,-4.28205 -4.901168,-10.88879 -6.674499,-14.68165 -1.773333,-3.79284 -5.154536,-12.03466 -7.513787,-18.31514 -2.359252,-6.28048 -6.010863,-15.82355 -8.114695,-21.20683 -3.87128,-9.9058 -13.969706,-41.85062 -17.01765,-53.83271 -28.8860444,-113.55691 -28.8860444,-220.85842 0,-334.41533 3.418002,-13.43686 13.307206,-44.37935 17.108933,-53.53241 2.167341,-5.21812 3.965528,-10.3567 3.995971,-11.41906 0.03045,-1.06238 1.473702,-4.86793 3.207237,-8.45678 1.733536,-3.58885 3.176793,-7.18591 3.207237,-7.99349 0.03044,-0.80755 2.012611,-5.57909 4.404816,-10.60341 2.392205,-5.0243 5.811343,-12.43847 7.598082,-16.47593 1.786738,-4.03745 4.020897,-8.80898 4.964795,-10.60341 0.943898,-1.79442 4.778744,-9.13525 8.521881,-16.31294 18.018853,-34.55227 42.464264,-72.17295 65.719564,-101.14025 12.56048,-15.6456 25.81816,-31.36958 30.34462,-35.98958 1.81258,-1.85004 7.0521,-7.35565 11.64338,-12.23471 15.01951,-15.96093 47.33364,-45.50623 61.79788,-56.50273 4.48606,-3.41055 8.74351,-7.1186 9.46101,-8.24011 0.71749,-1.12152 1.98146,-2.03912 2.80884,-2.03912 0.82738,0 7.758,-4.77153 15.40136,-10.60341 7.64338,-5.83188 14.22438,-10.60341 14.62446,-10.60341 0.40007,0 5.55248,-3.30338 11.44979,-7.34083 5.89731,-4.03745 11.1965,-7.340824 11.776,-7.340824 0.57952,0 3.45973,-1.835206 6.4005,-4.078236 2.94077,-2.243029 5.67255,-4.078235 6.07063,-4.078235 0.39809,0 8.70549,-4.457695 18.4609,-9.905988 39.96039,-22.317444 91.5263,-42.909068 144.16243,-57.567844 13.35906,-3.720402 52.25313,-11.737216 72.03164,-14.8471073 50.629,-7.96069264 139.55468,-7.96586874 190.35205,-0.01108 66.90406,10.4770703 122.97222,27.4347433 181.01541,54.7476463 7.45417,3.507651 13.87628,6.377546 14.27133,6.377546 0.39505,0 9.24543,4.771536 19.66747,10.603414 10.42205,5.831877 19.28115,10.603413 19.68687,10.603413 0.40572,0 3.14375,1.835206 6.08452,4.078235 2.94076,2.24303 5.82098,4.078236 6.4005,4.078236 0.5795,0 5.8787,3.303374 11.776,7.340824 5.8973,4.03745 11.0497,7.34083 11.4498,7.34083 0.4001,0 6.9811,4.77153 14.6244,10.60341 7.6434,5.83188 14.3235,10.60341 14.8447,10.60341 0.5212,0 2.5193,1.43496 4.4402,3.18879 1.9208,1.75384 8.631,7.33218 14.9115,12.39632 13.5565,10.93096 43.5629,38.71779 55.2865,51.19685 4.5837,4.87906 9.817,10.38467 11.6296,12.23471 10.0687,10.27676 37.559,44.45176 50.5627,62.8578 20.787,29.42292 34.0551,51.77012 50.8768,85.69109 15.7297,31.71892 17.3856,35.32036 22.5013,48.93883 2.3593,6.28048 6.0109,15.82355 8.1147,21.20682 3.8713,9.90581 13.9697,41.85063 17.0177,53.83272 16.3376,64.22647 22.2359,114.57263 20.9338,178.68234 -0.4459,21.9511 -1.6698,47.986 -2.7199,57.85533 -5.1388,48.29793 -19.7759,111.19524 -35.3051,151.71037 -2.0634,5.38328 -5.6819,14.92635 -8.0412,21.20683 -5.0085,13.33289 -6.5386,16.66592 -22.0922,48.12318 -21.0079,42.48845 -41.8262,75.62264 -69.6965,110.92804 -11.3484,14.3759 -26.923,32.9762 -32.3342,38.616 -1.7124,1.7847 -6.8614,7.2232 -11.4421,12.0856 -12.2226,12.9741 -42.2774,40.8095 -54.4762,50.4534 -5.8319,4.6105 -12.5562,10.1637 -14.943,12.3404 -2.3867,2.1768 -4.7519,3.9578 -5.2558,3.9578 -0.5039,0 -7.1699,4.7715 -14.8133,10.6034 -7.6433,5.8319 -14.2243,10.6034 -14.6244,10.6034 -0.4001,0 -5.5525,3.3034 -11.4498,7.3408 -5.8973,4.0375 -11.1965,7.3408 -11.776,7.3408 -0.57952,0 -3.45974,1.8352 -6.4005,4.0783 -2.94077,2.243 -5.67255,4.0782 -6.07064,4.0782 -0.39808,0 -8.70548,4.4577 -18.4609,9.906 -39.96038,22.3174 -91.52629,42.9091 -144.16242,57.5678 -13.08128,3.6431 -51.99096,11.6781 -71.77695,14.8224 -25.84538,4.1071 -80.44494,7.1236 -112.55931,6.2186 z m 73.79208,-87.7304 c 30.4375,-2.8429 53.13404,-6.8845 84.44347,-15.0371 33.64669,-8.7611 46.84024,-12.8846 63.62048,-19.8836 4.03745,-1.684 12.11236,-5.0394 17.94424,-7.4565 40.95325,-16.9734 87.13487,-44.1954 125.60965,-74.0412 30.5764,-23.7188 60.8533,-52.9252 85.5945,-82.5682 15.967,-19.13045 36.7526,-47.14889 36.7526,-49.54161 0,-0.7946 1.1548,-2.4031 2.5662,-3.57446 1.4114,-1.17135 4.0101,-4.74812 5.7748,-7.94838 1.7648,-3.20027 6.1279,-10.5902 9.6958,-16.42208 12.3126,-20.12549 33.6991,-64.37244 40.6066,-84.01165 13.361,-37.98828 18.3854,-55.29215 25.1041,-86.4586 8.9573,-41.55059 10.0519,-54.25161 10.0519,-116.63755 0,-62.38593 -1.0946,-75.08696 -10.0519,-116.63754 -6.7187,-31.16645 -11.7431,-48.47032 -25.1041,-86.4586 -6.8672,-19.5247 -28.1794,-63.6519 -40.5753,-84.01166 -3.5507,-5.83187 -8.4512,-14.0903 -10.8899,-18.35206 -2.4388,-4.26175 -5.0516,-7.74864 -5.8062,-7.74864 -0.7546,0 -1.372,-0.74001 -1.372,-1.64446 0,-2.56662 -20.2246,-29.93877 -36.7526,-49.74132 -16.5339,-19.8096 -33.6509,-37.52967 -54.6502,-56.57547 -12.4616,-11.30237 -17.9538,-15.91575 -30.9443,-25.99278 -38.47478,-29.84579 -84.6564,-57.06775 -125.60965,-74.04119 -5.83188,-2.41707 -13.90679,-5.7725 -17.94424,-7.45651 -23.48204,-9.79431 -69.90483,-22.73387 -104.40284,-29.10051 -59.3739,-10.957518 -141.92436,-10.93813 -200.6492,0.04713 -35.8372,6.70382 -80.85361,19.23106 -104.40283,29.05338 -4.03746,1.68401 -12.11236,5.03944 -17.94424,7.45652 -39.41282,16.33498 -91.90694,47.1242 -123.16272,72.23829 -0.89721,0.7209 -5.66875,4.48516 -10.60341,8.365 -24.59137,19.33475 -55.26987,49.44598 -77.43803,76.00614 -16.528,19.80255 -36.75258,47.1747 -36.75258,49.74132 0,0.90445 -0.59891,1.64446 -1.3309,1.64446 -0.732,0 -3.04596,3.11985 -5.14214,6.933 -2.09616,3.81315 -4.6171,7.94631 -5.60209,9.18479 -8.3703,10.52459 -38.84464,72.03482 -46.56823,93.99457 -18.05151,51.32422 -26.661129,85.43459 -32.605157,129.17806 -4.859214,35.76005 -4.859214,112.07611 0,147.83617 5.944028,43.74347 14.553647,77.85383 32.605157,129.17806 7.58024,21.5522 38.35328,83.66531 46.56823,93.99457 0.98499,1.23848 3.50593,5.37164 5.60209,9.18479 2.09618,3.81315 4.41014,6.933 5.14214,6.933 0.73199,0 1.3309,0.74532 1.3309,1.65627 0,4.94542 42.27211,57.87455 63.16783,79.09285 16.53382,16.789 37.93224,36.3505 51.02278,46.6428 4.93466,3.8798 9.7062,7.6441 10.60341,8.365 31.25578,25.1141 83.7499,55.9033 123.16272,72.2383 5.83188,2.4171 13.90678,5.7725 17.94424,7.4565 35.96377,15.0004 100.79506,30.5503 145.18519,34.8229 31.14355,2.9977 84.67644,3.0427 116.20573,0.098 z"
       id="path22" />
    <g
       id="g913"
       transform="matrix(2.1431052,0,0,2.1431052,-746.82877,-746.82877)">
      <g
         id="g14"
         transform="translate(1101.9393,196.57097)"
         style="fill:#ff0000">
        <path
           style="fill:#ff0000;stroke-width:1.00611"
           d="m -451.53012,612.4974 c -0.93301,-1.00845 -1.69639,-1.97608 -1.69639,-2.15031 0,-0.17421 -0.83148,-1.20387 -1.84774,-2.28812 -1.01627,-1.08425 -1.84904,-2.16085 -1.8506,-2.39244 -0.002,-0.2316 -0.55804,-0.59729 -1.2366,-0.81266 -0.67855,-0.21537 -1.23373,-0.78438 -1.23373,-1.26447 0,-0.4801 -1.24916,-2.17659 -2.7759,-3.76999 -1.52675,-1.5934 -2.77591,-3.06791 -2.77591,-3.27668 0,-0.20877 -1.04096,-1.55529 -2.31325,-2.99226 -1.27229,-1.43697 -2.93528,-3.36782 -3.69554,-4.29078 -0.76027,-0.92296 -1.96402,-2.37208 -2.67502,-3.22028 -0.71099,-0.84819 -2.0321,-2.48773 -2.93578,-3.64342 -3.34926,-4.28326 -4.73926,-5.9233 -5.19005,-6.12364 -0.25445,-0.1131 -0.46265,-0.49765 -0.46265,-0.85457 0,-0.35692 -0.64199,-1.24392 -1.42665,-1.97112 -0.78466,-0.7272 -1.95488,-2.21638 -2.60047,-3.30929 -0.64561,-1.09291 -1.36892,-1.98711 -1.60738,-1.98711 -0.23845,0 -1.06648,-1.04097 -1.84006,-2.31326 -0.77358,-1.27229 -1.90658,-2.76219 -2.51778,-3.31091 -0.6112,-0.54871 -1.11127,-1.2732 -1.11127,-1.60997 0,-0.33678 -0.69398,-1.13348 -1.54217,-1.77045 -0.84819,-0.63697 -1.54217,-1.44836 -1.54217,-1.8031 0,-0.66032 -1.69454,-2.99002 -4.16385,-5.72458 -0.76338,-0.84537 -1.38796,-1.78622 -1.38796,-2.09076 0,-0.30454 -0.69397,-1.30213 -1.54216,-2.21687 -0.8482,-0.91474 -1.54217,-1.87419 -1.54217,-2.13211 0,-0.25793 -0.48579,-0.9756 -1.07952,-1.59484 -2.02362,-2.11054 -3.85542,-4.69223 -3.85542,-5.43372 0,-0.407 -0.2082,-0.83252 -0.46265,-0.94562 -0.6868,-0.30524 -4.47229,-5.2937 -4.47229,-5.89351 0,-0.28428 -0.55518,-0.91701 -1.23374,-1.40609 -0.67855,-0.48907 -1.23373,-1.2245 -1.23373,-1.63428 0,-0.40979 -0.36252,-1.11188 -0.8056,-1.56021 -0.44308,-0.44833 -0.9965,-1.23153 -1.22981,-1.74045 -0.70082,-1.52866 -2.12068,-3.65385 -4.32741,-6.4771 -0.79557,-1.01784 -1.62381,-2.33639 -1.84055,-2.93012 -0.21673,-0.59374 -0.65027,-1.07952 -0.96341,-1.07952 -0.31315,0 -0.74353,-0.69398 -0.95642,-1.54217 -0.21288,-0.84819 -0.65936,-1.54217 -0.99217,-1.54217 -0.33281,0 -0.60511,-0.41639 -0.60511,-0.9253 0,-0.50892 -0.2776,-0.9253 -0.61687,-0.9253 -0.33928,0 -0.61687,-0.39656 -0.61687,-0.88124 0,-0.48469 -0.34699,-1.25978 -0.77108,-1.72244 -1.12562,-1.22796 -2.29676,-3.10077 -2.71155,-4.33608 -0.19935,-0.59374 -0.60768,-1.07952 -0.90739,-1.07952 -0.2997,0 -0.54492,-0.39656 -0.54492,-0.88124 0,-0.48468 -0.34766,-1.24806 -0.77257,-1.69638 -0.42492,-0.44834 -1.32081,-1.85611 -1.99088,-3.1284 -0.67007,-1.27229 -1.43278,-2.31326 -1.6949,-2.31326 -0.26212,0 -0.47659,-0.41221 -0.47659,-0.91603 0,-0.50382 -0.83277,-2.26946 -1.8506,-3.92365 -1.01783,-1.65419 -1.8506,-3.3239 -1.8506,-3.71047 0,-0.38657 -0.27759,-0.70286 -0.61687,-0.70286 -0.33928,0 -0.61687,-0.41638 -0.61687,-0.9253 0,-0.50892 -0.27759,-0.9253 -0.61687,-0.9253 -0.33927,0 -0.61686,-0.33038 -0.61686,-0.73418 0,-0.95277 -3.86748,-8.76408 -4.47229,-9.03289 -0.25446,-0.11309 -0.46265,-0.45818 -0.46265,-0.76685 0,-0.98249 -2.12365,-5.50464 -2.58504,-5.50464 -0.24387,0 -0.62566,-0.97156 -0.84843,-2.15903 -0.22278,-1.18747 -0.59425,-2.15904 -0.82551,-2.15904 -0.23126,0 -0.93943,-1.52674 -1.57371,-3.39277 -0.63428,-1.86602 -1.35027,-3.39277 -1.59108,-3.39277 -0.2408,0 -0.61538,-1.11036 -0.83239,-2.46747 -0.21701,-1.35711 -0.63737,-2.46747 -0.93413,-2.46747 -0.29676,0 -0.68983,-0.76337 -0.87348,-1.69639 -0.5675,-2.88304 -1.92265,-7.2323 -2.35451,-7.55662 -0.22589,-0.16964 -0.61013,-1.90825 -0.85386,-3.86358 -0.24373,-1.95532 -0.68829,-3.70664 -0.98791,-3.89182 -0.29963,-0.18518 -0.54477,-1.27549 -0.54477,-2.42291 0,-1.14743 -0.27759,-2.25779 -0.61687,-2.46747 -0.83831,-0.51811 -0.83831,-25.6 0,-25.6 0.33928,0 0.61687,-1.52675 0.61687,-3.39278 0,-1.86601 0.24172,-3.39276 0.53716,-3.39276 0.29544,0 0.72863,-1.94313 0.96265,-4.31807 0.23402,-2.37494 0.68628,-4.31807 1.00501,-4.31807 0.31873,0 0.57951,-0.54548 0.57951,-1.21218 0,-1.20075 1.40555,-5.97163 2.45977,-8.34927 0.30087,-0.67855 0.72805,-1.92771 0.9493,-2.7759 0.64566,-2.47518 1.78873,-4.93494 2.29333,-4.93494 0.25645,0 0.4757,-0.34699 0.48721,-0.77109 0.0115,-0.42409 0.55727,-1.88144 1.2128,-3.23855 0.65553,-1.35711 1.2013,-2.81446 1.21281,-3.23855 0.0115,-0.4241 0.29852,-0.77109 0.6378,-0.77109 0.33927,0 0.61686,-0.41638 0.61686,-0.9253 0,-0.50891 0.27759,-0.9253 0.61687,-0.9253 0.33928,0 0.61687,-0.32268 0.61687,-0.71708 0,-0.83104 3.75675,-6.89369 4.46114,-7.19939 0.26059,-0.11309 0.4738,-0.57904 0.4738,-1.03545 0,-0.45641 0.34699,-1.19665 0.77108,-1.64498 0.4241,-0.44833 2.00835,-2.48069 3.52056,-4.51635 2.86141,-3.85188 18.64364,-20.04081 19.55415,-20.05805 0.49487,-0.009 3.23698,-2.17654 6.20446,-4.90358 0.75124,-0.69038 1.63359,-1.25524 1.96075,-1.25524 0.32717,0 0.9659,-0.34699 1.41941,-0.77109 0.4535,-0.42409 1.86128,-1.30057 3.1284,-1.94774 1.26711,-0.64716 2.30384,-1.38847 2.30384,-1.64737 0,-0.25889 0.83277,-0.65362 1.8506,-0.87717 1.01783,-0.22356 1.8506,-0.662 1.8506,-0.97432 0,-0.31232 0.55518,-0.56785 1.23374,-0.56785 0.67855,0 1.23373,-0.25554 1.23373,-0.56786 0,-0.31232 0.83277,-0.75076 1.85061,-0.97431 1.01783,-0.22355 1.8506,-0.63994 1.8506,-0.9253 0,-0.28537 0.88339,-0.71287 1.96309,-0.95001 1.0797,-0.23714 2.83342,-0.92 3.89715,-1.51746 1.06373,-0.59746 2.88685,-1.29032 4.05136,-1.53968 1.16453,-0.24936 2.3949,-0.66754 2.73418,-0.92928 0.33928,-0.26174 1.79517,-0.67022 3.23532,-0.90774 1.44015,-0.23752 2.77509,-0.68529 2.96653,-0.99505 0.19144,-0.30976 1.02943,-0.56319 1.86221,-0.56319 0.83277,0 1.99614,-0.26775 2.58528,-0.595 2.88633,-1.6033 22.6949,-3.00238 33.76512,-2.38484 8.95226,0.4994 17.50202,1.57479 18.9603,2.38484 0.58914,0.32725 1.75251,0.595 2.58528,0.595 0.83278,0 1.67077,0.25343 1.86221,0.56319 0.19144,0.30976 1.52638,0.75753 2.96653,0.99505 1.44015,0.23752 2.89604,0.646 3.23532,0.90774 0.33928,0.26174 1.56965,0.67992 2.73418,0.92928 1.16451,0.24936 2.98763,0.94222 4.05136,1.53968 1.06373,0.59746 2.81745,1.28032 3.89715,1.51746 1.0797,0.23714 1.96309,0.66464 1.96309,0.95001 0,0.28536 0.83277,0.70175 1.8506,0.9253 1.01784,0.22355 1.85061,0.66199 1.85061,0.97431 0,0.31232 0.55518,0.56786 1.23373,0.56786 0.67856,0 1.23374,0.25553 1.23374,0.56785 0,0.31232 0.83277,0.75076 1.8506,0.97432 1.01783,0.22355 1.8506,0.61828 1.8506,0.87717 0,0.2589 1.03673,1.00021 2.30384,1.64737 1.26711,0.64717 2.6749,1.52365 3.1284,1.94774 0.45351,0.4241 1.09224,0.77109 1.41941,0.77109 0.32716,0 1.20951,0.56486 1.96075,1.25524 2.96748,2.72704 5.70959,4.89421 6.20446,4.90358 0.91051,0.0172 16.69274,16.20617 19.55415,20.05805 1.51221,2.03566 3.09646,4.06802 3.52056,4.51635 0.42409,0.44833 0.77108,1.18857 0.77108,1.64498 0,0.45641 0.21321,0.92236 0.4738,1.03545 0.70439,0.3057 4.46114,6.36835 4.46114,7.19939 0,0.3944 0.27759,0.71708 0.61687,0.71708 0.33928,0 0.61687,0.41639 0.61687,0.9253 0,0.50892 0.27759,0.9253 0.61686,0.9253 0.33928,0 0.62629,0.34699 0.6378,0.77109 0.0115,0.42409 0.55727,1.88144 1.21281,3.23855 0.65553,1.35711 1.20129,2.81446 1.2128,3.23855 0.0115,0.4241 0.29852,0.77109 0.6378,0.77109 0.33928,0 0.61687,0.38465 0.61687,0.85479 0,0.47013 0.41467,1.64989 0.9215,2.62168 0.50682,0.9718 0.92321,2.2363 0.9253,2.81001 0.002,0.57371 0.28139,1.21468 0.62067,1.42436 0.33927,0.20969 0.61686,1.05884 0.61686,1.88701 0,0.82817 0.25154,1.50576 0.55898,1.50576 0.30744,0 0.74988,1.38796 0.98319,3.08434 0.23331,1.69639 0.64758,3.08434 0.92058,3.08434 0.27301,0 0.69152,1.94313 0.93002,4.31807 0.23851,2.37494 0.68307,4.31807 0.98791,4.31807 0.30484,0 0.55426,1.52675 0.55426,3.39276 0,1.86603 0.27759,3.39278 0.61687,3.39278 0.39119,0 0.61687,4.6265 0.61687,12.64578 0,8.01928 -0.22568,12.64578 -0.61687,12.64578 -0.33928,0 -0.61687,1.09398 -0.61687,2.43106 0,1.33709 -0.25027,2.58575 -0.55616,2.7748 -0.3059,0.18905 -0.74954,2.00978 -0.98588,4.04605 -0.23633,2.03627 -0.65398,3.70231 -0.92811,3.70231 -0.27413,0 -0.68931,1.38795 -0.92262,3.08434 -0.23331,1.69638 -0.67575,3.08433 -0.98319,3.08433 -0.30744,0 -0.55898,0.69398 -0.55898,1.54217 0,0.84819 -0.27431,1.54217 -0.60957,1.54217 -0.33527,0 -0.78714,1.11036 -1.00415,2.46747 -0.217,1.35711 -0.59158,2.46747 -0.8324,2.46747 -0.2408,0 -0.95678,1.52675 -1.59106,3.39277 -0.63429,1.86603 -1.34246,3.39277 -1.57371,3.39277 -0.23127,0 -0.60274,0.97157 -0.82551,2.15904 -0.22277,1.18747 -0.60457,2.15903 -0.84844,2.15903 -0.46139,0 -2.58504,4.52215 -2.58504,5.50464 0,0.30867 -0.20819,0.65376 -0.46265,0.76685 -0.60482,0.26881 -4.47229,8.08012 -4.47229,9.03289 0,0.4038 -0.27759,0.73418 -0.61686,0.73418 -0.33928,0 -0.61687,0.41638 -0.61687,0.9253 0,0.50892 -0.27759,0.9253 -0.61687,0.9253 -0.33928,0 -0.61687,0.31629 -0.61687,0.70286 0,0.38657 -0.83277,2.05628 -1.8506,3.71047 -1.01783,1.65419 -1.8506,3.41983 -1.8506,3.92365 0,0.50382 -0.26457,0.91603 -0.58792,0.91603 -0.32337,0 -1.07621,1.04097 -1.67299,2.31326 -0.59678,1.27229 -1.44257,2.68006 -1.87954,3.1284 -0.43697,0.44832 -0.79449,1.2117 -0.79449,1.69638 0,0.48468 -0.24522,0.88124 -0.54492,0.88124 -0.29971,0 -0.70804,0.48578 -0.9074,1.07952 -0.41478,1.23531 -1.58593,3.10812 -2.71154,4.33608 -0.42409,0.46266 -0.77108,1.23775 -0.77108,1.72244 0,0.48468 -0.27759,0.88124 -0.61687,0.88124 -0.33927,0 -0.61687,0.41638 -0.61687,0.9253 0,0.50891 -0.2723,0.9253 -0.60511,0.9253 -0.33281,0 -0.77425,0.67389 -0.98097,1.49753 -0.20672,0.82365 -0.76719,1.6477 -1.24549,1.83125 -0.4783,0.18353 -0.86963,0.64933 -0.86963,1.0351 0,0.38577 -0.69816,1.57424 -1.55146,2.64104 -0.85332,1.06682 -1.75549,2.2324 -2.00482,2.59019 -1.06004,1.52111 -2.03182,3.11272 -2.42759,3.97597 -0.23332,0.50892 -0.78673,1.29212 -1.22981,1.74045 -0.44308,0.44833 -0.8056,1.15042 -0.8056,1.56021 0,0.40978 -0.55518,1.14521 -1.23373,1.63428 -0.67856,0.48908 -1.23374,1.12181 -1.23374,1.40609 0,0.59981 -3.78549,5.58827 -4.47229,5.89351 -0.25445,0.1131 -0.46265,0.57905 -0.46265,1.03546 0,0.45641 -0.34698,1.19665 -0.77108,1.64498 -0.4241,0.44833 -2.0039,2.48069 -3.51068,4.51635 -1.50677,2.03566 -2.96412,3.79373 -3.23855,3.90682 -0.27443,0.1131 -0.49896,0.55835 -0.49896,0.98945 0,0.4311 -0.62458,1.47549 -1.38796,2.32086 -2.46931,2.73456 -4.16385,5.06426 -4.16385,5.72458 0,0.35474 -0.69398,1.16613 -1.54217,1.8031 -0.84819,0.63697 -1.54217,1.40894 -1.54217,1.71551 0,0.30656 -0.69397,1.3058 -1.54217,2.22054 -0.84819,0.91474 -1.54217,1.88795 -1.54217,2.16269 0,0.27474 -0.97156,1.49992 -2.15903,2.72262 -1.18747,1.2227 -2.15904,2.41756 -2.15904,2.65525 0,0.23769 -0.62458,1.15582 -1.38795,2.04029 -0.76337,0.88448 -1.94313,2.33526 -2.62169,3.22395 -0.67855,0.88869 -1.58072,1.99008 -2.00482,2.44752 -0.42409,0.45744 -0.77108,0.98076 -0.77108,1.16293 0,0.18218 -0.76337,1.13834 -1.69639,2.1248 -0.93301,0.98646 -2.39036,2.67857 -3.23855,3.76024 -2.46278,3.14069 -4.50068,5.62082 -6.31304,7.68299 -0.92759,1.05545 -1.69096,2.1475 -1.69639,2.42678 -0.006,0.27928 -1.12021,1.50458 -2.47732,2.72288 -1.35711,1.2183 -2.46747,2.58594 -2.46747,3.0392 0,0.45326 -0.25888,0.82411 -0.57529,0.82411 -0.31642,0 -0.74701,0.54098 -0.95686,1.20218 -0.20986,0.6612 -0.90834,1.36937 -1.55218,1.57372 -0.64385,0.20435 -1.32784,0.86688 -1.52,1.47229 -0.58827,1.85347 -6.88063,8.09196 -8.11647,8.04697 -0.63729,-0.0232 -1.92209,-0.86728 -2.8551,-1.87573 z m 15.88434,-114.67003 c 0.20968,-0.33928 1.47522,-0.61687 2.81231,-0.61687 1.33708,0 2.43106,-0.24174 2.43106,-0.53719 0,-0.29545 1.66554,-0.72563 3.70121,-0.95593 2.03566,-0.23031 3.7012,-0.68255 3.7012,-1.00499 0,-0.32243 0.53581,-0.58623 1.1907,-0.58623 0.65488,0 2.9899,-0.83277 5.18892,-1.8506 2.19904,-1.01783 4.30033,-1.8506 4.66955,-1.8506 0.36923,0 0.67131,-0.27759 0.67131,-0.61687 0,-0.33928 0.41639,-0.61687 0.9253,-0.61687 0.50892,0 0.9253,-0.27759 0.9253,-0.61687 0,-0.33927 0.39656,-0.61686 0.88124,-0.61686 0.48469,0 1.261,-0.37977 1.72516,-0.84392 0.46415,-0.46416 1.45555,-1.03804 2.2031,-1.27531 0.74755,-0.23726 1.35918,-0.69027 1.35918,-1.00668 0,-0.31641 0.2893,-0.5753 0.6429,-0.5753 0.60505,0 1.30282,-0.48268 3.34409,-2.31325 0.4729,-0.4241 1.04544,-0.77109 1.27231,-0.77109 0.82193,0 12.62986,-12.36077 12.62986,-13.22118 0,-0.48599 0.54098,-1.05533 1.20218,-1.26518 0.66119,-0.20986 1.38913,-0.9706 1.61763,-1.69054 0.2285,-0.71994 0.86728,-1.79777 1.41951,-2.39518 0.55222,-0.59742 1.69803,-2.42309 2.54622,-4.05706 0.84819,-1.63397 1.68141,-3.10965 1.85158,-3.27929 1.16388,-1.16017 5.55083,-12.38313 5.55083,-14.20044 0,-0.67169 0.26078,-1.22125 0.57951,-1.22125 0.31873,0 0.77159,-1.94929 1.00636,-4.33176 0.23476,-2.38247 0.66796,-4.48077 0.96265,-4.66291 0.69511,-0.4296 0.70313,-26.16677 0.008,-26.16677 -0.29022,0 -0.69914,-1.83631 -0.90872,-4.08068 -0.20959,-2.24436 -0.62706,-4.39569 -0.92771,-4.78071 -0.30065,-0.38503 -0.71723,-1.60059 -0.92573,-2.70125 -0.2085,-1.10066 -0.92209,-3.12508 -1.58577,-4.49872 -0.66367,-1.37365 -1.38696,-3.31841 -1.60732,-4.3217 -0.22036,-1.00329 -0.58843,-1.82416 -0.81792,-1.82416 -0.2295,0 -0.79901,-0.90217 -1.26557,-2.00482 -1.04614,-2.4724 -4.50307,-8.09933 -5.14775,-8.37912 -0.26059,-0.11309 -0.4738,-0.55999 -0.4738,-0.99311 0,-0.43312 -0.69397,-1.30864 -1.54217,-1.94561 -0.84819,-0.63697 -1.54216,-1.51637 -1.54216,-1.95423 0,-0.85604 -12.15446,-13.09901 -13.00432,-13.09901 -0.28088,0 -1.14862,-0.63793 -1.92831,-1.41762 -0.77969,-0.77969 -1.83326,-1.61552 -2.34129,-1.8574 -0.50802,-0.24188 -1.75645,-0.99513 -2.77428,-1.67391 -1.01783,-0.67877 -2.33638,-1.40206 -2.93012,-1.60732 -0.59373,-0.20525 -1.07952,-0.59635 -1.07952,-0.8691 0,-0.27275 -0.83277,-0.67881 -1.8506,-0.90237 -1.01783,-0.22355 -1.8506,-0.59423 -1.8506,-0.82373 0,-0.4971 -2.71333,-1.719 -5.09499,-2.29443 -0.93622,-0.2262 -1.84485,-0.64208 -2.01919,-0.92417 -0.17434,-0.28209 -1.55967,-0.69924 -3.07851,-0.92701 -1.51884,-0.22776 -2.76153,-0.66018 -2.76153,-0.96094 0,-0.30075 -0.91605,-0.54682 -2.03566,-0.54682 -1.11961,0 -2.38265,-0.34699 -2.80675,-0.77109 -1.10999,-1.10999 -34.23651,-1.10999 -35.3465,0 -0.4241,0.4241 -1.68714,0.77109 -2.80675,0.77109 -1.11961,0 -2.03566,0.24607 -2.03566,0.54682 0,0.30076 -1.24269,0.73318 -2.76153,0.96094 -1.51884,0.22777 -2.92317,0.67567 -3.12074,0.99535 -0.19757,0.31967 -0.75732,0.58122 -1.24388,0.58122 -1.19864,0 -5.82807,2.03665 -5.82807,2.56398 0,0.23228 -0.83277,0.60524 -1.8506,0.82879 -1.01783,0.22356 -1.8506,0.62962 -1.8506,0.90237 0,0.27275 -0.48579,0.66385 -1.07952,0.8691 -0.59374,0.20526 -1.91229,0.92855 -2.93012,1.60732 -1.01783,0.67878 -2.26626,1.43203 -2.77428,1.67391 -0.50803,0.24188 -1.5616,1.07771 -2.34129,1.8574 -0.77969,0.77969 -1.62565,1.41762 -1.8799,1.41762 -0.83235,0 -13.05273,12.24781 -13.05273,13.08203 0,0.4472 -0.69397,1.33424 -1.54216,1.97121 -0.8482,0.63697 -1.54217,1.51249 -1.54217,1.94561 0,0.43312 -0.21321,0.88002 -0.4738,0.99311 -0.64468,0.27979 -4.10161,5.90672 -5.14775,8.37912 -0.46656,1.10265 -1.03607,2.00482 -1.26557,2.00482 -0.22949,0 -0.61341,0.89306 -0.85315,1.98457 -0.23974,1.09151 -0.67118,2.41007 -0.95875,2.93012 -1.04654,1.89253 -2.4046,5.74981 -2.4046,6.82972 0,0.60885 -0.26997,1.19952 -0.59993,1.31262 -0.32997,0.11309 -0.78621,2.21815 -1.01389,4.6779 -0.22767,2.45976 -0.65167,4.47229 -0.94223,4.47229 -0.69539,0 -0.68798,25.73692 0.008,26.16677 0.29469,0.18214 0.72789,2.28044 0.96265,4.66291 0.23476,2.38247 0.68762,4.33176 1.00636,4.33176 0.31873,0 0.58857,0.48579 0.59965,1.07952 0.0246,1.31696 2.09039,7.14979 4.47877,12.64578 0.40546,0.93302 0.94703,1.69639 1.20348,1.69639 0.25646,0 0.46629,0.32268 0.46629,0.71708 0,0.7045 3.58598,6.69812 4.3689,7.3022 0.21986,0.16964 0.59016,0.91881 0.82288,1.66483 0.23272,0.74601 0.96411,1.5281 1.62531,1.73796 0.6612,0.20985 1.20218,0.77919 1.20218,1.26518 0,0.84865 11.8023,13.22118 12.61184,13.22118 0.37681,0 1.21245,0.62445 3.09563,2.31326 0.47291,0.42409 1.15725,0.77108 1.52076,0.77108 0.36351,0 0.66093,0.25889 0.66093,0.5753 0,0.31641 0.61163,0.76942 1.35918,1.00668 0.74755,0.23727 1.73895,0.81115 2.2031,1.27531 0.46416,0.46415 1.24047,0.84392 1.72516,0.84392 0.48468,0 0.88124,0.27759 0.88124,0.61686 0,0.33928 0.41638,0.61687 0.9253,0.61687 0.50891,0 0.9253,0.27759 0.9253,0.61687 0,0.33928 0.30208,0.61687 0.67131,0.61687 0.36922,0 2.47051,0.83277 4.66955,1.8506 2.19902,1.01783 4.53404,1.8506 5.18892,1.8506 0.65489,0 1.1907,0.2638 1.1907,0.58623 0,0.32244 1.66554,0.77468 3.7012,1.00499 2.03567,0.2303 3.70121,0.66048 3.70121,0.95593 0,0.29545 1.09398,0.53719 2.43106,0.53719 1.33709,0 2.60263,0.27759 2.81231,0.61687 0.23399,0.37859 5.23765,0.61686 12.95422,0.61686 7.71657,0 12.72023,-0.23827 12.95422,-0.61686 z"
           id="path864" />
      </g>
      <path
         style="fill:#ff0000;stroke-width:1.00611"
         d="m 643.18094,677.20348 c -2.88386,-0.3322 -5.38217,-0.80866 -5.55181,-1.05878 -0.16964,-0.25014 -1.37035,-0.65013 -2.66824,-0.88889 -1.29789,-0.23875 -3.2598,-0.93959 -4.3598,-1.55742 -1.1,-0.61784 -2.88338,-1.31736 -3.96308,-1.5545 -1.07971,-0.23714 -1.9631,-0.65661 -1.9631,-0.93215 0,-0.27553 -0.69397,-0.67515 -1.54217,-0.88803 -0.84819,-0.21289 -1.54216,-0.65937 -1.54216,-0.99218 0,-0.33281 -0.41639,-0.60512 -0.92531,-0.60512 -0.50891,0 -0.9253,-0.25888 -0.9253,-0.57529 0,-0.31642 -0.55117,-0.75024 -1.22482,-0.96405 -2.19063,-0.69528 -11.89892,-9.81861 -15.10063,-14.19078 -0.99381,-1.35709 -1.98693,-2.60625 -2.20695,-2.77589 -0.43946,-0.33883 -1.76296,-2.74689 -3.47515,-6.32289 -0.60917,-1.27229 -1.29529,-2.31325 -1.52471,-2.31325 -0.22942,0 -0.60472,-1.11037 -0.834,-2.46747 -0.22928,-1.35711 -0.67007,-2.46747 -0.97952,-2.46747 -0.30946,0 -0.56265,-0.69398 -0.56265,-1.54217 0,-0.8482 -0.25762,-1.54217 -0.57248,-1.54217 -0.31486,0 -0.7655,-1.59615 -1.00142,-3.54699 -0.23591,-1.95084 -0.68417,-3.86736 -0.99612,-4.25891 -0.72962,-0.91581 -0.74576,-20.65567 -0.0173,-21.13413 0.30245,-0.19865 0.74034,-2.02672 0.97309,-4.06238 0.23274,-2.03566 0.69116,-3.79374 1.01869,-3.90683 0.32754,-0.11309 0.59552,-0.87646 0.59552,-1.69638 0,-0.81992 0.25319,-1.49077 0.56265,-1.49077 0.30945,0 0.75024,-1.11036 0.97952,-2.46747 0.22928,-1.35711 0.67007,-2.46747 0.97952,-2.46747 0.30946,0 0.56265,-0.2727 0.56265,-0.606 0,-0.75849 4.7325,-8.5327 5.91261,-9.71281 0.48011,-0.48011 0.87293,-1.11334 0.87293,-1.40717 0,-0.88595 8.25947,-8.92593 12.12055,-11.79846 1.98527,-1.47698 3.74836,-2.85777 3.918,-3.06843 0.16964,-0.21065 0.93301,-0.57793 1.69639,-0.81616 0.76337,-0.23823 1.38795,-0.69203 1.38795,-1.00844 0,-0.31641 0.34699,-0.57646 0.77108,-0.57788 0.4241,-0.001 2.12491,-0.68943 3.77959,-1.52892 1.65467,-0.83949 3.94479,-1.70199 5.08915,-1.91667 1.14437,-0.21469 2.08066,-0.63703 2.08066,-0.93855 0,-0.30152 0.67085,-0.54822 1.49077,-0.54822 0.81991,0 1.58329,-0.27293 1.69638,-0.60652 0.5589,-1.64859 30.68865,-1.64139 31.25462,0.007 0.11309,0.32948 0.87647,0.59905 1.69638,0.59905 0.81992,0 1.49077,0.2467 1.49077,0.54822 0,0.30152 0.9363,0.72386 2.08066,0.93855 1.14436,0.21468 3.43448,1.07718 5.08916,1.91667 1.65467,0.83949 3.35548,1.5275 3.77958,1.52892 0.42409,10e-4 0.77108,0.26147 0.77108,0.57788 0,0.31641 0.62458,0.77021 1.38795,1.00844 0.76338,0.23823 1.52675,0.60551 1.69639,0.81616 0.16964,0.21066 1.93274,1.59145 3.91799,3.06843 3.86109,2.87253 12.12056,10.91251 12.12056,11.79846 0,0.29383 0.37074,0.90498 0.82386,1.3581 1.27417,1.27417 5.96168,8.87229 5.96168,9.66346 0,0.38743 0.2532,0.70442 0.56265,0.70442 0.30946,0 0.75024,1.11036 0.97952,2.46747 0.22929,1.35711 0.67007,2.46747 0.97953,2.46747 0.30945,0 0.56264,0.67085 0.56264,1.49077 0,0.81992 0.27487,1.58329 0.61082,1.69638 0.33595,0.11309 0.79188,1.94056 1.01318,4.06105 0.22129,2.12048 0.6404,3.85542 0.93135,3.85542 0.69565,0 0.68914,20.8017 -0.007,21.23172 -0.2946,0.18207 -0.72477,2.00279 -0.95594,4.04604 -0.23114,2.04325 -0.68408,3.71501 -1.00652,3.71501 -0.32243,0 -0.58623,0.69397 -0.58623,1.54217 0,0.84819 -0.2467,1.54217 -0.54822,1.54217 -0.30151,0 -0.74338,1.04032 -0.98191,2.31184 -0.23854,1.27151 -0.61642,2.45127 -0.83974,2.62168 -0.22332,0.17042 -0.9032,1.28142 -1.51085,2.46889 -2.91921,5.70471 -6.57916,10.53386 -11.92161,15.73011 -5.652,5.49731 -7.36184,6.92298 -8.88128,7.40523 -0.67365,0.21381 -1.22482,0.64763 -1.22482,0.96405 0,0.31641 -0.41639,0.57529 -0.9253,0.57529 -0.50892,0 -0.92531,0.27231 -0.92531,0.60512 0,0.33281 -0.69397,0.77929 -1.54216,0.99218 -0.8482,0.21288 -1.54217,0.6125 -1.54217,0.88803 0,0.27554 -0.88339,0.69501 -1.9631,0.93215 -1.07969,0.23714 -2.88767,0.95048 -4.01772,1.58519 -1.13005,0.63471 -3.16136,1.33099 -4.51402,1.54729 -1.35266,0.2163 -2.45938,0.59012 -2.45938,0.83072 0,0.59271 -12.36297,1.89523 -16.96385,1.78726 -2.03567,-0.0478 -6.06073,-0.35866 -8.94458,-0.69087 z"
         id="path893" />
    </g>
  </g>
</svg>
