<?xml version="1.0" encoding="UTF-8" standalone="no"?>
<svg
   xmlns:dc="http://purl.org/dc/elements/1.1/"
   xmlns:cc="http://creativecommons.org/ns#"
   xmlns:rdf="http://www.w3.org/1999/02/22-rdf-syntax-ns#"
   xmlns:svg="http://www.w3.org/2000/svg"
   xmlns="http://www.w3.org/2000/svg"
   xmlns:sodipodi="http://sodipodi.sourceforge.net/DTD/sodipodi-0.dtd"
   xmlns:inkscape="http://www.inkscape.org/namespaces/inkscape"
   version="1.1"
   id="svg10"
   width="1306.6667"
   height="1306.6667"
   viewBox="0 0 1306.6667 1306.6667"
   sodipodi:docname="emailWhite.svg"
   inkscape:version="1.0.1 (3bc2e813f5, 2020-09-07)">
  <metadata
     id="metadata16">
    <rdf:RDF>
      <cc:Work
         rdf:about="">
        <dc:format>image/svg+xml</dc:format>
        <dc:type
           rdf:resource="http://purl.org/dc/dcmitype/StillImage" />
        <dc:title></dc:title>
      </cc:Work>
    </rdf:RDF>
  </metadata>
  <defs
     id="defs14" />
  <sodipodi:namedview
     pagecolor="#ffffff"
     bordercolor="#ffffff"
     borderopacity="1"
     objecttolerance="10"
     gridtolerance="10"
     guidetolerance="10"
     inkscape:pageopacity="0"
     inkscape:pageshadow="2"
     inkscape:window-width="1920"
     inkscape:window-height="1001"
     id="namedview12"
     showgrid="false"
     inkscape:zoom="0.61301017"
     inkscape:cx="857.25978"
     inkscape:cy="719.49938"
     inkscape:window-x="-9"
     inkscape:window-y="-9"
     inkscape:window-maximized="1"
     inkscape:current-layer="g18"
     inkscape:document-rotation="0" />
  <g
     inkscape:groupmode="layer"
     inkscape:label="Image"
     id="g18">
    <path
       style="fill:#ffffff;stroke-width:2.66064;stroke-miterlimit:4;stroke-dasharray:none"
       d=""
       id="path946" />
    <path
       style="fill:#ffffff;stroke-width:2.66064;stroke-miterlimit:4;stroke-dasharray:none"
       d=""
       id="path948" />
    <path
       style="fill:#ffffff;stroke-width:2.66064;stroke-miterlimit:4;stroke-dasharray:none"
       d=""
       id="path952" />
    <g
       id="g905"
       transform="translate(112.93768,-123.79098)"
       style="fill:#ffffff">
      <g
         id="g883"
         transform="matrix(1.5645916,0,0,1.5645916,-78.768487,-336.94545)"
         style="fill:#ffffff">
        <path
           style="fill:#ffffff;stroke-width:1.70053"
           d="m 383.59658,776.97656 c -2.66733,-0.75547 -6.015,-2.13712 -7.43927,-3.07035 -6.3107,-4.13492 -32.58502,-29.71658 -124.81725,-121.52673 l -98.52879,-98.0779 241.36714,-0.0557 241.36711,-0.0557 -87.5788,87.6833 c -108.25053,108.37969 -132.27543,131.5186 -139.00303,133.87691 -6.62908,2.32379 -19.32485,2.93741 -25.36711,1.22607 z"
           id="path949" />
      </g>
    </g>
    <path
       style="fill:#ffffff;stroke-width:2.66064"
       d="m 614.39628,1302.7009 c -79.4117,-6.0487 -143.3152,-20.7734 -208.5676,-48.0585 -21.5278,-9.0019 -75.1007,-35.5671 -86.69669,-42.9905 -40.8512,-26.1514 -60.77958,-40.5925 -87.24053,-63.2185 -37.58428,-32.1374 -68.76587,-65.1298 -96.62312,-102.2345 C 65.412034,953.15338 24.543974,854.32659 8.4150139,739.44346 c -4.91526,-35.01039 -5.42904,-43.08361 -5.49761,-86.3865 -0.10245,-64.6888 8.2041201,-123.24024 26.1250801,-184.15074 5.26608,-17.89861 7.88842,-25.54046 19.65615,-57.28082 6.4192,-17.3141 31.41672,-67.76788 44.13218,-89.07426 46.353456,-77.67116 108.213056,-145.7304 178.993636,-196.93261 38.37278,-27.758607 94.51443,-58.941367 135.39743,-75.203777 64.9987,-25.855156 127.923,-41.0392664 190.0458,-45.8595084 24.338,-1.88844 80.4803,-2.345372 103.5872,-0.843075 116.6857,7.5863544 234.1997,50.3282834 333.42162,121.2713304 53.9153,38.54915 110.9946,96.26534 150.6479,152.32903 38.7069,54.72552 73.2167,125.4149 92.2489,188.96123 19.185,64.05658 26.6601,116.3635 26.5763,185.96755 -0.068,56.10597 -3.3902,88.83083 -14.0373,138.25647 -14.6271,67.90188 -42.0035,136.51271 -79.5711,199.4215 -33.8916,56.75312 -81.9605,113.15342 -135.6215,159.12802 -86.70262,74.283 -192.55102,124.0378 -308.41312,144.9716 -45.4353,8.2092 -109.6622,11.8847 -151.7103,8.682 z m 82.3803,-84.6201 c 1.3459,0.01 12.7241,-1.0863 25.2851,-2.4326 117.2552,-12.5678 235.3737,-68.0178 322.18062,-151.2457 88.1722,-84.53692 141.9992,-183.69028 167.086,-307.78499 5.673,-28.0619 6.6468,-43.23476 6.6468,-103.56055 0,-72.37374 -1.5507,-87.09527 -14.6921,-139.47566 -12.5575,-50.05309 -37.2728,-110.04761 -63.0634,-153.0819 -42.5868,-71.06042 -103.7738,-134.75564 -173.46382,-180.57464 -80.8736,-53.17186 -172.9936,-85.399137 -261.8227,-91.596077 -16.7036,-1.16529 -77.5,-1.58731 -93.7994,-0.65111 -36.6928,2.10753 -84.7888,10.99152 -124.794,23.051177 -93.4083,28.15811 -185.22788,85.96355 -249.92709,157.34275 -39.24872,43.30105 -64.71209,80.47552 -90.12434,131.57433 -27.69353,55.68601 -44.81127,109.59083 -54.052646,170.21512 -4.4784,29.3787 -5.95198,82.30686 -3.58797,128.87225 4.61835,90.97021 44.353106,201.88016 100.521926,280.58258 36.12286,50.61462 86.16906,100.97422 134.85631,135.70092 34.02091,24.2657 79.80401,49.2181 120.45141,65.6474 49.1138,19.8513 127.4554,37.0841 170.6168,37.5304 7.5615,0.078 14.1682,0.5949 14.6816,1.1481 0.5134,0.5533 15.2481,0.4923 32.7438,-0.1355 17.4956,-0.6279 32.9113,-1.1347 34.2571,-1.1263 z"
       id="path937" />
    <path
       style="fill:#ffffff;stroke-width:2.66064"
       d="M 256.12783,654.30175 V 416.95123 L 374.80309,535.62649 493.47834,654.30175 374.80309,772.97701 256.12783,891.65226 Z"
       id="path939" />
    <path
       style="fill:#ffffff;stroke-width:2.66064"
       d="M 291.20066,905.63397 279.7816,904.69172 394.76099,789.2845 c 63.23866,-63.47397 115.73244,-115.40722 116.65283,-115.40722 0.92041,0 16.34821,14.7364 34.28405,32.74756 36.39383,36.5467 57.31549,54.9714 69.34072,61.06505 16.98948,8.60921 39.71851,11.14385 57.95002,6.46232 22.97998,-5.90086 32.01078,-12.80154 85.32286,-65.19759 l 37.28623,-36.64556 115.65835,116.19818 115.65835,116.19818 -15.4973,1.04088 c -19.24174,1.29238 -704.48828,1.18551 -720.21644,-0.11239 z"
       id="path945" />
    <path
       style="fill:#ffffff;stroke-width:2.66064"
       d="M 930.94989,772.94115 812.14726,655.1174 931.35771,536.0371 1050.5682,416.95681 v 236.94131 c 0,130.31772 -0.1836,236.92453 -0.4079,236.90404 -0.2243,-0.0205 -53.86898,-53.05796 -119.21041,-117.86101 z"
       id="path947" />
  </g>
</svg>
