<?xml version="1.0" encoding="UTF-8" standalone="no"?>
<svg
   xmlns:dc="http://purl.org/dc/elements/1.1/"
   xmlns:cc="http://creativecommons.org/ns#"
   xmlns:rdf="http://www.w3.org/1999/02/22-rdf-syntax-ns#"
   xmlns:svg="http://www.w3.org/2000/svg"
   xmlns="http://www.w3.org/2000/svg"
   xmlns:sodipodi="http://sodipodi.sourceforge.net/DTD/sodipodi-0.dtd"
   xmlns:inkscape="http://www.inkscape.org/namespaces/inkscape"
   id="Capa_1"
   viewBox="0 0 91.615577 100.99607"
   version="1.1"
   sodipodi:docname="favicon.svg"
   width="24.239958mm"
   height="26.721874mm"
   inkscape:version="1.0.2-2 (e86c870879, 2021-01-15)">
  <metadata
     id="metadata16">
    <rdf:RDF>
      <cc:Work
         rdf:about="">
        <dc:format>image/svg+xml</dc:format>
        <dc:type
           rdf:resource="http://purl.org/dc/dcmitype/StillImage" />
        <dc:title></dc:title>
      </cc:Work>
    </rdf:RDF>
  </metadata>
  <defs
     id="defs14">
    <rect
       x="-499.25925"
       y="-191.11111"
       width="447.40741"
       height="68.888885"
       id="rect316" />
    <rect
       x="-1170.5883"
       y="-1170.5883"
       width="6682.353"
       height="2935.2942"
       id="rect108" />
  </defs>
  <sodipodi:namedview
     pagecolor="#ffffff"
     bordercolor="#666666"
     borderopacity="1"
     objecttolerance="10"
     gridtolerance="10"
     guidetolerance="10"
     inkscape:pageopacity="0"
     inkscape:pageshadow="2"
     inkscape:window-width="1920"
     inkscape:window-height="1017"
     id="namedview12"
     showgrid="false"
     units="mm"
     inkscape:zoom="1.35"
     inkscape:cx="-58.014666"
     inkscape:cy="223.97207"
     inkscape:window-x="-8"
     inkscape:window-y="-8"
     inkscape:window-maximized="1"
     inkscape:current-layer="Capa_1"
     fit-margin-top="0"
     fit-margin-left="0"
     fit-margin-right="0"
     fit-margin-bottom="0"
     inkscape:document-rotation="0" />
  <style
     id="style2">.st0{fill:url(#SVGID_1_);}</style>
  <linearGradient
     id="SVGID_1_"
     gradientUnits="userSpaceOnUse"
     x1="87.5"
     y1="169"
     x2="87.5"
     gradientTransform="scale(8.8757397)">
    <stop
       offset="0"
       stop-color="#913EA8"
       id="stop4" />
    <stop
       offset="1"
       stop-color="#2789B6"
       id="stop6" />
  </linearGradient>
  <text
     xml:space="preserve"
     id="text106"
     style="font-size:192px;line-height:1.25;font-family:sans-serif;white-space:pre;shape-inside:url(#rect108);"
     transform="translate(-14.916951,-11.580176)" />
  <path
     style="fill:#000000;stroke-width:0.375"
     id="path158"
     d="" />
  <path
     style="fill:#ff0000;fill-opacity:1;stroke-width:0.740741"
     d=""
     id="path266" />
  <text
     xml:space="preserve"
     id="text314"
     style="font-style:normal;font-weight:normal;font-size:40px;line-height:1.25;font-family:sans-serif;white-space:pre;shape-inside:url(#rect316);fill:#000000;fill-opacity:1;stroke:none;"
     transform="translate(-14.916951,-11.580176)" />
  <path
     style="fill:#ff0000;fill-opacity:0;stroke-width:0.185185"
     d="m -7.7773133,8.5668409 c -0.407408,-0.314631 -1.157408,-0.761657 -1.666667,-0.993391 -1.1937087,-0.543189 -1.6711627,-1.073172 -2.1063647,-2.338113 -0.508328,-1.477476 -0.797822,-1.972131 -1.868667,-3.192944 -1.552881,-1.770359 -1.579722,-1.831222 -1.307664,-2.96528 0.295457,-1.231609 0.08307,-1.713582 -0.830665,-1.884998 -0.818563,-0.153563 -1.837002,0.03313 -2.134193,0.391218 -0.233722,0.281621 -0.184192,1.216212 0.18113,3.417719 0.27317,1.646174 0.23392,4.204428 -0.07363,4.799165 -0.319924,0.618665 -2.668863,1.906331 -4.20953,2.307624 -1.16495,0.30343 -1.72152,0.22955 -4.469813,-0.593335 -1.998233,-0.598304 -2.748472,-1.132793 -3.104567,-2.211772 -0.350092,-1.060787 -0.115429,-2.566965 0.723737,-4.645286 1.115467,-2.762624 1.031471,-3.3601 -0.472387,-3.3601 -1.696911,0 -3.233905,1.027943 -3.654461,2.444106 -0.404028,1.360511 -0.672671,1.691231 -2.224256,2.73823 -1.566701,1.057198 -2.1485,1.803346 -2.701216,3.464259 -0.674531,2.026965 -1.844346,2.525183 -4.934695,2.101665 -2.387242,-0.327163 -3.323534,-0.674211 -4.311101,-1.597963 -0.977758,-0.91458 -2.038693,-2.732828 -2.038693,-3.493948 0,-1.079384 0.392216,-1.380323 3.054503,-2.34365 2.786461,-1.00826 4.347682,-2.856929 6.945951,-8.224823 1.139458,-2.354065 1.841729,-3.5093359 3.396444,-5.5873259 5.27766,-7.053976 6.861934,-10.146497 7.61825,-14.870921 0.4927,-3.077707 0.7925,-3.819378 2.881954,-7.12963 0.642896,-1.018518 1.436433,-2.435185 1.763415,-3.148148 0.598696,-1.305422 1.37652,-4.050198 1.37652,-4.85745 0,-0.607848 0.605741,-1.73895 1.87868,-3.508063 0.599022,-0.832515 1.400541,-2.165848 1.781152,-2.962963 l 0.69202,-1.449302 -0.004,-2.5 c -0.0022,-1.375 -0.07336,-2.916666 -0.158163,-3.425925 -0.149255,-0.896373 -0.130774,-0.955479 0.579032,-1.851852 1.057735,-1.335753 1.163531,-1.603218 1.351033,-3.415544 0.210263,-2.032337 0.87892,-4.178656 1.791689,-5.751123 0.962518,-1.658173 4.7969147,-5.503724 6.1526797,-6.170579 1.293107,-0.636035 1.731507,-0.624167 3.151293,0.08531 2.506678,1.252601 4.831144,4.199349 5.398174,6.843314 0.27298,1.27286 0.115587,3.91672 -0.382891,6.431745 -0.208428,1.051605 -0.328174,2.114351 -0.266105,2.361657 0.148535,0.591809 0.863376,1.173938 2.948477,2.401085 0.945063,0.5562 2.486563,1.615252 3.425554,2.353446 2.941098,2.312168 2.743495,2.2044 3.8835833,2.118026 0.560186,-0.04244 1.935186,-0.259667 3.055556,-0.482726 2.771811,-0.551852 6.464898,-0.608572 8.518519,-0.13083 3.740175,0.870091 5.135327,1.960947 5.135327,4.015265 0,1.873324 -0.940829,3.495874 -3.315168,5.717326 -1.373702,1.285246 -1.958095,1.66617 -4.689817,3.056963 -2.481483,1.263387 -3.241339,1.741243 -3.71025,2.333291 -0.716891,0.905148 -1.244778,1.193248 -2.668705,1.456476 -2.101963,0.388568 -2.302887,0.825627 -1.491173,3.243685 0.374528,1.115696 0.517558,2.124492 0.742291,5.23538 0.153104,2.119364 0.402674,4.752088 0.5546,5.850498 0.620313,4.484813 0.186489,8.556717 -1.533315,14.3917819 -0.77497,2.629378 -0.846561,3.041398 -0.852689,4.907407 l -0.0067,2.037038 0.960535,1.759259 c 0.878763,1.609492 0.960837,1.862835 0.964089,2.975926 0.0033,1.13202 -0.04292,1.270966 -0.664492,1.997128 -0.978282,1.142903 -3.0299933,2.055707 -4.6342803,2.061785 -0.575913,0.0022 -4.888098,-1.066404 -5.845396,-1.448524 -1.158487,-0.462428 -1.491226,-2.264108 -0.82415,-4.462519 0.167863,-0.553209 0.305205,-1.151422 0.305205,-1.329365 0,-0.898077 -1.325615,-1.181537 -2.566063,-0.548707 -1.202214,0.613324 -1.235496,0.740206 -0.5944,2.266063 0.995861,2.370217 0.716982,4.5223 -0.709514,5.475263 -0.51883,0.3466 -0.876258,0.419454 -2.037038,0.415205 -1.286015,-0.0047 -1.47188,-0.05464 -2.148541,-0.577207 z m 2.448564,-0.815581 c 2.015104,-1.004169 2.689764,-2.943084 1.602232,-4.604673 -0.272379,-0.416155 -1.067007,-1.520944 -1.765839,-2.455089 -1.054007,-1.408913 -1.412418,-1.7526 -2.10253,-2.016157 -0.950129,-0.362858 -2.372216,-0.276917 -3.6094607,0.218132 -0.758324,0.30342 -1.665559,1.198751 -1.665559,1.643703 0,0.136647 0.371543,0.683721 0.825648,1.215721 0.635398,0.744387 0.87177,1.206588 1.025807,2.005861 0.340584,1.767216 0.362799,1.837502 0.681565,2.156266 0.242889,0.242889 0.5028557,0.284691 1.1974737,0.192547 l 0.887232,-0.117697 0.493202,0.977811 c 0.732939,1.453113 0.947691,1.522354 2.430229,0.783575 z m 14.123143,-0.777986 c 0.247728,-0.17824 0.784128,-0.49074 1.192,-0.694444 1.3924583,-0.695437 1.3121983,-1.818669 -0.322131,-4.50823 -1.163193,-1.914227 -1.299159,-2.920239 -0.710361,-5.255969 1.7309263,-6.8664959 2.9763163,-14.4298039 2.7036943,-16.4196389 -0.319374,-2.331056 -0.493913,-2.515776 -1.8440703,-1.951645 -1.107352,0.462682 -1.135454,0.129423 -0.148604,-1.762298 l 0.8910983,-1.708176 v -2.34517 c 0,-2.324528 -0.0063,-2.359026 -0.7126983,-3.919244 -0.391985,-0.865741 -0.752374,-1.743304 -0.800865,-1.950141 -0.04849,-0.206835 0.207487,-1.024832 0.568841,-1.817769 1.0577933,-2.321172 1.2958133,-3.755015 1.3265833,-7.99135 0.03225,-4.439968 0.151171,-4.93039 1.377399,-5.680183 1.138716,-0.696283 3.788483,-1.389413 6.017162,-1.573978 1.5266,-0.126424 1.860989,-0.208811 1.910452,-0.470704 0.147621,-0.781616 -3.309333,-0.829711 -5.6128,-0.07809 -0.814814,0.265874 -1.731481,0.48363 -2.037037,0.483899 -0.305555,1.85e-4 -1.076416,0.18342 -1.713026,0.407003 -1.0842813,0.38081 -1.1961663,0.388061 -1.7694403,0.114685 -0.336586,-0.160507 -1.506597,-1.049124 -2.600024,-1.974705 -3.301291,-2.794524 -5.169958,-3.978272 -7.468073,-4.730823 -1.464255,-0.479491 -1.509366,-0.607347 -0.828244,-2.34744 0.562729,-1.437631 0.582511,-1.584096 0.582511,-4.313083 0,-3.087911 -0.176015,-4.002045 -1.137361,-5.906873 -0.598374,-1.185629 -1.713963,-2.37294 -2.558145,-2.722611 -0.543663,-0.225193 -0.576855,-0.202848 -2.785398,1.875088 -1.385843,1.303888 -2.4445317,2.472428 -2.7861277,3.07522 -0.303022,0.534722 -0.676355,0.972222 -0.82963,0.972222 -0.246105,0 -0.244783,-0.08117 0.01131,-0.694445 0.825552,-1.976962 1.9663887,-3.315707 3.6429997,-4.274966 1.195154,-0.683798 1.526304,-1.026185 1.374678,-1.42132 -0.463896,-1.208893 -3.090403,0.24795 -5.2339067,2.903087 -2.08658,2.584628 -2.827089,4.613233 -2.982217,8.169709 -0.101941,2.337134 -0.110161,2.373062 -0.646159,2.824074 -0.298602,0.251253 -0.616917,0.456824 -0.70737,0.456824 -0.278395,0 -0.57491,0.734161 -0.452406,1.120137 0.06379,0.200973 0.36007,0.491632 0.658407,0.645909 0.298337,0.154276 0.542432,0.356158 0.542432,0.448626 0,0.09247 -0.255183,0.57863 -0.567074,1.080357 -0.476474,0.766488 -0.594158,1.198489 -0.736589,2.703956 -0.21753,2.299243 -0.794643,3.933985 -2.143482,6.07168 -1.304503,2.067427 -1.723979,3.208327 -1.731994,4.7107 -0.0055,1.027444 -0.07204,1.217577 -0.713061,2.037037 -0.970771,1.240994 -1.619,2.343492 -3.440782,5.852029 -1.973644,3.80101 -2.235381,4.672136 -2.08619,6.943352 l 0.112718,1.715972 -0.543507,0.401832 c -0.847767,0.626781 -1.004998,1.743324 -1.013109,7.194339 l -0.007,4.722222 0.70129,3.5008599 c 1.02921,5.137848 0.962965,7.265304 -0.324787,10.430647 -0.586637,1.441977 -0.609064,2.085155 -0.07756,2.224148 0.346307,0.09056 0.379011,0.195852 0.281596,0.906576 -0.143222,1.044913 0.100035,1.655644 0.721583,1.811644 0.631565,0.158513 1.357926,-0.296855 1.632082,-1.02318 0.241313,-0.639307 0.490452,-0.699433 0.493972,-0.119212 0.007,1.147355 0.661954,1.806374 1.793831,1.804862 0.624826,-9.25e-4 1.621897,-0.577055 1.901039,-1.098635 0.169191,-0.316139 0.26008,-0.342457 0.552337,-0.15994 0.446893,0.27909 0.817261,-0.0053 1.339141,-1.028265 0.429557,-0.842004 0.482183,-2.491032 0.126239,-3.955708 -0.130667,-0.537679 -0.222637,-2.671278 -0.23378,-5.423426 -0.0182,-4.492909 -0.0231,-4.547111 -0.504622,-5.5728669 -0.267437,-0.569706 -0.787817,-1.474231 -1.1564,-2.010056 -0.368581,-0.535824 -0.62938,-1.04019 -0.57955,-1.120816 0.104626,-0.169289 1.126346,0.03169 1.687302,0.331907 0.210274,0.112535 0.81692,1.085598 1.348104,2.162365 2.072666,4.2015769 5.080423,6.1076849 9.0765077,5.7520809 7.622321,-0.678294 9.482491,-1.724339 10.547925,-5.9314999 0.316911,-1.251413 0.482213,-1.574948 1.064426,-2.083339 0.379089,-0.33102 0.714496,-0.576613 0.745348,-0.545759 0.03085,0.03085 -0.209209,0.718355 -0.533472,1.527781 l -0.589569,1.471688 -0.07026,4.5318979 c -0.06818,4.397916 -0.08588,4.578585 -0.598411,6.111111 -0.952824,2.849022 -1.069209,4.973683 -0.322358,5.884769 0.322856,0.393852 0.93348,0.257287 1.558567,-0.348571 0.703557,-0.681915 1.059717,-0.618098 1.424632,0.255265 0.554731,1.327661 1.213359,1.556893 2.167203,0.754285 0.549052,-0.461996 0.602863,-0.47339 0.775845,-0.164289 0.281515,0.503039 0.855813,1.031087 1.121396,1.031087 0.130117,0 0.439259,-0.145833 0.686987,-0.324074 z m -47.6886927,-0.89079 c 0.241672,-0.260769 0.666579,-1.114936 0.944237,-1.898149 0.277659,-0.783212 0.660817,-1.792255 0.851464,-2.242316 l 0.346629,-0.818293 0.381498,0.409491 c 0.270544,0.290394 0.498452,0.373681 0.783624,0.286368 1.004232,-0.307472 1.420645,-1.198764 1.420645,-3.040755 0,-0.763632 0.119711,-1.594793 0.287581,-1.996689 0.166838,-0.399428 1.062085,-1.439604 2.132284,-2.477474 2.434639,-2.361089 2.843576,-3.191673 2.70267,-5.4893379 -0.05432,-0.885815 -0.340555,-2.52724 -0.636072,-3.647611 -0.486069,-1.842796 -0.580169,-2.042224 -0.986845,-2.091431 -0.372842,-0.04511 -0.61022,0.176052 -1.391332,1.296296 -0.517987,0.74288 -1.669658,2.220952 -2.559269,3.284605 -2.142185,2.5612749 -2.433714,3.0050049 -3.900234,5.9364559 -2.853016,5.702941 -3.467058,6.432704 -6.131802,7.287393 -1.81945,0.583571 -3.118373,1.252954 -3.28773,1.694291 -0.0646,0.168345 0.04719,0.420185 0.269337,0.606759 0.208876,0.175432 0.495995,0.593239 0.638043,0.928463 0.338955,0.799917 1.257583,1.196767 3.934054,1.699523 1.149062,0.215844 2.274062,0.466831 2.5,0.55775 0.721345,0.290275 1.249919,0.20162 1.701218,-0.285339 z"
     id="path338" />
  <path
     style="fill:#ff0000;fill-opacity:0;stroke-width:0.185185"
     d="m -7.7773133,8.5668409 c -0.407408,-0.314631 -1.157408,-0.761657 -1.666667,-0.993391 -1.1937087,-0.543189 -1.6711627,-1.073172 -2.1063647,-2.338113 -0.508328,-1.477476 -0.797822,-1.972131 -1.868667,-3.192944 -1.552881,-1.770359 -1.579722,-1.831222 -1.307664,-2.96528 0.295457,-1.231609 0.08307,-1.713582 -0.830665,-1.884998 -0.818563,-0.153563 -1.837002,0.03313 -2.134193,0.391218 -0.233722,0.281621 -0.184192,1.216212 0.18113,3.417719 0.27317,1.646174 0.23392,4.204428 -0.07363,4.799165 -0.319924,0.618665 -2.668863,1.906331 -4.20953,2.307624 -1.16495,0.30343 -1.72152,0.22955 -4.469813,-0.593335 -1.998233,-0.598304 -2.748472,-1.132793 -3.104567,-2.211772 -0.350092,-1.060787 -0.115429,-2.566965 0.723737,-4.645286 1.115467,-2.762624 1.031471,-3.3601 -0.472387,-3.3601 -1.696911,0 -3.233905,1.027943 -3.654461,2.444106 -0.404028,1.360511 -0.672671,1.691231 -2.224256,2.73823 -1.566701,1.057198 -2.1485,1.803346 -2.701216,3.464259 -0.674531,2.026965 -1.844346,2.525183 -4.934695,2.101665 -2.387242,-0.327163 -3.323534,-0.674211 -4.311101,-1.597963 -0.977758,-0.91458 -2.038693,-2.732828 -2.038693,-3.493948 0,-1.079384 0.392216,-1.380323 3.054503,-2.34365 2.786461,-1.00826 4.347682,-2.856929 6.945951,-8.224823 1.139458,-2.354065 1.841729,-3.5093359 3.396444,-5.5873259 5.27766,-7.053976 6.861934,-10.146497 7.61825,-14.870921 0.4927,-3.077707 0.7925,-3.819378 2.881954,-7.12963 0.642896,-1.018518 1.436433,-2.435185 1.763415,-3.148148 0.598696,-1.305422 1.37652,-4.050198 1.37652,-4.85745 0,-0.607848 0.605741,-1.73895 1.87868,-3.508063 0.599022,-0.832515 1.400541,-2.165848 1.781152,-2.962963 l 0.69202,-1.449302 -0.004,-2.5 c -0.0022,-1.375 -0.07336,-2.916666 -0.158163,-3.425925 -0.149255,-0.896373 -0.130774,-0.955479 0.579032,-1.851852 1.057735,-1.335753 1.163531,-1.603218 1.351033,-3.415544 0.210263,-2.032337 0.87892,-4.178656 1.791689,-5.751123 0.962518,-1.658173 4.7969147,-5.503724 6.1526797,-6.170579 1.293107,-0.636035 1.731507,-0.624167 3.151293,0.08531 2.506678,1.252601 4.831144,4.199349 5.398174,6.843314 0.27298,1.27286 0.115587,3.91672 -0.382891,6.431745 -0.208428,1.051605 -0.328174,2.114351 -0.266105,2.361657 0.148535,0.591809 0.863376,1.173938 2.948477,2.401085 0.945063,0.5562 2.486563,1.615252 3.425554,2.353446 2.941098,2.312168 2.743495,2.2044 3.8835833,2.118026 0.560186,-0.04244 1.935186,-0.259667 3.055556,-0.482726 2.771811,-0.551852 6.464898,-0.608572 8.518519,-0.13083 3.740175,0.870091 5.135327,1.960947 5.135327,4.015265 0,1.873324 -0.940829,3.495874 -3.315168,5.717326 -1.373702,1.285246 -1.958095,1.66617 -4.689817,3.056963 -2.481483,1.263387 -3.241339,1.741243 -3.71025,2.333291 -0.716891,0.905148 -1.244778,1.193248 -2.668705,1.456476 -2.101963,0.388568 -2.302887,0.825627 -1.491173,3.243685 0.374528,1.115696 0.517558,2.124492 0.742291,5.23538 0.153104,2.119364 0.402674,4.752088 0.5546,5.850498 0.620313,4.484813 0.186489,8.556717 -1.533315,14.3917819 -0.77497,2.629378 -0.846561,3.041398 -0.852689,4.907407 l -0.0067,2.037038 0.960535,1.759259 c 0.878763,1.609492 0.960837,1.862835 0.964089,2.975926 0.0033,1.13202 -0.04292,1.270966 -0.664492,1.997128 -0.978282,1.142903 -3.0299933,2.055707 -4.6342803,2.061785 -0.575913,0.0022 -4.888098,-1.066404 -5.845396,-1.448524 -1.158487,-0.462428 -1.491226,-2.264108 -0.82415,-4.462519 0.167863,-0.553209 0.305205,-1.151422 0.305205,-1.329365 0,-0.898077 -1.325615,-1.181537 -2.566063,-0.548707 -1.202214,0.613324 -1.235496,0.740206 -0.5944,2.266063 0.995861,2.370217 0.716982,4.5223 -0.709514,5.475263 -0.51883,0.3466 -0.876258,0.419454 -2.037038,0.415205 -1.286015,-0.0047 -1.47188,-0.05464 -2.148541,-0.577207 z m 2.448564,-0.815581 c 2.015104,-1.004169 2.689764,-2.943084 1.602232,-4.604673 -0.272379,-0.416155 -1.067007,-1.520944 -1.765839,-2.455089 -1.054007,-1.408913 -1.412418,-1.7526 -2.10253,-2.016157 -0.950129,-0.362858 -2.372216,-0.276917 -3.6094607,0.218132 -0.758324,0.30342 -1.665559,1.198751 -1.665559,1.643703 0,0.136647 0.371543,0.683721 0.825648,1.215721 0.635398,0.744387 0.87177,1.206588 1.025807,2.005861 0.340584,1.767216 0.362799,1.837502 0.681565,2.156266 0.242889,0.242889 0.5028557,0.284691 1.1974737,0.192547 l 0.887232,-0.117697 0.493202,0.977811 c 0.732939,1.453113 0.947691,1.522354 2.430229,0.783575 z m 14.123143,-0.777986 c 0.247728,-0.17824 0.784128,-0.49074 1.192,-0.694444 1.3924583,-0.695437 1.3121983,-1.818669 -0.322131,-4.50823 -1.163193,-1.914227 -1.299159,-2.920239 -0.710361,-5.255969 1.7309263,-6.8664959 2.9763163,-14.4298039 2.7036943,-16.4196389 -0.319374,-2.331056 -0.493913,-2.515776 -1.8440703,-1.951645 -1.107352,0.462682 -1.135454,0.129423 -0.148604,-1.762298 l 0.8910983,-1.708176 v -2.34517 c 0,-2.324528 -0.0063,-2.359026 -0.7126983,-3.919244 -0.391985,-0.865741 -0.752374,-1.743304 -0.800865,-1.950141 -0.04849,-0.206835 0.207487,-1.024832 0.568841,-1.817769 1.0577933,-2.321172 1.2958133,-3.755015 1.3265833,-7.99135 0.03225,-4.439968 0.151171,-4.93039 1.377399,-5.680183 1.138716,-0.696283 3.788483,-1.389413 6.017162,-1.573978 1.5266,-0.126424 1.860989,-0.208811 1.910452,-0.470704 0.147621,-0.781616 -3.309333,-0.829711 -5.6128,-0.07809 -0.814814,0.265874 -1.731481,0.48363 -2.037037,0.483899 -0.305555,1.85e-4 -1.076416,0.18342 -1.713026,0.407003 -1.0842813,0.38081 -1.1961663,0.388061 -1.7694403,0.114685 -0.336586,-0.160507 -1.506597,-1.049124 -2.600024,-1.974705 -3.301291,-2.794524 -5.169958,-3.978272 -7.468073,-4.730823 -1.464255,-0.479491 -1.509366,-0.607347 -0.828244,-2.34744 0.562729,-1.437631 0.582511,-1.584096 0.582511,-4.313083 0,-3.087911 -0.176015,-4.002045 -1.137361,-5.906873 -0.598374,-1.185629 -1.713963,-2.37294 -2.558145,-2.722611 -0.543663,-0.225193 -0.576855,-0.202848 -2.785398,1.875088 -1.385843,1.303888 -2.4445317,2.472428 -2.7861277,3.07522 -0.303022,0.534722 -0.676355,0.972222 -0.82963,0.972222 -0.246105,0 -0.244783,-0.08117 0.01131,-0.694445 0.825552,-1.976962 1.9663887,-3.315707 3.6429997,-4.274966 1.195154,-0.683798 1.526304,-1.026185 1.374678,-1.42132 -0.463896,-1.208893 -3.090403,0.24795 -5.2339067,2.903087 -2.08658,2.584628 -2.827089,4.613233 -2.982217,8.169709 -0.101941,2.337134 -0.110161,2.373062 -0.646159,2.824074 -0.298602,0.251253 -0.616917,0.456824 -0.70737,0.456824 -0.278395,0 -0.57491,0.734161 -0.452406,1.120137 0.06379,0.200973 0.36007,0.491632 0.658407,0.645909 0.298337,0.154276 0.542432,0.356158 0.542432,0.448626 0,0.09247 -0.255183,0.57863 -0.567074,1.080357 -0.476474,0.766488 -0.594158,1.198489 -0.736589,2.703956 -0.21753,2.299243 -0.794643,3.933985 -2.143482,6.07168 -1.304503,2.067427 -1.723979,3.208327 -1.731994,4.7107 -0.0055,1.027444 -0.07204,1.217577 -0.713061,2.037037 -0.970771,1.240994 -1.619,2.343492 -3.440782,5.852029 -1.973644,3.80101 -2.235381,4.672136 -2.08619,6.943352 l 0.112718,1.715972 -0.543507,0.401832 c -0.847767,0.626781 -1.004998,1.743324 -1.013109,7.194339 l -0.007,4.722222 0.70129,3.5008599 c 1.02921,5.137848 0.962965,7.265304 -0.324787,10.430647 -0.586637,1.441977 -0.609064,2.085155 -0.07756,2.224148 0.346307,0.09056 0.379011,0.195852 0.281596,0.906576 -0.143222,1.044913 0.100035,1.655644 0.721583,1.811644 0.631565,0.158513 1.357926,-0.296855 1.632082,-1.02318 0.241313,-0.639307 0.490452,-0.699433 0.493972,-0.119212 0.007,1.147355 0.661954,1.806374 1.793831,1.804862 0.624826,-9.25e-4 1.621897,-0.577055 1.901039,-1.098635 0.169191,-0.316139 0.26008,-0.342457 0.552337,-0.15994 0.446893,0.27909 0.817261,-0.0053 1.339141,-1.028265 0.429557,-0.842004 0.482183,-2.491032 0.126239,-3.955708 -0.130667,-0.537679 -0.222637,-2.671278 -0.23378,-5.423426 -0.0182,-4.492909 -0.0231,-4.547111 -0.504622,-5.5728669 -0.267437,-0.569706 -0.787817,-1.474231 -1.1564,-2.010056 -0.368581,-0.535824 -0.62938,-1.04019 -0.57955,-1.120816 0.104626,-0.169289 1.126346,0.03169 1.687302,0.331907 0.210274,0.112535 0.81692,1.085598 1.348104,2.162365 2.072666,4.2015769 5.080423,6.1076849 9.0765077,5.7520809 7.622321,-0.678294 9.482491,-1.724339 10.547925,-5.9314999 0.316911,-1.251413 0.482213,-1.574948 1.064426,-2.083339 0.379089,-0.33102 0.714496,-0.576613 0.745348,-0.545759 0.03085,0.03085 -0.209209,0.718355 -0.533472,1.527781 l -0.589569,1.471688 -0.07026,4.5318979 c -0.06818,4.397916 -0.08588,4.578585 -0.598411,6.111111 -0.952824,2.849022 -1.069209,4.973683 -0.322358,5.884769 0.322856,0.393852 0.93348,0.257287 1.558567,-0.348571 0.703557,-0.681915 1.059717,-0.618098 1.424632,0.255265 0.554731,1.327661 1.213359,1.556893 2.167203,0.754285 0.549052,-0.461996 0.602863,-0.47339 0.775845,-0.164289 0.281515,0.503039 0.855813,1.031087 1.121396,1.031087 0.130117,0 0.439259,-0.145833 0.686987,-0.324074 z m -47.6886927,-0.89079 c 0.241672,-0.260769 0.666579,-1.114936 0.944237,-1.898149 0.277659,-0.783212 0.660817,-1.792255 0.851464,-2.242316 l 0.346629,-0.818293 0.381498,0.409491 c 0.270544,0.290394 0.498452,0.373681 0.783624,0.286368 1.004232,-0.307472 1.420645,-1.198764 1.420645,-3.040755 0,-0.763632 0.119711,-1.594793 0.287581,-1.996689 0.166838,-0.399428 1.062085,-1.439604 2.132284,-2.477474 2.434639,-2.361089 2.843576,-3.191673 2.70267,-5.4893379 -0.05432,-0.885815 -0.340555,-2.52724 -0.636072,-3.647611 -0.486069,-1.842796 -0.580169,-2.042224 -0.986845,-2.091431 -0.372842,-0.04511 -0.61022,0.176052 -1.391332,1.296296 -0.517987,0.74288 -1.669658,2.220952 -2.559269,3.284605 -2.142185,2.5612749 -2.433714,3.0050049 -3.900234,5.9364559 -2.853016,5.702941 -3.467058,6.432704 -6.131802,7.287393 -1.81945,0.583571 -3.118373,1.252954 -3.28773,1.694291 -0.0646,0.168345 0.04719,0.420185 0.269337,0.606759 0.208876,0.175432 0.495995,0.593239 0.638043,0.928463 0.338955,0.799917 1.257583,1.196767 3.934054,1.699523 1.149062,0.215844 2.274062,0.466831 2.5,0.55775 0.721345,0.290275 1.249919,0.20162 1.701218,-0.285339 z"
     id="path342" />
  <path
     style="fill:#ff0000;fill-opacity:0;stroke-width:0.185185"
     d="m -7.7773133,8.5668409 c -0.407408,-0.314631 -1.157408,-0.761657 -1.666667,-0.993391 -1.1937087,-0.543189 -1.6711627,-1.073172 -2.1063647,-2.338113 -0.508328,-1.477476 -0.797822,-1.972131 -1.868667,-3.192944 -1.552881,-1.770359 -1.579722,-1.831222 -1.307664,-2.96528 0.295457,-1.231609 0.08307,-1.713582 -0.830665,-1.884998 -0.818563,-0.153563 -1.837002,0.03313 -2.134193,0.391218 -0.233722,0.281621 -0.184192,1.216212 0.18113,3.417719 0.27317,1.646174 0.23392,4.204428 -0.07363,4.799165 -0.319924,0.618665 -2.668863,1.906331 -4.20953,2.307624 -1.16495,0.30343 -1.72152,0.22955 -4.469813,-0.593335 -1.998233,-0.598304 -2.748472,-1.132793 -3.104567,-2.211772 -0.350092,-1.060787 -0.115429,-2.566965 0.723737,-4.645286 1.115467,-2.762624 1.031471,-3.3601 -0.472387,-3.3601 -1.696911,0 -3.233905,1.027943 -3.654461,2.444106 -0.404028,1.360511 -0.672671,1.691231 -2.224256,2.73823 -1.566701,1.057198 -2.1485,1.803346 -2.701216,3.464259 -0.674531,2.026965 -1.844346,2.525183 -4.934695,2.101665 -2.387242,-0.327163 -3.323534,-0.674211 -4.311101,-1.597963 -0.977758,-0.91458 -2.038693,-2.732828 -2.038693,-3.493948 0,-1.079384 0.392216,-1.380323 3.054503,-2.34365 2.786461,-1.00826 4.347682,-2.856929 6.945951,-8.224823 1.139458,-2.354065 1.841729,-3.5093359 3.396444,-5.5873259 5.27766,-7.053976 6.861934,-10.146497 7.61825,-14.870921 0.4927,-3.077707 0.7925,-3.819378 2.881954,-7.12963 0.642896,-1.018518 1.436433,-2.435185 1.763415,-3.148148 0.598696,-1.305422 1.37652,-4.050198 1.37652,-4.85745 0,-0.607848 0.605741,-1.73895 1.87868,-3.508063 0.599022,-0.832515 1.400541,-2.165848 1.781152,-2.962963 l 0.69202,-1.449302 -0.004,-2.5 c -0.0022,-1.375 -0.07336,-2.916666 -0.158163,-3.425925 -0.149255,-0.896373 -0.130774,-0.955479 0.579032,-1.851852 1.057735,-1.335753 1.163531,-1.603218 1.351033,-3.415544 0.210263,-2.032337 0.87892,-4.178656 1.791689,-5.751123 0.962518,-1.658173 4.7969147,-5.503724 6.1526797,-6.170579 1.293107,-0.636035 1.731507,-0.624167 3.151293,0.08531 2.506678,1.252601 4.831144,4.199349 5.398174,6.843314 0.27298,1.27286 0.115587,3.91672 -0.382891,6.431745 -0.208428,1.051605 -0.328174,2.114351 -0.266105,2.361657 0.148535,0.591809 0.863376,1.173938 2.948477,2.401085 0.945063,0.5562 2.486563,1.615252 3.425554,2.353446 2.941098,2.312168 2.743495,2.2044 3.8835833,2.118026 0.560186,-0.04244 1.935186,-0.259667 3.055556,-0.482726 2.771811,-0.551852 6.464898,-0.608572 8.518519,-0.13083 3.740175,0.870091 5.135327,1.960947 5.135327,4.015265 0,1.873324 -0.940829,3.495874 -3.315168,5.717326 -1.373702,1.285246 -1.958095,1.66617 -4.689817,3.056963 -2.481483,1.263387 -3.241339,1.741243 -3.71025,2.333291 -0.716891,0.905148 -1.244778,1.193248 -2.668705,1.456476 -2.101963,0.388568 -2.302887,0.825627 -1.491173,3.243685 0.374528,1.115696 0.517558,2.124492 0.742291,5.23538 0.153104,2.119364 0.402674,4.752088 0.5546,5.850498 0.620313,4.484813 0.186489,8.556717 -1.533315,14.3917819 -0.77497,2.629378 -0.846561,3.041398 -0.852689,4.907407 l -0.0067,2.037038 0.960535,1.759259 c 0.878763,1.609492 0.960837,1.862835 0.964089,2.975926 0.0033,1.13202 -0.04292,1.270966 -0.664492,1.997128 -0.978282,1.142903 -3.0299933,2.055707 -4.6342803,2.061785 -0.575913,0.0022 -4.888098,-1.066404 -5.845396,-1.448524 -1.158487,-0.462428 -1.491226,-2.264108 -0.82415,-4.462519 0.167863,-0.553209 0.305205,-1.151422 0.305205,-1.329365 0,-0.898077 -1.325615,-1.181537 -2.566063,-0.548707 -1.202214,0.613324 -1.235496,0.740206 -0.5944,2.266063 0.995861,2.370217 0.716982,4.5223 -0.709514,5.475263 -0.51883,0.3466 -0.876258,0.419454 -2.037038,0.415205 -1.286015,-0.0047 -1.47188,-0.05464 -2.148541,-0.577207 z m 2.448564,-0.815581 c 2.015104,-1.004169 2.689764,-2.943084 1.602232,-4.604673 -0.272379,-0.416155 -1.067007,-1.520944 -1.765839,-2.455089 -1.054007,-1.408913 -1.412418,-1.7526 -2.10253,-2.016157 -0.950129,-0.362858 -2.372216,-0.276917 -3.6094607,0.218132 -0.758324,0.30342 -1.665559,1.198751 -1.665559,1.643703 0,0.136647 0.371543,0.683721 0.825648,1.215721 0.635398,0.744387 0.87177,1.206588 1.025807,2.005861 0.340584,1.767216 0.362799,1.837502 0.681565,2.156266 0.242889,0.242889 0.5028557,0.284691 1.1974737,0.192547 l 0.887232,-0.117697 0.493202,0.977811 c 0.732939,1.453113 0.947691,1.522354 2.430229,0.783575 z m 14.123143,-0.777986 c 0.247728,-0.17824 0.784128,-0.49074 1.192,-0.694444 1.3924583,-0.695437 1.3121983,-1.818669 -0.322131,-4.50823 -1.163193,-1.914227 -1.299159,-2.920239 -0.710361,-5.255969 1.7309263,-6.8664959 2.9763163,-14.4298039 2.7036943,-16.4196389 -0.319374,-2.331056 -0.493913,-2.515776 -1.8440703,-1.951645 -1.107352,0.462682 -1.135454,0.129423 -0.148604,-1.762298 l 0.8910983,-1.708176 v -2.34517 c 0,-2.324528 -0.0063,-2.359026 -0.7126983,-3.919244 -0.391985,-0.865741 -0.752374,-1.743304 -0.800865,-1.950141 -0.04849,-0.206835 0.207487,-1.024832 0.568841,-1.817769 1.0577933,-2.321172 1.2958133,-3.755015 1.3265833,-7.99135 0.03225,-4.439968 0.151171,-4.93039 1.377399,-5.680183 1.138716,-0.696283 3.788483,-1.389413 6.017162,-1.573978 1.5266,-0.126424 1.860989,-0.208811 1.910452,-0.470704 0.147621,-0.781616 -3.309333,-0.829711 -5.6128,-0.07809 -0.814814,0.265874 -1.731481,0.48363 -2.037037,0.483899 -0.305555,1.85e-4 -1.076416,0.18342 -1.713026,0.407003 -1.0842813,0.38081 -1.1961663,0.388061 -1.7694403,0.114685 -0.336586,-0.160507 -1.506597,-1.049124 -2.600024,-1.974705 -3.301291,-2.794524 -5.169958,-3.978272 -7.468073,-4.730823 -1.464255,-0.479491 -1.509366,-0.607347 -0.828244,-2.34744 0.562729,-1.437631 0.582511,-1.584096 0.582511,-4.313083 0,-3.087911 -0.176015,-4.002045 -1.137361,-5.906873 -0.598374,-1.185629 -1.713963,-2.37294 -2.558145,-2.722611 -0.543663,-0.225193 -0.576855,-0.202848 -2.785398,1.875088 -1.385843,1.303888 -2.4445317,2.472428 -2.7861277,3.07522 -0.303022,0.534722 -0.676355,0.972222 -0.82963,0.972222 -0.246105,0 -0.244783,-0.08117 0.01131,-0.694445 0.825552,-1.976962 1.9663887,-3.315707 3.6429997,-4.274966 1.195154,-0.683798 1.526304,-1.026185 1.374678,-1.42132 -0.463896,-1.208893 -3.090403,0.24795 -5.2339067,2.903087 -2.08658,2.584628 -2.827089,4.613233 -2.982217,8.169709 -0.101941,2.337134 -0.110161,2.373062 -0.646159,2.824074 -0.298602,0.251253 -0.616917,0.456824 -0.70737,0.456824 -0.278395,0 -0.57491,0.734161 -0.452406,1.120137 0.06379,0.200973 0.36007,0.491632 0.658407,0.645909 0.298337,0.154276 0.542432,0.356158 0.542432,0.448626 0,0.09247 -0.255183,0.57863 -0.567074,1.080357 -0.476474,0.766488 -0.594158,1.198489 -0.736589,2.703956 -0.21753,2.299243 -0.794643,3.933985 -2.143482,6.07168 -1.304503,2.067427 -1.723979,3.208327 -1.731994,4.7107 -0.0055,1.027444 -0.07204,1.217577 -0.713061,2.037037 -0.970771,1.240994 -1.619,2.343492 -3.440782,5.852029 -1.973644,3.80101 -2.235381,4.672136 -2.08619,6.943352 l 0.112718,1.715972 -0.543507,0.401832 c -0.847767,0.626781 -1.004998,1.743324 -1.013109,7.194339 l -0.007,4.722222 0.70129,3.5008599 c 1.02921,5.137848 0.962965,7.265304 -0.324787,10.430647 -0.586637,1.441977 -0.609064,2.085155 -0.07756,2.224148 0.346307,0.09056 0.379011,0.195852 0.281596,0.906576 -0.143222,1.044913 0.100035,1.655644 0.721583,1.811644 0.631565,0.158513 1.357926,-0.296855 1.632082,-1.02318 0.241313,-0.639307 0.490452,-0.699433 0.493972,-0.119212 0.007,1.147355 0.661954,1.806374 1.793831,1.804862 0.624826,-9.25e-4 1.621897,-0.577055 1.901039,-1.098635 0.169191,-0.316139 0.26008,-0.342457 0.552337,-0.15994 0.446893,0.27909 0.817261,-0.0053 1.339141,-1.028265 0.429557,-0.842004 0.482183,-2.491032 0.126239,-3.955708 -0.130667,-0.537679 -0.222637,-2.671278 -0.23378,-5.423426 -0.0182,-4.492909 -0.0231,-4.547111 -0.504622,-5.5728669 -0.267437,-0.569706 -0.787817,-1.474231 -1.1564,-2.010056 -0.368581,-0.535824 -0.62938,-1.04019 -0.57955,-1.120816 0.104626,-0.169289 1.126346,0.03169 1.687302,0.331907 0.210274,0.112535 0.81692,1.085598 1.348104,2.162365 2.072666,4.2015769 5.080423,6.1076849 9.0765077,5.7520809 7.622321,-0.678294 9.482491,-1.724339 10.547925,-5.9314999 0.316911,-1.251413 0.482213,-1.574948 1.064426,-2.083339 0.379089,-0.33102 0.714496,-0.576613 0.745348,-0.545759 0.03085,0.03085 -0.209209,0.718355 -0.533472,1.527781 l -0.589569,1.471688 -0.07026,4.5318979 c -0.06818,4.397916 -0.08588,4.578585 -0.598411,6.111111 -0.952824,2.849022 -1.069209,4.973683 -0.322358,5.884769 0.322856,0.393852 0.93348,0.257287 1.558567,-0.348571 0.703557,-0.681915 1.059717,-0.618098 1.424632,0.255265 0.554731,1.327661 1.213359,1.556893 2.167203,0.754285 0.549052,-0.461996 0.602863,-0.47339 0.775845,-0.164289 0.281515,0.503039 0.855813,1.031087 1.121396,1.031087 0.130117,0 0.439259,-0.145833 0.686987,-0.324074 z m -47.6886927,-0.89079 c 0.241672,-0.260769 0.666579,-1.114936 0.944237,-1.898149 0.277659,-0.783212 0.660817,-1.792255 0.851464,-2.242316 l 0.346629,-0.818293 0.381498,0.409491 c 0.270544,0.290394 0.498452,0.373681 0.783624,0.286368 1.004232,-0.307472 1.420645,-1.198764 1.420645,-3.040755 0,-0.763632 0.119711,-1.594793 0.287581,-1.996689 0.166838,-0.399428 1.062085,-1.439604 2.132284,-2.477474 2.434639,-2.361089 2.843576,-3.191673 2.70267,-5.4893379 -0.05432,-0.885815 -0.340555,-2.52724 -0.636072,-3.647611 -0.486069,-1.842796 -0.580169,-2.042224 -0.986845,-2.091431 -0.372842,-0.04511 -0.61022,0.176052 -1.391332,1.296296 -0.517987,0.74288 -1.669658,2.220952 -2.559269,3.284605 -2.142185,2.5612749 -2.433714,3.0050049 -3.900234,5.9364559 -2.853016,5.702941 -3.467058,6.432704 -6.131802,7.287393 -1.81945,0.583571 -3.118373,1.252954 -3.28773,1.694291 -0.0646,0.168345 0.04719,0.420185 0.269337,0.606759 0.208876,0.175432 0.495995,0.593239 0.638043,0.928463 0.338955,0.799917 1.257583,1.196767 3.934054,1.699523 1.149062,0.215844 2.274062,0.466831 2.5,0.55775 0.721345,0.290275 1.249919,0.20162 1.701218,-0.285339 z"
     id="path344" />
  <path
     style="fill:#ff0000;fill-opacity:0;stroke-width:0.185185"
     d="m -7.7587883,8.5668409 c -0.407407,-0.314631 -1.171056,-0.766417 -1.696994,-1.003968 -1.2120797,-0.547465 -1.6427167,-1.01443 -2.0224867,-2.193113 -0.430076,-1.334815 -1.0841,-2.407137 -2.225169,-3.648336 -1.139054,-1.239005 -1.327452,-1.764598 -0.994326,-2.773979 0.457285,-1.385588 -0.512591,-2.142271 -2.207468,-1.722238 -0.879854,0.21805 -1.162502,0.804123 -0.927899,1.923993 0.374002,1.785265 0.563165,3.672013 0.504521,5.032156 -0.05223,1.211317 -0.129489,1.494224 -0.523502,1.916889 -0.981298,1.052655 -4.310798,2.377996 -5.474106,2.179024 -1.18299,-0.202341 -4.464883,-1.217989 -5.004872,-1.548859 -1.462929,-0.896387 -1.568822,-3.151441 -0.288685,-6.147687 0.804232,-1.88236 0.893221,-2.333743 0.576695,-2.925179 -0.445767,-0.83292 -3.306315,-0.130437 -4.225077,1.03758 -0.223347,0.283939 -0.451033,0.731882 -0.505968,0.995424 -0.244185,1.171449 -0.643782,1.682228 -2.131744,2.724869 -1.663444,1.165607 -2.386381,2.102802 -2.84863,3.692881 -0.565319,1.944628 -1.956821,2.41763 -5.441815,1.849793 -1.072169,-0.174698 -2.249419,-0.470691 -2.616111,-0.657765 -1.505985,-0.768294 -3.222657,-3.299994 -3.114101,-4.592583 0.07004,-0.833924 0.628954,-1.247335 2.662243,-1.969169 1.809123,-0.642251 2.590175,-1.135253 3.587888,-2.264687 1.260913,-1.42738 1.722754,-2.18512 3.600774,-5.907772 1.352773,-2.6814969 2.167395,-4.0308379 3.459144,-5.7297299 2.225404,-2.926824 4.832913,-6.832334 5.666436,-8.487147 1.117366,-2.218341 1.430457,-3.269796 2.091192,-7.022909 0.454737,-2.582991 0.809554,-3.435204 2.594184,-6.230811 0.741262,-1.161182 1.588677,-2.626093 1.883147,-3.255359 0.518458,-1.107919 1.456063,-4.408888 1.456063,-5.126269 0,-0.523106 0.764254,-1.930502 1.844132,-3.396024 0.52535,-0.712963 1.304329,-2.00463 1.731066,-2.87037 l 0.775886,-1.574075 -0.0052,-2.407407 c -0.0029,-1.324074 -0.0748,-2.866909 -0.159904,-3.428523 -0.153698,-1.014278 -0.149394,-1.02787 0.642707,-2.029954 0.9536,-1.206395 1.263376,-1.999369 1.274263,-3.2619 0.02038,-2.363421 1.376976,-5.6253 3.269386,-7.861104 1.288242,-1.522006 3.5731637,-3.527158 4.7478137,-4.166482 0.713821,-0.38851 1.080293,-0.477617 1.650021,-0.401201 1.792756,0.240459 4.975073,2.973375 6.045117,5.191435 1.113146,2.307408 1.204496,4.480778 0.368606,8.769812 l -0.407537,2.091109 0.375972,0.511367 c 0.206785,0.281252 1.409996,1.158885 2.673804,1.950297 1.263805,0.791411 2.954792,1.958077 3.757748,2.592592 2.6671,2.107609 2.505764,2.022317 3.6383093,1.923434 0.560185,-0.04891 1.935185,-0.267415 3.055555,-0.485567 3.953665,-0.769833 8.024873,-0.551578 10.925926,0.58573 1.963621,0.769803 2.685276,1.69072 2.685039,3.426425 -1.85e-4,1.480734 -0.726644,2.940086 -2.313565,4.647717 -1.639175,1.763859 -2.973329,2.693 -6.019622,4.192224 -2.028659,0.998398 -2.67457,1.417015 -3.425926,2.220346 -0.883163,0.944258 -1.770452,1.398554 -2.737429,1.40158 -0.587278,0.0019 -1.578826,0.514426 -1.802095,0.931606 -0.179035,0.334531 -0.13342,0.640127 0.25803,1.72864 0.56628,1.574669 0.788633,2.965215 0.951735,5.951899 0.06675,1.222222 0.238296,3.138888 0.381224,4.259259 0.770456,6.039398 0.401524,10.143228 -1.448379,16.1111119 -0.677382,2.185263 -0.74818,2.603918 -0.767256,4.537037 l -0.02102,2.12963 0.972222,1.808277 c 0.837937,1.558517 0.972223,1.94985 0.972223,2.833271 0,1.143511 -0.269539,1.789922 -1.048282,2.514003 -1.1390393,1.059088 -3.4619263,1.784017 -4.9847653,1.555654 -1.758511,-0.263705 -5.284405,-1.351705 -5.726529,-1.767059 -0.684669,-0.643211 -0.765021,-1.727183 -0.282741,-3.814257 0.389191,-1.684232 0.39325,-1.784982 0.08563,-2.124902 -0.195258,-0.215756 -0.565887,-0.356839 -0.93743,-0.356839 -0.756517,0 -2.254305,0.703552 -2.386852,1.12117 -0.05368,0.169132 0.161206,0.881891 0.477524,1.583911 0.509667,1.131128 0.568095,1.434474 0.51336,2.665289 -0.103023,2.316622 -1.017132,3.152917 -3.435447,3.142996 -1.116152,-0.0046 -1.338399,-0.06882 -1.996689,-0.577207 z m 2.053809,-0.616417 c 1.515732,-0.633314 2.480715,-1.886329 2.48228,-3.223203 9.26e-4,-0.864813 -0.390924,-1.5467 -2.52975,-4.401232 -1.418996,-1.893831 -2.619663,-2.292867 -4.8796427,-1.621724 -1.038598,0.30843 -2.219289,1.273913 -2.219289,1.814772 0,0.162669 0.280312,0.608502 0.622913,0.990741 0.844919,0.942669 1.143741,1.590459 1.388404,3.009793 0.255161,1.480237 0.535087,1.735863 1.7327317,1.582316 l 0.873677,-0.112013 0.493202,0.977811 c 0.689517,1.367026 0.887256,1.462495 2.035474,0.982739 z m 14.595378,-1.086677 c 0.315169,-0.238482 0.807693,-0.491447 1.094499,-0.562147 0.3621553,-0.08927 0.6042183,-0.326609 0.7923513,-0.776874 0.344032,-0.823383 0.149086,-1.616794 -0.771146,-3.138485 -1.3190133,-2.181115 -1.4103763,-2.438917 -1.3350573,-3.767111 0.03834,-0.676054 0.541809,-3.312523 1.118827,-5.858819 1.6534563,-7.2964669 2.1763623,-11.7499499 1.6362003,-13.9351849 -0.269066,-1.088516 -0.442761,-1.162806 -1.5940223,-0.681779 -1.00974,0.421899 -1.183907,0.126576 -0.574115,-0.973487 1.1891433,-2.145213 1.2948863,-2.486933 1.3738873,-4.439877 0.08323,-2.057434 -0.211305,-3.321297 -1.2660403,-5.432636 l -0.508808,-1.018518 0.716061,-1.590037 c 1.1237003,-2.495204 1.3420603,-3.773913 1.3728933,-8.039593 0.03054,-4.224955 0.1773,-4.917785 1.185441,-5.596202 1.056131,-0.710711 3.454883,-1.36565 5.848387,-1.596805 1.845592,-0.178239 2.230279,-0.267943 2.280822,-0.531858 0.143993,-0.751866 -3.334013,-0.845374 -5.426774,-0.145901 -0.712963,0.238296 -1.75463,0.490314 -2.314815,0.56004 -0.560185,0.06973 -1.404331,0.278258 -1.875879,0.463404 -1.1699343,0.459357 -1.4240433,0.331744 -4.6250583,-2.322696 -2.843341,-2.357837 -4.570565,-3.452791 -6.671257,-4.229167 -0.728765,-0.269337 -1.410156,-0.624859 -1.514204,-0.790048 -0.14085,-0.223618 -0.03924,-0.67304 0.397754,-1.759259 0.566416,-1.40792 0.586739,-1.552774 0.581409,-4.1441 -0.0063,-3.053032 -0.134548,-3.780771 -0.994411,-5.641833 -0.658176,-1.424536 -1.489033,-2.384869 -2.556345,-2.954713 l -0.666418,-0.355805 -2.324271,2.191356 c -1.327911,1.251973 -2.5063407,2.534561 -2.7489957,2.99197 -0.374928,0.706747 -0.821672,1.122516 -1.007004,0.937184 -0.03453,-0.03453 0.223167,-0.659452 0.572659,-1.388719 0.732447,-1.528361 1.7677447,-2.637708 3.3205277,-3.558025 1.337178,-0.792532 1.616224,-1.166419 1.189228,-1.593415 -1.116009,-1.11601 -5.1456427,2.287651 -6.8203827,5.760889 -0.876598,1.817971 -1.294389,3.782629 -1.294389,6.086842 v 1.750604 l -0.601852,0.472663 c -1.052233,0.826367 -1.25,1.035134 -1.25,1.31952 0,0.294165 0.44683,0.785701 1.034768,1.1383 0.297536,0.178437 0.317443,0.267209 0.124578,0.555556 -0.758504,1.134018 -1.012035,1.881739 -1.174354,3.463422 -0.235438,2.294193 -0.748666,3.764433 -2.063787,5.91213 -1.411114,2.304461 -1.810094,3.359563 -1.810094,4.786794 0,1.050415 -0.05829,1.20755 -0.827598,2.230956 -0.939028,1.249183 -2.941152,4.820083 -4.39502,7.838768 l -0.981085,2.037037 -0.0066,2.249706 -0.0066,2.249705 -0.577605,0.539565 c -0.777635,0.726422 -0.890728,1.63845 -0.890728,7.183247 0,4.386637 0.0093,4.493552 0.716767,8.2200519 0.640154,3.372044 0.707228,3.995554 0.627513,5.833333 -0.07684,1.771551 -0.182956,2.315271 -0.763008,3.909578 -0.783711,2.154074 -0.836816,2.677247 -0.286377,2.821189 0.34095,0.08916 0.373488,0.194674 0.270937,0.878541 -0.152987,1.020193 0.112716,1.684233 0.736568,1.840811 0.636985,0.159872 1.347609,-0.291772 1.6005,-1.017217 0.242635,-0.696025 0.523026,-0.696794 0.523026,-0.0015 0,0.297226 0.05176,0.675307 0.115033,0.840183 0.153274,0.399426 1.037728,0.841797 1.681326,0.840937 0.624826,-9.26e-4 1.621896,-0.577055 1.901039,-1.098635 0.169191,-0.316139 0.26008,-0.342457 0.552337,-0.159941 0.442459,0.276323 0.816824,-0.0044 1.319355,-0.989483 0.411888,-0.807368 0.472078,-2.544989 0.133789,-3.862359 -0.13125,-0.511298 -0.21895,-2.586517 -0.226902,-5.370352 -0.01457,-5.099298 -0.05054,-5.272746 -1.58208,-7.6297409 -0.403465,-0.620922 -0.69508,-1.191233 -0.64803,-1.267361 0.08456,-0.136819 0.977856,0.02166 1.625517,0.288383 0.183863,0.07572 0.736815,0.939491 1.22878,1.919491 1.494116,2.9762969 2.709657,4.3387409 4.708027,5.2770169 2.005945,0.941831 3.424571,1.010257 7.8029707,0.376365 3.453997,-0.500059 5.111882,-1.225969 6.11898,-2.679213 0.282346,-0.407426 0.746291,-1.550711 1.030987,-2.5406349 0.441348,-1.534617 0.618991,-1.888556 1.205431,-2.401719 0.378291,-0.331021 0.716661,-0.572996 0.751934,-0.537724 0.03527,0.03527 -0.134424,0.51444 -0.377106,1.064818 -0.722976,1.639695 -0.859855,2.7382639 -0.859855,6.9010389 0,3.862126 -0.01037,3.968291 -0.540528,5.536725 -0.768721,2.274172 -1.048152,4.153931 -0.753415,5.068272 0.439591,1.363715 0.900452,1.514061 1.913798,0.624332 0.348008,-0.305556 0.720619,-0.555556 0.828024,-0.555556 0.107404,0 0.429735,0.4375 0.716293,0.972222 0.63415,1.183339 1.249639,1.371543 2.00737,0.613811 0.497035,-0.497037 0.828458,-0.609577 0.828458,-0.28132 0,0.266344 0.858205,1.102694 1.131509,1.102694 0.122331,0 0.480285,-0.19512 0.795455,-0.433601 z M -39.246824,6.4409059 c 0.389984,-0.149652 1.121403,-1.601858 1.700882,-3.377043 0.586224,-1.795848 0.720701,-1.962598 1.197907,-1.485392 0.253295,0.253296 0.493956,0.328939 0.774646,0.243483 1.020488,-0.310685 1.422949,-1.219219 1.42468,-3.216139 0.0014,-1.661367 0.42167,-2.408493 2.466157,-4.384572 2.071411,-2.002102 2.589405,-2.92638 2.68775,-4.7958429 0.05112,-0.971749 -0.04985,-1.739539 -0.401812,-3.055556 -0.258546,-0.966724 -0.561516,-2.111848 -0.673268,-2.544718 -0.319152,-1.236256 -0.823762,-1.094565 -1.978538,0.555555 -0.516761,0.738426 -1.641942,2.175926 -2.500404,3.194445 -2.091755,2.4817549 -2.407832,2.9751869 -4.408473,6.8821219 -2.563567,5.006241 -3.066847,5.566643 -5.801758,6.460256 -1.717612,0.561217 -2.995972,1.232015 -3.15937,1.657824 -0.0646,0.168345 0.04719,0.420185 0.269337,0.606759 0.208876,0.175432 0.495995,0.593239 0.638042,0.928463 0.335179,0.791006 1.328393,1.233317 3.82746,1.7045 1.048454,0.19768 2.15628,0.438235 2.461835,0.534571 0.686741,0.216513 1.084446,0.241126 1.474927,0.09128 z"
     id="path346" />
  <path
     style="fill:#ff0000;fill-opacity:0;stroke-width:0.185185"
     d="m -7.7587883,8.5668409 c -0.407407,-0.314631 -1.171056,-0.766417 -1.696994,-1.003968 -1.2120797,-0.547465 -1.6427167,-1.01443 -2.0224867,-2.193113 -0.430076,-1.334815 -1.0841,-2.407137 -2.225169,-3.648336 -1.139054,-1.239005 -1.327452,-1.764598 -0.994326,-2.773979 0.457285,-1.385588 -0.512591,-2.142271 -2.207468,-1.722238 -0.879854,0.21805 -1.162502,0.804123 -0.927899,1.923993 0.374002,1.785265 0.563165,3.672013 0.504521,5.032156 -0.05223,1.211317 -0.129489,1.494224 -0.523502,1.916889 -0.981298,1.052655 -4.310798,2.377996 -5.474106,2.179024 -1.18299,-0.202341 -4.464883,-1.217989 -5.004872,-1.548859 -1.462929,-0.896387 -1.568822,-3.151441 -0.288685,-6.147687 0.804232,-1.88236 0.893221,-2.333743 0.576695,-2.925179 -0.445767,-0.83292 -3.306315,-0.130437 -4.225077,1.03758 -0.223347,0.283939 -0.451033,0.731882 -0.505968,0.995424 -0.244185,1.171449 -0.643782,1.682228 -2.131744,2.724869 -1.663444,1.165607 -2.386381,2.102802 -2.84863,3.692881 -0.565319,1.944628 -1.956821,2.41763 -5.441815,1.849793 -1.072169,-0.174698 -2.249419,-0.470691 -2.616111,-0.657765 -1.505985,-0.768294 -3.222657,-3.299994 -3.114101,-4.592583 0.07004,-0.833924 0.628954,-1.247335 2.662243,-1.969169 1.809123,-0.642251 2.590175,-1.135253 3.587888,-2.264687 1.260913,-1.42738 1.722754,-2.18512 3.600774,-5.907772 1.352773,-2.6814969 2.167395,-4.0308379 3.459144,-5.7297299 2.225404,-2.926824 4.832913,-6.832334 5.666436,-8.487147 1.117366,-2.218341 1.430457,-3.269796 2.091192,-7.022909 0.454737,-2.582991 0.809554,-3.435204 2.594184,-6.230811 0.741262,-1.161182 1.588677,-2.626093 1.883147,-3.255359 0.518458,-1.107919 1.456063,-4.408888 1.456063,-5.126269 0,-0.523106 0.764254,-1.930502 1.844132,-3.396024 0.52535,-0.712963 1.304329,-2.00463 1.731066,-2.87037 l 0.775886,-1.574075 -0.0052,-2.407407 c -0.0029,-1.324074 -0.0748,-2.866909 -0.159904,-3.428523 -0.153698,-1.014278 -0.149394,-1.02787 0.642707,-2.029954 0.9536,-1.206395 1.263376,-1.999369 1.274263,-3.2619 0.02038,-2.363421 1.376976,-5.6253 3.269386,-7.861104 1.288242,-1.522006 3.5731637,-3.527158 4.7478137,-4.166482 0.713821,-0.38851 1.080293,-0.477617 1.650021,-0.401201 1.792756,0.240459 4.975073,2.973375 6.045117,5.191435 1.113146,2.307408 1.204496,4.480778 0.368606,8.769812 l -0.407537,2.091109 0.375972,0.511367 c 0.206785,0.281252 1.409996,1.158885 2.673804,1.950297 1.263805,0.791411 2.954792,1.958077 3.757748,2.592592 2.6671,2.107609 2.505764,2.022317 3.6383093,1.923434 0.560185,-0.04891 1.935185,-0.267415 3.055555,-0.485567 3.953665,-0.769833 8.024873,-0.551578 10.925926,0.58573 1.963621,0.769803 2.685276,1.69072 2.685039,3.426425 -1.85e-4,1.480734 -0.726644,2.940086 -2.313565,4.647717 -1.639175,1.763859 -2.973329,2.693 -6.019622,4.192224 -2.028659,0.998398 -2.67457,1.417015 -3.425926,2.220346 -0.883163,0.944258 -1.770452,1.398554 -2.737429,1.40158 -0.587278,0.0019 -1.578826,0.514426 -1.802095,0.931606 -0.179035,0.334531 -0.13342,0.640127 0.25803,1.72864 0.56628,1.574669 0.788633,2.965215 0.951735,5.951899 0.06675,1.222222 0.238296,3.138888 0.381224,4.259259 0.770456,6.039398 0.401524,10.143228 -1.448379,16.1111119 -0.677382,2.185263 -0.74818,2.603918 -0.767256,4.537037 l -0.02102,2.12963 0.972222,1.808277 c 0.837937,1.558517 0.972223,1.94985 0.972223,2.833271 0,1.143511 -0.269539,1.789922 -1.048282,2.514003 -1.1390393,1.059088 -3.4619263,1.784017 -4.9847653,1.555654 -1.758511,-0.263705 -5.284405,-1.351705 -5.726529,-1.767059 -0.684669,-0.643211 -0.765021,-1.727183 -0.282741,-3.814257 0.389191,-1.684232 0.39325,-1.784982 0.08563,-2.124902 -0.195258,-0.215756 -0.565887,-0.356839 -0.93743,-0.356839 -0.756517,0 -2.254305,0.703552 -2.386852,1.12117 -0.05368,0.169132 0.161206,0.881891 0.477524,1.583911 0.509667,1.131128 0.568095,1.434474 0.51336,2.665289 -0.103023,2.316622 -1.017132,3.152917 -3.435447,3.142996 -1.116152,-0.0046 -1.338399,-0.06882 -1.996689,-0.577207 z m 2.053809,-0.616417 c 1.515732,-0.633314 2.480715,-1.886329 2.48228,-3.223203 9.26e-4,-0.864813 -0.390924,-1.5467 -2.52975,-4.401232 -1.418996,-1.893831 -2.619663,-2.292867 -4.8796427,-1.621724 -1.038598,0.30843 -2.219289,1.273913 -2.219289,1.814772 0,0.162669 0.280312,0.608502 0.622913,0.990741 0.844919,0.942669 1.143741,1.590459 1.388404,3.009793 0.255161,1.480237 0.535087,1.735863 1.7327317,1.582316 l 0.873677,-0.112013 0.493202,0.977811 c 0.689517,1.367026 0.887256,1.462495 2.035474,0.982739 z m 14.595378,-1.086677 c 0.315169,-0.238482 0.807693,-0.491447 1.094499,-0.562147 0.3621553,-0.08927 0.6042183,-0.326609 0.7923513,-0.776874 0.344032,-0.823383 0.149086,-1.616794 -0.771146,-3.138485 -1.3190133,-2.181115 -1.4103763,-2.438917 -1.3350573,-3.767111 0.03834,-0.676054 0.541809,-3.312523 1.118827,-5.858819 1.6534563,-7.2964669 2.1763623,-11.7499499 1.6362003,-13.9351849 -0.269066,-1.088516 -0.442761,-1.162806 -1.5940223,-0.681779 -1.00974,0.421899 -1.183907,0.126576 -0.574115,-0.973487 1.1891433,-2.145213 1.2948863,-2.486933 1.3738873,-4.439877 0.08323,-2.057434 -0.211305,-3.321297 -1.2660403,-5.432636 l -0.508808,-1.018518 0.716061,-1.590037 c 1.1237003,-2.495204 1.3420603,-3.773913 1.3728933,-8.039593 0.03054,-4.224955 0.1773,-4.917785 1.185441,-5.596202 1.056131,-0.710711 3.454883,-1.36565 5.848387,-1.596805 1.845592,-0.178239 2.230279,-0.267943 2.280822,-0.531858 0.143993,-0.751866 -3.334013,-0.845374 -5.426774,-0.145901 -0.712963,0.238296 -1.75463,0.490314 -2.314815,0.56004 -0.560185,0.06973 -1.404331,0.278258 -1.875879,0.463404 -1.1699343,0.459357 -1.4240433,0.331744 -4.6250583,-2.322696 -2.843341,-2.357837 -4.570565,-3.452791 -6.671257,-4.229167 -0.728765,-0.269337 -1.410156,-0.624859 -1.514204,-0.790048 -0.14085,-0.223618 -0.03924,-0.67304 0.397754,-1.759259 0.566416,-1.40792 0.586739,-1.552774 0.581409,-4.1441 -0.0063,-3.053032 -0.134548,-3.780771 -0.994411,-5.641833 -0.658176,-1.424536 -1.489033,-2.384869 -2.556345,-2.954713 l -0.666418,-0.355805 -2.324271,2.191356 c -1.327911,1.251973 -2.5063407,2.534561 -2.7489957,2.99197 -0.374928,0.706747 -0.821672,1.122516 -1.007004,0.937184 -0.03453,-0.03453 0.223167,-0.659452 0.572659,-1.388719 0.732447,-1.528361 1.7677447,-2.637708 3.3205277,-3.558025 1.337178,-0.792532 1.616224,-1.166419 1.189228,-1.593415 -1.116009,-1.11601 -5.1456427,2.287651 -6.8203827,5.760889 -0.876598,1.817971 -1.294389,3.782629 -1.294389,6.086842 v 1.750604 l -0.601852,0.472663 c -1.052233,0.826367 -1.25,1.035134 -1.25,1.31952 0,0.294165 0.44683,0.785701 1.034768,1.1383 0.297536,0.178437 0.317443,0.267209 0.124578,0.555556 -0.758504,1.134018 -1.012035,1.881739 -1.174354,3.463422 -0.235438,2.294193 -0.748666,3.764433 -2.063787,5.91213 -1.411114,2.304461 -1.810094,3.359563 -1.810094,4.786794 0,1.050415 -0.05829,1.20755 -0.827598,2.230956 -0.939028,1.249183 -2.941152,4.820083 -4.39502,7.838768 l -0.981085,2.037037 -0.0066,2.249706 -0.0066,2.249705 -0.577605,0.539565 c -0.777635,0.726422 -0.890728,1.63845 -0.890728,7.183247 0,4.386637 0.0093,4.493552 0.716767,8.2200519 0.640154,3.372044 0.707228,3.995554 0.627513,5.833333 -0.07684,1.771551 -0.182956,2.315271 -0.763008,3.909578 -0.783711,2.154074 -0.836816,2.677247 -0.286377,2.821189 0.34095,0.08916 0.373488,0.194674 0.270937,0.878541 -0.152987,1.020193 0.112716,1.684233 0.736568,1.840811 0.636985,0.159872 1.347609,-0.291772 1.6005,-1.017217 0.242635,-0.696025 0.523026,-0.696794 0.523026,-0.0015 0,0.297226 0.05176,0.675307 0.115033,0.840183 0.153274,0.399426 1.037728,0.841797 1.681326,0.840937 0.624826,-9.26e-4 1.621896,-0.577055 1.901039,-1.098635 0.169191,-0.316139 0.26008,-0.342457 0.552337,-0.159941 0.442459,0.276323 0.816824,-0.0044 1.319355,-0.989483 0.411888,-0.807368 0.472078,-2.544989 0.133789,-3.862359 -0.13125,-0.511298 -0.21895,-2.586517 -0.226902,-5.370352 -0.01457,-5.099298 -0.05054,-5.272746 -1.58208,-7.6297409 -0.403465,-0.620922 -0.69508,-1.191233 -0.64803,-1.267361 0.08456,-0.136819 0.977856,0.02166 1.625517,0.288383 0.183863,0.07572 0.736815,0.939491 1.22878,1.919491 1.494116,2.9762969 2.709657,4.3387409 4.708027,5.2770169 2.005945,0.941831 3.424571,1.010257 7.8029707,0.376365 3.453997,-0.500059 5.111882,-1.225969 6.11898,-2.679213 0.282346,-0.407426 0.746291,-1.550711 1.030987,-2.5406349 0.441348,-1.534617 0.618991,-1.888556 1.205431,-2.401719 0.378291,-0.331021 0.716661,-0.572996 0.751934,-0.537724 0.03527,0.03527 -0.134424,0.51444 -0.377106,1.064818 -0.722976,1.639695 -0.859855,2.7382639 -0.859855,6.9010389 0,3.862126 -0.01037,3.968291 -0.540528,5.536725 -0.768721,2.274172 -1.048152,4.153931 -0.753415,5.068272 0.439591,1.363715 0.900452,1.514061 1.913798,0.624332 0.348008,-0.305556 0.720619,-0.555556 0.828024,-0.555556 0.107404,0 0.429735,0.4375 0.716293,0.972222 0.63415,1.183339 1.249639,1.371543 2.00737,0.613811 0.497035,-0.497037 0.828458,-0.609577 0.828458,-0.28132 0,0.266344 0.858205,1.102694 1.131509,1.102694 0.122331,0 0.480285,-0.19512 0.795455,-0.433601 z M -39.246824,6.4409059 c 0.389984,-0.149652 1.121403,-1.601858 1.700882,-3.377043 0.586224,-1.795848 0.720701,-1.962598 1.197907,-1.485392 0.253295,0.253296 0.493956,0.328939 0.774646,0.243483 1.020488,-0.310685 1.422949,-1.219219 1.42468,-3.216139 0.0014,-1.661367 0.42167,-2.408493 2.466157,-4.384572 2.071411,-2.002102 2.589405,-2.92638 2.68775,-4.7958429 0.05112,-0.971749 -0.04985,-1.739539 -0.401812,-3.055556 -0.258546,-0.966724 -0.561516,-2.111848 -0.673268,-2.544718 -0.319152,-1.236256 -0.823762,-1.094565 -1.978538,0.555555 -0.516761,0.738426 -1.641942,2.175926 -2.500404,3.194445 -2.091755,2.4817549 -2.407832,2.9751869 -4.408473,6.8821219 -2.563567,5.006241 -3.066847,5.566643 -5.801758,6.460256 -1.717612,0.561217 -2.995972,1.232015 -3.15937,1.657824 -0.0646,0.168345 0.04719,0.420185 0.269337,0.606759 0.208876,0.175432 0.495995,0.593239 0.638042,0.928463 0.335179,0.791006 1.328393,1.233317 3.82746,1.7045 1.048454,0.19768 2.15628,0.438235 2.461835,0.534571 0.686741,0.216513 1.084446,0.241126 1.474927,0.09128 z"
     id="path348" />
  <path
     style="fill:#ff0000;fill-opacity:1;stroke-width:0.199321"
     d="m 42.087526,100.19311 c 0.532647,-0.441637 1.488334,-0.993307 2.123727,-1.225967 1.30986,-0.47962 1.814868,-1.01288 2.210191,-2.33369 0.568,-1.89792 1.395143,-3.30338 2.75594,-4.68287 1.329088,-1.34734 1.353084,-1.39042 1.353084,-2.4299 0,-0.58201 -0.08974,-1.11366 -0.199309,-1.18141 -0.342487,-0.21167 -0.218188,-1.01739 0.217838,-1.412 0.318511,-0.28824 0.703287,-0.37362 1.627227,-0.36107 1.58106,0.0215 2.02532,0.47344 1.82268,1.85424 -0.0739,0.50348 -0.2103,1.11914 -0.30316,1.36813 -0.28482,0.76371 -0.59217,4.79581 -0.44895,5.88954 0.18529,1.41524 0.48322,1.7907 2.13456,2.69037 3.03309,1.652467 4.72178,1.967227 6.74175,1.25661 0.58529,-0.20591 1.69202,-0.52569 2.45941,-0.71062 2.48191,-0.59812 3.41661,-1.53105 3.63282,-3.62599 0.13955,-1.3521 -0.33005,-3.17828 -1.37423,-5.34412 -0.84209,-1.74661 -0.91388,-2.1989 -0.45343,-2.85632 0.37809,-0.53977 1.16077,-0.57568 2.6932,-0.1236 1.27032,0.37476 2.77681,1.76431 2.77681,2.56126 0,1.30766 0.78695,2.27989 2.92296,3.61122 1.11716,0.6963 1.59982,1.15229 2.14902,2.03031 0.38955,0.62279 0.70829,1.28015 0.70829,1.4608 0,0.18067 0.19363,0.79433 0.43023,1.36371 0.59688,1.43627 1.35531,1.8084 3.68571,1.8084 1.74397,0 3.26012,-0.21179 5.18764,-0.72469 1.40422,-0.37364 2.91906,-1.78331 3.92139,-3.64912 1.45015,-2.69946 0.92845,-3.64008 -2.65244,-4.78241 -2.37661,-0.75816 -3.29191,-1.4142 -5.08691,-3.64599 -1.23728,-1.53831 -2.30846,-3.51337 -4.97371,-9.17033 -0.29636,-0.62899 -1.30521,-2.10893 -2.24192,-3.28876 -3.08566,-3.88653 -6.58005,-9.15663 -7.70002,-11.61282 -0.64008,-1.40375 -1.27332,-3.32036 -1.51467,-4.58436 -0.13607,-0.71256 -0.32462,-1.6992 -0.41903,-2.19252 -0.0944,-0.49332 -0.22495,-1.36531 -0.29002,-1.93775 -0.16901,-1.48682 -1.03558,-3.46632 -2.42367,-5.53673 -1.63096,-2.4327 -2.58686,-4.1017 -3.18266,-5.55698 -0.54164,-1.32302 -1.27666,-4.21751 -1.27666,-5.02756 0,-0.88048 -0.83451,-2.51951 -2.14283,-4.20859 -1.43957,-1.85855 -2.23663,-3.26393 -2.88104,-5.07975 -0.58025,-1.63511 -0.61928,-5.030306 -0.0781,-6.799897 0.19507,-0.637932 0.29963,-1.379211 0.23236,-1.647269 -0.0673,-0.268077 -0.5631,-0.9741 -1.10179,-1.568925 -1.07755,-1.189865 -1.39984,-2.038638 -1.40364,-3.696393 -0.004,-1.566503 -0.68319,-4.190352 -1.515059,-5.8494441 -1.029959,-2.054124 -2.255119,-3.686216 -4.122359,-5.491587 -3.61958,-3.499642 -5.277703,-4.287613 -7.217219,-3.429691 -1.727648,0.764227 -3.771267,2.440841 -5.327594,4.370821 -0.460738,0.571373 -1.274933,2.197457 -1.686382,3.367959 -0.569493,1.620074 -0.468162,5.6021051 0.213962,8.4092531 0.339889,1.39871 0.507101,2.517111 0.43432,2.905069 -0.154672,0.824662 -0.838075,1.438172 -2.903867,2.607026 -2.498582,1.41375 -4.270111,2.646255 -6.250795,4.348878 -1.672253,1.4375 -1.817214,1.51817 -2.727662,1.51817 -0.528867,0 -1.193896,-0.0884 -1.477867,-0.19629 -0.283971,-0.10796 -1.074617,-0.28684 -1.757031,-0.39747 -0.682396,-0.11068 -1.464959,-0.25172 -1.739026,-0.31347 -1.191395,-0.26847 -4.82212,-0.4771 -6.3782143,-0.36654 -3.41341,0.24253 -6.817885,1.30181 -8.141217,2.5331 -1.549097,1.44135 -1.501067,4.22053 0.115519,6.68376 1.02558,1.56272 3.716337,4.18909 5.249812,5.12419 0.704569,0.42963 2.382908,1.29399 3.7296923,1.92081 2.863959,1.33295 3.453648,1.72046 4.025195,2.64523 0.585445,0.94726 1.517562,1.46645 2.907995,1.61977 2.259016,0.24904 3.049778,1.00063 2.481332,2.35842 -0.984683,2.352 -1.142494,3.1974 -1.379405,7.38951 -0.130056,2.30213 -0.319266,4.72388 -0.420404,5.38162 -0.564763,3.67315 -0.638106,4.76781 -0.527433,7.87313 0.147306,4.13261 0.885213,7.92099 2.543122,13.05543 0.557244,1.72577 0.64586,2.28738 0.660474,4.18571 0.01357,1.87256 -0.04477,2.30886 -0.406429,2.9898 -2.138186,4.02692 -2.068797,3.85314 -2.054163,5.1432 0.01744,1.48412 0.07695,1.64652 1.028991,2.78181 0.887809,1.05866 2.418183,1.795997 4.438291,2.138417 1.290576,0.21875 1.552238,0.197 3.48811,-0.28989 4.984836,-1.253727 5.428207,-1.425537 5.866675,-2.273467 0.438061,-0.84712 0.399568,-2.89168 -0.0816,-4.32985 -0.21656,-0.64737 -0.395943,-1.40979 -0.398638,-1.69426 -0.0058,-0.66764 0.565093,-1.17699 1.320444,-1.17699 0.781071,0 2.742974,1.00013 2.824108,1.43964 0.03489,0.18886 -0.266178,1.01025 -0.668982,1.8253 -0.697804,1.41185 -0.729049,1.5612 -0.661385,3.15959 0.05815,1.37304 0.158354,1.80491 0.55137,2.37839 0.882189,1.286957 1.506127,1.561707 3.546528,1.561707 h 1.809655 z M 38.88079,99.048053 c -1.3764,-0.75861 -2.402348,-2.22222 -2.402348,-3.42719 0,-0.77252 0.16068,-1.13432 1.109796,-2.49792 1.489691,-2.14038 2.849887,-3.91551 3.302543,-4.31001 1.437028,-1.25237 5.190425,-0.75779 6.554847,0.86372 0.668556,0.79456 0.625391,1.09054 -0.285386,1.95696 -1.047986,0.99691 -1.391519,1.72608 -1.601643,3.39944 -0.243869,1.94213 -0.544451,2.24571 -2.050481,2.07092 l -1.154162,-0.13397 -0.515493,1.16592 c -0.283526,0.64126 -0.618879,1.23181 -0.745252,1.31236 -0.442364,0.28196 -1.234696,0.13862 -2.212421,-0.40024 z m -16.979635,-1.09161 c -0.472523,-0.4145 -0.948147,-0.64779 -1.320753,-0.64779 -0.508342,0 -0.61948,-0.10924 -0.874843,-0.85984 -0.262844,-0.77258 -0.258309,-0.96473 0.04477,-1.89353 0.185489,-0.56855 0.745117,-1.61061 1.243689,-2.31574 0.498534,-0.70511 1.020889,-1.60205 1.160733,-1.9932 0.348301,-0.97413 0.333609,-2.74114 -0.03256,-3.91842 -0.272943,-0.87759 -0.468278,-1.71533 -1.389968,-5.96144 -0.142848,-0.65775 -0.454924,-2.09286 -0.693637,-3.18911 -0.67222,-3.08691 -1.40687,-8.53212 -1.386344,-10.27529 0.01938,-1.56341 0.455428,-3.46586 0.811986,-3.53488 0.16223,-0.0314 0.684857,0.11726 1.161275,0.33068 1.636803,0.73283 1.935175,0.0667 0.770721,-1.72053 -1.196726,-1.83683 -1.54681,-2.99319 -1.553245,-5.13058 -0.0019,-0.98664 0.09052,-2.15266 0.207818,-2.59117 0.304245,-1.13759 1.139179,-3.21263 1.590575,-3.95294 0.211772,-0.34727 0.38536,-0.77653 0.385767,-0.95388 4.08e-4,-0.17735 -0.394954,-1.09797 -0.878583,-2.04577 -0.593682,-1.1635 -0.955532,-2.1918 -1.113905,-3.16561 -0.129086,-0.79328 -0.31634,-1.8728 -0.416256,-2.39891 -0.210531,-1.1086 -0.21183,-3.51465 -0.0019,-5.19097 0.14091,-1.13013 -0.0039,-2.63695 -0.398986,-4.16446 -0.262651,-1.01434 -1.129081,-1.64913 -3.16832,-2.32123 -2.579018,-0.85005 -3.448395,-1.01992 -5.234985,-1.02289 -1.8758453,-0.004 -2.5384513,-0.13335 -2.5384513,-0.49931 0,-0.74769 3.5179593,-0.94049 5.7329573,-0.31416 0.738585,0.20884 1.661825,0.51671 2.051663,0.68414 0.389837,0.16746 1.062541,0.27513 1.494904,0.23931 0.532007,-0.044 1.130283,0.0967 1.850822,0.43523 1.778333,0.83573 2.162492,0.67881 5.533532,-2.26039 3.575078,-3.117113 6.074881,-4.730695 8.497464,-5.48498 1.435923,-0.447093 2.145434,-0.852049 2.145434,-1.224539 0,-0.106409 -0.336342,-1.011915 -0.747442,-2.012142 l -0.747442,-1.81859 V 13.49475 c 0,-2.945035 0.04962,-3.434614 0.476166,-4.6840201 0.989918,-2.900727 2.061724,-4.431818 3.711668,-5.302242 l 0.906145,-0.478027 1.439374,1.518996 c 0.791653,0.835458 1.75331,1.743309 2.137003,2.017473 1.144975,0.81811 1.824075,1.593211 2.227849,2.542773 0.39007,0.9173861 0.83474,1.3952391 1.298347,1.3952391 0.40232,0 0.314479,-0.480954 -0.331361,-1.8142281 -1.075489,-2.220192 -2.288283,-3.494079 -4.345179,-4.563986 -1.439548,-0.748799 -1.822795,-1.37611 -1.082718,-1.772188 0.89845,-0.480838 2.628811,0.51371 4.793163,2.754932 3.246528,3.361814 4.649754,6.8481011 4.603372,11.4370331 -0.01163,1.116986 0.04283,2.191681 0.119976,2.388179 0.07734,0.196518 0.471826,0.526328 0.876723,0.732886 0.996721,0.508477 1.279571,0.889089 1.123341,1.511534 -0.0837,0.333862 -0.36625,0.613142 -0.8059,0.796848 -0.372293,0.155641 -0.73389,0.375011 -0.803531,0.487719 -0.06978,0.112612 0.178899,0.561837 0.55232,0.998095 0.795881,0.929792 1.141621,1.944617 1.141621,3.350867 0,1.2615 0.29426,2.76648 0.84507,4.3219 0.4751,1.34165 0.57798,1.52994 2.09574,3.83633 1.35762,2.06302 1.90428,3.71372 1.74401,5.2664 -0.10738,1.04051 -0.0711,1.18252 0.45635,1.7939 1.34677,1.56051 2.10479,2.83942 5.18562,8.74891 1.89694,3.6386 2.17321,4.76888 1.84831,7.56159 -0.17154,1.47494 -0.15603,1.72001 0.12114,1.89354 1.27803,0.80039 1.28873,0.82761 1.57061,3.9968 0.36274,4.07851 0.35237,8.06081 -0.0267,10.3043 -0.3446,2.0388 -1.17029,6.4905 -1.48157,7.98807 -0.1099,0.52909 -0.19997,1.85072 -0.19997,2.93696 0,2.13729 0.46454,4.15983 1.48448,6.46284 0.59244,1.33785 0.54604,1.99309 -0.15351,2.16868 -0.44721,0.11228 -0.45807,0.15804 -0.26292,1.11063 0.2404,1.17355 -0.0399,1.90439 -0.80424,2.0962 -0.7883,0.19784 -1.49655,-0.28902 -1.81368,-1.24674 -0.32948,-0.99504 -0.71855,-1.00702 -0.79604,-0.0245 -0.10447,1.32305 -0.21913,1.5255 -1.05453,1.85976 -0.64503,0.25809 -0.97182,0.28253 -1.58182,0.11822 -0.7908,-0.21295 -1.79453,-1.18156 -1.79453,-1.73177 0,-0.21811 -0.11068,-0.17086 -0.38616,0.16479 -0.5147,0.62718 -0.92927,0.36869 -1.67714,-1.04566 -0.52065,-0.98472 -0.55933,-1.20044 -0.46093,-2.56984 0.0591,-0.8222 0.25449,-2.03307 0.43422,-2.69082 0.25982,-0.95076 0.29944,-1.66583 0.19344,-3.48809 -0.21342,-3.66482 -0.18278,-6.39508 0.0849,-7.56115 0.30471,-1.32752 1.20618,-3.15189 2.00956,-4.0669 0.32972,-0.37551 0.59946,-0.88438 0.59946,-1.13081 0,-0.41295 -0.0702,-0.44018 -0.89405,-0.34731 -1.21611,0.13707 -1.8591,0.60868 -2.33406,1.71193 -1.32963,3.08852 -2.49539,4.8568 -4.0151,6.09035 -1.302301,1.05709 -3.169347,1.89731 -4.765156,2.14444 -1.502327,0.23265 -4.589842,-0.0298 -8.421872,-0.71578 -4.113986,-0.7365 -5.982292,-2.45967 -6.77036,-6.24441 -0.165913,-0.79708 -0.441414,-1.66234 -0.612075,-1.92281 -0.338843,-0.51715 -1.835414,-1.62824 -1.987837,-1.47584 -0.05214,0.052 0.07617,0.4482 0.284882,0.88027 0.208748,0.43208 0.589321,1.367 0.84573,2.07762 0.443275,1.22854 0.466321,1.54668 0.468976,6.47435 l 0.0019,5.1823 0.74467,2.11036 c 0.40955,1.16069 0.744652,2.37215 0.744652,2.69212 0,0.31998 0.08819,0.88923 0.195936,1.26499 0.14246,0.49679 0.118232,0.98089 -0.08897,1.77418 -0.44279,1.69558 -1.103245,1.87617 -2.264036,0.61901 -0.925954,-1.00278 -1.251868,-0.91412 -1.824307,0.49626 -0.68036,1.67631 -1.561832,1.88016 -2.572758,0.59498 -0.459885,-0.58466 -0.690303,-0.51597 -1.131562,0.33734 -0.248094,0.47975 -0.642952,0.78903 -1.226962,0.96104 -0.02345,0.006 -0.375185,-0.27886 -0.781342,-0.63514 z m 38.545489,-11.80787 c 0.77553,-0.33708 0.82617,-0.64148 0.14944,-0.89877 -0.91055,-0.34619 -2.21027,0.54755 -1.47411,1.01368 0.37026,0.23445 0.55835,0.21814 1.32463,-0.11494 z M 40.128007,61.338353 c 0.805299,-0.50561 1.233766,-1.46622 1.233766,-2.76591 0,-1.25198 0.414259,-2.41252 1.402683,-3.92962 0.988345,-1.51696 1.694096,-1.87662 3.968346,-2.02226 1.296913,-0.0832 1.883657,-0.0341 2.452258,0.20464 0.678247,0.28475 0.747268,0.38395 0.745581,1.07142 -0.0039,1.47905 -2.042301,4.0464 -3.213093,4.0464 -0.664098,0 -1.950331,0.62904 -2.072343,1.01345 -0.221425,0.69763 0.07578,0.83821 1.477479,0.69896 2.65052,-0.26329 4.49514,-1.6632 5.85309,-4.44199 0.81914,-1.67617 0.8869,-1.7529 2.06821,-2.34199 1.91099,-0.95295 2.58738,-1.56681 2.95892,-2.68545 0.18006,-0.54214 0.2998,-1.4179 0.2661,-1.94614 l -0.0613,-0.96044 -0.35361,0.9966 c -1.04218,2.93719 -1.84881,3.60158 -4.33041,3.56679 -0.82218,-0.0116 -2.061184,-0.12308 -2.75329,-0.24808 -0.692125,-0.12501 -2.122176,-0.30657 -3.177895,-0.40362 -2.575393,-0.23673 -2.639549,-0.3163 -2.639549,-3.27399 0,-1.21454 0.107378,-2.72826 0.238674,-3.36383 0.347972,-1.68471 0.124048,-2.1677 -1.210293,-2.61131 -0.922,-0.30649 -1.23173,-0.32277 -2.289659,-0.12036 -2.123804,0.40658 -3.928729,1.63112 -4.735714,3.21294 -0.555479,1.08884 -0.591472,2.97005 -0.06784,3.54899 0.640258,0.70794 1.780057,1.17654 3.414844,1.40392 0.846952,0.11784 1.879063,0.3872 2.293594,0.59866 0.734824,0.3749 1.359847,1.23602 1.359847,1.87354 0,0.50212 -0.75723,1.85313 -1.371981,2.44778 -0.816792,0.79014 -0.972045,1.18424 -1.119661,2.84227 -0.183551,2.06163 -0.424532,2.73602 -1.102818,3.0868 -0.813789,0.42083 -1.349459,0.37255 -3.221835,-0.29043 -0.910138,-0.32225 -2.237792,-0.73126 -2.950365,-0.90888 -0.712574,-0.17773 -1.619785,-0.40726 -2.016057,-0.51026 -1.399679,-0.36382 -2.151308,-1.30482 -2.990487,-3.74389 -0.452559,-1.31539 -0.633687,-1.54631 -1.599569,-2.03907 -0.9063,-0.46235 -0.863698,-0.45994 -1.252799,-0.0707 -0.599032,0.59903 -0.3841,1.32705 0.704162,2.3851 0.559549,0.544 1.500777,1.6728 2.091629,2.50841 1.296816,1.83404 1.303077,1.8395 2.673701,2.33172 0.948883,0.34076 1.701462,0.51468 4.183278,0.96661 0.274066,0.0498 1.39524,0.1351 2.491507,0.18918 1.774669,0.0876 2.065521,0.0529 2.652981,-0.3159 z m -2.710353,-15.87021 c -0.0345,-0.23201 0.265151,-0.72054 0.754846,-1.23014 0.713853,-0.74293 0.918395,-0.84531 1.688806,-0.84531 1.15077,0 1.946319,0.30846 1.863789,0.72264 -0.06241,0.31347 -3.616382,1.87621 -4.050741,1.78122 -0.10951,-0.024 -0.225145,-0.21675 -0.2567,-0.42841 z m -4.360859,10.34881 c 0.355802,-0.3558 -0.242144,-2.87491 -0.935839,-3.94251 -0.146337,-0.22513 -0.479985,-1.082 -0.741608,-1.9042 -0.873157,-2.74404 -0.590097,-6.04876 0.73808,-8.61719 0.276005,-0.53375 0.273292,-0.62165 -0.02965,-0.9564 -0.302442,-0.33421 -1.865572,-0.99037 -2.359299,-0.99037 -0.110674,0 0.02617,0.24668 0.303896,0.54814 1.218162,1.32213 1.436078,2.13487 0.867342,3.23472 -0.374952,0.72508 -0.738895,0.83621 -2.054028,0.62727 -2.234729,-0.35504 -3.587405,0.36928 -3.773534,2.02067 -0.12521,1.11052 0.235728,2.26394 0.808516,2.58402 0.87335,0.48807 1.852431,0.74593 2.843277,0.74886 0.727925,0.002 1.108963,0.10621 1.345408,0.36751 0.792061,0.87519 0.07327,2.02732 -1.264699,2.02732 -0.575792,0 -0.797255,0.0831 -0.797255,0.29897 0,0.16456 0.0283,0.29899 0.06299,0.29899 0.352934,0 2.550236,0.46351 2.962596,0.62495 0.52061,0.2038 1.160073,1.21667 1.160073,1.83747 0,0.39307 0.419668,1.32467 0.596745,1.32467 0.07365,0 0.193901,-0.0597 0.266973,-0.13297 z m -6.610629,-9.91633 c -0.171922,-0.86746 1.145033,-1.06179 1.645621,-0.24284 0.172116,0.28162 0.120171,0.42842 -0.262553,0.7425 -0.420598,0.34508 -0.526832,0.35847 -0.896939,0.11319 -0.230902,-0.15312 -0.449671,-0.42884 -0.486129,-0.61285 z m 7.006998,1.34839 c 0.06958,-0.86029 0.350589,-2.19201 0.624791,-2.95938 0.587712,-1.64475 0.612677,-1.89354 0.190141,-1.89354 -0.920565,0 -1.60831,2.19304 -1.397856,4.45744 0.190722,2.05192 0.435851,2.21822 0.582983,0.39548 z M 22.61181,45.138063 c -0.465894,-1.62448 0.01551,-3.15768 1.378009,-4.38585 1.146099,-1.03333 1.081575,-1.21283 -0.397552,-1.10582 -1.042927,0.0754 -1.29891,0.17347 -1.714274,0.65633 -0.440406,0.512 -0.480314,0.70596 -0.407204,1.9783 0.05098,0.88839 0.252068,1.79806 0.5429,2.45706 0.511268,1.15853 0.887887,1.41036 0.598121,0.39998 z m 28.699224,-4.48601 c 0.29919,-0.24492 0.46382,-0.67213 0.55277,-1.43428 l 0.12676,-1.08545 -0.73665,0.73665 c -0.979022,0.979 -1.605964,0.97638 -2.562988,-0.0116 -0.398541,-0.4111 -0.78487,-0.9926 -0.858484,-1.29219 -0.139553,-0.56819 -0.16979,-0.52904 1.402527,-1.82262 0.588275,-0.48398 0.597326,-0.52016 0.55798,-2.23444 -0.05194,-2.26248 -0.161261,-2.37744 -2.249789,-2.36504 -1.858615,0.0116 -2.1892,0.22056 -2.908887,1.84348 -0.257437,0.58054 -0.838423,1.4009 -1.291099,1.82301 l -0.823033,0.76745 0.778086,0.13141 c 1.321548,0.22328 2.862097,1.28088 4.850554,3.32997 1.989213,2.04984 2.383102,2.25072 3.162333,1.6128 z m -5.378007,-6.23576 c -0.497778,-0.26641 -0.49204,-0.83142 0.01357,-1.28856 0.384682,-0.34814 0.412593,-0.34814 0.797275,0 0.480081,0.43448 0.503864,0.76324 0.08528,1.18169 -0.370552,0.37053 -0.397203,0.37371 -0.895795,0.10699 z m -5.767166,4.96325 c 0.837512,-0.30276 1.449084,-0.37767 2.591152,-0.31743 0.8222,0.0434 1.651862,0.14808 1.843709,0.23282 0.200181,0.0884 0.348805,0.0706 0.348805,-0.0421 0,-0.10796 -0.462948,-0.39526 -1.028797,-0.63867 -0.932156,-0.40102 -1.170869,-0.42445 -2.541319,-0.24956 -2.475439,0.31585 -4.333569,0.0136 -5.390199,-0.87481 -0.716605,-0.60298 -0.787137,-0.45841 -0.158548,0.3251 0.24666,0.30744 0.583003,0.73405 0.747423,0.94799 0.390865,0.50854 1.454124,1.04588 2.033133,1.02748 0.252107,-0.008 0.951694,-0.19285 1.554641,-0.41085 z m -1.598987,-5.9144 c 0.0078,-0.47779 -0.440794,-2.03691 -0.618046,-2.14644 -0.352779,-0.21801 -0.161068,1.41662 0.223828,1.90868 0.214388,0.27406 0.391756,0.38105 0.394218,0.23776 z m 7.741861,-12.161991 c 0.163588,-0.108929 0.238888,-0.467174 0.199309,-0.94774 -0.06105,-0.741163 -0.09846,-0.778454 -0.921884,-0.917988 -1.047714,-0.177543 -1.561579,-0.551138 -2.615883,-1.901856 -0.447268,-0.573001 -1.091518,-1.185736 -1.43166,-1.361631 -0.63357,-0.32764 -1.572084,-0.252591 -1.572084,0.125791 0,0.281665 2.11859,2.924587 2.984555,3.723199 1.124721,1.037208 2.776932,1.667213 3.357647,1.280302 z m 1.6306,-7.894634 c 0,-0.508109 -0.102145,-0.716605 -0.396873,-0.810144 -0.555421,-0.17638 -0.838055,0.05582 -0.687376,0.564337 0.128311,0.433099 0.621476,0.929985 0.923007,0.929985 0.08858,0 0.161262,-0.307889 0.161262,-0.684178 z m 31.640829,83.949965 c -0.48006,-0.36634 -1.25917,-2.04005 -1.71447,-3.68299 -0.37351,-1.34789 -0.97193,-2.64542 -1.22006,-2.64542 -0.0599,0 -0.19762,0.20182 -0.30581,0.44848 -0.27551,0.62795 -1.02539,0.68135 -1.62981,0.11604 -0.81135,-0.75877 -0.93522,-1.16752 -0.95638,-3.1557 -0.0174,-1.69939 -0.0802,-2.00395 -0.60772,-2.97051 -0.32531,-0.5963 -1.03197,-1.44143 -1.58327,-1.89354 -2.6416,-2.16634 -3.69732,-3.62933 -4.08175,-5.65638 -0.1989,-1.04884 -0.0329,-2.63828 0.38943,-3.73091 0.12715,-0.32889 0.39445,-1.36036 0.59397,-2.29218 0.19955,-0.93183 0.42641,-1.85119 0.50418,-2.04303 0.22443,-0.55372 0.87779,-0.41534 1.2541,0.26561 0.54102,0.97903 2.38974,3.37299 4.24495,5.49698 2.13888,2.44869 2.64672,3.26117 4.90114,7.84096 2.9976,6.08956 3.58804,6.72811 7.11887,7.69868 1.99766,0.54913 3.60789,1.47399 3.60789,2.07225 0,0.15562 -0.22423,0.3941 -0.4983,0.52994 -0.33556,0.16634 -0.53083,0.4612 -0.59797,0.90282 -0.14438,0.94981 -1.63187,1.63989 -4.40027,2.04131 -1.1595,0.16813 -2.46005,0.43459 -2.89015,0.59215 -0.98788,0.36188 -1.71096,0.38409 -2.12857,0.0655 z"
     id="path322" />
</svg>
