<?xml version="1.0" encoding="UTF-8" standalone="no"?>
<svg
   id="Capa_1"
   viewBox="0 0 329.35929 101.80645"
   version="1.1"
   sodipodi:docname="logo.svg"
   width="87.14299mm"
   height="26.936289mm"
   inkscape:version="1.1 (c68e22c387, 2021-05-23)"
   xmlns:inkscape="http://www.inkscape.org/namespaces/inkscape"
   xmlns:sodipodi="http://sodipodi.sourceforge.net/DTD/sodipodi-0.dtd"
   xmlns="http://www.w3.org/2000/svg"
   xmlns:svg="http://www.w3.org/2000/svg"
   xmlns:rdf="http://www.w3.org/1999/02/22-rdf-syntax-ns#"
   xmlns:cc="http://creativecommons.org/ns#"
   xmlns:dc="http://purl.org/dc/elements/1.1/">
  <metadata
     id="metadata16">
    <rdf:RDF>
      <cc:Work
         rdf:about="">
        <dc:format>image/svg+xml</dc:format>
        <dc:type
           rdf:resource="http://purl.org/dc/dcmitype/StillImage" />
        <dc:title />
      </cc:Work>
    </rdf:RDF>
  </metadata>
  <defs
     id="defs14">
    <rect
       x="-499.25925"
       y="-191.11111"
       width="447.40741"
       height="68.888885"
       id="rect316" />
    <rect
       x="-1170.5883"
       y="-1170.5883"
       width="6682.353"
       height="2935.2942"
       id="rect108" />
  </defs>
  <sodipodi:namedview
     pagecolor="#ffffff"
     bordercolor="#666666"
     borderopacity="1"
     objecttolerance="10"
     gridtolerance="10"
     guidetolerance="10"
     inkscape:pageopacity="0"
     inkscape:pageshadow="2"
     inkscape:window-width="1920"
     inkscape:window-height="1001"
     id="namedview12"
     showgrid="false"
     units="mm"
     inkscape:zoom="1.35"
     inkscape:cx="-204.81481"
     inkscape:cy="224.81481"
     inkscape:window-x="-9"
     inkscape:window-y="-9"
     inkscape:window-maximized="1"
     inkscape:current-layer="Capa_1"
     fit-margin-top="0"
     fit-margin-left="0"
     fit-margin-right="0"
     fit-margin-bottom="0"
     inkscape:document-rotation="0"
     inkscape:pagecheckerboard="0"
     inkscape:document-units="mm" />
  <style
     id="style2">.st0{fill:url(#SVGID_1_);}</style>
  <linearGradient
     id="SVGID_1_"
     gradientUnits="userSpaceOnUse"
     x1="87.5"
     y1="169"
     x2="87.5"
     gradientTransform="scale(8.8757397)">
    <stop
       offset="0"
       stop-color="#913EA8"
       id="stop4" />
    <stop
       offset="1"
       stop-color="#2789B6"
       id="stop6" />
  </linearGradient>
  <text
     xml:space="preserve"
     style="font-size:42.6666px;line-height:1.25;font-family:sans-serif;fill:#ff2626;fill-opacity:1;stroke-width:0.08"
     x="81.549309"
     y="27.39579"
     id="text98"><tspan
       sodipodi:role="line"
       id="tspan96"
       x="81.549309"
       y="27.39579"
       style="font-style:normal;font-variant:normal;font-weight:bold;font-stretch:normal;font-size:42.6666px;font-family:Calibri;-inkscape-font-specification:'Calibri Bold';fill:#ff2626;fill-opacity:1;stroke-width:0.08">ZWIERZACZEK</tspan></text>
  <text
     xml:space="preserve"
     style="font-size:15.36px;line-height:1.25;font-family:sans-serif;fill:#ff2626;fill-opacity:1;stroke-width:0.08"
     x="83.314003"
     y="49.631081"
     id="text102"><tspan
       sodipodi:role="line"
       id="tspan100"
       x="83.314003"
       y="49.631081"
       style="font-style:normal;font-variant:normal;font-weight:bold;font-stretch:normal;font-size:10.6666px;font-family:sans-serif;-inkscape-font-specification:'sans-serif Bold';fill:#ff2626;fill-opacity:1;stroke-width:0.08">TWOJA OFERTA DOTYCZĄCA ZWIERZAKA</tspan><tspan
       sodipodi:role="line"
       x="83.314003"
       y="68.831078"
       style="font-style:normal;font-variant:normal;font-weight:bold;font-stretch:normal;font-size:10.6666px;font-family:sans-serif;-inkscape-font-specification:'sans-serif Bold';fill:#ff2626;fill-opacity:1;stroke-width:0.08"
       id="tspan104">ZAWSZE ZA DARMO</tspan></text>
  <text
     xml:space="preserve"
     id="text106"
     style="font-size:192px;line-height:1.25;font-family:sans-serif;white-space:pre;shape-inside:url(#rect108)"
     transform="translate(-14.916941,-10.769791)" />
  <path
     style="fill:#000000;stroke-width:0.375"
     id="path158"
     d="" />
  <path
     style="fill:#ff0000;fill-opacity:1;stroke-width:0.740741"
     d=""
     id="path266" />
  <text
     xml:space="preserve"
     id="text314"
     style="font-style:normal;font-weight:normal;font-size:40px;line-height:1.25;font-family:sans-serif;white-space:pre;shape-inside:url(#rect316);fill:#000000;fill-opacity:1;stroke:none"
     transform="translate(-14.916941,-10.769791)" />
  <path
     style="fill:#ff0000;fill-opacity:0;stroke-width:0.185185"
     d="m -7.7773034,9.3772253 c -0.4074074,-0.314631 -1.1574074,-0.761657 -1.6666667,-0.993391 -1.1937089,-0.543189 -1.6711629,-1.073172 -2.1063649,-2.338113 -0.508328,-1.477476 -0.797822,-1.972131 -1.868667,-3.192944 -1.552881,-1.770359 -1.579722,-1.831222 -1.307664,-2.96527999 0.295457,-1.23160901 0.08307,-1.71358121 -0.830665,-1.88499791 -0.818563,-0.153563 -1.837002,0.033128 -2.134193,0.3912185 -0.233722,0.2816204 -0.184192,1.21621141 0.18113,3.4177184 0.27317,1.646174 0.23392,4.204428 -0.07363,4.799165 -0.319924,0.618665 -2.668863,1.906331 -4.20953,2.307624 -1.16495,0.30343 -1.72152,0.22955 -4.469813,-0.593335 -1.998233,-0.598304 -2.748472,-1.132793 -3.104567,-2.211772 -0.350092,-1.060787 -0.115429,-2.566965 0.723737,-4.645286 1.115467,-2.7626236 1.031471,-3.3600996 -0.472387,-3.3600996 -1.696911,0 -3.233905,1.02794261 -3.654461,2.44410561 -0.404028,1.36051099 -0.672671,1.69123099 -2.224256,2.73822999 -1.566701,1.057198 -2.1485,1.803346 -2.701216,3.464259 -0.674531,2.026965 -1.844346,2.525183 -4.934695,2.101665 -2.387242,-0.327163 -3.323534,-0.674211 -4.311101,-1.597963 -0.977758,-0.91458 -2.038693,-2.732828 -2.038693,-3.493948 0,-1.079384 0.392216,-1.380323 3.054503,-2.34365 2.786461,-1.00825999 4.347682,-2.8569282 6.945951,-8.2248226 1.139458,-2.3540649 1.841729,-3.5093357 3.396444,-5.5873257 5.27766,-7.053976 6.861934,-10.146497 7.61825,-14.870921 0.4927,-3.077707 0.7925,-3.819378 2.881954,-7.12963 0.642896,-1.018518 1.436433,-2.435185 1.763415,-3.148148 0.598696,-1.305422 1.37652,-4.050198 1.37652,-4.85745 0,-0.607848 0.605741,-1.73895 1.87868,-3.508063 0.599022,-0.832515 1.400541,-2.165848 1.781152,-2.962963 l 0.69202,-1.449302 -0.004,-2.5 c -0.0022,-1.375 -0.07336,-2.916666 -0.158163,-3.425925 -0.149255,-0.896373 -0.130774,-0.955479 0.579032,-1.851852 1.057735,-1.335753 1.163531,-1.603218 1.351033,-3.415544 0.210263,-2.032337 0.87892,-4.178656 1.791689,-5.751123 0.962518,-1.658173 4.7969147,-5.503724 6.1526796,-6.170579 1.2931074,-0.636035 1.7315074,-0.624167 3.1512931,0.08531 2.506678,1.252601 4.831144,4.199349 5.398174,6.843314 0.27298,1.27286 0.115587,3.91672 -0.382891,6.431745 -0.208428,1.051605 -0.328174,2.114351 -0.266105,2.361657 0.148535,0.591809 0.863376,1.173938 2.948477,2.401085 0.945063,0.5562 2.486563,1.615252 3.425554,2.353446 2.941098,2.312168 2.743495,2.2044 3.8835833,2.118026 0.560186,-0.04244 1.935186,-0.259667 3.055556,-0.482726 2.771811,-0.551852 6.464898,-0.608572 8.518519,-0.13083 3.740175,0.870091 5.135327,1.960947 5.135327,4.015265 0,1.873324 -0.940829,3.495874 -3.315168,5.717326 -1.373702,1.285246 -1.958095,1.66617 -4.689817,3.056963 -2.481483,1.263387 -3.241339,1.741243 -3.71025,2.333291 -0.716891,0.905148 -1.244778,1.193248 -2.668705,1.456476 -2.101963,0.388568 -2.302887,0.825627 -1.491173,3.243685 0.374528,1.115696 0.517558,2.124492 0.742291,5.23538 0.153104,2.119364 0.402674,4.752088 0.5546,5.850498 0.620313,4.484813 0.186489,8.556717 -1.533315,14.3917815 -0.77497,2.6293778 -0.846561,3.0413981 -0.852689,4.9074074 l -0.0067,2.03703741 0.960535,1.75925899 c 0.878763,1.609492 0.960837,1.862835 0.964089,2.975926 0.0033,1.13202 -0.04292,1.270966 -0.664492,1.997128 -0.978282,1.142903 -3.0299933,2.055707 -4.6342803,2.061785 -0.575913,0.0022 -4.888098,-1.066404 -5.845396,-1.448524 -1.158487,-0.462428 -1.491226,-2.264108 -0.82415,-4.462519 0.167863,-0.553209 0.305205,-1.151422 0.305205,-1.329365 0,-0.898077 -1.325615,-1.181537 -2.566063,-0.548707 -1.202214,0.613324 -1.235496,0.740206 -0.5944,2.266063 0.995861,2.370217 0.716982,4.5223 -0.709514,5.475263 -0.51883,0.3466 -0.876258,0.419454 -2.0370379,0.415205 -1.2860148,-0.0047 -1.4718796,-0.05464 -2.1485408,-0.577207 z m 2.4485648,-0.815581 c 2.0151033,-1.004169 2.6897633,-2.943084 1.6022313,-4.604673 -0.272379,-0.416155 -1.067007,-1.520944 -1.7658387,-2.455089 -1.0540074,-1.40891299 -1.4124185,-1.75259999 -2.1025296,-2.01615699 -0.9501297,-0.3628574 -2.3722167,-0.2769166 -3.6094614,0.218132 -0.758324,0.30342 -1.665559,1.198751 -1.665559,1.64370299 0,0.136647 0.371543,0.683721 0.825648,1.215721 0.635398,0.744387 0.87177,1.206588 1.025807,2.005861 0.340584,1.767216 0.362799,1.837502 0.681565,2.156266 0.242889,0.242889 0.5028559,0.284691 1.1974744,0.192547 l 0.8872315,-0.117697 0.4932019,0.977811 c 0.7329389,1.453113 0.9476907,1.522354 2.4302296,0.783575 z M 8.7944037,7.7836583 c 0.247728,-0.17824 0.784128,-0.49074 1.192,-0.694444 1.3924583,-0.695437 1.3121983,-1.818669 -0.322131,-4.50823 -1.163193,-1.91422699 -1.299159,-2.92023899 -0.710361,-5.2559682 1.7309263,-6.8664963 2.9763163,-14.4298041 2.7036943,-16.4196391 -0.319374,-2.331056 -0.493913,-2.515776 -1.8440703,-1.951645 -1.107352,0.462682 -1.135454,0.129423 -0.148604,-1.762298 l 0.8910983,-1.708176 v -2.34517 c 0,-2.324528 -0.0063,-2.359026 -0.7126983,-3.919244 -0.391985,-0.865741 -0.752374,-1.743304 -0.800865,-1.950141 -0.04849,-0.206835 0.207487,-1.024832 0.568841,-1.817769 1.0577933,-2.321172 1.2958133,-3.755015 1.3265833,-7.99135 0.03225,-4.439968 0.151171,-4.93039 1.377399,-5.680183 1.138716,-0.696283 3.788483,-1.389413 6.017162,-1.573978 1.5266,-0.126424 1.860989,-0.208811 1.910452,-0.470704 0.147621,-0.781616 -3.309333,-0.829711 -5.6128,-0.07809 -0.814814,0.265874 -1.731481,0.48363 -2.037037,0.483899 -0.305555,1.85e-4 -1.076416,0.18342 -1.713026,0.407003 -1.0842813,0.38081 -1.1961663,0.388061 -1.7694403,0.114685 -0.336586,-0.160507 -1.506597,-1.049124 -2.600024,-1.974705 -3.301291,-2.794524 -5.169958,-3.978272 -7.468073,-4.730823 -1.464255,-0.479491 -1.509366,-0.607347 -0.828244,-2.34744 0.562729,-1.437631 0.582511,-1.584096 0.582511,-4.313083 0,-3.087911 -0.176015,-4.002045 -1.137361,-5.906873 -0.598374,-1.185629 -1.713963,-2.37294 -2.558145,-2.722611 -0.5436626,-0.225193 -0.5768551,-0.202848 -2.7853977,1.875088 -1.3858426,1.303888 -2.444532,2.472428 -2.786128,3.07522 -0.303022,0.534722 -0.676355,0.972222 -0.82963,0.972222 -0.246105,0 -0.244783,-0.08117 0.01131,-0.694445 0.825552,-1.976962 1.9663894,-3.315707 3.6430005,-4.274966 1.1951537,-0.683798 1.5263037,-1.026185 1.3746777,-1.42132 -0.4638963,-1.208893 -3.0904037,0.24795 -5.2339072,2.903087 -2.08658,2.584628 -2.827089,4.613233 -2.982217,8.169709 -0.101941,2.337134 -0.110161,2.373062 -0.646159,2.824074 -0.298602,0.251253 -0.616917,0.456824 -0.70737,0.456824 -0.278395,0 -0.57491,0.734161 -0.452406,1.120137 0.06379,0.200973 0.36007,0.491632 0.658407,0.645909 0.298337,0.154276 0.542432,0.356158 0.542432,0.448626 0,0.09247 -0.255183,0.57863 -0.567074,1.080357 -0.476474,0.766488 -0.594158,1.198489 -0.736589,2.703956 -0.21753,2.299243 -0.794643,3.933985 -2.143482,6.07168 -1.304503,2.067427 -1.723979,3.208327 -1.731994,4.7107 -0.0055,1.027444 -0.07204,1.217577 -0.713061,2.037037 -0.970771,1.240994 -1.619,2.343492 -3.440782,5.852029 -1.973644,3.80101 -2.235381,4.672136 -2.08619,6.943352 l 0.112718,1.715972 -0.543507,0.401832 c -0.847767,0.626781 -1.004998,1.743324 -1.013109,7.194339 l -0.007,4.722222 0.70129,3.5008596 c 1.02921,5.1378481 0.962965,7.2653037 -0.324787,10.4306467 -0.586637,1.441977 -0.609064,2.085155 -0.07756,2.224148 0.346307,0.09056 0.379011,0.195852 0.281596,0.906576 -0.143222,1.044913 0.100035,1.655644 0.721583,1.811644 0.631565,0.158513 1.357926,-0.296855 1.632082,-1.02318 0.241313,-0.639307 0.490452,-0.699433 0.493972,-0.119212 0.007,1.147355 0.661954,1.806374 1.793831,1.804862 0.624826,-9.25e-4 1.621897,-0.577055 1.901039,-1.098635 0.169191,-0.316139 0.26008,-0.342457 0.552337,-0.15994 0.446893,0.27909 0.817261,-0.0053 1.339141,-1.028265 0.429557,-0.842004 0.482183,-2.491032 0.126239,-3.955708 -0.130667,-0.53767899 -0.222637,-2.6712774 -0.23378,-5.4234256 -0.0182,-4.4929093 -0.0231,-4.5471111 -0.504622,-5.5728667 -0.267437,-0.569706 -0.787817,-1.474231 -1.1564,-2.010056 -0.368581,-0.535824 -0.62938,-1.04019 -0.57955,-1.120816 0.104626,-0.169289 1.126346,0.03169 1.687302,0.331907 0.210274,0.112535 0.81692,1.085598 1.348104,2.162365 2.072666,4.2015771 5.080423,6.1076845 9.0765083,5.7520808 7.6223204,-0.6782944 9.4824904,-1.7243389 10.5479244,-5.9314998 0.316911,-1.251413 0.482213,-1.574948 1.064426,-2.083339 0.379089,-0.33102 0.714496,-0.576613 0.745348,-0.545759 0.03085,0.03085 -0.209209,0.718355 -0.533472,1.527781 l -0.589569,1.4716872 -0.070261,4.5318981 c -0.06818,4.3979167 -0.08588,4.57858521 -0.598411,6.11111101 -0.952824,2.84902199 -1.069209,4.97368299 -0.322358,5.88476899 0.322856,0.393852 0.93348,0.257287 1.558567,-0.348571 0.703557,-0.681915 1.059717,-0.618098 1.424632,0.255265 0.554731,1.327661 1.213359,1.556893 2.167203,0.754285 0.549052,-0.461996 0.602863,-0.47339 0.775845,-0.164289 0.281515,0.503039 0.855813,1.031087 1.121396,1.031087 0.130117,0 0.439259,-0.145833 0.686987,-0.324074 z m -47.6886927,-0.89079 c 0.241672,-0.260769 0.666579,-1.114936 0.944237,-1.898149 0.277659,-0.783212 0.660817,-1.792255 0.851464,-2.242316 l 0.346629,-0.818293 0.381498,0.409491 c 0.270544,0.290394 0.498452,0.373681 0.783624,0.286368 1.004232,-0.307472 1.420645,-1.198764 1.420645,-3.04075499 0,-0.76363161 0.119711,-1.59479271 0.287581,-1.99668901 0.166838,-0.3994277 1.062085,-1.4396037 2.132284,-2.477474 2.434639,-2.3610889 2.843576,-3.1916723 2.70267,-5.4893373 -0.05432,-0.885815 -0.340555,-2.52724 -0.636072,-3.647611 -0.486069,-1.842796 -0.580169,-2.042224 -0.986845,-2.091431 -0.372842,-0.04511 -0.61022,0.176052 -1.391332,1.296296 -0.517987,0.74288 -1.669658,2.220952 -2.559269,3.284605 -2.142185,2.5612746 -2.433714,3.0050042 -3.900234,5.936456 -2.853016,5.70294031 -3.467058,6.43270331 -6.131802,7.2873923 -1.81945,0.583571 -3.118373,1.252954 -3.28773,1.694291 -0.0646,0.168345 0.04719,0.420185 0.269337,0.606759 0.208876,0.175432 0.495995,0.593239 0.638043,0.928463 0.338955,0.799917 1.257583,1.196767 3.934054,1.699523 1.149062,0.215844 2.274062,0.466831 2.5,0.55775 0.721345,0.290275 1.249919,0.20162 1.701218,-0.285339 z"
     id="path338" />
  <path
     style="fill:#ff0000;fill-opacity:0;stroke-width:0.185185"
     d="m -7.7773034,9.3772253 c -0.4074074,-0.314631 -1.1574074,-0.761657 -1.6666667,-0.993391 -1.1937089,-0.543189 -1.6711629,-1.073172 -2.1063649,-2.338113 -0.508328,-1.477476 -0.797822,-1.972131 -1.868667,-3.192944 -1.552881,-1.770359 -1.579722,-1.831222 -1.307664,-2.96527999 0.295457,-1.23160901 0.08307,-1.71358121 -0.830665,-1.88499791 -0.818563,-0.153563 -1.837002,0.033128 -2.134193,0.3912185 -0.233722,0.2816204 -0.184192,1.21621141 0.18113,3.4177184 0.27317,1.646174 0.23392,4.204428 -0.07363,4.799165 -0.319924,0.618665 -2.668863,1.906331 -4.20953,2.307624 -1.16495,0.30343 -1.72152,0.22955 -4.469813,-0.593335 -1.998233,-0.598304 -2.748472,-1.132793 -3.104567,-2.211772 -0.350092,-1.060787 -0.115429,-2.566965 0.723737,-4.645286 1.115467,-2.7626236 1.031471,-3.3600996 -0.472387,-3.3600996 -1.696911,0 -3.233905,1.02794261 -3.654461,2.44410561 -0.404028,1.36051099 -0.672671,1.69123099 -2.224256,2.73822999 -1.566701,1.057198 -2.1485,1.803346 -2.701216,3.464259 -0.674531,2.026965 -1.844346,2.525183 -4.934695,2.101665 -2.387242,-0.327163 -3.323534,-0.674211 -4.311101,-1.597963 -0.977758,-0.91458 -2.038693,-2.732828 -2.038693,-3.493948 0,-1.079384 0.392216,-1.380323 3.054503,-2.34365 2.786461,-1.00825999 4.347682,-2.8569282 6.945951,-8.2248226 1.139458,-2.3540649 1.841729,-3.5093357 3.396444,-5.5873257 5.27766,-7.053976 6.861934,-10.146497 7.61825,-14.870921 0.4927,-3.077707 0.7925,-3.819378 2.881954,-7.12963 0.642896,-1.018518 1.436433,-2.435185 1.763415,-3.148148 0.598696,-1.305422 1.37652,-4.050198 1.37652,-4.85745 0,-0.607848 0.605741,-1.73895 1.87868,-3.508063 0.599022,-0.832515 1.400541,-2.165848 1.781152,-2.962963 l 0.69202,-1.449302 -0.004,-2.5 c -0.0022,-1.375 -0.07336,-2.916666 -0.158163,-3.425925 -0.149255,-0.896373 -0.130774,-0.955479 0.579032,-1.851852 1.057735,-1.335753 1.163531,-1.603218 1.351033,-3.415544 0.210263,-2.032337 0.87892,-4.178656 1.791689,-5.751123 0.962518,-1.658173 4.7969147,-5.503724 6.1526796,-6.170579 1.2931074,-0.636035 1.7315074,-0.624167 3.1512931,0.08531 2.506678,1.252601 4.831144,4.199349 5.398174,6.843314 0.27298,1.27286 0.115587,3.91672 -0.382891,6.431745 -0.208428,1.051605 -0.328174,2.114351 -0.266105,2.361657 0.148535,0.591809 0.863376,1.173938 2.948477,2.401085 0.945063,0.5562 2.486563,1.615252 3.425554,2.353446 2.941098,2.312168 2.743495,2.2044 3.8835833,2.118026 0.560186,-0.04244 1.935186,-0.259667 3.055556,-0.482726 2.771811,-0.551852 6.464898,-0.608572 8.518519,-0.13083 3.740175,0.870091 5.135327,1.960947 5.135327,4.015265 0,1.873324 -0.940829,3.495874 -3.315168,5.717326 -1.373702,1.285246 -1.958095,1.66617 -4.689817,3.056963 -2.481483,1.263387 -3.241339,1.741243 -3.71025,2.333291 -0.716891,0.905148 -1.244778,1.193248 -2.668705,1.456476 -2.101963,0.388568 -2.302887,0.825627 -1.491173,3.243685 0.374528,1.115696 0.517558,2.124492 0.742291,5.23538 0.153104,2.119364 0.402674,4.752088 0.5546,5.850498 0.620313,4.484813 0.186489,8.556717 -1.533315,14.3917815 -0.77497,2.6293778 -0.846561,3.0413981 -0.852689,4.9074074 l -0.0067,2.03703741 0.960535,1.75925899 c 0.878763,1.609492 0.960837,1.862835 0.964089,2.975926 0.0033,1.13202 -0.04292,1.270966 -0.664492,1.997128 -0.978282,1.142903 -3.0299933,2.055707 -4.6342803,2.061785 -0.575913,0.0022 -4.888098,-1.066404 -5.845396,-1.448524 -1.158487,-0.462428 -1.491226,-2.264108 -0.82415,-4.462519 0.167863,-0.553209 0.305205,-1.151422 0.305205,-1.329365 0,-0.898077 -1.325615,-1.181537 -2.566063,-0.548707 -1.202214,0.613324 -1.235496,0.740206 -0.5944,2.266063 0.995861,2.370217 0.716982,4.5223 -0.709514,5.475263 -0.51883,0.3466 -0.876258,0.419454 -2.0370379,0.415205 -1.2860148,-0.0047 -1.4718796,-0.05464 -2.1485408,-0.577207 z m 2.4485648,-0.815581 c 2.0151033,-1.004169 2.6897633,-2.943084 1.6022313,-4.604673 -0.272379,-0.416155 -1.067007,-1.520944 -1.7658387,-2.455089 -1.0540074,-1.40891299 -1.4124185,-1.75259999 -2.1025296,-2.01615699 -0.9501297,-0.3628574 -2.3722167,-0.2769166 -3.6094614,0.218132 -0.758324,0.30342 -1.665559,1.198751 -1.665559,1.64370299 0,0.136647 0.371543,0.683721 0.825648,1.215721 0.635398,0.744387 0.87177,1.206588 1.025807,2.005861 0.340584,1.767216 0.362799,1.837502 0.681565,2.156266 0.242889,0.242889 0.5028559,0.284691 1.1974744,0.192547 l 0.8872315,-0.117697 0.4932019,0.977811 c 0.7329389,1.453113 0.9476907,1.522354 2.4302296,0.783575 z M 8.7944037,7.7836583 c 0.247728,-0.17824 0.784128,-0.49074 1.192,-0.694444 1.3924583,-0.695437 1.3121983,-1.818669 -0.322131,-4.50823 -1.163193,-1.91422699 -1.299159,-2.92023899 -0.710361,-5.2559682 1.7309263,-6.8664963 2.9763163,-14.4298041 2.7036943,-16.4196391 -0.319374,-2.331056 -0.493913,-2.515776 -1.8440703,-1.951645 -1.107352,0.462682 -1.135454,0.129423 -0.148604,-1.762298 l 0.8910983,-1.708176 v -2.34517 c 0,-2.324528 -0.0063,-2.359026 -0.7126983,-3.919244 -0.391985,-0.865741 -0.752374,-1.743304 -0.800865,-1.950141 -0.04849,-0.206835 0.207487,-1.024832 0.568841,-1.817769 1.0577933,-2.321172 1.2958133,-3.755015 1.3265833,-7.99135 0.03225,-4.439968 0.151171,-4.93039 1.377399,-5.680183 1.138716,-0.696283 3.788483,-1.389413 6.017162,-1.573978 1.5266,-0.126424 1.860989,-0.208811 1.910452,-0.470704 0.147621,-0.781616 -3.309333,-0.829711 -5.6128,-0.07809 -0.814814,0.265874 -1.731481,0.48363 -2.037037,0.483899 -0.305555,1.85e-4 -1.076416,0.18342 -1.713026,0.407003 -1.0842813,0.38081 -1.1961663,0.388061 -1.7694403,0.114685 -0.336586,-0.160507 -1.506597,-1.049124 -2.600024,-1.974705 -3.301291,-2.794524 -5.169958,-3.978272 -7.468073,-4.730823 -1.464255,-0.479491 -1.509366,-0.607347 -0.828244,-2.34744 0.562729,-1.437631 0.582511,-1.584096 0.582511,-4.313083 0,-3.087911 -0.176015,-4.002045 -1.137361,-5.906873 -0.598374,-1.185629 -1.713963,-2.37294 -2.558145,-2.722611 -0.5436626,-0.225193 -0.5768551,-0.202848 -2.7853977,1.875088 -1.3858426,1.303888 -2.444532,2.472428 -2.786128,3.07522 -0.303022,0.534722 -0.676355,0.972222 -0.82963,0.972222 -0.246105,0 -0.244783,-0.08117 0.01131,-0.694445 0.825552,-1.976962 1.9663894,-3.315707 3.6430005,-4.274966 1.1951537,-0.683798 1.5263037,-1.026185 1.3746777,-1.42132 -0.4638963,-1.208893 -3.0904037,0.24795 -5.2339072,2.903087 -2.08658,2.584628 -2.827089,4.613233 -2.982217,8.169709 -0.101941,2.337134 -0.110161,2.373062 -0.646159,2.824074 -0.298602,0.251253 -0.616917,0.456824 -0.70737,0.456824 -0.278395,0 -0.57491,0.734161 -0.452406,1.120137 0.06379,0.200973 0.36007,0.491632 0.658407,0.645909 0.298337,0.154276 0.542432,0.356158 0.542432,0.448626 0,0.09247 -0.255183,0.57863 -0.567074,1.080357 -0.476474,0.766488 -0.594158,1.198489 -0.736589,2.703956 -0.21753,2.299243 -0.794643,3.933985 -2.143482,6.07168 -1.304503,2.067427 -1.723979,3.208327 -1.731994,4.7107 -0.0055,1.027444 -0.07204,1.217577 -0.713061,2.037037 -0.970771,1.240994 -1.619,2.343492 -3.440782,5.852029 -1.973644,3.80101 -2.235381,4.672136 -2.08619,6.943352 l 0.112718,1.715972 -0.543507,0.401832 c -0.847767,0.626781 -1.004998,1.743324 -1.013109,7.194339 l -0.007,4.722222 0.70129,3.5008596 c 1.02921,5.1378481 0.962965,7.2653037 -0.324787,10.4306467 -0.586637,1.441977 -0.609064,2.085155 -0.07756,2.224148 0.346307,0.09056 0.379011,0.195852 0.281596,0.906576 -0.143222,1.044913 0.100035,1.655644 0.721583,1.811644 0.631565,0.158513 1.357926,-0.296855 1.632082,-1.02318 0.241313,-0.639307 0.490452,-0.699433 0.493972,-0.119212 0.007,1.147355 0.661954,1.806374 1.793831,1.804862 0.624826,-9.25e-4 1.621897,-0.577055 1.901039,-1.098635 0.169191,-0.316139 0.26008,-0.342457 0.552337,-0.15994 0.446893,0.27909 0.817261,-0.0053 1.339141,-1.028265 0.429557,-0.842004 0.482183,-2.491032 0.126239,-3.955708 -0.130667,-0.53767899 -0.222637,-2.6712774 -0.23378,-5.4234256 -0.0182,-4.4929093 -0.0231,-4.5471111 -0.504622,-5.5728667 -0.267437,-0.569706 -0.787817,-1.474231 -1.1564,-2.010056 -0.368581,-0.535824 -0.62938,-1.04019 -0.57955,-1.120816 0.104626,-0.169289 1.126346,0.03169 1.687302,0.331907 0.210274,0.112535 0.81692,1.085598 1.348104,2.162365 2.072666,4.2015771 5.080423,6.1076845 9.0765083,5.7520808 7.6223204,-0.6782944 9.4824904,-1.7243389 10.5479244,-5.9314998 0.316911,-1.251413 0.482213,-1.574948 1.064426,-2.083339 0.379089,-0.33102 0.714496,-0.576613 0.745348,-0.545759 0.03085,0.03085 -0.209209,0.718355 -0.533472,1.527781 l -0.589569,1.4716872 -0.070261,4.5318981 c -0.06818,4.3979167 -0.08588,4.57858521 -0.598411,6.11111101 -0.952824,2.84902199 -1.069209,4.97368299 -0.322358,5.88476899 0.322856,0.393852 0.93348,0.257287 1.558567,-0.348571 0.703557,-0.681915 1.059717,-0.618098 1.424632,0.255265 0.554731,1.327661 1.213359,1.556893 2.167203,0.754285 0.549052,-0.461996 0.602863,-0.47339 0.775845,-0.164289 0.281515,0.503039 0.855813,1.031087 1.121396,1.031087 0.130117,0 0.439259,-0.145833 0.686987,-0.324074 z m -47.6886927,-0.89079 c 0.241672,-0.260769 0.666579,-1.114936 0.944237,-1.898149 0.277659,-0.783212 0.660817,-1.792255 0.851464,-2.242316 l 0.346629,-0.818293 0.381498,0.409491 c 0.270544,0.290394 0.498452,0.373681 0.783624,0.286368 1.004232,-0.307472 1.420645,-1.198764 1.420645,-3.04075499 0,-0.76363161 0.119711,-1.59479271 0.287581,-1.99668901 0.166838,-0.3994277 1.062085,-1.4396037 2.132284,-2.477474 2.434639,-2.3610889 2.843576,-3.1916723 2.70267,-5.4893373 -0.05432,-0.885815 -0.340555,-2.52724 -0.636072,-3.647611 -0.486069,-1.842796 -0.580169,-2.042224 -0.986845,-2.091431 -0.372842,-0.04511 -0.61022,0.176052 -1.391332,1.296296 -0.517987,0.74288 -1.669658,2.220952 -2.559269,3.284605 -2.142185,2.5612746 -2.433714,3.0050042 -3.900234,5.936456 -2.853016,5.70294031 -3.467058,6.43270331 -6.131802,7.2873923 -1.81945,0.583571 -3.118373,1.252954 -3.28773,1.694291 -0.0646,0.168345 0.04719,0.420185 0.269337,0.606759 0.208876,0.175432 0.495995,0.593239 0.638043,0.928463 0.338955,0.799917 1.257583,1.196767 3.934054,1.699523 1.149062,0.215844 2.274062,0.466831 2.5,0.55775 0.721345,0.290275 1.249919,0.20162 1.701218,-0.285339 z"
     id="path342" />
  <path
     style="fill:#ff0000;fill-opacity:0;stroke-width:0.185185"
     d="m -7.7773034,9.3772253 c -0.4074074,-0.314631 -1.1574074,-0.761657 -1.6666667,-0.993391 -1.1937089,-0.543189 -1.6711629,-1.073172 -2.1063649,-2.338113 -0.508328,-1.477476 -0.797822,-1.972131 -1.868667,-3.192944 -1.552881,-1.770359 -1.579722,-1.831222 -1.307664,-2.96527999 0.295457,-1.23160901 0.08307,-1.71358121 -0.830665,-1.88499791 -0.818563,-0.153563 -1.837002,0.033128 -2.134193,0.3912185 -0.233722,0.2816204 -0.184192,1.21621141 0.18113,3.4177184 0.27317,1.646174 0.23392,4.204428 -0.07363,4.799165 -0.319924,0.618665 -2.668863,1.906331 -4.20953,2.307624 -1.16495,0.30343 -1.72152,0.22955 -4.469813,-0.593335 -1.998233,-0.598304 -2.748472,-1.132793 -3.104567,-2.211772 -0.350092,-1.060787 -0.115429,-2.566965 0.723737,-4.645286 1.115467,-2.7626236 1.031471,-3.3600996 -0.472387,-3.3600996 -1.696911,0 -3.233905,1.02794261 -3.654461,2.44410561 -0.404028,1.36051099 -0.672671,1.69123099 -2.224256,2.73822999 -1.566701,1.057198 -2.1485,1.803346 -2.701216,3.464259 -0.674531,2.026965 -1.844346,2.525183 -4.934695,2.101665 -2.387242,-0.327163 -3.323534,-0.674211 -4.311101,-1.597963 -0.977758,-0.91458 -2.038693,-2.732828 -2.038693,-3.493948 0,-1.079384 0.392216,-1.380323 3.054503,-2.34365 2.786461,-1.00825999 4.347682,-2.8569282 6.945951,-8.2248226 1.139458,-2.3540649 1.841729,-3.5093357 3.396444,-5.5873257 5.27766,-7.053976 6.861934,-10.146497 7.61825,-14.870921 0.4927,-3.077707 0.7925,-3.819378 2.881954,-7.12963 0.642896,-1.018518 1.436433,-2.435185 1.763415,-3.148148 0.598696,-1.305422 1.37652,-4.050198 1.37652,-4.85745 0,-0.607848 0.605741,-1.73895 1.87868,-3.508063 0.599022,-0.832515 1.400541,-2.165848 1.781152,-2.962963 l 0.69202,-1.449302 -0.004,-2.5 c -0.0022,-1.375 -0.07336,-2.916666 -0.158163,-3.425925 -0.149255,-0.896373 -0.130774,-0.955479 0.579032,-1.851852 1.057735,-1.335753 1.163531,-1.603218 1.351033,-3.415544 0.210263,-2.032337 0.87892,-4.178656 1.791689,-5.751123 0.962518,-1.658173 4.7969147,-5.503724 6.1526796,-6.170579 1.2931074,-0.636035 1.7315074,-0.624167 3.1512931,0.08531 2.506678,1.252601 4.831144,4.199349 5.398174,6.843314 0.27298,1.27286 0.115587,3.91672 -0.382891,6.431745 -0.208428,1.051605 -0.328174,2.114351 -0.266105,2.361657 0.148535,0.591809 0.863376,1.173938 2.948477,2.401085 0.945063,0.5562 2.486563,1.615252 3.425554,2.353446 2.941098,2.312168 2.743495,2.2044 3.8835833,2.118026 0.560186,-0.04244 1.935186,-0.259667 3.055556,-0.482726 2.771811,-0.551852 6.464898,-0.608572 8.518519,-0.13083 3.740175,0.870091 5.135327,1.960947 5.135327,4.015265 0,1.873324 -0.940829,3.495874 -3.315168,5.717326 -1.373702,1.285246 -1.958095,1.66617 -4.689817,3.056963 -2.481483,1.263387 -3.241339,1.741243 -3.71025,2.333291 -0.716891,0.905148 -1.244778,1.193248 -2.668705,1.456476 -2.101963,0.388568 -2.302887,0.825627 -1.491173,3.243685 0.374528,1.115696 0.517558,2.124492 0.742291,5.23538 0.153104,2.119364 0.402674,4.752088 0.5546,5.850498 0.620313,4.484813 0.186489,8.556717 -1.533315,14.3917815 -0.77497,2.6293778 -0.846561,3.0413981 -0.852689,4.9074074 l -0.0067,2.03703741 0.960535,1.75925899 c 0.878763,1.609492 0.960837,1.862835 0.964089,2.975926 0.0033,1.13202 -0.04292,1.270966 -0.664492,1.997128 -0.978282,1.142903 -3.0299933,2.055707 -4.6342803,2.061785 -0.575913,0.0022 -4.888098,-1.066404 -5.845396,-1.448524 -1.158487,-0.462428 -1.491226,-2.264108 -0.82415,-4.462519 0.167863,-0.553209 0.305205,-1.151422 0.305205,-1.329365 0,-0.898077 -1.325615,-1.181537 -2.566063,-0.548707 -1.202214,0.613324 -1.235496,0.740206 -0.5944,2.266063 0.995861,2.370217 0.716982,4.5223 -0.709514,5.475263 -0.51883,0.3466 -0.876258,0.419454 -2.0370379,0.415205 -1.2860148,-0.0047 -1.4718796,-0.05464 -2.1485408,-0.577207 z m 2.4485648,-0.815581 c 2.0151033,-1.004169 2.6897633,-2.943084 1.6022313,-4.604673 -0.272379,-0.416155 -1.067007,-1.520944 -1.7658387,-2.455089 -1.0540074,-1.40891299 -1.4124185,-1.75259999 -2.1025296,-2.01615699 -0.9501297,-0.3628574 -2.3722167,-0.2769166 -3.6094614,0.218132 -0.758324,0.30342 -1.665559,1.198751 -1.665559,1.64370299 0,0.136647 0.371543,0.683721 0.825648,1.215721 0.635398,0.744387 0.87177,1.206588 1.025807,2.005861 0.340584,1.767216 0.362799,1.837502 0.681565,2.156266 0.242889,0.242889 0.5028559,0.284691 1.1974744,0.192547 l 0.8872315,-0.117697 0.4932019,0.977811 c 0.7329389,1.453113 0.9476907,1.522354 2.4302296,0.783575 z M 8.7944037,7.7836583 c 0.247728,-0.17824 0.784128,-0.49074 1.192,-0.694444 1.3924583,-0.695437 1.3121983,-1.818669 -0.322131,-4.50823 -1.163193,-1.91422699 -1.299159,-2.92023899 -0.710361,-5.2559682 1.7309263,-6.8664963 2.9763163,-14.4298041 2.7036943,-16.4196391 -0.319374,-2.331056 -0.493913,-2.515776 -1.8440703,-1.951645 -1.107352,0.462682 -1.135454,0.129423 -0.148604,-1.762298 l 0.8910983,-1.708176 v -2.34517 c 0,-2.324528 -0.0063,-2.359026 -0.7126983,-3.919244 -0.391985,-0.865741 -0.752374,-1.743304 -0.800865,-1.950141 -0.04849,-0.206835 0.207487,-1.024832 0.568841,-1.817769 1.0577933,-2.321172 1.2958133,-3.755015 1.3265833,-7.99135 0.03225,-4.439968 0.151171,-4.93039 1.377399,-5.680183 1.138716,-0.696283 3.788483,-1.389413 6.017162,-1.573978 1.5266,-0.126424 1.860989,-0.208811 1.910452,-0.470704 0.147621,-0.781616 -3.309333,-0.829711 -5.6128,-0.07809 -0.814814,0.265874 -1.731481,0.48363 -2.037037,0.483899 -0.305555,1.85e-4 -1.076416,0.18342 -1.713026,0.407003 -1.0842813,0.38081 -1.1961663,0.388061 -1.7694403,0.114685 -0.336586,-0.160507 -1.506597,-1.049124 -2.600024,-1.974705 -3.301291,-2.794524 -5.169958,-3.978272 -7.468073,-4.730823 -1.464255,-0.479491 -1.509366,-0.607347 -0.828244,-2.34744 0.562729,-1.437631 0.582511,-1.584096 0.582511,-4.313083 0,-3.087911 -0.176015,-4.002045 -1.137361,-5.906873 -0.598374,-1.185629 -1.713963,-2.37294 -2.558145,-2.722611 -0.5436626,-0.225193 -0.5768551,-0.202848 -2.7853977,1.875088 -1.3858426,1.303888 -2.444532,2.472428 -2.786128,3.07522 -0.303022,0.534722 -0.676355,0.972222 -0.82963,0.972222 -0.246105,0 -0.244783,-0.08117 0.01131,-0.694445 0.825552,-1.976962 1.9663894,-3.315707 3.6430005,-4.274966 1.1951537,-0.683798 1.5263037,-1.026185 1.3746777,-1.42132 -0.4638963,-1.208893 -3.0904037,0.24795 -5.2339072,2.903087 -2.08658,2.584628 -2.827089,4.613233 -2.982217,8.169709 -0.101941,2.337134 -0.110161,2.373062 -0.646159,2.824074 -0.298602,0.251253 -0.616917,0.456824 -0.70737,0.456824 -0.278395,0 -0.57491,0.734161 -0.452406,1.120137 0.06379,0.200973 0.36007,0.491632 0.658407,0.645909 0.298337,0.154276 0.542432,0.356158 0.542432,0.448626 0,0.09247 -0.255183,0.57863 -0.567074,1.080357 -0.476474,0.766488 -0.594158,1.198489 -0.736589,2.703956 -0.21753,2.299243 -0.794643,3.933985 -2.143482,6.07168 -1.304503,2.067427 -1.723979,3.208327 -1.731994,4.7107 -0.0055,1.027444 -0.07204,1.217577 -0.713061,2.037037 -0.970771,1.240994 -1.619,2.343492 -3.440782,5.852029 -1.973644,3.80101 -2.235381,4.672136 -2.08619,6.943352 l 0.112718,1.715972 -0.543507,0.401832 c -0.847767,0.626781 -1.004998,1.743324 -1.013109,7.194339 l -0.007,4.722222 0.70129,3.5008596 c 1.02921,5.1378481 0.962965,7.2653037 -0.324787,10.4306467 -0.586637,1.441977 -0.609064,2.085155 -0.07756,2.224148 0.346307,0.09056 0.379011,0.195852 0.281596,0.906576 -0.143222,1.044913 0.100035,1.655644 0.721583,1.811644 0.631565,0.158513 1.357926,-0.296855 1.632082,-1.02318 0.241313,-0.639307 0.490452,-0.699433 0.493972,-0.119212 0.007,1.147355 0.661954,1.806374 1.793831,1.804862 0.624826,-9.25e-4 1.621897,-0.577055 1.901039,-1.098635 0.169191,-0.316139 0.26008,-0.342457 0.552337,-0.15994 0.446893,0.27909 0.817261,-0.0053 1.339141,-1.028265 0.429557,-0.842004 0.482183,-2.491032 0.126239,-3.955708 -0.130667,-0.53767899 -0.222637,-2.6712774 -0.23378,-5.4234256 -0.0182,-4.4929093 -0.0231,-4.5471111 -0.504622,-5.5728667 -0.267437,-0.569706 -0.787817,-1.474231 -1.1564,-2.010056 -0.368581,-0.535824 -0.62938,-1.04019 -0.57955,-1.120816 0.104626,-0.169289 1.126346,0.03169 1.687302,0.331907 0.210274,0.112535 0.81692,1.085598 1.348104,2.162365 2.072666,4.2015771 5.080423,6.1076845 9.0765083,5.7520808 7.6223204,-0.6782944 9.4824904,-1.7243389 10.5479244,-5.9314998 0.316911,-1.251413 0.482213,-1.574948 1.064426,-2.083339 0.379089,-0.33102 0.714496,-0.576613 0.745348,-0.545759 0.03085,0.03085 -0.209209,0.718355 -0.533472,1.527781 l -0.589569,1.4716872 -0.070261,4.5318981 c -0.06818,4.3979167 -0.08588,4.57858521 -0.598411,6.11111101 -0.952824,2.84902199 -1.069209,4.97368299 -0.322358,5.88476899 0.322856,0.393852 0.93348,0.257287 1.558567,-0.348571 0.703557,-0.681915 1.059717,-0.618098 1.424632,0.255265 0.554731,1.327661 1.213359,1.556893 2.167203,0.754285 0.549052,-0.461996 0.602863,-0.47339 0.775845,-0.164289 0.281515,0.503039 0.855813,1.031087 1.121396,1.031087 0.130117,0 0.439259,-0.145833 0.686987,-0.324074 z m -47.6886927,-0.89079 c 0.241672,-0.260769 0.666579,-1.114936 0.944237,-1.898149 0.277659,-0.783212 0.660817,-1.792255 0.851464,-2.242316 l 0.346629,-0.818293 0.381498,0.409491 c 0.270544,0.290394 0.498452,0.373681 0.783624,0.286368 1.004232,-0.307472 1.420645,-1.198764 1.420645,-3.04075499 0,-0.76363161 0.119711,-1.59479271 0.287581,-1.99668901 0.166838,-0.3994277 1.062085,-1.4396037 2.132284,-2.477474 2.434639,-2.3610889 2.843576,-3.1916723 2.70267,-5.4893373 -0.05432,-0.885815 -0.340555,-2.52724 -0.636072,-3.647611 -0.486069,-1.842796 -0.580169,-2.042224 -0.986845,-2.091431 -0.372842,-0.04511 -0.61022,0.176052 -1.391332,1.296296 -0.517987,0.74288 -1.669658,2.220952 -2.559269,3.284605 -2.142185,2.5612746 -2.433714,3.0050042 -3.900234,5.936456 -2.853016,5.70294031 -3.467058,6.43270331 -6.131802,7.2873923 -1.81945,0.583571 -3.118373,1.252954 -3.28773,1.694291 -0.0646,0.168345 0.04719,0.420185 0.269337,0.606759 0.208876,0.175432 0.495995,0.593239 0.638043,0.928463 0.338955,0.799917 1.257583,1.196767 3.934054,1.699523 1.149062,0.215844 2.274062,0.466831 2.5,0.55775 0.721345,0.290275 1.249919,0.20162 1.701218,-0.285339 z"
     id="path344" />
  <path
     style="fill:#ff0000;fill-opacity:0;stroke-width:0.185185"
     d="m -7.7587779,9.3772253 c -0.4074075,-0.314631 -1.1710556,-0.766417 -1.6969945,-1.003968 -1.2120796,-0.547465 -1.6427166,-1.01443 -2.0224866,-2.193113 -0.430076,-1.334815 -1.0841,-2.407137 -2.225169,-3.648336 -1.139054,-1.239005 -1.327452,-1.76459799 -0.994326,-2.77397899 0.457285,-1.38558731 -0.512591,-2.14227061 -2.207468,-1.72223731 -0.879854,0.21805 -1.162502,0.8041222 -0.927899,1.92399231 0.374002,1.78526499 0.563165,3.67201299 0.504521,5.03215599 -0.05223,1.211317 -0.129489,1.494224 -0.523502,1.916889 -0.981298,1.052655 -4.310798,2.377996 -5.474106,2.179024 -1.18299,-0.202341 -4.464883,-1.217989 -5.004872,-1.548859 -1.462929,-0.896387 -1.568822,-3.151441 -0.288685,-6.147687 0.804232,-1.88235999 0.893221,-2.33374309 0.576695,-2.9251783 -0.445767,-0.8329203 -3.306315,-0.130437 -4.225077,1.03757931 -0.223347,0.283939 -0.451033,0.731882 -0.505968,0.995424 -0.244185,1.17144899 -0.643782,1.68222799 -2.131744,2.72486899 -1.663444,1.165607 -2.386381,2.102802 -2.84863,3.692881 -0.565319,1.944628 -1.956821,2.41763 -5.441815,1.849793 -1.072169,-0.174698 -2.249419,-0.470691 -2.616111,-0.657765 -1.505985,-0.768294 -3.222657,-3.299994 -3.114101,-4.592583 0.07004,-0.833924 0.628954,-1.247335 2.662243,-1.969169 1.809123,-0.64225099 2.590175,-1.13525299 3.587888,-2.26468699 1.260913,-1.42737931 1.722754,-2.18512001 3.600774,-5.90777191 1.352773,-2.6814963 2.167395,-4.0308374 3.459144,-5.7297294 2.225404,-2.926824 4.832913,-6.832334 5.666436,-8.487147 1.117366,-2.218341 1.430457,-3.269796 2.091192,-7.022909 0.454737,-2.582991 0.809554,-3.435204 2.594184,-6.230811 0.741262,-1.161182 1.588677,-2.626093 1.883147,-3.255359 0.518458,-1.107919 1.456063,-4.408888 1.456063,-5.126269 0,-0.523106 0.764254,-1.930502 1.844132,-3.396024 0.52535,-0.712963 1.304329,-2.00463 1.731066,-2.87037 l 0.775886,-1.574075 -0.0052,-2.407407 c -0.0029,-1.324074 -0.0748,-2.866909 -0.159904,-3.428523 -0.153698,-1.014278 -0.149394,-1.02787 0.642707,-2.029954 0.9536,-1.206395 1.263376,-1.999369 1.274263,-3.2619 0.02038,-2.363421 1.376976,-5.6253 3.269386,-7.861104 1.288242,-1.522006 3.5731644,-3.527158 4.7478144,-4.166482 0.7138204,-0.38851 1.0802926,-0.477617 1.6500204,-0.401201 1.7927559,0.240459 4.9750729,2.973375 6.0451169,5.191435 1.113146,2.307408 1.204496,4.480778 0.368606,8.769812 l -0.407537,2.091109 0.375972,0.511367 c 0.206785,0.281252 1.409996,1.158885 2.673804,1.950297 1.263805,0.791411 2.954792,1.958077 3.757748,2.592592 2.6671,2.107609 2.505764,2.022317 3.6383093,1.923434 0.560185,-0.04891 1.935185,-0.267415 3.055555,-0.485567 3.953665,-0.769833 8.024873,-0.551578 10.925926,0.58573 1.963621,0.769803 2.685276,1.69072 2.685039,3.426425 -1.85e-4,1.480734 -0.726644,2.940086 -2.313565,4.647717 -1.639175,1.763859 -2.973329,2.693 -6.019622,4.192224 -2.028659,0.998398 -2.67457,1.417015 -3.425926,2.220346 -0.883163,0.944258 -1.770452,1.398554 -2.737429,1.40158 -0.587278,0.0019 -1.578826,0.514426 -1.802095,0.931606 -0.179035,0.334531 -0.13342,0.640127 0.25803,1.72864 0.56628,1.574669 0.788633,2.965215 0.951735,5.951899 0.06675,1.222222 0.238296,3.138888 0.381224,4.259259 0.770456,6.039398 0.401524,10.143228 -1.448379,16.1111113 -0.677382,2.1852629 -0.74818,2.6039185 -0.767256,4.537037 l -0.02102,2.12963001 0.972222,1.80827699 c 0.837937,1.558517 0.972223,1.94985 0.972223,2.833271 0,1.143511 -0.269539,1.789922 -1.048282,2.514003 -1.1390393,1.059088 -3.4619263,1.784017 -4.9847653,1.555654 -1.758511,-0.263705 -5.284405,-1.351705 -5.726529,-1.767059 -0.684669,-0.643211 -0.765021,-1.727183 -0.282741,-3.814257 0.389191,-1.684232 0.39325,-1.784982 0.08563,-2.124902 -0.195258,-0.215756 -0.565887,-0.356839 -0.93743,-0.356839 -0.756517,0 -2.254305,0.703552 -2.386852,1.12117 -0.05368,0.169132 0.161206,0.881891 0.477524,1.583911 0.509667,1.131128 0.568095,1.434474 0.51336,2.665289 -0.103023,2.316622 -1.017132,3.152917 -3.4354471,3.142996 -1.1161518,-0.0046 -1.3383981,-0.06882 -1.9966888,-0.577207 z m 2.0538092,-0.616417 c 1.5157314,-0.633314 2.4807144,-1.886329 2.4822794,-3.223203 9.26e-4,-0.864813 -0.390924,-1.5467 -2.5297498,-4.401232 -1.4189963,-1.89383099 -2.6196629,-2.2928665 -4.8796429,-1.62172399 -1.038598,0.30843 -2.219289,1.273913 -2.219289,1.81477199 0,0.162669 0.280312,0.608502 0.622913,0.990741 0.844919,0.942669 1.143741,1.590459 1.388404,3.009793 0.255161,1.480237 0.535087,1.735863 1.7327316,1.582316 l 0.8736778,-0.112013 0.4932018,0.977811 c 0.6895167,1.367026 0.8872556,1.462495 2.0354741,0.982739 z M 8.8904087,7.6741313 c 0.315169,-0.238482 0.807693,-0.491447 1.094499,-0.562147 0.3621553,-0.08927 0.6042183,-0.326609 0.7923513,-0.776874 0.344032,-0.823383 0.149086,-1.616794 -0.771146,-3.138485 C 8.6870997,1.0155103 8.5957367,0.75770831 8.6710557,-0.57048569 8.7093957,-1.2465395 9.2128647,-3.883008 9.7898827,-6.4293043 11.443339,-13.725771 11.966245,-18.179254 11.426083,-20.364489 c -0.269066,-1.088516 -0.442761,-1.162806 -1.5940223,-0.681779 -1.00974,0.421899 -1.183907,0.126576 -0.574115,-0.973487 1.1891433,-2.145213 1.2948863,-2.486933 1.3738873,-4.439877 0.08323,-2.057434 -0.211305,-3.321297 -1.2660403,-5.432636 l -0.508808,-1.018518 0.716061,-1.590037 c 1.1237003,-2.495204 1.3420603,-3.773913 1.3728933,-8.039593 0.03054,-4.224955 0.1773,-4.917785 1.185441,-5.596202 1.056131,-0.710711 3.454883,-1.36565 5.848387,-1.596805 1.845592,-0.178239 2.230279,-0.267943 2.280822,-0.531858 0.143993,-0.751866 -3.334013,-0.845374 -5.426774,-0.145901 -0.712963,0.238296 -1.75463,0.490314 -2.314815,0.56004 -0.560185,0.06973 -1.404331,0.278258 -1.875879,0.463404 -1.1699343,0.459357 -1.4240433,0.331744 -4.6250583,-2.322696 -2.843341,-2.357837 -4.570565,-3.452791 -6.671257,-4.229167 -0.728765,-0.269337 -1.410156,-0.624859 -1.514204,-0.790048 -0.14085,-0.223618 -0.03924,-0.67304 0.397754,-1.759259 0.566416,-1.40792 0.586739,-1.552774 0.581409,-4.1441 -0.0063,-3.053032 -0.134548,-3.780771 -0.994411,-5.641833 -0.658176,-1.424536 -1.489033,-2.384869 -2.556345,-2.954713 l -0.6664181,-0.355805 -2.3242704,2.191356 c -1.3279111,1.251973 -2.5063412,2.534561 -2.7489962,2.99197 -0.374928,0.706747 -0.821672,1.122516 -1.007004,0.937184 -0.03453,-0.03453 0.223167,-0.659452 0.572659,-1.388719 0.732447,-1.528361 1.7677449,-2.637708 3.3205282,-3.558025 1.3371778,-0.792532 1.6162241,-1.166419 1.1892278,-1.593415 -1.1160092,-1.11601 -5.145643,2.287651 -6.820383,5.760889 -0.876598,1.817971 -1.294389,3.782629 -1.294389,6.086842 v 1.750604 l -0.601852,0.472663 c -1.052233,0.826367 -1.25,1.035134 -1.25,1.31952 0,0.294165 0.44683,0.785701 1.034768,1.1383 0.297536,0.178437 0.317443,0.267209 0.124578,0.555556 -0.758504,1.134018 -1.012035,1.881739 -1.174354,3.463422 -0.235438,2.294193 -0.748666,3.764433 -2.063787,5.91213 -1.411114,2.304461 -1.810094,3.359563 -1.810094,4.786794 0,1.050415 -0.05829,1.20755 -0.827598,2.230956 -0.939028,1.249183 -2.941152,4.820083 -4.39502,7.838768 l -0.981085,2.037037 -0.0066,2.249706 -0.0066,2.249705 -0.577605,0.539565 c -0.777635,0.726422 -0.890728,1.63845 -0.890728,7.183247 0,4.386637 0.0093,4.493552 0.716767,8.2200516 0.640154,3.3720444 0.707228,3.9955537 0.627513,5.8333333 -0.07684,1.77155041 -0.182956,2.31527041 -0.763008,3.9095774 -0.783711,2.154074 -0.836816,2.677247 -0.286377,2.821189 0.34095,0.08916 0.373488,0.194674 0.270937,0.878541 -0.152987,1.020193 0.112716,1.684233 0.736568,1.840811 0.636985,0.159872 1.347609,-0.291772 1.6005,-1.017217 0.242635,-0.696025 0.523026,-0.696794 0.523026,-0.0015 0,0.297226 0.05176,0.675307 0.115033,0.840183 0.153274,0.399426 1.037728,0.841797 1.681326,0.840937 0.624826,-9.26e-4 1.621896,-0.577055 1.901039,-1.098635 0.169191,-0.316139 0.26008,-0.342457 0.552337,-0.159941 0.442459,0.276323 0.816824,-0.0044 1.319355,-0.989483 0.411888,-0.807368 0.472078,-2.544989 0.133789,-3.862359 -0.13125,-0.511298 -0.21895,-2.58651639 -0.226902,-5.3703516 -0.01457,-5.0992981 -0.05054,-5.2727463 -1.58208,-7.6297407 -0.403465,-0.620922 -0.69508,-1.191233 -0.64803,-1.267361 0.08456,-0.136819 0.977856,0.02166 1.625517,0.288383 0.183863,0.07572 0.736815,0.939491 1.22878,1.919491 1.494116,2.9762963 2.709657,4.3387407 4.708027,5.2770166 2.005945,0.9418315 3.424571,1.0102574 7.8029709,0.3763648 3.4539968,-0.5000592 5.1118818,-1.2259685 6.1189798,-2.6792129 0.282346,-0.4074259 0.746291,-1.5507111 1.030987,-2.5406352 0.441348,-1.5346163 0.618991,-1.8885553 1.205431,-2.4017183 0.378291,-0.331021 0.716661,-0.572996 0.751934,-0.537724 0.03527,0.03527 -0.134424,0.51444 -0.377106,1.064818 -0.722976,1.639695 -0.859855,2.7382632 -0.859855,6.9010391 0,3.8621259 -0.01037,3.9682908 -0.540528,5.53672421 -0.768721,2.27417199 -1.048152,4.15393099 -0.753415,5.06827199 0.439591,1.363715 0.900452,1.514061 1.913798,0.624332 0.348008,-0.305556 0.720619,-0.555556 0.828024,-0.555556 0.107404,0 0.429735,0.4375 0.716293,0.972222 0.63415,1.183339 1.249639,1.371543 2.00737,0.613811 0.497035,-0.497037 0.828458,-0.609577 0.828458,-0.28132 0,0.266344 0.858205,1.102694 1.131509,1.102694 0.122331,0 0.480285,-0.19512 0.795455,-0.433601 z M -39.246814,7.2512903 c 0.389984,-0.149652 1.121403,-1.601858 1.700882,-3.377043 0.586224,-1.795848 0.720701,-1.962598 1.197907,-1.485392 0.253295,0.253296 0.493956,0.328939 0.774646,0.243483 1.020488,-0.310685 1.422949,-1.219219 1.42468,-3.21613899 0.0014,-1.66136661 0.42167,-2.40849251 2.466157,-4.38457211 2.071411,-2.0021019 2.589405,-2.9263796 2.68775,-4.7958426 0.05112,-0.9717486 -0.04985,-1.7395386 -0.401812,-3.0555556 -0.258546,-0.966724 -0.561516,-2.111848 -0.673268,-2.544718 -0.319152,-1.236256 -0.823762,-1.094565 -1.978538,0.555555 -0.516761,0.738426 -1.641942,2.175926 -2.500404,3.194445 -2.091755,2.4817551 -2.407832,2.9751866 -4.408473,6.8821217 -2.563567,5.00624061 -3.066847,5.56664261 -5.801758,6.4602556 -1.717612,0.561217 -2.995972,1.232015 -3.15937,1.657824 -0.0646,0.168345 0.04719,0.420185 0.269337,0.606759 0.208876,0.175432 0.495995,0.593239 0.638042,0.928463 0.335179,0.791006 1.328393,1.233317 3.82746,1.7045 1.048454,0.19768 2.15628,0.438235 2.461835,0.534571 0.686741,0.216513 1.084446,0.241126 1.474927,0.09128 z"
     id="path346" />
  <path
     style="fill:#ff0000;fill-opacity:0;stroke-width:0.185185"
     d="m -7.7587779,9.3772253 c -0.4074075,-0.314631 -1.1710556,-0.766417 -1.6969945,-1.003968 -1.2120796,-0.547465 -1.6427166,-1.01443 -2.0224866,-2.193113 -0.430076,-1.334815 -1.0841,-2.407137 -2.225169,-3.648336 -1.139054,-1.239005 -1.327452,-1.76459799 -0.994326,-2.77397899 0.457285,-1.38558731 -0.512591,-2.14227061 -2.207468,-1.72223731 -0.879854,0.21805 -1.162502,0.8041222 -0.927899,1.92399231 0.374002,1.78526499 0.563165,3.67201299 0.504521,5.03215599 -0.05223,1.211317 -0.129489,1.494224 -0.523502,1.916889 -0.981298,1.052655 -4.310798,2.377996 -5.474106,2.179024 -1.18299,-0.202341 -4.464883,-1.217989 -5.004872,-1.548859 -1.462929,-0.896387 -1.568822,-3.151441 -0.288685,-6.147687 0.804232,-1.88235999 0.893221,-2.33374309 0.576695,-2.9251783 -0.445767,-0.8329203 -3.306315,-0.130437 -4.225077,1.03757931 -0.223347,0.283939 -0.451033,0.731882 -0.505968,0.995424 -0.244185,1.17144899 -0.643782,1.68222799 -2.131744,2.72486899 -1.663444,1.165607 -2.386381,2.102802 -2.84863,3.692881 -0.565319,1.944628 -1.956821,2.41763 -5.441815,1.849793 -1.072169,-0.174698 -2.249419,-0.470691 -2.616111,-0.657765 -1.505985,-0.768294 -3.222657,-3.299994 -3.114101,-4.592583 0.07004,-0.833924 0.628954,-1.247335 2.662243,-1.969169 1.809123,-0.64225099 2.590175,-1.13525299 3.587888,-2.26468699 1.260913,-1.42737931 1.722754,-2.18512001 3.600774,-5.90777191 1.352773,-2.6814963 2.167395,-4.0308374 3.459144,-5.7297294 2.225404,-2.926824 4.832913,-6.832334 5.666436,-8.487147 1.117366,-2.218341 1.430457,-3.269796 2.091192,-7.022909 0.454737,-2.582991 0.809554,-3.435204 2.594184,-6.230811 0.741262,-1.161182 1.588677,-2.626093 1.883147,-3.255359 0.518458,-1.107919 1.456063,-4.408888 1.456063,-5.126269 0,-0.523106 0.764254,-1.930502 1.844132,-3.396024 0.52535,-0.712963 1.304329,-2.00463 1.731066,-2.87037 l 0.775886,-1.574075 -0.0052,-2.407407 c -0.0029,-1.324074 -0.0748,-2.866909 -0.159904,-3.428523 -0.153698,-1.014278 -0.149394,-1.02787 0.642707,-2.029954 0.9536,-1.206395 1.263376,-1.999369 1.274263,-3.2619 0.02038,-2.363421 1.376976,-5.6253 3.269386,-7.861104 1.288242,-1.522006 3.5731644,-3.527158 4.7478144,-4.166482 0.7138204,-0.38851 1.0802926,-0.477617 1.6500204,-0.401201 1.7927559,0.240459 4.9750729,2.973375 6.0451169,5.191435 1.113146,2.307408 1.204496,4.480778 0.368606,8.769812 l -0.407537,2.091109 0.375972,0.511367 c 0.206785,0.281252 1.409996,1.158885 2.673804,1.950297 1.263805,0.791411 2.954792,1.958077 3.757748,2.592592 2.6671,2.107609 2.505764,2.022317 3.6383093,1.923434 0.560185,-0.04891 1.935185,-0.267415 3.055555,-0.485567 3.953665,-0.769833 8.024873,-0.551578 10.925926,0.58573 1.963621,0.769803 2.685276,1.69072 2.685039,3.426425 -1.85e-4,1.480734 -0.726644,2.940086 -2.313565,4.647717 -1.639175,1.763859 -2.973329,2.693 -6.019622,4.192224 -2.028659,0.998398 -2.67457,1.417015 -3.425926,2.220346 -0.883163,0.944258 -1.770452,1.398554 -2.737429,1.40158 -0.587278,0.0019 -1.578826,0.514426 -1.802095,0.931606 -0.179035,0.334531 -0.13342,0.640127 0.25803,1.72864 0.56628,1.574669 0.788633,2.965215 0.951735,5.951899 0.06675,1.222222 0.238296,3.138888 0.381224,4.259259 0.770456,6.039398 0.401524,10.143228 -1.448379,16.1111113 -0.677382,2.1852629 -0.74818,2.6039185 -0.767256,4.537037 l -0.02102,2.12963001 0.972222,1.80827699 c 0.837937,1.558517 0.972223,1.94985 0.972223,2.833271 0,1.143511 -0.269539,1.789922 -1.048282,2.514003 -1.1390393,1.059088 -3.4619263,1.784017 -4.9847653,1.555654 -1.758511,-0.263705 -5.284405,-1.351705 -5.726529,-1.767059 -0.684669,-0.643211 -0.765021,-1.727183 -0.282741,-3.814257 0.389191,-1.684232 0.39325,-1.784982 0.08563,-2.124902 -0.195258,-0.215756 -0.565887,-0.356839 -0.93743,-0.356839 -0.756517,0 -2.254305,0.703552 -2.386852,1.12117 -0.05368,0.169132 0.161206,0.881891 0.477524,1.583911 0.509667,1.131128 0.568095,1.434474 0.51336,2.665289 -0.103023,2.316622 -1.017132,3.152917 -3.4354471,3.142996 -1.1161518,-0.0046 -1.3383981,-0.06882 -1.9966888,-0.577207 z m 2.0538092,-0.616417 c 1.5157314,-0.633314 2.4807144,-1.886329 2.4822794,-3.223203 9.26e-4,-0.864813 -0.390924,-1.5467 -2.5297498,-4.401232 -1.4189963,-1.89383099 -2.6196629,-2.2928665 -4.8796429,-1.62172399 -1.038598,0.30843 -2.219289,1.273913 -2.219289,1.81477199 0,0.162669 0.280312,0.608502 0.622913,0.990741 0.844919,0.942669 1.143741,1.590459 1.388404,3.009793 0.255161,1.480237 0.535087,1.735863 1.7327316,1.582316 l 0.8736778,-0.112013 0.4932018,0.977811 c 0.6895167,1.367026 0.8872556,1.462495 2.0354741,0.982739 z M 8.8904087,7.6741313 c 0.315169,-0.238482 0.807693,-0.491447 1.094499,-0.562147 0.3621553,-0.08927 0.6042183,-0.326609 0.7923513,-0.776874 0.344032,-0.823383 0.149086,-1.616794 -0.771146,-3.138485 C 8.6870997,1.0155103 8.5957367,0.75770831 8.6710557,-0.57048569 8.7093957,-1.2465395 9.2128647,-3.883008 9.7898827,-6.4293043 11.443339,-13.725771 11.966245,-18.179254 11.426083,-20.364489 c -0.269066,-1.088516 -0.442761,-1.162806 -1.5940223,-0.681779 -1.00974,0.421899 -1.183907,0.126576 -0.574115,-0.973487 1.1891433,-2.145213 1.2948863,-2.486933 1.3738873,-4.439877 0.08323,-2.057434 -0.211305,-3.321297 -1.2660403,-5.432636 l -0.508808,-1.018518 0.716061,-1.590037 c 1.1237003,-2.495204 1.3420603,-3.773913 1.3728933,-8.039593 0.03054,-4.224955 0.1773,-4.917785 1.185441,-5.596202 1.056131,-0.710711 3.454883,-1.36565 5.848387,-1.596805 1.845592,-0.178239 2.230279,-0.267943 2.280822,-0.531858 0.143993,-0.751866 -3.334013,-0.845374 -5.426774,-0.145901 -0.712963,0.238296 -1.75463,0.490314 -2.314815,0.56004 -0.560185,0.06973 -1.404331,0.278258 -1.875879,0.463404 -1.1699343,0.459357 -1.4240433,0.331744 -4.6250583,-2.322696 -2.843341,-2.357837 -4.570565,-3.452791 -6.671257,-4.229167 -0.728765,-0.269337 -1.410156,-0.624859 -1.514204,-0.790048 -0.14085,-0.223618 -0.03924,-0.67304 0.397754,-1.759259 0.566416,-1.40792 0.586739,-1.552774 0.581409,-4.1441 -0.0063,-3.053032 -0.134548,-3.780771 -0.994411,-5.641833 -0.658176,-1.424536 -1.489033,-2.384869 -2.556345,-2.954713 l -0.6664181,-0.355805 -2.3242704,2.191356 c -1.3279111,1.251973 -2.5063412,2.534561 -2.7489962,2.99197 -0.374928,0.706747 -0.821672,1.122516 -1.007004,0.937184 -0.03453,-0.03453 0.223167,-0.659452 0.572659,-1.388719 0.732447,-1.528361 1.7677449,-2.637708 3.3205282,-3.558025 1.3371778,-0.792532 1.6162241,-1.166419 1.1892278,-1.593415 -1.1160092,-1.11601 -5.145643,2.287651 -6.820383,5.760889 -0.876598,1.817971 -1.294389,3.782629 -1.294389,6.086842 v 1.750604 l -0.601852,0.472663 c -1.052233,0.826367 -1.25,1.035134 -1.25,1.31952 0,0.294165 0.44683,0.785701 1.034768,1.1383 0.297536,0.178437 0.317443,0.267209 0.124578,0.555556 -0.758504,1.134018 -1.012035,1.881739 -1.174354,3.463422 -0.235438,2.294193 -0.748666,3.764433 -2.063787,5.91213 -1.411114,2.304461 -1.810094,3.359563 -1.810094,4.786794 0,1.050415 -0.05829,1.20755 -0.827598,2.230956 -0.939028,1.249183 -2.941152,4.820083 -4.39502,7.838768 l -0.981085,2.037037 -0.0066,2.249706 -0.0066,2.249705 -0.577605,0.539565 c -0.777635,0.726422 -0.890728,1.63845 -0.890728,7.183247 0,4.386637 0.0093,4.493552 0.716767,8.2200516 0.640154,3.3720444 0.707228,3.9955537 0.627513,5.8333333 -0.07684,1.77155041 -0.182956,2.31527041 -0.763008,3.9095774 -0.783711,2.154074 -0.836816,2.677247 -0.286377,2.821189 0.34095,0.08916 0.373488,0.194674 0.270937,0.878541 -0.152987,1.020193 0.112716,1.684233 0.736568,1.840811 0.636985,0.159872 1.347609,-0.291772 1.6005,-1.017217 0.242635,-0.696025 0.523026,-0.696794 0.523026,-0.0015 0,0.297226 0.05176,0.675307 0.115033,0.840183 0.153274,0.399426 1.037728,0.841797 1.681326,0.840937 0.624826,-9.26e-4 1.621896,-0.577055 1.901039,-1.098635 0.169191,-0.316139 0.26008,-0.342457 0.552337,-0.159941 0.442459,0.276323 0.816824,-0.0044 1.319355,-0.989483 0.411888,-0.807368 0.472078,-2.544989 0.133789,-3.862359 -0.13125,-0.511298 -0.21895,-2.58651639 -0.226902,-5.3703516 -0.01457,-5.0992981 -0.05054,-5.2727463 -1.58208,-7.6297407 -0.403465,-0.620922 -0.69508,-1.191233 -0.64803,-1.267361 0.08456,-0.136819 0.977856,0.02166 1.625517,0.288383 0.183863,0.07572 0.736815,0.939491 1.22878,1.919491 1.494116,2.9762963 2.709657,4.3387407 4.708027,5.2770166 2.005945,0.9418315 3.424571,1.0102574 7.8029709,0.3763648 3.4539968,-0.5000592 5.1118818,-1.2259685 6.1189798,-2.6792129 0.282346,-0.4074259 0.746291,-1.5507111 1.030987,-2.5406352 0.441348,-1.5346163 0.618991,-1.8885553 1.205431,-2.4017183 0.378291,-0.331021 0.716661,-0.572996 0.751934,-0.537724 0.03527,0.03527 -0.134424,0.51444 -0.377106,1.064818 -0.722976,1.639695 -0.859855,2.7382632 -0.859855,6.9010391 0,3.8621259 -0.01037,3.9682908 -0.540528,5.53672421 -0.768721,2.27417199 -1.048152,4.15393099 -0.753415,5.06827199 0.439591,1.363715 0.900452,1.514061 1.913798,0.624332 0.348008,-0.305556 0.720619,-0.555556 0.828024,-0.555556 0.107404,0 0.429735,0.4375 0.716293,0.972222 0.63415,1.183339 1.249639,1.371543 2.00737,0.613811 0.497035,-0.497037 0.828458,-0.609577 0.828458,-0.28132 0,0.266344 0.858205,1.102694 1.131509,1.102694 0.122331,0 0.480285,-0.19512 0.795455,-0.433601 z M -39.246814,7.2512903 c 0.389984,-0.149652 1.121403,-1.601858 1.700882,-3.377043 0.586224,-1.795848 0.720701,-1.962598 1.197907,-1.485392 0.253295,0.253296 0.493956,0.328939 0.774646,0.243483 1.020488,-0.310685 1.422949,-1.219219 1.42468,-3.21613899 0.0014,-1.66136661 0.42167,-2.40849251 2.466157,-4.38457211 2.071411,-2.0021019 2.589405,-2.9263796 2.68775,-4.7958426 0.05112,-0.9717486 -0.04985,-1.7395386 -0.401812,-3.0555556 -0.258546,-0.966724 -0.561516,-2.111848 -0.673268,-2.544718 -0.319152,-1.236256 -0.823762,-1.094565 -1.978538,0.555555 -0.516761,0.738426 -1.641942,2.175926 -2.500404,3.194445 -2.091755,2.4817551 -2.407832,2.9751866 -4.408473,6.8821217 -2.563567,5.00624061 -3.066847,5.56664261 -5.801758,6.4602556 -1.717612,0.561217 -2.995972,1.232015 -3.15937,1.657824 -0.0646,0.168345 0.04719,0.420185 0.269337,0.606759 0.208876,0.175432 0.495995,0.593239 0.638042,0.928463 0.335179,0.791006 1.328393,1.233317 3.82746,1.7045 1.048454,0.19768 2.15628,0.438235 2.461835,0.534571 0.686741,0.216513 1.084446,0.241126 1.474927,0.09128 z"
     id="path348" />
  <path
     style="fill:#ff2626;fill-opacity:1;stroke-width:0.199321"
     d="m 42.087536,101.0035 c 0.532647,-0.44164 1.488334,-0.99331 2.123727,-1.225971 1.30986,-0.47962 1.814868,-1.01288 2.210191,-2.33369 0.568,-1.89792 1.395143,-3.30338 2.75594,-4.68287 1.329088,-1.34734 1.353084,-1.39042 1.353084,-2.4299 0,-0.58201 -0.08974,-1.113663 -0.199309,-1.181414 -0.342487,-0.211671 -0.218188,-1.017392 0.217838,-1.411998 0.318511,-0.288237 0.70329,-0.373616 1.627228,-0.361068 1.581059,0.02146 2.025322,0.473437 1.822679,1.85424 -0.07385,0.50348 -0.210299,1.11914 -0.303159,1.36813 -0.284824,0.76371 -0.592171,4.79581 -0.448954,5.88954 0.185295,1.41524 0.483222,1.7907 2.134561,2.69037 3.033089,1.652471 4.721778,1.967231 6.741751,1.256611 0.585289,-0.20591 1.692022,-0.525691 2.459409,-0.710621 2.481913,-0.59812 3.416608,-1.53105 3.632819,-3.62599 0.139553,-1.3521 -0.330043,-3.17828 -1.37423,-5.34412 -0.842086,-1.746612 -0.913879,-2.198904 -0.453431,-2.856321 0.378092,-0.539772 1.160771,-0.575684 2.6932,-0.123601 1.27032,0.374758 2.776815,1.764312 2.776815,2.561262 0,1.30766 0.786944,2.27989 2.922959,3.61122 1.117161,0.6963 1.599821,1.15229 2.14902,2.03031 0.389547,0.62279 0.70829,1.28015 0.70829,1.4608 0,0.18067 0.19363,0.79433 0.430231,1.36371 0.59688,1.436271 1.355312,1.808401 3.685712,1.808401 1.743968,0 3.260115,-0.21179 5.187632,-0.724691 1.40422,-0.37364 2.91906,-1.78331 3.92139,-3.64912 1.45015,-2.69946 0.92845,-3.64008 -2.65244,-4.78241 -2.37661,-0.75816 -3.291906,-1.4142 -5.086907,-3.645993 -1.237274,-1.538311 -2.30846,-3.513373 -4.97371,-9.170324 -0.296357,-0.628996 -1.305209,-2.108939 -2.24192,-3.288763 -3.085654,-3.886528 -6.580044,-9.156634 -7.700015,-11.612826 -0.640084,-1.403749 -1.273325,-3.320355 -1.514675,-4.584357 -0.136064,-0.712554 -0.324616,-1.699194 -0.419027,-2.192515 -0.09439,-0.49332 -0.224952,-1.365313 -0.290018,-1.937752 -0.169015,-1.486822 -1.035581,-3.466324 -2.423669,-5.536729 -1.630968,-2.432701 -2.586868,-4.101698 -3.182663,-5.556984 -0.54164,-1.323022 -1.276659,-4.217507 -1.276659,-5.027555 0,-0.880483 -0.834508,-2.519514 -2.142837,-4.208591 -1.439567,-1.858556 -2.236629,-3.263933 -2.881034,-5.079751 -0.58025,-1.635116 -0.619286,-5.030307 -0.07811,-6.799898 0.195064,-0.637932 0.299632,-1.379211 0.232356,-1.647269 -0.06726,-0.268077 -0.563097,-0.9741 -1.101791,-1.568925 -1.077544,-1.189865 -1.399834,-2.038638 -1.403633,-3.696393 -0.0039,-1.566503 -0.68319,-4.190352 -1.515062,-5.849444 -1.029959,-2.0541247 -2.255119,-3.6862167 -4.122359,-5.4915877 -3.61958,-3.499642 -5.277703,-4.28761299 -7.217219,-3.429691 -1.727648,0.764227 -3.771267,2.440841 -5.327594,4.370821 -0.460738,0.571373 -1.274933,2.197457 -1.686382,3.367959 -0.569493,1.6200747 -0.468162,5.6021057 0.213962,8.4092537 0.339889,1.39871 0.507101,2.517111 0.43432,2.905069 -0.154672,0.824662 -0.838075,1.438172 -2.903867,2.607026 -2.498582,1.41375 -4.270111,2.646255 -6.250795,4.34888 -1.672253,1.437494 -1.817214,1.518163 -2.727662,1.518163 -0.528867,0 -1.193896,-0.08838 -1.477867,-0.196285 -0.283971,-0.10796 -1.074617,-0.28684 -1.757031,-0.397474 -0.682396,-0.110673 -1.464959,-0.251719 -1.739026,-0.313471 -1.191395,-0.268465 -4.82212,-0.477097 -6.3782143,-0.36654 -3.41341,0.242531 -6.817885,1.301817 -8.141217,2.533101 -1.549097,1.441351 -1.501067,4.220531 0.115519,6.683759 1.02558,1.562723 3.716337,4.189092 5.249812,5.124195 0.704569,0.42963 2.382908,1.293986 3.7296923,1.920812 2.863959,1.332945 3.453648,1.720457 4.025195,2.645229 0.585445,0.947255 1.517562,1.466451 2.907995,1.619765 2.259016,0.249044 3.049778,1.000634 2.481332,2.358428 -0.984683,2.351992 -1.142494,3.197393 -1.379405,7.389509 -0.130056,2.302122 -0.319266,4.723872 -0.420404,5.381612 -0.564763,3.673154 -0.638106,4.767812 -0.527433,7.873135 0.147306,4.132606 0.885213,7.920986 2.543122,13.05543 0.557244,1.72577 0.64586,2.287378 0.660474,4.185714 0.01357,1.872557 -0.04477,2.308857 -0.406429,2.989797 -2.138186,4.02692 -2.068797,3.85314 -2.054163,5.1432 0.01744,1.48412 0.07695,1.64652 1.028991,2.78181 0.887809,1.058661 2.418183,1.796001 4.438291,2.138421 1.290576,0.21875 1.552238,0.197 3.48811,-0.28989 4.984836,-1.253731 5.428207,-1.425541 5.866675,-2.273471 0.438061,-0.84712 0.399568,-2.89168 -0.0816,-4.32985 -0.21656,-0.64737 -0.395943,-1.40979 -0.398638,-1.69426 -0.0058,-0.66764 0.565093,-1.17699 1.320444,-1.17699 0.781071,0 2.742974,1.00013 2.824108,1.43964 0.03489,0.18886 -0.266178,1.01025 -0.668982,1.8253 -0.697804,1.41185 -0.729049,1.5612 -0.661385,3.15959 0.05815,1.37304 0.158354,1.80491 0.55137,2.378391 0.882189,1.28696 1.506127,1.56171 3.546528,1.56171 h 1.809655 z M 38.8808,99.858439 c -1.3764,-0.75861 -2.402348,-2.22222 -2.402348,-3.42719 0,-0.77252 0.16068,-1.13432 1.109796,-2.49792 1.489691,-2.14038 2.849887,-3.91551 3.302543,-4.31001 1.437028,-1.252374 5.190425,-0.75779 6.554847,0.86372 0.668556,0.79456 0.625391,1.09054 -0.285386,1.95696 -1.047986,0.99691 -1.391519,1.72608 -1.601643,3.39944 -0.243869,1.94213 -0.544451,2.24571 -2.050481,2.07092 l -1.154162,-0.13397 -0.515493,1.16592 c -0.283526,0.64126 -0.618879,1.231811 -0.745252,1.312361 -0.442364,0.28196 -1.234696,0.13862 -2.212421,-0.400241 z m -16.979635,-1.09161 c -0.472523,-0.4145 -0.948147,-0.64779 -1.320753,-0.64779 -0.508342,0 -0.61948,-0.10924 -0.874843,-0.85984 -0.262844,-0.77258 -0.258309,-0.96473 0.04477,-1.89353 0.185489,-0.56855 0.745117,-1.61061 1.243689,-2.31574 0.498534,-0.70511 1.020889,-1.60205 1.160733,-1.9932 0.348301,-0.97413 0.333609,-2.741144 -0.03256,-3.918423 -0.272943,-0.877586 -0.468278,-1.715328 -1.389968,-5.961434 -0.142848,-0.657756 -0.454924,-2.092862 -0.693637,-3.189114 -0.67222,-3.086915 -1.40687,-8.532123 -1.386344,-10.275294 0.01938,-1.563402 0.455428,-3.465859 0.811986,-3.534879 0.16223,-0.0314 0.684857,0.117263 1.161275,0.330682 1.636803,0.732828 1.935175,0.06668 0.770721,-1.720534 -1.196726,-1.836829 -1.54681,-2.993181 -1.553245,-5.130572 -0.0019,-0.98664 0.09052,-2.152664 0.207818,-2.591171 0.304245,-1.13759 1.139179,-3.212628 1.590575,-3.952938 0.211772,-0.347273 0.38536,-0.776535 0.385767,-0.953884 4.08e-4,-0.177348 -0.394954,-1.097972 -0.878583,-2.04577 -0.593682,-1.163504 -0.955532,-2.191797 -1.113905,-3.165606 -0.129086,-0.793282 -0.31634,-1.872803 -0.416256,-2.398918 -0.210531,-1.108594 -0.21183,-3.514644 -0.0019,-5.190967 0.14091,-1.130128 -0.0039,-2.636952 -0.398986,-4.164457 -0.262651,-1.014338 -1.129081,-1.64913 -3.16832,-2.321233 -2.579018,-0.850053 -3.448395,-1.01992 -5.234985,-1.022885 -1.8758453,-0.0039 -2.5384513,-0.133351 -2.5384513,-0.49931 0,-0.747694 3.5179593,-0.94049 5.7329573,-0.314169 0.738585,0.208846 1.661825,0.516715 2.051663,0.68414 0.389837,0.167464 1.062541,0.275133 1.494904,0.239314 0.532007,-0.044 1.130283,0.09672 1.850822,0.435231 1.778333,0.835729 2.162492,0.67881 5.533532,-2.260391 3.575078,-3.117112 6.074881,-4.730694 8.497464,-5.484979 1.435923,-0.447093 2.145434,-0.852049 2.145434,-1.224539 0,-0.106409 -0.336342,-1.011915 -0.747442,-2.012142 l -0.747442,-1.81859 v -3.288762 c 0,-2.945035 0.04962,-3.434614 0.476166,-4.6840207 0.989918,-2.900727 2.061724,-4.431818 3.711668,-5.302242 l 0.906145,-0.478027 1.439374,1.518996 c 0.791653,0.835458 1.75331,1.743309 2.137003,2.017473 1.144975,0.81811 1.824075,1.593211 2.227849,2.542773 0.39007,0.9173867 0.83474,1.3952397 1.298347,1.3952397 0.40232,0 0.314479,-0.480954 -0.331361,-1.8142287 -1.075489,-2.220192 -2.288283,-3.494079 -4.345179,-4.563986 -1.439548,-0.748799 -1.822795,-1.37611 -1.082718,-1.772188 0.89845,-0.480838 2.628811,0.51371 4.793163,2.754932 3.246528,3.361814 4.649754,6.8481017 4.603372,11.4370337 -0.01163,1.116986 0.04283,2.191681 0.119976,2.388179 0.07734,0.196518 0.471826,0.526328 0.876723,0.732886 0.996719,0.508477 1.279566,0.889089 1.123344,1.511534 -0.08373,0.333862 -0.366249,0.613142 -0.805899,0.796848 -0.372297,0.155641 -0.733894,0.375011 -0.803535,0.487719 -0.06978,0.112612 0.178899,0.561837 0.55232,0.998095 0.795879,0.929792 1.141621,1.944614 1.141621,3.350863 0,1.261502 0.294264,2.766485 0.845072,4.321901 0.475101,1.341648 0.577982,1.529947 2.095738,3.836333 1.357619,2.063021 1.904279,3.713721 1.744006,5.266404 -0.107378,1.040503 -0.07113,1.182518 0.456358,1.793896 1.346765,1.560514 2.10479,2.839421 5.185618,8.748912 1.896933,3.638594 2.17321,4.768877 1.848303,7.561586 -0.171534,1.47494 -0.156028,1.720011 0.12114,1.893541 1.278035,0.800395 1.288734,0.827608 1.570611,3.9968 0.362742,4.078514 0.352372,8.060812 -0.02675,10.304299 -0.344599,2.038798 -1.170288,6.490499 -1.481569,7.988072 -0.109898,0.52909 -0.199968,1.850723 -0.199968,2.93696 0,2.137286 0.464537,4.159831 1.484476,6.462841 0.592442,1.33785 0.54604,1.99309 -0.153508,2.16868 -0.44721,0.11228 -0.458064,0.15804 -0.262922,1.11063 0.2404,1.17355 -0.03993,1.90439 -0.804233,2.0962 -0.7883,0.19784 -1.496551,-0.28902 -1.813686,-1.24674 -0.329481,-0.99504 -0.718543,-1.00702 -0.796034,-0.0245 -0.104471,1.32305 -0.219137,1.5255 -1.054536,1.85976 -0.645026,0.25809 -0.971813,0.28253 -1.581815,0.11822 -0.790801,-0.21295 -1.794536,-1.18156 -1.794536,-1.73177 0,-0.21811 -0.110674,-0.17086 -0.386155,0.16479 -0.514699,0.62718 -0.929269,0.36869 -1.677137,-1.04566 -0.52065,-0.98472 -0.559337,-1.20044 -0.460933,-2.56984 0.05912,-0.8222 0.254491,-2.03307 0.434224,-2.69082 0.25982,-0.95076 0.299438,-1.66583 0.193436,-3.488093 -0.21342,-3.664819 -0.182776,-6.39508 0.0849,-7.561145 0.30471,-1.327525 1.206184,-3.151889 2.009564,-4.066904 0.329713,-0.375508 0.599458,-0.884375 0.599458,-1.130806 0,-0.412949 -0.07016,-0.440179 -0.894051,-0.347318 -1.216108,0.137072 -1.859099,0.608687 -2.334064,1.711934 -1.32963,3.088517 -2.495383,4.856805 -4.015097,6.090354 -1.302301,1.057089 -3.169347,1.897305 -4.765156,2.14444 -1.502327,0.232645 -4.589842,-0.02983 -8.421872,-0.715783 -4.113986,-0.736505 -5.982292,-2.459666 -6.77036,-6.244409 -0.165913,-0.797079 -0.441414,-1.662344 -0.612075,-1.922816 -0.338843,-0.517147 -1.835414,-1.628238 -1.987837,-1.475832 -0.05214,0.05202 0.07617,0.448194 0.284882,0.880264 0.208748,0.432081 0.589321,1.367003 0.84573,2.077621 0.443275,1.228542 0.466321,1.546679 0.468976,6.47435 l 0.0019,5.182301 0.74467,2.110362 c 0.40955,1.16069 0.744652,2.37215 0.744652,2.69212 0,0.31998 0.08819,0.88923 0.195936,1.26499 0.14246,0.49679 0.118232,0.98089 -0.08897,1.77418 -0.44279,1.69558 -1.103245,1.87617 -2.264036,0.61901 -0.925954,-1.00278 -1.251868,-0.91412 -1.824307,0.49626 -0.68036,1.67631 -1.561832,1.88016 -2.572758,0.59498 -0.459885,-0.58466 -0.690303,-0.51597 -1.131562,0.33734 -0.248094,0.47975 -0.642952,0.78903 -1.226962,0.96104 -0.02345,0.006 -0.375185,-0.27886 -0.781342,-0.63514 z m 38.545489,-11.80787 c 0.775527,-0.337085 0.826173,-0.641483 0.149438,-0.898767 -0.910545,-0.34619 -2.210269,0.547545 -1.474107,1.013671 0.370261,0.234453 0.558348,0.218145 1.32463,-0.114937 z M 40.128017,62.148735 c 0.805299,-0.505609 1.233766,-1.466218 1.233766,-2.765903 0,-1.251985 0.414259,-2.412524 1.402683,-3.929621 0.988345,-1.516961 1.694096,-1.87662 3.968346,-2.02226 1.296913,-0.08315 1.883657,-0.03411 2.452258,0.20464 0.678247,0.284746 0.747268,0.383945 0.745581,1.071418 -0.0039,1.47905 -2.042301,4.0464 -3.213093,4.0464 -0.664098,0 -1.950331,0.629035 -2.072343,1.013446 -0.221425,0.697629 0.07578,0.83821 1.477479,0.698967 2.65052,-0.26329 4.49514,-1.663201 5.853088,-4.441994 0.819138,-1.676168 0.886899,-1.752903 2.068216,-2.341991 1.910985,-0.952954 2.587372,-1.566813 2.958912,-2.685447 0.180063,-0.542144 0.299807,-1.417898 0.266101,-1.946145 l -0.06125,-0.960435 -0.353612,0.996602 c -1.042171,2.937185 -1.848807,3.601574 -4.33041,3.566783 -0.82218,-0.01163 -2.061179,-0.123078 -2.753285,-0.248075 -0.692125,-0.125016 -2.122176,-0.306571 -3.177895,-0.403618 -2.575393,-0.236737 -2.639549,-0.316301 -2.639549,-3.273993 0,-1.214538 0.107378,-2.728263 0.238674,-3.36383 0.347972,-1.684716 0.124048,-2.167705 -1.210293,-2.611309 -0.922,-0.306494 -1.23173,-0.322775 -2.289659,-0.120365 -2.123804,0.406584 -3.928729,1.631124 -4.735714,3.212938 -0.555479,1.088844 -0.591472,2.970058 -0.06784,3.54899 0.640258,0.707941 1.780057,1.176549 3.414844,1.403923 0.846952,0.117845 1.879063,0.387202 2.293594,0.598664 0.734824,0.374893 1.359847,1.236013 1.359847,1.873538 0,0.50212 -0.75723,1.85313 -1.371981,2.447781 -0.816792,0.790141 -0.972045,1.184243 -1.119661,2.842269 -0.183551,2.061626 -0.424532,2.736016 -1.102818,3.086798 -0.813789,0.42083 -1.349459,0.372549 -3.221835,-0.290425 -0.910138,-0.322252 -2.237792,-0.731259 -2.950365,-0.908879 -0.712574,-0.177736 -1.619785,-0.407262 -2.016057,-0.51026 -1.399679,-0.363826 -2.151308,-1.304821 -2.990487,-3.743899 -0.452559,-1.315384 -0.633687,-1.546306 -1.599569,-2.039064 -0.9063,-0.462347 -0.863698,-0.459944 -1.252799,-0.07075 -0.599032,0.599032 -0.3841,1.327053 0.704162,2.385098 0.559549,0.544005 1.500777,1.672796 2.091629,2.508408 1.296816,1.834038 1.303077,1.839504 2.673701,2.331719 0.948883,0.340761 1.701462,0.514679 4.183278,0.966618 0.274066,0.04981 1.39524,0.135095 2.491507,0.189172 1.774669,0.08761 2.065521,0.05291 2.652981,-0.315894 z M 37.417664,46.278527 c -0.0345,-0.232007 0.265151,-0.72054 0.754846,-1.230141 0.713853,-0.742926 0.918395,-0.845304 1.688806,-0.845304 1.15077,0 1.946319,0.308451 1.863789,0.722633 -0.06241,0.313471 -3.616382,1.876214 -4.050741,1.781221 -0.10951,-0.02403 -0.225145,-0.216753 -0.2567,-0.428409 z m -4.360859,10.34881 c 0.355802,-0.355802 -0.242144,-2.87491 -0.935839,-3.94251 -0.146337,-0.225126 -0.479985,-1.082001 -0.741608,-1.904202 -0.873157,-2.744039 -0.590097,-6.048753 0.73808,-8.617189 0.276005,-0.533751 0.273292,-0.62165 -0.02965,-0.956403 -0.302442,-0.33421 -1.865572,-0.990362 -2.359299,-0.990362 -0.110674,0 0.02617,0.24668 0.303896,0.548134 1.218162,1.322129 1.436078,2.134871 0.867342,3.234723 -0.374952,0.725076 -0.738895,0.836214 -2.054028,0.627272 -2.234729,-0.355046 -3.587405,0.369273 -3.773534,2.02067 -0.12521,1.110513 0.235728,2.263939 0.808516,2.584019 0.87335,0.488068 1.852431,0.745931 2.843277,0.748858 0.727925,0.0019 1.108963,0.106215 1.345408,0.367509 0.792061,0.875191 0.07327,2.027318 -1.264699,2.027318 -0.575792,0 -0.797255,0.08315 -0.797255,0.298973 0,0.164557 0.0283,0.298993 0.06299,0.298993 0.352934,0 2.550236,0.46351 2.962596,0.624946 0.52061,0.203805 1.160073,1.21667 1.160073,1.837468 0,0.393074 0.419668,1.324669 0.596745,1.324669 0.07365,0 0.193901,-0.0597 0.266973,-0.132963 z m -6.610629,-9.916331 c -0.171922,-0.867458 1.145033,-1.061786 1.645621,-0.242842 0.172116,0.281626 0.120171,0.428428 -0.262553,0.7425 -0.420598,0.345084 -0.526832,0.358477 -0.896939,0.113193 -0.230902,-0.153121 -0.449671,-0.428835 -0.486129,-0.612851 z m 7.006998,1.348393 c 0.06958,-0.860287 0.350589,-2.192011 0.624791,-2.959378 0.587712,-1.644749 0.612677,-1.893542 0.190141,-1.893542 -0.920565,0 -1.60831,2.193038 -1.397856,4.457442 0.190722,2.051914 0.435851,2.218215 0.582983,0.395478 z M 22.61182,45.948445 c -0.465894,-1.624475 0.01551,-3.157679 1.378009,-4.385843 1.146099,-1.033332 1.081575,-1.212832 -0.397552,-1.105822 -1.042927,0.0754 -1.29891,0.173472 -1.714274,0.656326 -0.440406,0.512005 -0.480314,0.705964 -0.407204,1.9783 0.05098,0.888391 0.252068,1.798064 0.5429,2.457065 0.511268,1.158523 0.887887,1.410358 0.598121,0.399974 z m 28.699225,-4.486011 c 0.299186,-0.244915 0.46382,-0.672122 0.552765,-1.434276 l 0.126761,-1.085451 -0.736646,0.736646 c -0.979023,0.979004 -1.605965,0.976387 -2.562989,-0.01163 -0.398541,-0.4111 -0.78487,-0.992591 -0.858484,-1.292184 -0.139553,-0.568195 -0.16979,-0.529042 1.402527,-1.822622 0.588275,-0.483977 0.597326,-0.520164 0.55798,-2.234438 -0.05194,-2.262485 -0.161261,-2.377442 -2.249789,-2.365037 -1.858615,0.01163 -2.1892,0.220552 -2.908887,1.843477 -0.257437,0.580541 -0.838423,1.400899 -1.291099,1.823009 l -0.823033,0.767445 0.778086,0.131412 c 1.321548,0.223285 2.862097,1.280884 4.850554,3.329969 1.989213,2.049841 2.383102,2.25072 3.162331,1.612807 z M 45.933037,35.22668 c -0.497778,-0.266411 -0.49204,-0.831426 0.01357,-1.28856 0.384682,-0.348146 0.412593,-0.348146 0.797275,0 0.480081,0.434476 0.503864,0.763239 0.08528,1.181685 -0.370552,0.370533 -0.397203,0.373712 -0.895795,0.106991 z m -5.767166,4.963243 c 0.837512,-0.302752 1.449084,-0.377665 2.591152,-0.317425 0.8222,0.04342 1.651862,0.148082 1.843709,0.232821 0.200181,0.08838 0.348805,0.07055 0.348805,-0.04206 0,-0.10796 -0.462948,-0.395265 -1.028797,-0.638669 -0.932156,-0.401021 -1.170869,-0.424454 -2.541319,-0.249567 -2.475439,0.315855 -4.333569,0.01357 -5.390199,-0.874804 -0.716605,-0.602986 -0.787137,-0.458413 -0.158548,0.3251 0.24666,0.307443 0.583003,0.734049 0.747423,0.947992 0.390865,0.508535 1.454124,1.045873 2.033133,1.027479 0.252107,-0.0078 0.951694,-0.192855 1.554641,-0.410848 z m -1.598987,-5.914394 c 0.0078,-0.477795 -0.440794,-2.036913 -0.618046,-2.146443 -0.352779,-0.218013 -0.161068,1.416619 0.223828,1.908679 0.214388,0.274067 0.391756,0.381057 0.394218,0.237764 z m 7.741861,-12.161992 c 0.163588,-0.108929 0.238888,-0.467174 0.199309,-0.94774 -0.06105,-0.741163 -0.09846,-0.778454 -0.921884,-0.917988 -1.047714,-0.177543 -1.561579,-0.551138 -2.615883,-1.901856 -0.447268,-0.573001 -1.091518,-1.185736 -1.43166,-1.361631 -0.63357,-0.32764 -1.572084,-0.252591 -1.572084,0.125791 0,0.281665 2.11859,2.924587 2.984555,3.723199 1.124721,1.037208 2.776932,1.667213 3.357647,1.280302 z m 1.6306,-7.894634 c 0,-0.508109 -0.102145,-0.716605 -0.396873,-0.810144 -0.555421,-0.17638 -0.838055,0.05582 -0.687376,0.564337 0.128311,0.433099 0.621476,0.929985 0.923007,0.929985 0.08858,0 0.161262,-0.307889 0.161262,-0.684178 z m 31.64083,83.949966 c -0.480063,-0.36634 -1.259176,-2.04005 -1.714468,-3.68299 -0.373518,-1.34789 -0.971929,-2.64542 -1.220062,-2.64542 -0.05989,0 -0.197623,0.20182 -0.305815,0.44848 -0.275501,0.62795 -1.025386,0.68135 -1.629806,0.11604 -0.811346,-0.75877 -0.935218,-1.16752 -0.956384,-3.1557 -0.01744,-1.699396 -0.08024,-2.003954 -0.607715,-2.970508 -0.325314,-0.596308 -1.031975,-1.441436 -1.583268,-1.893547 -2.641604,-2.166337 -3.697323,-3.62933 -4.081753,-5.656381 -0.198902,-1.048832 -0.03295,-2.638272 0.38943,-3.73091 0.127149,-0.32889 0.394451,-1.36036 0.593973,-2.292177 0.199542,-0.931831 0.426412,-1.851185 0.504174,-2.04303 0.224429,-0.553715 0.877789,-0.415339 1.254098,0.265611 0.54102,0.979032 2.389749,3.372993 4.244952,5.496979 2.138884,2.448694 2.646721,3.26117 4.901143,7.840966 2.9976,6.089557 3.588045,6.728107 7.118875,7.698677 1.99766,0.54913 3.60789,1.47399 3.60789,2.07225 0,0.15562 -0.22423,0.3941 -0.4983,0.52994 -0.33557,0.16634 -0.53084,0.4612 -0.59797,0.90282 -0.14439,0.94981 -1.63187,1.63989 -4.400279,2.04131 -1.159492,0.16813 -2.460049,0.43459 -2.890143,0.59215 -0.987881,0.36188 -1.71096,0.38409 -2.128572,0.0655 z"
     id="path322" />
</svg>
