<?xml version="1.0" encoding="UTF-8" standalone="no"?>
<svg
   xmlns:dc="http://purl.org/dc/elements/1.1/"
   xmlns:cc="http://creativecommons.org/ns#"
   xmlns:rdf="http://www.w3.org/1999/02/22-rdf-syntax-ns#"
   xmlns:svg="http://www.w3.org/2000/svg"
   xmlns="http://www.w3.org/2000/svg"
   xmlns:sodipodi="http://sodipodi.sourceforge.net/DTD/sodipodi-0.dtd"
   xmlns:inkscape="http://www.inkscape.org/namespaces/inkscape"
   version="1.1"
   id="svg10"
   width="1306.6667"
   height="1306.6667"
   viewBox="0 0 1306.6667 1306.6667"
   sodipodi:docname="telephone.svg"
   inkscape:version="1.0.1 (3bc2e813f5, 2020-09-07)">
  <metadata
     id="metadata16">
    <rdf:RDF>
      <cc:Work
         rdf:about="">
        <dc:format>image/svg+xml</dc:format>
        <dc:type
           rdf:resource="http://purl.org/dc/dcmitype/StillImage" />
        <dc:title></dc:title>
      </cc:Work>
    </rdf:RDF>
  </metadata>
  <defs
     id="defs14" />
  <sodipodi:namedview
     pagecolor="#ffffff"
     bordercolor="#ffffff"
     borderopacity="1"
     objecttolerance="10"
     gridtolerance="10"
     guidetolerance="10"
     inkscape:pageopacity="0"
     inkscape:pageshadow="2"
     inkscape:window-width="1920"
     inkscape:window-height="1001"
     id="namedview12"
     showgrid="false"
     inkscape:zoom="0.61301017"
     inkscape:cx="293.91948"
     inkscape:cy="696.69509"
     inkscape:window-x="-9"
     inkscape:window-y="-9"
     inkscape:window-maximized="1"
     inkscape:current-layer="g2117"
     inkscape:document-rotation="0" />
  <g
     inkscape:groupmode="layer"
     inkscape:label="Image"
     id="g18">
    <path
       style="fill:#ffffff;stroke-width:2.66064;stroke-miterlimit:4;stroke-dasharray:none"
       d=""
       id="path946" />
    <path
       style="fill:#ffffff;stroke-width:2.66064;stroke-miterlimit:4;stroke-dasharray:none"
       d=""
       id="path948" />
    <path
       style="fill:#ffffff;stroke-width:2.66064;stroke-miterlimit:4;stroke-dasharray:none"
       d=""
       id="path952" />
    <g
       id="g2158"
       transform="translate(-1199.5854,6.1345496)">
      <g
         id="g2117"
         transform="matrix(1.0390769,0,0,1.0390769,-726.90024,-243.86023)"
         style="fill:#ffffff">
        <path
           style="fill:#ffffff;stroke-width:2.56058"
           d="m 2438.6079,1482.1668 c -4.7491,-0.5803 -17.0869,-1.8578 -27.4174,-2.8391 -22.1898,-2.1077 -59.468,-9.1311 -87.9736,-16.5744 -73.4448,-19.1781 -146.6427,-54.4869 -214.964,-103.6932 -29.2163,-21.0421 -83.6991,-72.9246 -107.0898,-101.9785 -91.3492,-113.4666 -138.8985,-239.4009 -144.339,-382.2818 -0.991,-26.0238 0.9704,-63.8924 4.96,-95.7667 14.3672,-114.78439 59.9486,-221.99069 133.8106,-314.71903 17.1069,-21.47658 66.2658,-71.46476 87.5074,-88.98375 79.5848,-65.63735 172.2725,-110.27745 273.0837,-131.52211 23.6496,-4.98386 48.5089,-8.92463 66.9714,-10.6165 14.9543,-1.3704 105.434,-1.3704 120.3884,0 49.0314,4.49317 107.7682,18.05114 155.6733,35.93341 44.8944,16.75842 80.1027,34.18283 119.3159,59.0488 43.2404,27.41971 67.5458,47.20912 109.1725,88.88797 48.3333,48.39365 80.1173,91.79108 111.4536,152.17708 38.4978,74.18626 61.3093,151.62969 68.2706,231.77337 1.7367,19.99516 2.1606,78.84538 0.752,104.4014 -2.679,48.60214 -17.7455,116.21036 -37.96,170.33906 -10.8242,28.9844 -35.8984,80.5347 -52.6901,108.3263 -39.6719,65.6602 -104.1212,135.5232 -166.0298,179.9764 -51.4863,36.9695 -107.1331,65.5851 -169.1565,86.9863 -44.2739,15.2768 -102.0592,27.2322 -147.9725,30.6146 -19.0836,1.4059 -85.5382,1.76 -95.7667,0.5104 z m 115.391,-83.6615 c 25.6968,-3.458 39.3984,-6.227 70.7126,-14.2907 41.5987,-10.712 72.3255,-22.5726 111.4011,-43.001 108.3476,-56.6435 193.7009,-146.8711 244.8162,-258.7968 22.6828,-49.668 41.1192,-118.11496 44.9277,-166.79842 1.6589,-21.20696 1.1694,-110.10319 -0.7046,-127.95057 -3.9328,-37.45352 -21.5591,-103.00378 -38.1658,-141.93376 -12.9137,-30.27271 -34.4747,-70.9686 -46.2408,-87.27832 -2.4918,-3.45387 -7.1084,-10.1654 -10.2593,-14.91448 -30.856,-46.50653 -91.4296,-105.6716 -144.1351,-140.78336 -79.1085,-52.70115 -173.989,-84.89702 -264.1934,-89.64906 -74.0179,-3.89931 -129.5502,2.05358 -195.2876,20.93422 -109.3828,31.41619 -210.8882,102.55104 -282.1405,197.72361 -5.818,7.77123 -11.9472,16.35774 -13.6203,19.08111 -1.6731,2.72338 -6.5252,10.14137 -10.7824,16.48443 -9.6177,14.32983 -29.6536,52.87079 -39.9007,76.75277 -19.7165,45.9513 -37.7558,117.28289 -40.121,158.64758 -4.2191,73.78764 -1.868,116.37588 9.3605,169.55681 4.5185,21.40055 15.1445,57.58824 23.3375,79.47734 11.81,31.5525 34.0113,75.1439 53.1281,104.3149 59.823,91.2857 146.0888,162.715 248.674,205.9051 45.1078,18.9912 107.3024,34.3748 155.9531,38.5743 24.546,2.1188 101.794,0.8302 123.2407,-2.0557 z"
           id="path850" />
        <path
           style="fill:#ffffff;stroke-width:2.41986"
           d="m 2345.2432,1180.2751 c -9.9091,-0.7727 -17.6237,-3.4413 -26.3596,-9.1178 -8.6215,-5.6024 -24.0681,-22.0048 -24.0786,-25.5687 0,-1.2464 -0.9129,-3.5832 -2.0206,-5.1927 -6.1982,-9.0066 -6.1462,-6.632 -6.1462,-281.11473 0,-280.3971 -0.1308,-275.2095 7.255,-287.5459 5.0893,-8.5003 18.8942,-22.2991 26.8694,-26.8574 4.0802,-2.3319 12.4257,-5.6813 18.546,-7.443 11.0963,-3.1943 11.5054,-3.2019 146.1414,-2.7064 141.1783,0.5197 137.2185,0.3433 154.7397,6.8911 7.4719,2.7925 26.9026,21.5876 31.3374,30.3123 8.1272,15.989 7.681,-1.8048 7.2224,288.091 l -0.4225,267.06073 -4.0301,11.0407 c -2.2166,6.0722 -5.0541,11.6136 -6.3056,12.3139 -1.2515,0.7003 -2.2754,2.4643 -2.2754,3.9197 0,2.6512 -9.7656,13.5268 -12.1461,13.5268 -0.6962,0 -4.0902,1.8266 -7.5421,4.0593 -13.5354,8.755 -6.1575,8.3481 -156.1267,8.6106 -75.8898,0.1327 -140.9858,0.01 -144.6578,-0.2795 z m 153.5598,-15.6424 c 3.7412,-1.2235 9.3462,-5.3687 15.1653,-11.215 7.9507,-7.9881 9.6741,-10.7345 12.43,-19.8077 3.1107,-10.2409 3.1296,-10.7873 0.682,-19.6576 -1.3846,-5.018 -3.6399,-11.1938 -5.0117,-13.724 -3.1352,-5.7823 -18.7635,-19.8804 -22.0381,-19.8804 -1.3477,0 -5.9695,-1.1092 -10.2706,-2.4651 -7.2889,-2.2976 -8.2584,-2.2976 -14.2748,0 -3.55,1.3559 -7.8307,2.4651 -9.5125,2.4651 -6.4776,0 -25.7311,19.9155 -25.7962,26.6829 -0.012,1.2368 -1.0137,5.097 -2.2264,8.5782 -3.4201,9.8183 0.5791,23.9948 9.4458,33.4844 10.101,10.8105 12.4632,12.5907 20.5294,15.4708 13.6357,4.8689 16.1838,4.8745 30.8778,0.07 z m 107.8485,-114.3412 c 3.0114,-1.4025 7.3081,-4.9532 9.5484,-7.8903 l 4.0733,-5.3404 0.059,-224.39433 c 0.059,-218.0268 -0.02,-224.5164 -2.7598,-228.6973 -6.7128,-10.2452 4.6158,-9.4487 -135.1704,-9.5034 l -126.1918,-0.05 -5.1131,5.2753 -5.1129,5.2752 v 226.8221 226.82173 l 4.4509,4.6515 c 5.2027,5.437 11.2859,8.5112 18.546,9.3724 2.8561,0.3388 56.2681,0.5241 118.6935,0.4118 103.9359,-0.1873 113.9622,-0.4194 118.976,-2.7546 z"
           id="path852" />
      </g>
    </g>
  </g>
</svg>
