<?xml version="1.0" encoding="UTF-8" standalone="no"?>
<svg
   xmlns:dc="http://purl.org/dc/elements/1.1/"
   xmlns:cc="http://creativecommons.org/ns#"
   xmlns:rdf="http://www.w3.org/1999/02/22-rdf-syntax-ns#"
   xmlns:svg="http://www.w3.org/2000/svg"
   xmlns="http://www.w3.org/2000/svg"
   xmlns:sodipodi="http://sodipodi.sourceforge.net/DTD/sodipodi-0.dtd"
   xmlns:inkscape="http://www.inkscape.org/namespaces/inkscape"
   version="1.1"
   x="0px"
   y="0px"
   viewBox="0 0 1000 1000"
   enable-background="new 0 0 1000 1000"
   xml:space="preserve"
   id="svg182"
   sodipodi:docname="about2.svg"
   inkscape:version="1.0.1 (3bc2e813f5, 2020-09-07)"><defs
   id="defs186"><clipPath
     clipPathUnits="userSpaceOnUse"
     id="clipPath238"><circle
       style="fill:#ff0000;fill-rule:evenodd"
       id="circle240"
       cx="500.04999"
       cy="499.95001"
       r="440.58823" /></clipPath></defs><sodipodi:namedview
   pagecolor="#ffffff"
   bordercolor="#666666"
   borderopacity="1"
   objecttolerance="10"
   gridtolerance="10"
   guidetolerance="10"
   inkscape:pageopacity="0"
   inkscape:pageshadow="2"
   inkscape:window-width="1920"
   inkscape:window-height="1017"
   id="namedview184"
   showgrid="false"
   inkscape:zoom="0.74"
   inkscape:cx="312.94118"
   inkscape:cy="547.05882"
   inkscape:window-x="-8"
   inkscape:window-y="-8"
   inkscape:window-maximized="1"
   inkscape:current-layer="g180" />
<metadata
   id="metadata176"> Svg Vector Icons : http://www.onlinewebfonts.com/icon <rdf:RDF><cc:Work
     rdf:about=""><dc:format>image/svg+xml</dc:format><dc:type
       rdf:resource="http://purl.org/dc/dcmitype/StillImage" /></cc:Work></rdf:RDF></metadata>

<g
   inkscape:groupmode="layer"
   id="layer2"
   inkscape:label="obrazek"><g
     id="g180"
     transform="translate(-0.05,0.05)"
     clip-path="url(#clipPath238)"><path
       d="m 500,9.8 c -270.6,0 -490,219.4 -490,490 0,70.1 11.8,136.7 38.3,197 0.6,1.2 -1.1,2.3 -1.1,3.5 v 0.7 c 13.6,27.7 36.611765,75.27647 63.81176,99.97647 l 36.87993,39.44616 46.64948,41.82443 L 253.6,924.6 c 29.1,13.6 60.1,30.3 92.5,41.1 48.4,16 100.1,24.4 153.9,24.4 203.1,0 377.3,-123.7 451.7,-299.7 24.7,-58.6 38.4,-123 38.4,-190.5 C 990,229.3 770.6,9.8 500,9.8 Z M 202.9,665.4 v -7.2 c 0,-85.6 67.1,-157.9 152.7,-161 -47.5,-4.1 -85.6,-44.4 -85.6,-92.9 0,-51.6 41.3,-92.9 92.9,-92.9 12.4,0 23.7,3.1 35.1,7.2 -8.3,16.5 -13.4,35.1 -13.4,54.7 0,38.2 17.5,72.2 45.4,94.9 -14.5,15.5 -36.1,25.8 -58.8,27.9 13.4,0 25.8,2 38.2,6.2 -57.8,33 -98,93.9 -105.2,163 z M 705.4,686 H 313.3 v -5.2 c 0,-105.2 82.5,-190.9 185.7,-196.1 -57.8,-5.2 -104.2,-53.6 -104.2,-113.5 0,-63 50.6,-113.5 113.5,-113.5 62.9,0 113.5,50.6 113.5,113.5 0,59.8 -45.4,108.3 -103.2,113.5 104.2,5.2 186.8,90.8 186.8,196.1 z m 96,-21.6 h -87.7 c -7.2,-70.2 -49.5,-132.1 -109.4,-165.1 9.3,-2.1 19.6,-4.1 28.9,-4.1 -20.6,-2.1 -39.2,-10.3 -53.6,-22.7 32,-22.7 52.6,-59.8 52.6,-101.1 0,-21.7 -5.2,-41.3 -14.5,-58.8 7.2,-2.1 15.5,-3.1 23.7,-3.1 51.6,0 92.9,41.3 92.9,92.9 0,48.5 -37.1,88.7 -84.6,92.9 84.6,4.1 152.7,77.4 152.7,163 0,2 0,7.1 -1,6.1 z"
       id="path178"
       sodipodi:nodetypes="sscsccccccsccscscsscscccccccscssscsccccccscsscsc"
       mask="none"
       style="fill:#ff0000" /></g></g><g
   inkscape:groupmode="layer"
   id="layer1"
   inkscape:label="maska"
   style="display:inline" /></svg>
