<?xml version="1.0" encoding="UTF-8" standalone="no"?>
<svg
   xmlns:dc="http://purl.org/dc/elements/1.1/"
   xmlns:cc="http://creativecommons.org/ns#"
   xmlns:rdf="http://www.w3.org/1999/02/22-rdf-syntax-ns#"
   xmlns:svg="http://www.w3.org/2000/svg"
   xmlns="http://www.w3.org/2000/svg"
   xmlns:sodipodi="http://sodipodi.sourceforge.net/DTD/sodipodi-0.dtd"
   xmlns:inkscape="http://www.inkscape.org/namespaces/inkscape"
   version="1.1"
   x="0px"
   y="0px"
   viewBox="0 0 500 500"
   enable-background="new 0 0 1000 1000"
   xml:space="preserve"
   id="svg182"
   sodipodi:docname="about3.svg"
   inkscape:version="1.0.1 (3bc2e813f5, 2020-09-07)"
   width="500"
   height="500"><defs
   id="defs186"><clipPath
     clipPathUnits="userSpaceOnUse"
     id="clipPath238"><circle
       style="fill:#ff0000;fill-rule:evenodd"
       id="circle240"
       cx="500.04999"
       cy="499.95001"
       r="440.58823" /></clipPath><clipPath
     clipPathUnits="userSpaceOnUse"
     id="clipPath238-6"><circle
       style="fill:#ff0000;fill-rule:evenodd"
       id="circle240-0"
       cx="500.04999"
       cy="499.95001"
       r="440.58823" /></clipPath></defs><sodipodi:namedview
   pagecolor="#ffffff"
   bordercolor="#666666"
   borderopacity="1"
   objecttolerance="10"
   gridtolerance="10"
   guidetolerance="10"
   inkscape:pageopacity="0"
   inkscape:pageshadow="2"
   inkscape:window-width="1920"
   inkscape:window-height="1017"
   id="namedview184"
   showgrid="false"
   inkscape:zoom="0.74"
   inkscape:cx="392.43956"
   inkscape:cy="530.01666"
   inkscape:window-x="-8"
   inkscape:window-y="-8"
   inkscape:window-maximized="1"
   inkscape:current-layer="layer2"
   fit-margin-top="0"
   fit-margin-left="0"
   fit-margin-right="0"
   fit-margin-bottom="0" />
<metadata
   id="metadata176"> Svg Vector Icons : http://www.onlinewebfonts.com/icon <rdf:RDF><cc:Work
     rdf:about=""><dc:format>image/svg+xml</dc:format><dc:type
       rdf:resource="http://purl.org/dc/dcmitype/StillImage" /><dc:title></dc:title></cc:Work></rdf:RDF></metadata>

<g
   inkscape:groupmode="layer"
   id="layer4"
   inkscape:label="obrazek 2"
   style="display:inline"
   transform="translate(-51.351351,-8.1081081)" /><g
   inkscape:groupmode="layer"
   id="layer2"
   inkscape:label="obrazek"
   style="display:inline"
   transform="translate(-51.351351,-8.1081081)"><g
     id="g2456"
     transform="matrix(0.56689342,0,0,0.56689342,51.351351,8.1081081)"><circle
       style="display:inline;fill:#ff0000;stroke-width:2.91375"
       id="path1577"
       cx="441"
       cy="441"
       r="441" /><path
       style="display:inline;fill:#ff0000;stroke-width:1.35135"
       d="m 410.00713,880.54659 c -3.3446,-0.29617 -13.98649,-1.49577 -23.64865,-2.66577 C 269.14944,863.6879 161.31221,801.26066 89.314583,705.92137 1.9320666,590.20942 -22.60935,438.64408 23.632016,300.27242 54.157816,208.92766 116.94331,127.35179 197.84496,73.921198 289.76314,13.214867 398.80488,-10.835835 507.30442,5.6655304 583.2803,17.220471 651.28291,46.698704 713.8678,95.208031 c 18.50256,14.341259 58.49858,54.337289 72.83984,72.839839 52.57269,67.82727 82.13393,140.18773 92.39178,226.15798 2.2461,18.82427 2.24886,75.263 0.004,93.24324 -11.48346,92.00065 -43.44333,167.43468 -99.71197,235.34754 -12.63896,15.25446 -40.99832,43.70618 -55.87138,56.05334 -65.63867,54.49116 -140.43945,87.1477 -227.1024,99.14838 -14.80244,2.04977 -72.74445,3.75847 -86.41112,2.54824 z"
       id="path1613" /><path
       style="display:inline;fill:#ff0000;stroke-width:1.35135"
       d="M 409.33145,880.55113 C 339.82157,873.4722 292.2414,859.88127 237.70983,831.52869 191.53378,807.52039 148.39202,774.29752 114.73686,736.82892 43.575205,657.60397 4.4076483,560.34423 0.97589399,454.34098 -2.5085676,346.70966 33.366725,242.57621 102.77833,158.84406 116.56813,142.20925 148.36909,111.06588 165.83479,97.09151 229.99257,45.758631 304.82817,14.385484 389.06118,3.5088388 411.01021,0.67465593 464.76328,0.29065944 487.03415,2.808948 587.16659,14.131465 676.10511,55.75014 746.73338,124.33489 c 74.31252,72.16238 118.13856,160.17751 131.68737,264.46555 2.86326,22.03916 3.27116,77.16653 0.72993,98.64865 -12.86381,108.74307 -58.47757,200.04673 -137.4335,275.09643 -65.77654,62.52234 -150.96999,102.64298 -245.22357,115.48454 -14.82529,2.01988 -74.99475,3.76022 -87.16216,2.52107 z"
       id="path1615" /><path
       style="display:inline;fill:#ff0000;stroke-width:1.35135"
       d="M 409.33145,880.50664 C 407.10172,880.2556 398.89226,879.3706 391.08821,878.53997 256.58186,864.2235 132.31735,783.92943 62.514001,666.23027 23.747498,600.864 3.310797,530.29659 0.95403858,453.66531 -2.2469504,349.5834 31.199539,249.08442 96.560027,166.39139 110.84161,148.32256 148.54244,110.61303 166.57257,96.362664 333.50214,-35.572343 568.55299,-30.788783 728.92605,107.80722 c 73.10533,63.17836 123.72266,149.04386 143.08229,242.71988 7.06289,34.17545 8.71722,51.06161 8.78039,89.62469 0.0691,42.11453 -2.50139,65.37554 -11.37705,102.9574 -43.59872,184.60817 -202.95847,321.46187 -392.24843,336.85198 -15.87241,1.2905 -58.19147,1.63081 -67.8318,0.54547 z"
       id="path1617" /><path
       style="display:inline;fill:#f9f9f9;stroke-width:1.35135"
       d="M 401.22334,879.96155 C 296.20975,869.30809 202.50257,825.28975 129.56425,752.35143 68.562636,691.34981 26.204697,612.73851 9.4529348,529.43909 2.7999086,496.35642 1.3441595,480.45539 1.3404832,440.82747 1.3367897,401.0141 2.6668168,386.57524 9.4853176,352.4066 37.632125,211.35828 138.61378,89.024227 272.23596,34.097787 c 149.14776,-61.308351 317.97026,-37.4460869 443.8703,62.738976 17.36041,13.814557 55.1581,51.612247 68.97265,68.972657 84.26368,105.89202 115.29203,242.74475 84.93581,374.6154 -14.00543,60.84111 -39.59243,115.58314 -77.51538,165.84011 -71.48469,94.7343 -175.37344,155.22558 -294.9862,171.76159 -18.17269,2.5123 -78.62455,3.72714 -96.2898,1.93503 z"
       id="path1619" /><g
       id="g180"
       transform="matrix(1.0009346,0,0,1.0009346,-59.517334,-59.417265)"
       clip-path="url(#clipPath238)"><path
         d="m 500,9.8 c -270.6,0 -490,219.4 -490,490 0,70.1 11.8,136.7 38.3,197 0.6,1.2 -1.1,2.3 -1.1,3.5 v 0.7 c 13.6,27.7 36.611765,75.27647 63.81176,99.97647 l 36.87993,39.44616 46.64948,41.82443 L 253.6,924.6 c 29.1,13.6 60.1,30.3 92.5,41.1 48.4,16 100.1,24.4 153.9,24.4 203.1,0 377.3,-123.7 451.7,-299.7 24.7,-58.6 38.4,-123 38.4,-190.5 C 990,229.3 770.6,9.8 500,9.8 Z M 202.9,665.4 v -7.2 c 0,-85.6 67.1,-157.9 152.7,-161 -47.5,-4.1 -85.6,-44.4 -85.6,-92.9 0,-51.6 41.3,-92.9 92.9,-92.9 12.4,0 23.7,3.1 35.1,7.2 -8.3,16.5 -13.4,35.1 -13.4,54.7 0,38.2 17.5,72.2 45.4,94.9 -14.5,15.5 -36.1,25.8 -58.8,27.9 13.4,0 25.8,2 38.2,6.2 -57.8,33 -98,93.9 -105.2,163 z M 705.4,686 H 313.3 v -5.2 c 0,-105.2 82.5,-190.9 185.7,-196.1 -57.8,-5.2 -104.2,-53.6 -104.2,-113.5 0,-63 50.6,-113.5 113.5,-113.5 62.9,0 113.5,50.6 113.5,113.5 0,59.8 -45.4,108.3 -103.2,113.5 104.2,5.2 186.8,90.8 186.8,196.1 z m 96,-21.6 h -87.7 c -7.2,-70.2 -49.5,-132.1 -109.4,-165.1 9.3,-2.1 19.6,-4.1 28.9,-4.1 -20.6,-2.1 -39.2,-10.3 -53.6,-22.7 32,-22.7 52.6,-59.8 52.6,-101.1 0,-21.7 -5.2,-41.3 -14.5,-58.8 7.2,-2.1 15.5,-3.1 23.7,-3.1 51.6,0 92.9,41.3 92.9,92.9 0,48.5 -37.1,88.7 -84.6,92.9 84.6,4.1 152.7,77.4 152.7,163 0,2 0,7.1 -1,6.1 z"
         id="path178"
         sodipodi:nodetypes="sscsccccccsccscscsscscccccccscssscsccccccscsscsc"
         mask="none"
         style="fill:#ff0000" /></g></g></g></svg>
