<?xml version="1.0" encoding="UTF-8" standalone="no"?>
<svg
   xmlns:dc="http://purl.org/dc/elements/1.1/"
   xmlns:cc="http://creativecommons.org/ns#"
   xmlns:rdf="http://www.w3.org/1999/02/22-rdf-syntax-ns#"
   xmlns:svg="http://www.w3.org/2000/svg"
   xmlns="http://www.w3.org/2000/svg"
   xmlns:sodipodi="http://sodipodi.sourceforge.net/DTD/sodipodi-0.dtd"
   xmlns:inkscape="http://www.inkscape.org/namespaces/inkscape"
   version="1.1"
   id="Capa_1"
   x="0px"
   y="0px"
   viewBox="0 0 466.88043 361.6799"
   xml:space="preserve"
   sodipodi:docname="car1.svg"
   width="466.88043"
   height="361.6799"
   inkscape:version="1.0.1 (3bc2e813f5, 2020-09-07)"><metadata
   id="metadata67"><rdf:RDF><cc:Work
       rdf:about=""><dc:format>image/svg+xml</dc:format><dc:type
         rdf:resource="http://purl.org/dc/dcmitype/StillImage" /><dc:title /></cc:Work></rdf:RDF></metadata><defs
   id="defs65" /><sodipodi:namedview
   pagecolor="#ffffff"
   bordercolor="#666666"
   borderopacity="1"
   objecttolerance="10"
   gridtolerance="10"
   guidetolerance="10"
   inkscape:pageopacity="0"
   inkscape:pageshadow="2"
   inkscape:window-width="1920"
   inkscape:window-height="1001"
   id="namedview63"
   showgrid="false"
   fit-margin-top="0"
   fit-margin-left="0"
   fit-margin-right="0"
   fit-margin-bottom="0"
   inkscape:zoom="1.7735043"
   inkscape:cx="233.44021"
   inkscape:cy="180.83994"
   inkscape:window-x="-9"
   inkscape:window-y="-9"
   inkscape:window-maximized="1"
   inkscape:current-layer="g921"
   inkscape:document-rotation="0" />





<g
   id="g32"
   transform="translate(-0.55979076,-53.160057)">
</g>
<g
   id="g34"
   transform="translate(-0.55979076,-53.160057)">
</g>
<g
   id="g36"
   transform="translate(-0.55979076,-53.160057)">
</g>
<g
   id="g38"
   transform="translate(-0.55979076,-53.160057)">
</g>
<g
   id="g40"
   transform="translate(-0.55979076,-53.160057)">
</g>
<g
   id="g42"
   transform="translate(-0.55979076,-53.160057)">
</g>
<g
   id="g44"
   transform="translate(-0.55979076,-53.160057)">
</g>
<g
   id="g46"
   transform="translate(-0.55979076,-53.160057)">
</g>
<g
   id="g48"
   transform="translate(-0.55979076,-53.160057)">
</g>
<g
   id="g50"
   transform="translate(-0.55979076,-53.160057)">
</g>
<g
   id="g52"
   transform="translate(-0.55979076,-53.160057)">
</g>
<g
   id="g54"
   transform="translate(-0.55979076,-53.160057)">
</g>
<g
   id="g56"
   transform="translate(-0.55979076,-53.160057)">
</g>
<g
   id="g58"
   transform="translate(-0.55979076,-53.160057)">
</g>
<g
   id="g60"
   transform="translate(-0.55979076,-53.160057)">
</g>
<g
   id="g921"
   transform="translate(-40.560766,-53.090683)"
   style="opacity:1"><path
     style="fill:#ff0000;stroke-width:0.919648"
     d="M 77.724145,414.4573 C 60.672791,412.51002 47.070732,401.15926 41.884328,384.5494 l -1.320473,-4.22892 v -77.53012 c 0,-86.6247 -0.260016,-80.67836 3.990892,-91.26805 3.915083,-9.7531 8.866051,-15.83137 24.902423,-30.57255 l 5.775242,-5.3088 17.494602,-47.36385 c 9.622036,-26.05012 18.492486,-49.393737 19.712116,-51.8747 5.28156,-10.743737 14.68956,-18.391051 26.88854,-21.856421 l 4.42173,-1.256082 129.12289,-0.16401 c 84.96158,-0.107918 131.1055,0.03299 134.91982,0.412002 13.51109,1.342534 24.88353,8.048931 31.93192,18.830458 2.73371,4.181611 2.55312,3.719325 22.85857,58.512633 l 17.0545,46.02075 7.81207,8.27635 c 11.17425,11.83835 15.27435,18.52437 18.4876,30.14765 l 1.49937,5.42366 v 79.50361 c 0,89.19061 0.32329,82.1706 -4.20659,91.34458 -5.27637,10.68578 -14.94027,18.50489 -27.01089,21.85465 -3.99158,1.10771 -5.68229,1.1948 -23.19456,1.1948 -17.73891,0 -19.16284,-0.0757 -23.38359,-1.24315 -14.44095,-3.99434 -24.90386,-14.07525 -29.65527,-28.57256 -1.17363,-3.58098 -1.31504,-5.24113 -1.52485,-17.90241 l -0.23125,-13.95543 H 274 149.77086 l -0.23125,13.95543 c -0.20912,12.61975 -0.3542,14.33318 -1.51577,17.90241 -4.7209,14.5062 -15.34709,24.70111 -29.76301,28.55503 -3.87032,1.03469 -6.31667,1.19624 -20.465649,1.35152 -8.838434,0.097 -17.8704,-0.0293 -20.071036,-0.28058 z m 38.838725,-20.79611 c 4.22806,-1.70259 9.29551,-6.37777 11.25874,-10.38722 2.0794,-4.24667 2.66799,-8.7049 2.67293,-20.24572 l 0.004,-9.96211 -27.48795,-0.24689 c -31.986724,-0.28729 -32.236151,-0.32155 -43.134943,-5.92473 -0.623598,-0.3206 -0.492943,24.89305 0.15211,29.35405 0.715024,4.94489 3.112174,9.63149 6.590671,12.88521 3.220133,3.01206 4.400533,3.70838 8.622279,5.0863 2.751918,0.8982 5.069912,0.99769 20.580723,0.88337 16.83876,-0.12411 17.59908,-0.17698 20.74118,-1.44226 z m 358.02681,0.008 c 6.82227,-2.74853 12.2869,-9.84134 13.37344,-17.35804 0.65141,-4.50645 0.78949,-29.73976 0.16098,-29.41663 -10.89879,5.60317 -11.14822,5.63743 -43.13494,5.92472 l -27.48796,0.24689 0.005,9.96211 c 0.002,5.47917 0.26592,11.5747 0.58574,13.54564 0.77515,4.77712 3.19348,9.39625 6.57567,12.5599 3.22013,3.01205 4.40053,3.70838 8.62228,5.0863 2.75192,0.89819 5.06991,0.99768 20.58072,0.88337 16.80781,-0.12388 17.60404,-0.179 20.71981,-1.43426 z m 0.54774,-62.22373 c 3.46222,-1.62275 8.241,-5.73308 9.97324,-8.5782 2.96127,-4.86376 2.89814,-3.70069 2.87908,-53.04948 -0.0169,-43.65748 -0.0702,-46.0353 -1.12408,-50.15608 -1.79535,-7.01972 -4.56698,-11.55844 -11.84285,-19.39339 -3.57098,-3.84537 -6.95789,-7.59765 -7.52647,-8.33838 l -1.03377,-1.34681 H 276.88095 87.299329 l -7.297857,6.77507 c -10.457473,9.70834 -13.4318,13.10341 -16.023548,18.29018 -4.341564,8.68863 -4.153359,6.43863 -4.388258,52.46188 -0.224403,43.96695 -0.04039,48.0538 2.387448,53.0242 2.576069,5.27385 8.642227,10.16736 14.248298,11.49395 1.21634,0.28782 85.824518,0.46417 198.902298,0.41455 l 196.78554,-0.0863 3.22417,-1.51117 z M 298.49682,167.88795 c 4.67549,-24.24192 22.87243,-44.4742 46.73412,-51.96135 38.04023,-11.936 78.38836,11.60558 86.88267,50.69268 l 0.98029,4.51084 12.00329,0.15237 c 9.51789,0.12081 11.9481,0.004 11.73671,-0.56386 -0.14663,-0.39392 -7.18156,-19.36574 -15.63319,-42.15959 -8.45163,-22.79386 -16.13752,-42.907007 -17.07977,-44.695888 -2.14274,-4.06804 -5.13351,-6.800203 -9.9333,-9.07438 l -3.73463,-1.769495 H 277.38313 c -109.2356,0 -133.44904,0.134217 -135.18677,0.74935 -3.74449,1.3255 -8.64329,5.027906 -10.76091,8.132857 -1.45989,2.14056 -6.33457,14.575186 -17.62779,44.965986 -8.58543,23.10398 -15.730044,42.57813 -15.876912,43.2759 l -0.26703,1.26868 h 100.076712 100.0767 z m 114.22458,1.40964 c -0.72373,-3.87934 -3.71065,-10.75932 -6.59934,-15.20073 -9.8033,-15.07269 -28.39982,-23.82194 -46.02871,-21.65548 -16.60249,2.04033 -30.16517,11.18145 -37.80581,25.48081 -2.06557,3.86566 -4.58874,10.85083 -4.58874,12.70347 0,0.66642 7.27831,0.78639 47.70853,0.78639 h 47.70853 z"
     id="path894" /><path
     style="fill:#ff0000;stroke-width:0.919648"
     d="m 92.815364,301.58048 c -1.429636,-0.70765 -3.066357,-2.15167 -3.946988,-3.48228 l -1.504521,-2.2733 v -28.51606 c 0,-32.21932 -0.111954,-31.34868 4.416487,-34.3459 l 2.266745,-1.50029 39.229473,-0.1694 c 26.22398,-0.11324 39.90515,0.0269 41.26758,0.42265 2.85923,0.83058 4.97667,2.65576 6.19624,5.34099 0.97046,2.13674 1.04537,4.2493 1.05688,29.8058 0.0106,23.49695 -0.11403,27.8086 -0.85491,29.58177 -1.16827,2.79608 -2.37047,4.05353 -5.05319,5.28544 -2.11905,0.97307 -4.62507,1.03642 -41.44338,1.04763 -38.942719,0.0118 -39.203233,0.005 -41.630416,-1.19705 z M 162.0747,266.98554 v -16.06988 h -27.62892 -27.62891 v 16.06988 16.06988 h 27.62891 27.62892 z"
     id="path896" /><path
     style="fill:#ff0000;stroke-width:0.919648"
     d="m 221.00908,260.33947 c -6.53198,-3.69951 -6.25602,-13.76727 0.46479,-16.95651 1.76225,-0.83624 6.80925,-0.92513 52.52613,-0.92513 45.71688,0 50.76388,0.0889 52.52613,0.92513 6.70539,3.18192 7.03818,13.0206 0.56866,16.81199 l -2.44688,1.43397 -50.69745,-0.009 -50.69745,-0.009 z"
     id="path898" /><path
     style="fill:#ff0000;stroke-width:0.919648"
     d="m 221.22724,291.32999 c -6.75874,-3.56552 -6.61143,-13.68061 0.24663,-16.93498 1.76225,-0.83624 6.80925,-0.92513 52.52613,-0.92513 56.23321,0 52.89138,-0.22689 55.96249,3.79954 1.1074,1.45187 1.53686,2.76251 1.68306,5.13631 0.25471,4.13575 -1.34322,7.06226 -4.87279,8.92426 l -2.48507,1.31097 H 274 223.71231 Z"
     id="path900" /><path
     style="fill:#ff0000;stroke-width:0.919648"
     d="m 372.11084,301.7299 c -2.68272,-1.23191 -3.88492,-2.48936 -5.05319,-5.28544 -0.74088,-1.77317 -0.86548,-6.08482 -0.85491,-29.58177 0.0115,-25.5565 0.0864,-27.66906 1.05688,-29.8058 1.21957,-2.68523 3.33701,-4.51041 6.19624,-5.34099 1.36243,-0.39577 15.04361,-0.53589 41.26758,-0.42265 l 39.22947,0.1694 2.26675,1.50029 c 4.52844,2.99722 4.41648,2.12658 4.41648,34.3459 v 28.51606 l -1.51339,2.28671 c -0.91156,1.37734 -2.49592,2.76234 -3.98405,3.48273 -2.44576,1.18397 -2.86503,1.1959 -41.62154,1.18364 -36.78181,-0.0116 -39.28737,-0.0751 -41.40632,-1.04808 z m 69.07229,-34.74436 V 250.91566 H 413.55422 385.9253 v 16.06988 16.06988 h 27.62892 27.62891 z"
     id="path902" /></g></svg>
