<?xml version="1.0" encoding="UTF-8" standalone="no"?>
<svg
   xmlns:dc="http://purl.org/dc/elements/1.1/"
   xmlns:cc="http://creativecommons.org/ns#"
   xmlns:rdf="http://www.w3.org/1999/02/22-rdf-syntax-ns#"
   xmlns:svg="http://www.w3.org/2000/svg"
   xmlns="http://www.w3.org/2000/svg"
   xmlns:sodipodi="http://sodipodi.sourceforge.net/DTD/sodipodi-0.dtd"
   xmlns:inkscape="http://www.inkscape.org/namespaces/inkscape"
   height="190.60646pt"
   viewBox="1 -160 511.23802 190.60646"
   width="510.24051pt"
   version="1.1"
   id="svg10"
   sodipodi:docname="car2.svg"
   inkscape:version="1.0.1 (3bc2e813f5, 2020-09-07)">
  <metadata
     id="metadata16">
    <rdf:RDF>
      <cc:Work
         rdf:about="">
        <dc:format>image/svg+xml</dc:format>
        <dc:type
           rdf:resource="http://purl.org/dc/dcmitype/StillImage" />
        <dc:title />
      </cc:Work>
    </rdf:RDF>
  </metadata>
  <defs
     id="defs14" />
  <sodipodi:namedview
     pagecolor="#ffffff"
     bordercolor="#666666"
     borderopacity="1"
     objecttolerance="10"
     gridtolerance="10"
     guidetolerance="10"
     inkscape:pageopacity="0"
     inkscape:pageshadow="2"
     inkscape:window-width="1920"
     inkscape:window-height="1001"
     id="namedview12"
     showgrid="false"
     fit-margin-top="0"
     fit-margin-left="0"
     fit-margin-right="0"
     fit-margin-bottom="0"
     inkscape:zoom="1.2181996"
     inkscape:cx="340.16035"
     inkscape:cy="127.07098"
     inkscape:window-x="-9"
     inkscape:window-y="-9"
     inkscape:window-maximized="1"
     inkscape:current-layer="g855"
     inkscape:document-rotation="0" />
  <g
     id="g855"
     transform="translate(-27.473093,-63.661948)">
    <g
       id="g868"
       transform="translate(0,-0.50755229)"
       style="opacity:1">
      <path
         style="fill:#ff0000;stroke-width:1.00611"
         d="M 91.99225,191.32477 C 79.5518,189.68819 67.453662,182.98091 60.1315,173.66097 56.308349,168.7947 52.101381,160.41436 51.136472,155.74273 50.588744,153.0909 50.043659,151.9619 49.135046,151.59732 48.448266,151.32176 41.224199,149.8116 33.081564,148.24141 24.370908,146.56169 16.962688,144.79087 15.0844,143.93946 8.5117984,140.96015 3.4104394,134.25122 1.9391304,126.65176 1.4393034,124.0701 1.2865864,114.55401 1.4342474,95.191572 1.6426964,67.858264 1.6678394,67.377875 3.0739134,63.864281 4.9101224,59.275836 10.208726,53.497128 14.466037,51.439929 c 3.891718,-1.880545 9.392838,-2.807922 16.764928,-2.826212 3.053488,-0.0076 7.217335,-0.407325 9.252994,-0.888324 2.035659,-0.480998 26.055883,-10.450416 53.378231,-22.154255 27.32239,-11.703839 51.88908,-21.8672549 54.59266,-22.5853711 7.99534,-2.12369627 16.30102,-2.46284802 60.43355,-2.46771001 54.09139,-0.006012 60.88283,0.49479541 75.69759,5.58147811 3.12178,1.0718765 29.00851,12.836051 57.52609,26.142625 l 51.85013,24.193772 16.03156,0.696639 c 29.33248,1.274622 48.05206,4.742406 67.53989,12.511711 15.89244,6.335905 27.7317,14.752906 31.63324,22.489311 3.48571,6.911859 3.58527,7.908727 3.39488,33.991487 l -0.17517,23.99657 -2.01969,4.10105 c -2.52624,5.12964 -7.39219,9.73604 -12.32451,11.66713 -3.01471,1.18031 -5.0353,1.42679 -13.50928,1.64788 l -9.96435,0.25998 -2.2798,3.31017 c -2.97905,4.32544 -10.25125,11.12967 -14.7389,13.79044 -4.89982,2.90515 -12.20985,5.38685 -18.35371,6.23094 -16.05941,2.20638 -34.11581,-5.68744 -43.39749,-18.97233 l -3.08433,-4.41463 -127.5154,-0.0345 -127.5154,-0.0344 -0.72522,1.38795 c -1.67565,3.20694 -7.30757,9.41771 -11.34228,12.50804 -5.0347,3.85627 -12.14794,7.31048 -17.69711,8.59378 -4.31655,0.99824 -12.58484,1.60129 -15.92689,1.16164 z m 13.13727,-15.31698 c 11.66783,-3.03908 20.61238,-12.08269 23.66383,-23.92592 0.75654,-2.93626 0.90375,-5.46019 0.62559,-10.72613 -0.34008,-6.43807 -0.2736,-7.02032 1.02126,-8.94456 0.85802,-1.27507 2.28815,-2.35589 3.75857,-2.84053 2.05931,-0.67874 2.66355,-0.6379 4.56413,0.30843 1.20483,0.59991 2.69619,1.78471 3.31413,2.63291 1.52251,2.0898 2.52188,10.82013 1.85359,16.19274 l -0.51794,4.16385 h 121.57158 121.57158 v -8.63613 -8.63613 l -4.93991,-0.001 c -5.99298,-0.002 -8.72276,-1.15854 -10.48204,-4.44417 -1.13631,-2.12219 -1.15843,-2.47196 -0.30843,-4.87904 1.60469,-4.54426 3.06659,-5.14047 13.19676,-5.38212 l 8.80058,-0.20993 1.08038,-1.82894 c 6.64122,-11.24268 20.58437,-19.886634 34.63225,-21.469989 16.59646,-1.870617 34.27676,6.215999 43.78987,20.028599 l 2.32911,3.38175 h 11.92635 11.92636 v -8.63612 -8.63613 h -8.65594 c -9.88303,0 -12.20655,-0.62689 -14.1523,-3.818292 -1.47209,-2.414522 -1.57384,-4.251969 -0.36492,-6.589781 1.27146,-2.45873 2.45316,-3.257794 5.99868,-4.056317 l 3.13978,-0.707137 -5.47419,-2.536402 C 468.92061,81.141994 455.99774,77.1579 443.60602,74.899977 426.28918,71.744638 430.91205,71.871928 318.99903,71.46897 234.40294,71.164378 213.9691,70.935789 211.97273,70.271689 207.76112,68.870685 202.48729,65.955867 199.84512,63.568827 198.45379,62.311842 188.56939,51.077594 177.87976,38.603833 155.99281,13.063831 158.30774,14.857942 150.46382,17.356079 147.99114,18.143571 124.17723,28.134074 97.54404,39.557188 69.896786,51.415251 47.002717,60.874242 44.185157,61.603134 c -3.184698,0.82387 -7.888447,1.401064 -13.262625,1.627443 -4.593294,0.193488 -9.220661,0.713563 -10.319003,1.159768 -3.350277,1.361056 -4.480817,4.014611 -4.483482,10.523406 l -0.0023,5.630557 5.39758,0.262412 c 6.204999,0.301668 8.108448,1.215211 9.753001,4.680845 0.951693,2.005544 0.974438,2.519847 0.207361,4.688707 -1.380291,3.902687 -3.406455,4.978659 -9.850337,5.230896 l -5.507635,0.215596 v 15.167896 c 0,14.69651 0.04292,15.23054 1.381269,17.18372 0.759698,1.1087 2.355839,2.43501 3.546981,2.94735 2.962483,1.27424 28.462174,6.0954 28.977204,5.47865 0.227637,-0.27259 0.766042,-2.02237 1.196456,-3.88839 1.875135,-8.12947 8.234258,-18.13396 15.405275,-24.23636 9.649508,-8.21155 23.248218,-12.464849 35.101048,-10.978629 6.29833,0.789746 14.37186,3.376969 16.0165,5.132609 3.21911,3.43637 3.00252,7.64399 -0.54722,10.6309 -2.25831,1.90025 -4.15597,1.95765 -8.9137,0.26967 -4.57824,-1.62429 -13.46519,-2.20956 -18.30187,-1.20531 -5.52507,1.14719 -11.82356,4.62397 -16.12791,8.90263 -6.366238,6.32826 -9.618463,14.17437 -9.618463,23.20495 0,14.77283 8.977303,26.84783 23.440893,31.5294 4.2563,1.37768 12.65591,1.49602 17.45532,0.24594 z m 336.9087,-0.026 c 14.23855,-3.70868 24.39185,-16.92459 24.39185,-31.74937 0,-14.77807 -10.23323,-28.04982 -24.45526,-31.71669 -16.80245,-4.33216 -34.67103,5.47046 -39.74212,21.80233 -1.72556,5.55731 -1.72556,14.2714 0,19.82871 3.19501,10.28981 12.20822,18.97586 22.67693,21.85378 4.10139,1.12751 12.76422,1.11802 17.1286,-0.0188 z m 52.475,-24.3567 c 2.99954,-1.85382 3.9939,-4.52388 3.9939,-10.72445 v -5.30435 h -9.09878 -9.09877 v 8.63613 8.63613 h 6.09585 c 5.03508,0 6.44595,-0.21639 8.1078,-1.24346 z M 232.22091,55.249487 C 231.53409,54.48611 223.55164,45.18685 214.48214,34.584465 L 197.99212,15.307394 h -10.43617 c -5.73989,0 -10.43617,0.117777 -10.43617,0.261721 0,0.579388 31.09484,36.54167 32.72898,37.852212 3.18182,2.551762 5.90463,3.126453 15.03147,3.172638 l 8.58945,0.04344 z m 125.6407,0.196366 C 351.44165,52.06478 283.53098,20.76452 280.13645,19.622058 c -10.8775,-3.660926 -12.7068,-3.856307 -38.81709,-4.145862 l -24.32075,-0.269709 0.87982,1.251733 c 0.4839,0.688455 8.37476,10.001212 17.53522,20.69502 l 16.65539,19.443288 53.9758,-0.0068 c 52.81777,-0.0068 53.92948,-0.03119 51.81677,-1.143867 z"
         id="path841"
         transform="translate(27.092612,-96.848004)" />
      <g
         id="g860"
         transform="translate(-9.0175946,-97.690642)">
        <path
           style="fill:#ff0000;stroke-width:1.00611"
           d="m 240.28853,134.72917 c -3.3042,-0.81656 -6.32745,-2.23982 -9.17129,-4.31757 -2.22115,-1.6228 -23.69481,-30.0186 -24.54484,-32.456976 -0.87884,-2.521057 0.32054,-5.791205 2.76301,-7.533382 1.89956,-1.354924 2.46495,-1.404288 18.21576,-1.590343 17.93915,-0.211898 23.26499,0.304066 28.11444,2.723689 4.4843,2.237446 6.76968,4.684972 16.49997,17.670702 l 8.66666,11.56624 h 50.53337 c 54.84643,0 53.18721,-0.10088 55.94195,3.4012 2.5868,3.28857 1.27546,8.5636 -2.58416,10.39511 -1.93006,0.91587 -8.51753,1.00366 -71.73788,0.95601 -53.03382,-0.04 -70.34722,-0.23399 -72.69699,-0.81468 z m 22.12791,-14.70872 c -2.25695,-3.77902 -11.5163,-15.15304 -12.81892,-15.74656 -1.64536,-0.74968 -21.33788,-1.13824 -21.33788,-0.42102 0,1.00354 11.38253,15.19976 12.80679,15.97253 2.27143,1.23245 22.07765,1.41338 21.35001,0.19505 z"
           id="path843" />
        <path
           style="fill:#ff0000;stroke-width:1.00611"
           d="m 128.33816,158.44649 c -7.04451,-2.43156 -11.48488,-10.0626 -9.92114,-17.0501 2.4065,-10.75344 14.76685,-15.7431 23.43821,-9.4616 10.30633,7.46587 7.73779,23.16947 -4.37821,26.76753 -4.05098,1.20302 -4.98844,1.17678 -9.13886,-0.25583 z"
           id="path845" />
        <path
           style="fill:#ff0000;stroke-width:1.00611"
           d="m 466.67845,159.07729 c -6.90834,-1.68183 -11.68044,-7.74862 -11.67685,-14.84484 0.005,-11.06597 11.4337,-18.3256 21.39635,-13.5919 12.27604,5.83289 10.78875,24.20855 -2.27485,28.10597 -3.27225,0.97626 -4.55848,1.03341 -7.44465,0.33077 z"
           id="path847" />
      </g>
    </g>
  </g>
</svg>
