<?xml version="1.0" encoding="UTF-8" standalone="no"?>
<svg
   xmlns:dc="http://purl.org/dc/elements/1.1/"
   xmlns:cc="http://creativecommons.org/ns#"
   xmlns:rdf="http://www.w3.org/1999/02/22-rdf-syntax-ns#"
   xmlns:svg="http://www.w3.org/2000/svg"
   xmlns="http://www.w3.org/2000/svg"
   xmlns:sodipodi="http://sodipodi.sourceforge.net/DTD/sodipodi-0.dtd"
   xmlns:inkscape="http://www.inkscape.org/namespaces/inkscape"
   id="Layer_2"
   version="1.1"
   viewBox="0 0 699.99939 264.60458"
   xml:space="preserve"
   sodipodi:docname="car3.svg"
   inkscape:version="1.0.1 (3bc2e813f5, 2020-09-07)"
   width="699.99939"
   height="264.60458"><metadata
     id="metadata902"><rdf:RDF><cc:Work
         rdf:about=""><dc:format>image/svg+xml</dc:format><dc:type
           rdf:resource="http://purl.org/dc/dcmitype/StillImage" /><dc:title /></cc:Work></rdf:RDF></metadata><defs
     id="defs900" /><sodipodi:namedview
     pagecolor="#ffffff"
     bordercolor="#666666"
     borderopacity="1"
     objecttolerance="10"
     gridtolerance="10"
     guidetolerance="10"
     inkscape:pageopacity="0"
     inkscape:pageshadow="2"
     inkscape:window-width="1920"
     inkscape:window-height="1001"
     id="namedview898"
     showgrid="false"
     inkscape:zoom="0.83"
     inkscape:cx="349.99971"
     inkscape:cy="132.3023"
     inkscape:window-x="-9"
     inkscape:window-y="-9"
     inkscape:window-maximized="1"
     inkscape:current-layer="Layer_2"
     fit-margin-top="0"
     fit-margin-left="0"
     fit-margin-right="0"
     fit-margin-bottom="0"
     inkscape:document-rotation="0" /><path
     style="fill:#ff0000;stroke-width:1.96506;opacity:1"
     d="m 69.08885,263.87674 c -11.77924,-2.48289 -23.54629,-11.98591 -28.79154,-23.25189 -1.60841,-3.45461 -2.92967,-6.89884 -2.93614,-7.65385 -0.008,-0.91056 -4.3724,-1.5377 -12.96358,-1.86268 C 4.98956,230.37413 0,226.60065 0,212.657 c 0,-7.29843 2.28087,-13.05693 5.94934,-15.02023 1.6828,-0.90061 2.53201,-3.11825 3.1279,-8.16825 2.1406,-18.141 3.97187,-25.47859 7.71748,-30.92265 5.17694,-7.52442 11.60439,-10.84717 27.18118,-14.05163 14.32654,-2.94726 20.9488,-5.60883 26.33467,-10.58425 1.8937,-1.74939 9.97436,-11.58431 17.957,-21.8554 25.06573,-32.251493 26.99446,-33.570563 50.88194,-34.798563 13.60165,-0.69923 14.48694,-0.89789 14.83347,-3.32863 0.63263,-4.4378 4.01677,-6.18478 18.16935,-9.37954 16.34213,-3.68902 17.26125,-3.73038 19.82961,-0.89237 1.80326,1.99258 1.99396,8.38753 1.99396,66.867463 v 64.66417 h 10.24097 10.24096 V 115.27023 35.353337 l -3.11483,-1.66701 c -4.6334,-2.47971 -7.0151,-7.94727 -6.95611,-15.96878 0.0595,-8.0859099 2.47715,-12.2993499 8.95176,-15.6008399 3.89119,-1.98417 17.76636,-2.10667 238.80848,-2.10844 258.29873,-0.002 240.53645,-0.54169 245.41235,7.45575 2.38912,3.9186299 2.43159,5.8010399 2.43601,107.9636629 0.005,114.54273 0.37231,108.96356 -7.44016,113.00354 -2.08419,1.07778 -6.95452,2.24659 -10.82298,2.59737 -4.98357,0.45189 -7.03355,1.13785 -7.03355,2.35352 0,3.794 -6.77622,15.20345 -11.75535,19.79305 -16.11417,14.85353 -39.38388,15.05613 -55.51421,0.48335 -4.60717,-4.1623 -12.24852,-17.08368 -12.24852,-20.71201 0,-1.1818 -2.06956,-1.6148 -7.71807,-1.6148 h -7.71807 l -1.83239,5.37777 c -4.55371,13.3644 -15.51961,23.11804 -30.0123,26.69446 -9.36276,2.31049 -17.72937,1.25225 -27.10014,-3.42774 -7.28158,-3.6366 -16.47777,-13.94602 -19.37922,-21.72516 l -2.35606,-6.31692 -41.50559,-0.31659 -41.50559,-0.3166 -1.37545,4.59083 c -0.75649,2.52495 -3.05706,7.1296 -5.11236,10.23255 -11.09219,16.74615 -32.25532,22.99293 -50.20923,14.8204 -11.19756,-5.09708 -23.08092,-19.19429 -23.18521,-27.50457 -0.0224,-1.79012 -1.21447,-2.10843 -7.89559,-2.10843 -6.44012,0 -7.98885,0.38289 -8.52827,2.10843 -2.25313,7.20751 -6.32993,14.05969 -11.17205,18.77775 -11.00379,10.72186 -23.6583,14.52728 -37.19791,11.18605 -14.49269,-3.57642 -25.45859,-13.33006 -30.0123,-26.69446 l -1.83239,-5.37777 H 178.2 c -57.59864,0 -61.33414,0.12836 -61.35899,2.10843 -0.0507,4.03681 -4.69158,12.3444 -10.16474,18.19566 -9.27927,9.92028 -24.7282,14.95148 -37.58742,12.24095 z m 19.90153,-23.25587 c 12.05609,-7.97834 11.56407,-25.83117 -0.94421,-34.26049 -6.22009,-4.19173 -16.26121,-3.85792 -22.62521,0.75214 -7.73309,5.60182 -10.77187,16.06059 -7.13561,24.55908 5.06113,11.82863 19.84349,16.1371 30.70503,8.94927 z m 200.20244,1.253 c 2.95132,-1.49096 6.6372,-4.60843 8.19084,-6.92771 2.39712,-3.57842 2.75998,-5.40356 2.39663,-12.0548 -0.67509,-12.3578 -6.45663,-18.32015 -18.4258,-19.00202 -11.9149,-0.67878 -20.05567,5.70999 -21.76029,17.0772 -1.33926,8.93082 3.44707,17.38221 12.09255,21.35223 6.40935,2.94318 11.03198,2.8257 17.50607,-0.4449 z m 94.59196,0.44619 c 12.06874,-5.48207 15.9808,-18.52048 8.99381,-29.97527 -3.60592,-5.91172 -9.06908,-8.71414 -16.99801,-8.71943 -7.80275,-0.005 -13.13041,2.89916 -17.72493,9.66273 -2.3907,3.51933 -2.77352,5.35084 -2.39712,11.46836 0.54389,8.83973 3.58754,13.66835 10.89598,17.28595 6.27024,3.10371 10.84638,3.17746 17.23027,0.27766 z m 163.90028,-0.0201 c 20.2687,-9.20555 13.90935,-38.67908 -8.34559,-38.67908 -11.99636,0 -20.06236,8.30929 -20.06236,20.66749 0,8.21076 4.07135,14.7067 11.26453,17.97288 6.30069,2.86092 10.90669,2.87133 17.14342,0.0388 z m 98.60155,-1.26858 c 6.10656,-3.77406 9.5214,-11.04896 8.87052,-18.8976 -0.93782,-11.30894 -8.66324,-18.5129 -19.85296,-18.5129 -7.74464,0 -12.37892,2.15147 -16.62476,7.71806 -6.05442,7.93774 -5.48566,18.45788 1.4106,26.09121 2.36016,2.61243 5.98916,5.26975 8.06445,5.90517 5.18243,1.5868 13.55902,0.52245 18.13215,-2.3039 z M 31.23786,193.21741 c 1.82794,-2.32385 2.49708,-4.92271 2.49708,-9.69838 0,-8.79555 -2.5651,-13.63311 -7.22892,-13.63311 -4.66381,0 -7.22891,4.83756 -7.22891,13.63311 0,7.1951 3.18843,12.87291 7.22891,12.87291 1.22911,0 3.35844,-1.42854 4.73184,-3.17453 z m 625.49518,-14.73002 c 2.98368,-3.68483 2.91918,-7.4933 -0.19398,-11.45104 l -2.49708,-3.17453 H 458.01196 c -218.94968,0 -201.38545,-0.73389 -201.38545,8.4146 0,3.6081 0.72153,5.23108 3.18816,7.17133 l 3.18816,2.50782 195.71354,-0.31194 195.71355,-0.31193 z M 176.10995,147.41003 c 1.99301,-1.80365 2.2033,-4.26775 2.2033,-25.81756 0,-20.05138 -0.29978,-24.123373 -1.89329,-25.716883 -1.59638,-1.59639 -5.70573,-1.89258 -26.20482,-1.88878 -21.65692,0.004 -24.71654,0.25148 -28.02077,2.26639 -5.59901,3.41428 -29.42329,34.821323 -29.42329,38.788103 0,2.45164 1.62095,4.55864 6.76492,8.79344 l 6.76492,5.56925 h 33.80286 c 29.76317,0 34.06618,-0.23829 36.00617,-1.99396 z M 656.53906,69.121027 c 3.31249,-4.21115 3.15389,-8.32639 -0.4602,-11.94048 l -2.95728,-2.95728 H 457.28367 c -194.23147,0 -195.85766,0.0198 -198.24753,2.40964 -1.49168,1.49168 -2.40963,4.01606 -2.40963,6.6265 0,2.61044 0.91795,5.13483 2.40963,6.62651 2.38992,2.38992 4.01606,2.40964 198.70774,2.40964 h 196.2981 z"
     id="path1465" /></svg>
