<?xml version="1.0" encoding="UTF-8" standalone="no"?>
<svg
   xmlns:dc="http://purl.org/dc/elements/1.1/"
   xmlns:cc="http://creativecommons.org/ns#"
   xmlns:rdf="http://www.w3.org/1999/02/22-rdf-syntax-ns#"
   xmlns:svg="http://www.w3.org/2000/svg"
   xmlns="http://www.w3.org/2000/svg"
   xmlns:sodipodi="http://sodipodi.sourceforge.net/DTD/sodipodi-0.dtd"
   xmlns:inkscape="http://www.inkscape.org/namespaces/inkscape"
   enable-background="new 0 0 512 512"
   version="1.1"
   viewBox="0 0 259.08777 159.15468"
   xml:space="preserve"
   id="svg16"
   sodipodi:docname="car4.svg"
   inkscape:version="1.0.1 (3bc2e813f5, 2020-09-07)"
   width="259.08777"
   height="159.15468"><metadata
     id="metadata22"><rdf:RDF><cc:Work
         rdf:about=""><dc:format>image/svg+xml</dc:format><dc:type
           rdf:resource="http://purl.org/dc/dcmitype/StillImage" /><dc:title></dc:title></cc:Work></rdf:RDF></metadata><defs
     id="defs20" /><sodipodi:namedview
     pagecolor="#ffffff"
     bordercolor="#666666"
     borderopacity="1"
     objecttolerance="10"
     gridtolerance="10"
     guidetolerance="10"
     inkscape:pageopacity="0"
     inkscape:pageshadow="2"
     inkscape:window-width="1920"
     inkscape:window-height="1001"
     id="namedview18"
     showgrid="false"
     inkscape:zoom="1.6210938"
     inkscape:cx="129.54388"
     inkscape:cy="79.577343"
     inkscape:window-x="-9"
     inkscape:window-y="-9"
     inkscape:window-maximized="1"
     inkscape:current-layer="svg16"
     fit-margin-top="0"
     fit-margin-left="0"
     fit-margin-right="0"
     fit-margin-bottom="0" /><g
     id="Layer_1"
     transform="translate(-126.45612,-176.42266)" /><path
     style="fill:#ff0000;stroke-width:1.00611"
     d="m 51.947261,158.19448 c -9.23442,-2.48558 -17.00678,-8.83278 -21.21472,-17.32475 l -2.55489,-5.15599 h -10.71415 c -11.7267002,0 -13.7897002,-0.43521 -16.1227602,-3.40121 L 0.00343084,130.61242 V 67.603953 c 0,-69.2734899 -0.25832,-64.6281999 3.70801996,-66.67927987 1.55637,-0.80483 12.6687702,-0.92177 87.5883702,-0.92177 94.260769,0 88.332219,-0.24151 90.360639,3.68100997 0.73213,1.41578 0.93574,4.16521 0.93574,12.6353399 v 10.82582 h 24.08847 c 20.2157,0 24.37642,0.1489 25.87951,0.92618 1.19698,0.61898 5.89282,6.80417 14.15732,18.64748 l 12.36627,17.72128 v 32.76974 32.769727 l -1.40931,2.09605 c -1.95236,2.90371 -4.41254,3.56287 -13.44888,3.60339 l -7.76421,0.0348 -2.5549,5.15599 c -5.36879,10.83466 -16.87009,18.28497 -28.22714,18.28497 -10.89027,0 -21.55346,-5.83683 -27.52357,-15.06589 -1.29999,-2.00962 -2.68187,-4.71613 -3.07086,-6.01446 l -0.70726,-2.36061 H 132.32151 90.261371 l -0.70726,2.36061 c -0.38899,1.29833 -1.77087,4.00484 -3.07086,6.01446 -7.44214,11.50463 -22.0433,17.46824 -34.53599,14.10567 z m 14.46935,-14.77189 c 3.79567,-1.58593 6.83673,-4.50237 8.80784,-8.44692 3.48194,-6.96797 2.33444,-14.98187 -2.92705,-20.44191 -3.44355,-3.57349 -6.46792,-4.88827 -12.00503,-5.21891 -4.44448,-0.2654 -5.08225,-0.14248 -8.82787,1.70148 -9.69322,4.77196 -12.88197,16.78607 -6.83912,25.76744 4.72289,7.01956 14.06688,9.86625 21.79123,6.63882 z m 146.826559,-0.65392 c 6.20709,-3.01499 9.75519,-8.87083 9.69425,-15.99951 -0.0633,-7.40209 -3.27577,-12.56118 -9.8312,-15.78842 -3.666,-1.80476 -4.32625,-1.93039 -8.75558,-1.66589 -5.54886,0.33135 -8.59021,1.65728 -11.97081,5.21891 -3.32893,3.5072 -4.40486,6.08921 -4.71503,11.31511 -0.41017,6.9106 2.30115,12.45 7.83047,15.99815 5.41627,3.47561 11.80676,3.80747 17.7479,0.92165 z M 28.618951,117.67037 c 1.16114,-3.98344 4.62689,-9.85523 7.66408,-12.98474 9.59301,-9.884637 24.79138,-12.670727 36.8192,-6.749487 7.8269,3.853137 13.93775,10.631307 16.69257,18.515437 l 1.44968,4.14891 38.581879,0.15885 38.58189,0.15885 V 67.554523 14.190853 H 91.299821 14.191381 v 53.35903 53.359037 h 6.74178 6.74177 z M 244.89982,102.09446 V 83.280003 h -21.621 c -23.731,0 -24.31471,-0.0821 -26.17579,-3.68101 -0.77341,-1.49561 -0.93574,-4.91825 -0.93574,-19.72932 v -17.91979 h -6.78554 -6.78555 v 30.84338 c 0,16.96385 0.10063,30.843367 0.22362,30.843367 0.12298,0 1.30274,-0.86079 2.62169,-1.91287 5.65001,-4.506847 12.37386,-6.769577 20.12256,-6.771697 11.40765,-0.003 21.2291,5.674557 27.29424,15.778547 1.22196,2.03566 2.64654,5.15855 3.16575,6.93976 l 0.94403,3.23855 h 3.96586 3.96587 z m -0.10281,-33.495457 c -0.11309,-0.27117 -4.35785,-6.37816 -9.43278,-13.57108 l -9.22716,-13.07804 h -7.89092 -7.89091 v 13.57109 13.57108 h 17.32369 c 9.52804,0 17.23117,-0.22187 17.11808,-0.49305 z"
     id="path847" /></svg>
