<?xml version="1.0" encoding="UTF-8" standalone="no"?>
<svg
   xmlns:dc="http://purl.org/dc/elements/1.1/"
   xmlns:cc="http://creativecommons.org/ns#"
   xmlns:rdf="http://www.w3.org/1999/02/22-rdf-syntax-ns#"
   xmlns:svg="http://www.w3.org/2000/svg"
   xmlns="http://www.w3.org/2000/svg"
   xmlns:sodipodi="http://sodipodi.sourceforge.net/DTD/sodipodi-0.dtd"
   xmlns:inkscape="http://www.inkscape.org/namespaces/inkscape"
   version="1.1"
   id="svg10"
   width="1306.6667"
   height="1306.6667"
   viewBox="0 0 1306.6667 1306.6667"
   sodipodi:docname="contact.svg"
   inkscape:version="1.0.1 (3bc2e813f5, 2020-09-07)">
  <metadata
     id="metadata16">
    <rdf:RDF>
      <cc:Work
         rdf:about="">
        <dc:format>image/svg+xml</dc:format>
        <dc:type
           rdf:resource="http://purl.org/dc/dcmitype/StillImage" />
        <dc:title></dc:title>
      </cc:Work>
    </rdf:RDF>
  </metadata>
  <defs
     id="defs14" />
  <sodipodi:namedview
     pagecolor="#ffffff"
     bordercolor="#666666"
     borderopacity="1"
     objecttolerance="10"
     gridtolerance="10"
     guidetolerance="10"
     inkscape:pageopacity="0"
     inkscape:pageshadow="2"
     inkscape:window-width="1920"
     inkscape:window-height="1001"
     id="namedview12"
     showgrid="false"
     inkscape:zoom="0.61301017"
     inkscape:cx="857.25978"
     inkscape:cy="512.32612"
     inkscape:window-x="-9"
     inkscape:window-y="-9"
     inkscape:window-maximized="1"
     inkscape:current-layer="g18"
     inkscape:document-rotation="0" />
  <g
     inkscape:groupmode="layer"
     inkscape:label="Image"
     id="g18">
    <path
       style="display:inline;fill:#ff0000;stroke:#ff0000;stroke-width:1.63129;stroke-opacity:1"
       d="m 636.20478,1304.6447 c -26.53096,-0.7476 -61.28123,-3.5056 -78.30212,-6.2145 -19.81145,-3.1531 -58.71867,-11.1898 -71.77695,-14.8265 -27.00641,-7.521 -38.6375,-11.2916 -63.62048,-20.6244 -19.64938,-7.3404 -63.78428,-27.5844 -80.54195,-36.9434 -9.75541,-5.4483 -18.06281,-9.906 -18.4609,-9.906 -0.39808,0 -3.12986,-1.8352 -6.07063,-4.0782 -2.94077,-2.2431 -5.82098,-4.0783 -6.4005,-4.0783 -0.5795,0 -5.87869,-3.3033 -11.776,-7.3408 -5.89731,-4.0374 -11.04972,-7.3408 -11.44979,-7.3408 -0.40008,0 -6.98108,-4.7715 -14.62446,-10.6034 -7.64336,-5.8319 -14.30934,-10.6034 -14.81328,-10.6034 -0.50392,0 -2.86904,-1.781 -5.25578,-3.9578 -2.38675,-2.1767 -9.11109,-7.7253 -14.94297,-12.33 -12.31785,-9.7261 -42.31378,-37.4967 -54.43482,-50.3966 -4.60352,-4.8993 -9.7711,-10.3681 -11.48353,-12.1528 -30.60226,-31.8947 -73.523655,-93.0685 -96.285131,-137.23057 -3.721764,-7.22101 -7.539126,-14.59728 -8.483024,-16.3917 -0.943898,-1.79443 -3.268796,-6.76609 -5.16644,-11.04816 -1.897644,-4.28205 -4.901168,-10.88879 -6.674499,-14.68165 -1.773333,-3.79284 -5.154536,-12.03466 -7.513787,-18.31514 -2.359252,-6.28048 -6.010863,-15.82355 -8.114695,-21.20683 -3.87128,-9.9058 -13.969706,-41.85062 -17.01765,-53.83271 -28.8860444,-113.55691 -28.8860444,-220.85842 0,-334.41533 3.418002,-13.43686 13.307206,-44.37935 17.108933,-53.53241 2.167341,-5.21812 3.965528,-10.3567 3.995971,-11.41906 0.03045,-1.06238 1.473702,-4.86793 3.207237,-8.45678 1.733536,-3.58885 3.176793,-7.18591 3.207237,-7.99349 0.03044,-0.80755 2.012611,-5.57909 4.404816,-10.60341 2.392205,-5.0243 5.811343,-12.43847 7.598082,-16.47593 1.786738,-4.03745 4.020897,-8.80898 4.964795,-10.60341 0.943898,-1.79442 4.778744,-9.13525 8.521881,-16.31294 18.018853,-34.55227 42.464264,-72.17295 65.719564,-101.14025 12.56048,-15.6456 25.81816,-31.36958 30.34462,-35.98958 1.81258,-1.85004 7.0521,-7.35565 11.64338,-12.23471 15.01951,-15.96093 47.33364,-45.50623 61.79788,-56.50273 4.48606,-3.41055 8.74351,-7.1186 9.46101,-8.24011 0.71749,-1.12152 1.98146,-2.03912 2.80884,-2.03912 0.82738,0 7.758,-4.77153 15.40136,-10.60341 7.64338,-5.83188 14.22438,-10.60341 14.62446,-10.60341 0.40007,0 5.55248,-3.30338 11.44979,-7.34083 5.89731,-4.03745 11.1965,-7.340824 11.776,-7.340824 0.57952,0 3.45973,-1.835206 6.4005,-4.078236 2.94077,-2.243029 5.67255,-4.078235 6.07063,-4.078235 0.39809,0 8.70549,-4.457695 18.4609,-9.905988 39.96039,-22.317444 91.5263,-42.909068 144.16243,-57.567844 13.35906,-3.720402 52.25313,-11.737216 72.03164,-14.8471073 50.629,-7.96069264 139.55468,-7.96586874 190.35205,-0.01108 66.90406,10.4770703 122.97222,27.4347433 181.01541,54.7476463 7.45417,3.507651 13.87628,6.377546 14.27133,6.377546 0.39505,0 9.24543,4.771536 19.66747,10.603414 10.42205,5.831877 19.28115,10.603413 19.68687,10.603413 0.40572,0 3.14375,1.835206 6.08452,4.078235 2.94076,2.24303 5.82098,4.078236 6.4005,4.078236 0.5795,0 5.8787,3.303374 11.776,7.340824 5.8973,4.03745 11.0497,7.34083 11.4498,7.34083 0.4001,0 6.9811,4.77153 14.6244,10.60341 7.6434,5.83188 14.3235,10.60341 14.8447,10.60341 0.5212,0 2.5193,1.43496 4.4402,3.18879 1.9208,1.75384 8.631,7.33218 14.9115,12.39632 13.5565,10.93096 43.5629,38.71779 55.2865,51.19685 4.5837,4.87906 9.817,10.38467 11.6296,12.23471 10.0687,10.27676 37.559,44.45176 50.5627,62.8578 20.787,29.42292 34.0551,51.77012 50.8768,85.69109 15.7297,31.71892 17.3856,35.32036 22.5013,48.93883 2.3593,6.28048 6.0109,15.82355 8.1147,21.20682 3.8713,9.90581 13.9697,41.85063 17.0177,53.83272 16.3376,64.22647 22.2359,114.57263 20.9338,178.68234 -0.4459,21.9511 -1.6698,47.986 -2.7199,57.85533 -5.1388,48.29793 -19.7759,111.19524 -35.3051,151.71037 -2.0634,5.38328 -5.6819,14.92635 -8.0412,21.20683 -5.0085,13.33289 -6.5386,16.66592 -22.0922,48.12318 -21.0079,42.48845 -41.8262,75.62264 -69.6965,110.92804 -11.3484,14.3759 -26.923,32.9762 -32.3342,38.616 -1.7124,1.7847 -6.8614,7.2232 -11.4421,12.0856 -12.2226,12.9741 -42.2774,40.8095 -54.4762,50.4534 -5.8319,4.6105 -12.5562,10.1637 -14.943,12.3404 -2.3867,2.1768 -4.7519,3.9578 -5.2558,3.9578 -0.5039,0 -7.1699,4.7715 -14.8133,10.6034 -7.6433,5.8319 -14.2243,10.6034 -14.6244,10.6034 -0.4001,0 -5.5525,3.3034 -11.4498,7.3408 -5.8973,4.0375 -11.1965,7.3408 -11.776,7.3408 -0.57952,0 -3.45974,1.8352 -6.4005,4.0783 -2.94077,2.243 -5.67255,4.0782 -6.07064,4.0782 -0.39808,0 -8.70548,4.4577 -18.4609,9.906 -39.96038,22.3174 -91.52629,42.9091 -144.16242,57.5678 -13.08128,3.6431 -51.99096,11.6781 -71.77695,14.8224 -25.84538,4.1071 -80.44494,7.1236 -112.55931,6.2186 z m 73.79208,-87.7304 c 30.4375,-2.8429 53.13404,-6.8845 84.44347,-15.0371 33.64669,-8.7611 46.84024,-12.8846 63.62048,-19.8836 4.03745,-1.684 12.11236,-5.0394 17.94424,-7.4565 40.95325,-16.9734 87.13487,-44.1954 125.60965,-74.0412 30.5764,-23.7188 60.8533,-52.9252 85.5945,-82.5682 15.967,-19.13045 36.7526,-47.14889 36.7526,-49.54161 0,-0.7946 1.1548,-2.4031 2.5662,-3.57446 1.4114,-1.17135 4.0101,-4.74812 5.7748,-7.94838 1.7648,-3.20027 6.1279,-10.5902 9.6958,-16.42208 12.3126,-20.12549 33.6991,-64.37244 40.6066,-84.01165 13.361,-37.98828 18.3854,-55.29215 25.1041,-86.4586 8.9573,-41.55059 10.0519,-54.25161 10.0519,-116.63755 0,-62.38593 -1.0946,-75.08696 -10.0519,-116.63754 -6.7187,-31.16645 -11.7431,-48.47032 -25.1041,-86.4586 -6.8672,-19.5247 -28.1794,-63.6519 -40.5753,-84.01166 -3.5507,-5.83187 -8.4512,-14.0903 -10.8899,-18.35206 -2.4388,-4.26175 -5.0516,-7.74864 -5.8062,-7.74864 -0.7546,0 -1.372,-0.74001 -1.372,-1.64446 0,-2.56662 -20.2246,-29.93877 -36.7526,-49.74132 -16.5339,-19.8096 -33.6509,-37.52967 -54.6502,-56.57547 -12.4616,-11.30237 -17.9538,-15.91575 -30.9443,-25.99278 -38.47478,-29.84579 -84.6564,-57.06775 -125.60965,-74.04119 -5.83188,-2.41707 -13.90679,-5.7725 -17.94424,-7.45651 -23.48204,-9.79431 -69.90483,-22.73387 -104.40284,-29.10051 -59.3739,-10.957518 -141.92436,-10.93813 -200.6492,0.04713 -35.8372,6.70382 -80.85361,19.23106 -104.40283,29.05338 -4.03746,1.68401 -12.11236,5.03944 -17.94424,7.45652 -39.41282,16.33498 -91.90694,47.1242 -123.16272,72.23829 -0.89721,0.7209 -5.66875,4.48516 -10.60341,8.365 -24.59137,19.33475 -55.26987,49.44598 -77.43803,76.00614 -16.528,19.80255 -36.75258,47.1747 -36.75258,49.74132 0,0.90445 -0.59891,1.64446 -1.3309,1.64446 -0.732,0 -3.04596,3.11985 -5.14214,6.933 -2.09616,3.81315 -4.6171,7.94631 -5.60209,9.18479 -8.3703,10.52459 -38.84464,72.03482 -46.56823,93.99457 -18.05151,51.32422 -26.661129,85.43459 -32.605157,129.17806 -4.859214,35.76005 -4.859214,112.07611 0,147.83617 5.944028,43.74347 14.553647,77.85383 32.605157,129.17806 7.58024,21.5522 38.35328,83.66531 46.56823,93.99457 0.98499,1.23848 3.50593,5.37164 5.60209,9.18479 2.09618,3.81315 4.41014,6.933 5.14214,6.933 0.73199,0 1.3309,0.74532 1.3309,1.65627 0,4.94542 42.27211,57.87455 63.16783,79.09285 16.53382,16.789 37.93224,36.3505 51.02278,46.6428 4.93466,3.8798 9.7062,7.6441 10.60341,8.365 31.25578,25.1141 83.7499,55.9033 123.16272,72.2383 5.83188,2.4171 13.90678,5.7725 17.94424,7.4565 35.96377,15.0004 100.79506,30.5503 145.18519,34.8229 31.14355,2.9977 84.67644,3.0427 116.20573,0.098 z"
       id="path22" />
    <path
       style="fill:#ff0000;stroke-width:2.66064;stroke-miterlimit:4;stroke-dasharray:none"
       d=""
       id="path946" />
    <path
       style="fill:#ff0000;stroke-width:2.66064;stroke-miterlimit:4;stroke-dasharray:none"
       d=""
       id="path948" />
    <path
       style="fill:#ff0000;stroke-width:2.66064;stroke-miterlimit:4;stroke-dasharray:none"
       d=""
       id="path952" />
    <g
       id="g2158"
       transform="translate(-38.899357)">
      <g
         id="g2117"
         transform="translate(-823.80362,-7.5310189)">
        <path
           style="fill:#ffffff;stroke-width:1.53646"
           d="m 1560.3051,904.10217 c 0,-0.96701 -0.9692,-1.41303 -3.0706,-1.41303 -2.0502,0 -3.4615,-0.62604 -4.2472,-1.88408 -0.6509,-1.04234 -2.1966,-1.88407 -3.4601,-1.88407 -1.4564,0 -2.5003,-0.68261 -2.8815,-1.88407 -0.3301,-1.03623 -1.1874,-1.88408 -1.9078,-1.88408 -1.6277,0 -8.9257,-6.83721 -8.9257,-8.362 0,-0.6146 -0.636,-1.36146 -1.413,-1.65969 -0.7773,-0.29816 -1.4129,-1.08335 -1.4129,-1.74465 0,-0.66131 -0.848,-1.42412 -1.8842,-1.6951 -1.4432,-0.37739 -1.8842,-1.28494 -1.8842,-3.87799 0,-2.27196 -0.4333,-3.3853 -1.3174,-3.3853 -0.94,0 -1.5071,-1.88912 -1.9797,-6.59424 -0.4723,-4.70516 -1.0394,-6.59424 -1.9798,-6.59424 -2.0228,0 -1.9762,-400.17082 0.049,-400.94719 0.9125,-0.35018 1.5763,-2.67895 2.0058,-7.03567 0.4507,-4.57575 1.0255,-6.51226 1.9328,-6.51226 0.7103,0 1.2913,-0.63587 1.2913,-1.41303 0,-0.7772 0.848,-2.26091 1.8842,-3.29714 1.0363,-1.03623 1.8842,-2.68247 1.8842,-3.65827 0,-0.98194 0.8413,-1.99419 1.8838,-2.26688 1.0363,-0.27106 1.8842,-1.16825 1.8842,-1.99396 0,-0.82567 0.6359,-1.50122 1.413,-1.50122 0.7773,0 1.4129,-0.63587 1.4129,-1.41307 0,-0.78501 0.8375,-1.41306 1.8842,-1.41306 1.2562,0 1.8842,-0.62801 1.8842,-1.88404 0,-1.47808 0.6279,-1.88407 2.9142,-1.88407 2.1222,0 3.0483,-0.51219 3.4069,-1.88407 0.3128,-1.19873 1.2851,-1.88408 2.6706,-1.88408 1.1979,0 2.8141,-0.63586 3.5911,-1.41306 0.7944,-0.7944 3.0963,-1.41303 5.2578,-1.41303 2.6789,0 4.3337,-0.5713 5.4579,-1.88407 1.5947,-1.86288 2.7787,-1.88408 105.2718,-1.88408 102.6386,0 103.6704,0.0174 104.8356,1.88408 0.9803,1.56972 2.1969,1.88407 7.2917,1.88407 4.8077,0 6.1154,0.30198 6.1154,1.41303 0,0.98692 0.9942,1.41306 3.2971,1.41306 2.3888,0 3.2972,0.41357 3.2972,1.50123 0,0.82571 0.8479,1.72297 1.8838,1.99395 1.0363,0.27106 1.8842,1.11883 1.8842,1.88408 0,0.76524 0.8479,1.61308 1.8842,1.88407 1.0362,0.27105 1.8841,1.02966 1.8841,1.68599 0,0.65634 0.8476,1.41501 1.8839,1.686 1.0362,0.27105 1.8841,1.16828 1.8841,1.99395 0,0.82568 0.636,1.50123 1.413,1.50123 0.785,0 1.413,0.83739 1.413,1.88407 0,1.25606 0.6283,1.88408 1.8841,1.88408 1.5252,0 1.8842,0.62801 1.8842,3.29713 0,2.22891 0.4358,3.29711 1.3452,3.29711 0.924,0 1.5478,1.62195 1.9926,5.18121 0.434,3.47422 1.0773,5.18117 1.952,5.18117 1.9383,0 1.9613,406.50523 0.035,407.24903 -0.7197,0.27592 -1.504,2.4642 -1.7886,4.98915 -0.285,2.54138 -1.1631,4.97722 -2.0155,5.60061 -0.8299,0.60675 -1.5086,2.43418 -1.5086,4.06092 0,2.32975 -0.3999,2.95777 -1.8841,2.95777 -1.5127,0 -1.8842,0.62801 -1.8842,3.18725 0,2.39498 -0.4681,3.30972 -1.8839,3.67995 -1.0362,0.27105 -1.8841,1.16825 -1.8841,1.99392 0,0.82571 -0.636,1.50126 -1.413,1.50126 -0.7774,0 -1.4133,0.63587 -1.4133,1.41303 0,0.93834 -0.9383,1.41306 -2.7929,1.41306 -1.7893,0 -3.1404,0.64949 -3.7604,1.80752 -0.532,0.99411 -2.2424,2.08757 -3.801,2.4299 -1.5589,0.3423 -2.8339,1.22465 -2.8339,1.96067 0,0.93319 -1.1405,1.33821 -3.7684,1.33821 -2.7213,0 -3.768,0.3925 -3.768,1.41303 0,1.2481 -13.0314,1.41306 -111.6311,1.41306 -98.5996,0 -111.631,-0.16507 -111.631,-1.41306 z m 120.5804,-10.8334 c 1.1662,-1.16633 3.1401,-1.88407 5.1813,-1.88407 2.3026,0 3.2972,-0.42615 3.2972,-1.41303 0,-0.7772 0.6755,-1.41307 1.5012,-1.41307 0.8257,0 1.7229,-0.84781 1.994,-1.88407 0.271,-1.03623 1.079,-1.88407 1.7955,-1.88407 0.717,0 1.3035,-0.84781 1.3035,-1.88408 0,-1.25602 0.628,-1.88403 1.8839,-1.88403 1.0362,0 1.8841,-0.53391 1.8841,-1.18646 0,-0.65255 0.848,-1.71595 1.8842,-2.36307 1.1729,-0.73248 1.8839,-2.19683 1.8839,-3.87939 0,-1.48652 0.6359,-3.23052 1.4133,-3.87552 1.023,-0.84931 1.4129,-3.09746 1.4129,-8.15218 0,-5.33498 -0.3336,-7.10726 -1.4129,-7.52174 -0.9143,-0.35073 -1.4133,-1.81015 -1.4133,-4.13254 0,-4.50541 -0.7719,-6.5705 -2.4559,-6.5705 -0.7217,0 -1.3122,-0.84781 -1.3122,-1.88407 0,-1.25603 -0.6279,-1.88404 -1.8841,-1.88404 -1.0363,0 -1.8915,-0.52991 -1.9002,-1.17756 0,-1.37918 -4.0616,-5.41668 -5.4235,-5.41668 -0.514,0 -1.1565,-0.84785 -1.4276,-1.88408 -0.4118,-1.57489 -1.2847,-1.88407 -5.3206,-1.88407 -3.4223,0 -4.9857,-0.41134 -5.37,-1.41306 -0.4038,-1.05215 -2.0806,-1.41307 -6.5648,-1.41307 -4.7254,0 -6.0223,0.30442 -6.0223,1.41307 0,1.08762 -1.2135,1.41306 -5.2695,1.41306 -4.477,0 -5.3433,0.28322 -5.762,1.88407 -0.2711,1.03623 -0.9136,1.88408 -1.4276,1.88408 -1.3619,0 -5.4044,4.0375 -5.4235,5.41668 0,0.64765 -0.8639,1.17756 -1.9002,1.17756 -1.2562,0 -1.8842,0.62801 -1.8842,1.88404 0,1.03626 -0.5862,1.88407 -1.3031,1.88407 -1.4727,0 -2.4329,2.81963 -2.452,7.19998 0,1.75348 -0.589,3.18193 -1.4258,3.50306 -1.0804,0.41448 -1.4133,2.18676 -1.4133,7.52174 0,5.05472 0.3899,7.30287 1.4133,8.15218 0.777,0.645 1.4129,2.389 1.4129,3.87552 0,1.68256 0.711,3.14691 1.8839,3.87939 1.0362,0.64712 1.8841,1.71052 1.8841,2.36307 0,0.65255 0.848,1.18646 1.8842,1.18646 1.2559,0 1.8842,0.62801 1.8842,1.88403 0,1.04673 0.6279,1.88408 1.413,1.88408 0.777,0 1.4129,0.67558 1.4129,1.50126 0,0.82567 0.8479,1.72293 1.8842,1.99392 1.0363,0.27105 1.8838,1.07914 1.8838,1.79587 0,0.86133 1.1179,1.30319 3.2972,1.30319 2.0412,0 4.015,0.71774 5.1813,1.88407 1.5492,1.54911 3.14,1.88407 8.9493,1.88407 5.8093,0 7.4001,-0.33499 8.9493,-1.88407 z m 81.7216,-85.37684 c 1.1655,-0.31241 2.1195,-1.15445 2.1195,-1.87121 0,-0.71674 0.8757,-1.30319 1.946,-1.30319 3.2446,0 5.5903,-1.79247 5.5903,-4.27227 0,-1.69392 0.5095,-2.32197 1.8842,-2.32197 1.8769,0 1.8838,-0.62801 1.8838,-171.92123 0,-171.29325 0,-171.92126 -1.8838,-171.92126 -1.2562,0 -1.8842,-0.62805 -1.8842,-1.88407 0,-1.03623 -0.4239,-1.88408 -0.9421,-1.88408 -0.5181,0 -1.79,-0.84784 -2.8262,-1.88407 -1.8592,-1.85919 -3.1401,-1.88407 -97.0213,-1.88407 -94.1175,0 -95.1503,0.0208 -96.3144,1.88407 -0.6471,1.03623 -1.7104,1.88407 -2.363,1.88407 -0.6523,0 -1.1864,0.84785 -1.1864,1.88408 0,1.25602 -0.628,1.88407 -1.8839,1.88407 -1.8772,0 -1.8841,0.62801 -1.8841,171.92126 0,171.29322 0,171.92123 1.8841,171.92123 1.0638,0 1.8839,0.62805 1.8839,1.44264 0,0.79343 0.6359,1.68662 1.4129,1.98485 0.7774,0.29816 1.4133,1.13277 1.4133,1.8545 0,0.77174 0.9699,1.31225 2.3551,1.31225 1.4116,0 2.355,0.53843 2.355,1.34402 0,0.73918 0.742,1.53782 1.6486,1.77478 2.501,0.65355 179.3795,0.70766 181.8127,0.0556 z"
           id="path2029" />
        <path
           style="fill:#ffffff;stroke-width:1.53646"
           d="m 1559.9645,904.10217 c -0.3023,-0.79201 -1.7052,-1.41303 -3.1887,-1.41303 -1.4803,0 -3.3569,-0.82999 -4.2594,-1.88408 -0.8871,-1.03626 -2.3633,-1.88407 -3.2797,-1.88407 -0.9167,0 -2.1963,-0.84784 -2.8433,-1.88407 -0.6474,-1.03623 -1.6156,-1.88408 -2.1518,-1.88408 -1.2395,0 -8.4294,-6.61119 -8.4294,-7.75084 0,-0.46969 -1.4835,-2.2533 -3.2972,-3.96355 -2.1642,-2.04135 -3.2971,-3.97151 -3.2971,-5.61851 0,-1.37991 -0.6192,-2.74655 -1.3761,-3.037 -0.8816,-0.33847 -1.6045,-2.54919 -2.0124,-6.15499 -0.3503,-3.09482 -1.2149,-6.20492 -1.9214,-6.91137 -1.9398,-1.93992 -1.9182,-400.08471 0.035,-401.69488 0.7186,-0.59621 1.6002,-3.82746 1.9592,-7.18058 0.4639,-4.33292 1.0401,-6.09661 1.9909,-6.09661 0.736,0 1.3382,-0.78214 1.3382,-1.73806 0,-0.95595 0.8476,-2.50534 1.8838,-3.44312 1.0363,-0.93778 1.8842,-2.4872 1.8842,-3.44312 0,-0.95596 0.6075,-1.73809 1.3497,-1.73809 0.7423,0 1.6187,-0.84781 1.9475,-1.88404 0.3301,-1.03626 1.2051,-1.88407 1.9474,-1.88407 0.7423,0 1.3497,-0.58645 1.3497,-1.30318 0,-0.71677 0.8479,-1.5249 1.8842,-1.79588 1.0362,-0.27105 1.8838,-1.16828 1.8838,-1.99395 0,-0.97194 0.8278,-1.50123 2.3474,-1.50123 1.3268,0 2.8582,-0.81897 3.5237,-1.88407 0.6471,-1.03623 1.8279,-1.88408 2.6244,-1.88408 0.7961,0 2.2841,-0.5739 3.3058,-1.27531 1.022,-0.70144 3.693,-1.51332 5.9351,-1.80425 2.2421,-0.29086 4.8192,-1.2007 5.7265,-2.02179 1.4846,-1.34346 12.0324,-1.49289 105.3878,-1.49289 96.1282,0 103.8032,0.11607 104.623,1.58091 0.6376,1.1392 2.559,1.69861 6.8767,2.00209 3.7107,0.26098 6.2784,0.91415 6.7451,1.71619 0.4143,0.71228 2.0041,1.29505 3.5324,1.29505 1.9151,0 2.7794,0.46684 2.7794,1.50123 0,0.82571 0.8479,1.72297 1.8842,1.99395 1.0362,0.27106 1.8841,1.07915 1.8841,1.79588 0,0.71677 0.3851,1.30318 0.8556,1.30318 1.217,0 9.0192,7.73281 9.766,9.67912 0.344,0.89389 1.2729,1.62529 2.0662,1.62529 0.9783,0 1.4425,0.91932 1.4425,2.85566 0,1.65104 0.5877,3.08116 1.3932,3.3902 0.8361,0.3211 1.642,2.4118 2.0159,5.23184 0.344,2.59928 1.1954,4.9169 1.9043,5.18893 1.9245,0.73848 1.9148,406.49223 0,408.08947 -0.71,0.58923 -1.5221,2.7936 -1.8042,4.89862 -0.2815,2.10502 -1.1854,4.56964 -2.0062,5.47694 -0.8212,0.90727 -1.4929,2.73254 -1.4929,4.05616 0,1.61427 -0.6203,2.56873 -1.8842,2.89924 -1.3518,0.35348 -1.8841,1.28494 -1.8841,3.2971 0,2.01217 -0.5321,2.94362 -1.8839,3.29714 -1.0362,0.27105 -1.8841,1.16825 -1.8841,1.99392 0,0.82571 -0.636,1.50126 -1.413,1.50126 -0.7774,0 -1.4133,0.63587 -1.4133,1.41303 0,0.87328 -0.8855,1.41306 -2.3182,1.41306 -1.275,0 -3.0768,0.76115 -4.0036,1.69145 -0.9268,0.93031 -2.851,2.19298 -4.2761,2.80594 -1.4248,0.61293 -2.5903,1.54745 -2.5903,2.07666 0,0.52922 -1.4971,0.96225 -3.3267,0.96225 -2.0882,0 -3.5286,0.52612 -3.8691,1.41303 -0.4778,1.24504 -13.7922,1.41306 -111.9717,1.41306 -98.1795,0 -111.4941,-0.16785 -111.972,-1.41306 z m 120.2361,-10.8334 c 1.3174,-1.03623 3.7193,-1.88407 5.3377,-1.88407 1.7465,0 3.163,-0.57429 3.4848,-1.41303 0.2988,-0.7772 1.1043,-1.41307 1.791,-1.41307 0.687,0 1.5179,-0.84781 1.847,-1.88407 0.3301,-1.03623 1.2052,-1.88407 1.9474,-1.88407 0.7423,0 1.3497,-0.84781 1.3497,-1.88408 0,-1.25602 0.628,-1.88403 1.8839,-1.88403 1.0362,0 1.8841,-0.54166 1.8841,-1.2037 0,-0.66203 0.848,-1.92963 1.8842,-2.81688 1.0363,-0.88725 1.8839,-2.41673 1.8839,-3.39882 0,-0.98208 0.6335,-2.99981 1.4074,-4.48387 1.8772,-3.59981 1.881,-12.91728 0,-14.47373 -0.8115,-0.67343 -1.413,-2.72781 -1.413,-4.8255 0,-2.28099 -0.6464,-4.29893 -1.7205,-5.37331 -0.9466,-0.94629 -1.993,-2.43001 -2.3259,-3.29714 -0.3336,-0.86713 -1.2538,-1.57656 -2.0471,-1.57656 -0.7937,0 -1.4429,-0.40467 -1.4429,-0.89924 0,-1.04106 -4.4685,-5.695 -5.4683,-5.695 -0.3698,0 -1.202,-0.84785 -1.8491,-1.88408 -0.8851,-1.41706 -2.1969,-1.88407 -5.2925,-1.88407 -2.5094,0 -4.5735,-0.55156 -5.2887,-1.41306 -0.7777,-0.93733 -2.8881,-1.41307 -6.268,-1.41307 -3.6603,0 -5.2484,0.39804 -5.6376,1.41307 -0.3798,0.98917 -1.9227,1.41306 -5.1438,1.41306 -3.581,0 -4.8623,0.41774 -5.7779,1.88407 -0.6471,1.03623 -1.4794,1.88408 -1.8495,1.88408 -0.9994,0 -5.4683,4.65394 -5.4683,5.695 0,0.49457 -0.6492,0.89924 -1.4425,0.89924 -0.7934,0 -1.7209,0.74182 -2.0611,1.64853 -0.3405,0.90671 -1.218,2.09828 -1.9502,2.64789 -0.7325,0.54962 -1.5551,2.98035 -1.8279,5.4016 -0.271,2.42128 -1.0776,4.88493 -1.7882,5.47478 -1.7567,1.45776 -1.6733,10.92257 0.1251,14.37344 0.7739,1.48406 1.407,3.50179 1.407,4.48387 0,0.98209 0.8479,2.51157 1.8842,3.39882 1.0363,0.88725 1.8838,2.15485 1.8838,2.81688 0,0.66204 0.848,1.2037 1.8842,1.2037 1.2563,0 1.8842,0.62801 1.8842,1.88403 0,1.03627 0.6071,1.88408 1.3494,1.88408 0.7422,0 1.6186,0.84784 1.9477,1.88407 0.3302,1.03626 1.16,1.88407 1.8467,1.88407 0.687,0 1.4929,0.63587 1.791,1.41307 0.3232,0.83874 1.7382,1.41303 3.4848,1.41303 1.6184,0 4.0207,0.84784 5.3377,1.88407 1.8133,1.42616 3.8219,1.88407 8.2644,1.88407 4.4429,0 6.4514,-0.45791 8.2644,-1.88407 z m 83.9995,-86.90267 c 0.6627,-0.90671 1.9728,-1.64857 2.9114,-1.64857 2.2845,0 5.1514,-2.70241 5.1514,-4.85615 0,-0.95592 0.5863,-1.73809 1.3032,-1.73809 0.7169,0 1.5589,-0.9538 1.8713,-2.11957 0.7423,-2.77053 0.7423,-336.83282 0,-339.60334 -0.3128,-1.16578 -1.1544,-2.11958 -1.8713,-2.11958 -0.7169,0 -1.3032,-0.84785 -1.3032,-1.88407 0,-1.03623 -0.4966,-1.88408 -1.1033,-1.88408 -0.6071,0 -1.9231,-0.74185 -2.9253,-1.64857 -1.7094,-1.54706 -7.6584,-1.64856 -96.6324,-1.64856 h -94.8111 l -2.5907,2.46312 c -1.4247,1.35472 -2.5906,2.94438 -2.5906,3.53264 0,0.58822 -0.5863,1.06952 -1.3032,1.06952 -0.7165,0 -1.5589,0.9538 -1.8713,2.11958 -0.7423,2.77052 -0.7423,336.83281 0,339.60334 0.3128,1.16577 1.1548,2.11957 1.8713,2.11957 0.7169,0 1.3032,0.4021 1.3032,0.89351 0,1.4882 4.356,5.70073 5.8951,5.70073 0.7916,0 1.6711,0.60303 1.954,1.34002 0.2815,0.73699 1.4939,1.53125 2.6911,1.76505 1.1975,0.23387 42.3776,0.37267 91.5112,0.30859 83.9147,-0.10947 89.407,-0.2165 90.5392,-1.76509 z"
           id="path2031" />
        <path
           style="fill:#ff0000;stroke-width:1.53646"
           d="m 1516.4919,661.05733 c 0,-108.28686 0.1112,-152.72583 0.2432,-98.75332 0.1356,53.97255 0.1356,142.57091 0,196.88516 -0.1355,54.31432 -0.2432,10.155 -0.2432,-98.13184 z"
           id="path2033" />
        <path
           style="fill:#ffffff;stroke-width:1.53646"
           d="m 1518.3757,660.58632 c 0,-106.99157 0.1112,-150.76082 0.2433,-97.26505 0.1355,53.49577 0.1355,141.03434 0,194.53007 -0.1356,53.49577 -0.2433,9.72649 -0.2433,-97.26502 z"
           id="path2037" />
        <path
           style="fill:#ff0000;stroke-width:1.53646"
           d="m 1559.9645,904.10217 c -0.2988,-0.77717 -1.6544,-1.41303 -3.0139,-1.41303 -1.3594,0 -3.5494,-0.84785 -4.8668,-1.88408 -1.3174,-1.03626 -2.959,-1.88407 -3.6481,-1.88407 -0.6891,0 -1.7066,-0.84784 -2.2612,-1.88407 -0.5543,-1.03623 -1.5753,-1.88408 -2.2682,-1.88408 -0.6929,0 -3.0497,-2.01359 -5.2369,-4.47466 -2.1876,-2.46107 -5.2091,-5.84091 -6.7145,-7.51082 -1.5051,-1.66987 -2.737,-4.08632 -2.737,-5.36987 0,-1.28355 -0.6314,-2.68712 -1.4032,-3.11901 -0.7927,-0.44369 -1.6611,-2.82011 -1.9968,-5.46348 -0.3266,-2.57304 -1.1787,-5.61716 -1.8939,-6.7647 -1.9582,-3.14194 -1.9453,-399.67475 0,-402.78597 0.7225,-1.14754 1.6006,-4.52394 1.9519,-7.50311 0.3514,-2.9792 1.0089,-5.41671 1.4613,-5.41671 0.7635,0 1.7348,-1.49616 4.8835,-7.52334 1.5103,-2.89086 7.405,-8.8926 9.5384,-9.71119 0.867,-0.33291 1.5766,-1.25415 1.5766,-2.04761 0,-0.81692 0.8208,-1.4426 1.8932,-1.4426 1.0411,0 2.6192,-0.84785 3.5063,-1.88407 0.8872,-1.03623 2.1699,-1.88408 2.8503,-1.88408 0.68,0 2.1757,-0.58992 3.3232,-1.31093 1.1474,-0.72104 4.0651,-1.58963 6.4841,-1.93026 2.4186,-0.34055 4.9078,-1.23437 5.5319,-1.98617 0.9786,-1.17933 15.3588,-1.36688 104.804,-1.36688 95.495,0 103.807,0.12406 105.4073,1.57226 1.0269,0.92933 3.9463,1.74997 7.1395,2.00685 3.1779,0.25576 5.7123,0.96575 6.1554,1.72484 0.4142,0.70968 1.7431,1.29029 2.9531,1.29029 1.4814,0 4.6444,2.41194 9.6864,7.38656 4.1176,4.06262 7.7563,8.0898 8.0861,8.94932 0.3301,0.85952 1.2489,1.56277 2.0423,1.56277 0.9695,0 1.4425,0.91151 1.4425,2.77928 0,1.52864 0.6317,3.13277 1.4035,3.56475 0.7722,0.43199 1.7946,2.87815 2.2724,5.4359 0.4778,2.55778 1.3299,4.8042 1.8936,4.9921 0.7342,0.24464 1.0164,57.93585 0.9949,203.50702 -0.035,177.14529 -0.2085,203.39958 -1.413,204.994 -0.7607,1.00572 -1.3831,2.70766 -1.3831,3.78208 0,1.07442 -0.8479,3.53536 -1.8842,5.46874 -1.0362,1.93339 -1.8841,4.31519 -1.8841,5.29286 0,0.98536 -0.8396,1.99723 -1.8839,2.27033 -1.3719,0.35873 -1.8841,1.28494 -1.8841,3.40698 0,1.90152 -0.4692,2.91429 -1.3497,2.91429 -0.7423,0 -1.6184,0.84785 -1.9475,1.88408 -0.3301,1.03623 -1.2051,1.88407 -1.9474,1.88407 -0.7423,0 -1.3497,0.63587 -1.3497,1.41303 0,0.7772 -0.7906,1.41306 -1.757,1.41306 -0.9664,0 -2.835,0.84785 -4.1523,1.88408 -1.3174,1.03623 -2.7926,1.88407 -3.2781,1.88407 -0.4854,0 -1.6503,0.84781 -2.5879,1.88407 -0.9379,1.03623 -2.8808,1.88408 -4.3181,1.88408 -1.4369,0 -3.2484,0.63586 -4.0258,1.41303 -1.2399,1.24007 -15.0164,1.41306 -112.5395,1.41306 -97.9102,0 -111.1911,-0.16819 -111.669,-1.41306 z m 119.7663,-10.83691 c 1.6965,-1.03432 4.1898,-1.88056 5.5406,-1.88056 2.5114,0 10.6868,-7.11168 10.6868,-9.29638 0,-0.58628 0.5561,-1.06597 1.2358,-1.06597 3.2186,0 9.1265,-13.10623 9.1265,-20.24699 0,-2.1047 -0.5741,-4.66287 -1.2753,-5.68489 -0.7016,-1.02198 -1.5211,-3.75091 -1.8217,-6.06425 -0.3023,-2.31335 -1.2103,-4.69165 -2.0217,-5.28505 -0.8115,-0.5934 -1.4756,-1.57538 -1.4756,-2.1822 0,-0.60678 -0.6046,-1.33522 -1.3434,-1.61875 -0.7388,-0.28356 -3.6787,-2.81372 -6.5328,-5.62265 -4.4262,-4.35633 -5.7175,-5.11153 -8.7832,-5.13707 -1.977,-0.0174 -4.4171,-0.65238 -5.4228,-1.41307 -2.3933,-1.81005 -9.4042,-1.79136 -11.2255,0.0313 -0.8007,0.80058 -3.1018,1.41306 -5.3099,1.41306 -3.4507,0 -4.4915,0.58499 -9.0862,5.10712 -2.8541,2.80893 -5.794,5.33912 -6.5328,5.62265 -0.7388,0.28357 -1.3435,1.11932 -1.3435,1.85735 0,0.738 -0.606,1.57445 -1.3469,1.85874 -0.7586,0.29121 -1.6385,2.49569 -2.0138,5.04648 -0.367,2.49124 -1.2444,5.3657 -1.9502,6.38769 -0.7058,1.02201 -1.2833,3.58018 -1.2833,5.68488 0,7.14076 5.9079,20.24699 9.1265,20.24699 0.6797,0 1.2361,0.47969 1.2361,1.06597 0,2.1847 8.1751,9.29638 10.6865,9.29638 1.3511,0 3.8441,0.84624 5.5406,1.88056 1.9968,1.21738 4.7456,1.88053 7.7946,1.88053 3.049,0 5.7978,-0.66315 7.7946,-1.88053 z m 83.7274,-86.77979 c 0.9566,-0.83318 2.9197,-1.79546 4.3622,-2.13841 1.5961,-0.37955 3.066,-1.62703 3.7565,-3.18813 0.6238,-1.41052 1.7751,-3.06034 2.5584,-3.66622 1.2621,-0.97597 1.4248,-20.51516 1.4248,-171.29068 0,-160.99759 -0.09,-170.25417 -1.6486,-171.39452 -0.9067,-0.663 -1.6486,-1.60888 -1.6486,-2.10199 0,-0.49308 -1.3778,-1.93005 -3.0615,-3.19327 l -3.0619,-2.29673 h -94.6742 -94.6745 l -2.5907,2.46312 c -1.4247,1.35472 -2.5906,2.79169 -2.5906,3.19327 0,0.40157 -0.742,1.2726 -1.6486,1.9356 -1.5596,1.14035 -1.6486,10.39693 -1.6486,171.39452 0,160.99755 0.09,170.25417 1.6486,171.39455 0.9066,0.66297 1.6486,1.49688 1.6486,1.85311 0,1.07004 4.897,5.26784 6.1456,5.26784 0.638,0 1.6746,0.61995 2.3033,1.37766 1.6614,2.00167 7.5527,2.12044 99.5587,2.00667 73.99,-0.0914 82.2735,-0.25125 83.8411,-1.61639 z"
           id="path2039" />
        <path
           style="fill:#ffffff;stroke-width:1.53646"
           d="m 1516.3386,630.91223 c 0,-3.62682 0.1738,-4.99509 0.3785,-3.04057 0.205,1.95447 0.2015,4.9219 0,6.59424 -0.2085,1.67233 -0.375,0.0733 -0.3708,-3.55367 z"
           id="path2041" />
        <path
           style="fill:#ffffff;stroke-width:1.53646"
           d="m 1591.7707,915.03933 c -18.5366,-0.37576 -28.8107,-0.93723 -29.6739,-1.62161 -0.7262,-0.57574 -2.9451,-1.29658 -4.9304,-1.60182 -9.3455,-1.43698 -28.199,-14.74267 -30.3088,-21.39032 -0.337,-1.06024 -1.6867,-3.07981 -3,-4.48794 -3.3878,-3.63189 -6.6259,-11.42766 -7.4012,-17.81802 -0.3645,-3.00683 -1.064,-6.23707 -1.5537,-7.17829 -0.5514,-1.05937 -0.8889,-77.2052 -0.8854,-199.87562 0,-177.33336 0.1599,-198.62085 1.4797,-202.50753 0.8111,-2.38879 1.4744,-5.60016 1.4744,-7.13642 0,-1.66372 0.4952,-2.79318 1.2247,-2.79318 0.7363,0 1.6815,-2.21208 2.3706,-5.54939 1.086,-5.25652 1.6531,-6.05891 10.7446,-15.20155 5.2793,-5.30864 10.8891,-10.25535 12.4664,-10.99266 1.5773,-0.7373 3.9279,-1.94478 5.223,-2.68326 1.2952,-0.73845 3.0758,-1.34892 3.9567,-1.35656 0.881,-0.007 1.9443,-0.6259 2.3631,-1.3739 1.0088,-1.80286 5.3669,-1.88773 27.5933,-0.53742 23.1693,1.40754 187.5424,0.75635 194.0592,-0.76886 6.0035,-1.40503 11.1918,-0.46527 11.8472,2.14592 0.426,1.69684 1.0338,1.98502 3.441,1.63171 1.7851,-0.26201 4.1899,0.25264 6.1748,1.32178 4.9496,2.66551 22.6897,20.95909 25.2898,26.07911 2.6803,5.2775 4.8988,14.94529 5.9945,26.12578 1.0202,10.40961 1.0268,379.50067 0,390.0022 -1.0155,10.4559 -2.6574,18.00523 -4.3185,19.85688 -0.7339,0.81799 -1.3341,2.1095 -1.3341,2.87001 0,0.76056 -0.6408,2.21087 -1.4241,3.22295 -0.7832,1.01208 -2.6632,3.74778 -4.1777,6.07934 -6.4963,10.00039 -21.7337,20.76035 -31.5924,22.30912 -2.0813,0.327 -4.6573,1.15991 -5.7245,1.85089 -1.5669,1.01468 -17.2426,1.32344 -81.486,1.60492 -43.7503,0.19182 -92.3049,0.09 -107.8992,-0.22623 z m 195.116,-11.41585 c 3.0243,-1.04047 6.164,-2.44415 6.9772,-3.11929 0.8135,-0.67513 3.5022,-2.26136 5.975,-3.52492 5.2901,-2.70325 10.6907,-8.08487 11.5504,-11.50982 0.3336,-1.3347 1.1544,-2.63604 1.8213,-2.89188 0.6665,-0.25576 2.6421,-4.2077 4.3897,-8.78196 l 3.1772,-8.31686 0.2468,-202.85437 c 0.2467,-201.68411 0.2363,-202.89024 -1.6681,-209.05868 -1.054,-3.41233 -2.2796,-6.66099 -2.7234,-7.21923 -0.4441,-0.55827 -1.1276,-2.05727 -1.5193,-3.33116 -0.3916,-1.27388 -4.365,-6.07819 -8.8291,-10.67618 -8.4343,-8.68682 -14.5827,-12.55136 -21.5116,-13.52097 -1.9589,-0.27418 -5.1601,-1.09749 -7.1138,-1.82962 -2.9799,-1.11685 -20.0014,-1.33116 -105.7235,-1.33116 -101.0951,0 -102.239,0.0208 -108.5505,1.97564 -13.126,4.06565 -16.8669,6.15117 -25.0614,13.972 -6.2794,5.9932 -11.4875,14.55849 -13.4672,22.14827 -3.5446,13.59033 -3.8765,400.14048 -0.3545,413.13852 1.1023,4.06808 1.8202,5.91181 5.1361,13.18848 1.4644,3.21398 9.6583,12.31429 15.1916,16.87243 1.5162,1.24897 4.8762,3.19761 7.4669,4.33027 2.5906,1.13269 5.77,2.51963 7.0651,3.0821 1.6465,0.71492 35.4022,1.04179 112.1903,1.08637 107.617,0.0625 109.946,0.0243 115.3334,-1.82798 z M 1516.7358,599.5896 c -0.1355,-33.54819 -0.2502,-6.09967 -0.2502,60.99672 0,67.09639 0.1112,94.54489 0.2502,60.99673 0.139,-33.5482 0.139,-88.44525 0,-121.99345 z"
           id="path2043" />
        <path
           style="fill:#ffffff;stroke-width:1.53646"
           d="m 1591.7707,915.03933 c -18.5366,-0.37576 -28.8107,-0.93723 -29.6739,-1.62161 -0.7262,-0.57574 -2.9451,-1.29658 -4.9304,-1.60182 -4.3483,-0.66861 -10.8873,-3.71311 -16.6441,-7.74935 -12.4334,-8.71775 -22.606,-23.91196 -24.0659,-35.94693 -0.3645,-3.00683 -1.064,-6.23731 -1.554,-7.17885 -0.5522,-1.06083 -0.8736,-77.19057 -0.8455,-200.18226 0.042,-175.00701 0.2155,-199.01714 1.48,-203.09481 0.7892,-2.5434 1.4345,-5.61681 1.4345,-6.82974 0,-1.21297 0.5512,-2.20538 1.2247,-2.20538 0.737,0 1.6826,-2.21705 2.3745,-5.56691 1.0936,-5.29519 1.6256,-6.04233 10.8985,-15.30805 9.2297,-9.22278 17.4729,-14.92233 21.5825,-14.92233 0.8292,0 1.8501,-0.61203 2.2689,-1.36003 1.0192,-1.82142 5.4113,-1.90329 28.5354,-0.53197 23.8035,1.41161 186.3988,0.74117 193.1171,-0.79631 6.0289,-1.3797 11.1942,-0.43455 11.8472,2.16792 0.426,1.69684 1.0338,1.98502 3.441,1.63171 1.7945,-0.2634 4.2031,0.25785 6.2367,1.34937 5.0152,2.69234 22.6066,20.88449 25.2713,26.13471 2.7238,5.36595 4.8964,14.84581 5.9688,26.04259 1.0057,10.49808 0.9994,379.58918 0,390.0022 -1.0012,10.36597 -2.3523,16.31197 -4.912,21.61825 -2.3033,4.77511 -8.4955,14.09672 -10.936,16.46327 -9.0074,8.73383 -19.566,15.08857 -27.0138,16.25852 -2.0753,0.32596 -4.6465,1.15817 -5.7137,1.84915 -1.5665,1.01468 -17.2425,1.32344 -81.4859,1.60492 -43.75,0.19182 -92.3049,0.09 -107.8993,-0.22623 z m 194.9547,-11.43372 c 3.4004,-1.0503 6.4087,-2.27574 6.6853,-2.72319 0.278,-0.44745 2.7064,-1.9657 5.3996,-3.3739 5.7255,-2.99384 11.5254,-8.42869 12.5627,-11.77239 0.401,-1.29332 1.2854,-2.77703 1.9651,-3.29714 0.6797,-0.52008 2.6317,-4.54892 4.3376,-8.95294 l 3.1018,-8.0073 0.2746,-201.59529 c 0.2536,-185.44133 0.1494,-202.12245 -1.2931,-208.17309 -0.8629,-3.61775 -2.3648,-8.06256 -3.3378,-9.87741 -0.9727,-1.81485 -1.7685,-3.61389 -1.7685,-3.99791 0,-0.38403 -3.59,-4.44746 -7.9777,-9.02988 -8.337,-8.70655 -14.6265,-12.73543 -21.6961,-13.89774 -2.0726,-0.34055 -5.5848,-1.2114 -7.805,-1.93481 -3.3528,-1.09242 -21.1836,-1.31524 -105.2579,-1.31524 h -101.2219 l -8.2376,2.38723 c -4.5308,1.31298 -10.5013,3.66469 -13.2681,5.22604 -6.482,3.6583 -14.7603,11.48309 -17.8577,16.87962 -1.3382,2.33155 -2.9656,4.87502 -3.6158,5.65222 -0.6505,0.77716 -1.8675,4.16851 -2.7042,7.53626 -3.9901,16.05988 -4.0812,400.64433 -0.097,414.49512 2.8558,9.93113 5.1847,14.26144 10.9933,20.44235 7.8019,8.30185 13.5201,12.29431 22.0423,15.39028 4.4453,1.61482 10.8373,1.71494 113.6515,1.77989 106.8671,0.0674 109.0589,0.0313 115.1239,-1.84078 z M 1516.7358,623.14047 c -0.1424,-20.59526 -0.2571,-3.74459 -0.2571,37.44585 0,41.19045 0.1147,58.04112 0.2571,37.44586 0.1425,-20.59522 0.1425,-54.29649 0,-74.89171 z"
           id="path2045" />
        <path
           style="fill:#ffffff;stroke-width:1.53646"
           d="m 1591.8632,915.03933 c -17.8618,-0.36329 -28.9542,-0.95926 -30.1451,-1.61962 -1.0363,-0.57468 -3.3576,-1.32511 -5.1584,-1.66762 -4.218,-0.80211 -10.6104,-3.88421 -16.3123,-7.86465 -4.7942,-3.347 -12.9133,-11.16134 -12.9133,-12.42859 0,-0.41641 -1.3181,-2.40508 -2.9288,-4.41926 -3.8149,-4.77008 -7.1576,-12.37097 -7.9204,-18.00808 -0.3336,-2.47212 -1.0341,-5.88439 -1.5554,-7.58279 -0.6227,-2.02912 -0.9456,-70.86898 -0.9414,-200.75707 0,-177.41363 0.1599,-198.18278 1.4946,-202.68197 0.8191,-2.75708 1.4887,-5.95038 1.4887,-7.09621 0,-1.14584 0.5588,-2.29775 1.242,-2.55984 0.6829,-0.26202 1.7685,-2.8295 2.4121,-5.70532 1.079,-4.82147 1.9265,-5.98464 10.8811,-14.93229 9.1929,-9.18594 17.4417,-14.88473 21.545,-14.88473 0.8292,0 1.8501,-0.61203 2.2689,-1.36003 1.0136,-1.81152 5.0239,-1.87959 30.4196,-0.51636 26.3813,1.41612 184.346,0.67319 191.6586,-0.9014 5.8458,-1.25877 10.6253,-0.4463 11.3812,1.93457 0.4149,1.30794 1.4553,1.78524 3.8903,1.78524 1.8282,0 4.6156,0.74186 6.1946,1.64857 4.9847,2.86247 22.3624,20.9804 24.8704,25.92985 2.756,5.43896 4.9269,14.88379 6.0028,26.11755 1.0057,10.49808 0.9994,379.58918 0,390.0022 -1.4891,15.41606 -3.5491,21.2002 -11.5893,32.53772 -6.9307,9.77288 -21.3842,20.04814 -30.5305,21.70484 -1.9655,0.35599 -4.7108,1.2227 -6.1012,1.92605 -2.0524,1.03846 -17.457,1.34416 -81.9569,1.6264 -43.686,0.19113 -92.1467,0.089 -107.6903,-0.22727 z m 190.8183,-10.47679 c 2.7627,-0.52397 6.3892,-1.68971 8.0594,-2.59059 1.6697,-0.90084 5.2042,-2.81817 7.8546,-4.26066 5.5692,-3.03116 11.7902,-8.91798 12.806,-12.11768 0.3854,-1.21495 1.2569,-2.63451 1.9366,-3.15462 0.6797,-0.52008 2.6317,-4.54892 4.3376,-8.95294 l 3.1018,-8.0073 V 661.99939 c 0,-220.62566 0.3197,-206.83985 -5.0357,-217.57768 -1.3017,-2.61026 -5.909,-8.28062 -10.4238,-12.82888 -8.3874,-8.44944 -13.0349,-11.25465 -21.5547,-13.01028 -2.4395,-0.50267 -6.1307,-1.35635 -8.2032,-1.89707 -2.5007,-0.65241 -37.5328,-0.99071 -104.1358,-1.00561 l -100.3674,-0.0208 -8.4374,2.42444 c -4.6406,1.33345 -10.5572,3.61153 -13.1479,5.0624 -6.3993,3.58393 -15.2062,11.8306 -18.1502,16.99586 -1.3324,2.33715 -2.974,4.90501 -3.6485,5.70636 -0.6745,0.80135 -1.897,4.61658 -2.7165,8.47831 -2.7477,12.94526 -3.933,193.85939 -2.2713,346.62466 0.7048,64.78117 0.8184,66.21602 6.1137,77.17984 2.8982,6.00045 11.9004,15.7072 18.8373,20.31158 4.7062,3.12387 10.5374,5.534 15.4953,6.40437 5.215,0.91554 214.6537,0.64591 219.5501,-0.28253 z M 1516.7351,649.5798 c -0.1529,-10.26713 -0.278,-2.13487 -0.278,18.07177 -3e-4,20.20664 0.1251,28.60704 0.278,18.66757 0.1529,-9.93947 0.1529,-26.47217 7e-4,-36.73934 z m -0.035,-29.26543 c -0.205,-1.94297 -0.3698,-0.35327 -0.3698,3.53261 0,3.88592 0.1669,5.47558 0.3698,3.53264 0.2015,-1.94294 0.2015,-5.12231 0,-7.06525 z"
           id="path2047" />
        <path
           style="fill:#ffffff;stroke-width:1.53646"
           d="m 1591.3923,915.03978 c -17.5143,-0.36252 -28.4868,-0.96159 -29.6742,-1.62007 -1.0363,-0.57468 -3.3576,-1.32511 -5.1584,-1.66762 -4.0033,-0.76128 -10.4721,-3.77739 -15.7222,-7.33032 -4.3779,-2.96287 -13.5034,-11.69907 -13.5034,-12.9275 0,-0.43588 -1.3181,-2.4405 -2.9288,-4.45468 -3.8149,-4.77008 -7.1576,-12.37097 -7.9204,-18.00808 -0.3336,-2.47212 -1.0359,-5.88873 -1.5585,-7.59248 -0.6269,-2.04212 -0.9508,-70.44183 -0.9508,-200.72576 0,-177.90525 0.1494,-198.13153 1.4981,-202.67228 0.8239,-2.77432 1.4977,-5.98169 1.4977,-7.12752 0,-1.14584 0.5588,-2.29775 1.242,-2.55984 0.6829,-0.26202 1.7765,-2.86522 2.4298,-5.78476 1.1019,-4.92357 1.8887,-6.00556 10.8623,-14.93229 9.1537,-9.10605 17.4476,-14.80529 21.5461,-14.80529 0.8292,0 1.8501,-0.61203 2.2689,-1.36003 1.007,-1.79967 4.5339,-1.85367 32.7747,-0.50187 28.3575,1.35739 181.8252,0.57894 189.3035,-0.96023 5.8829,-1.21089 10.6309,-0.38535 11.3812,1.97891 0.4132,1.30203 1.4543,1.78524 3.8469,1.78524 1.8042,0 4.5141,0.63781 6.0216,1.41737 4.6075,2.38275 22.4634,20.98387 25.0579,26.10403 2.706,5.33978 4.895,14.66357 6.0348,25.70356 1.0126,9.80898 1.0036,379.98329 0,390.47321 -1.4891,15.41606 -3.5494,21.2002 -11.5893,32.53772 -6.9307,9.77288 -21.3842,20.04814 -30.5305,21.70484 -1.9655,0.35599 -4.7125,1.22354 -6.1046,1.9279 -2.058,1.04116 -17.4744,1.34543 -82.4281,1.62688 -43.9432,0.19043 -92.4022,0.0872 -107.6866,-0.22901 z m 195.9729,-11.56549 c 2.3481,-0.83227 6.2245,-2.83315 8.615,-4.44634 2.3901,-1.61319 4.7445,-2.93305 5.2317,-2.93305 1.3306,0 9.6742,-8.48707 9.6742,-9.84036 0,-0.64668 0.8375,-2.1413 1.8609,-3.3214 1.0238,-1.18006 3.2492,-5.59005 4.9457,-9.79998 l 3.0848,-7.65441 V 662.4704 c 0,-164.99422 -0.2328,-203.88383 -1.2413,-207.68335 -2.4207,-9.11397 -5.5371,-14.2792 -13.5437,-22.44719 -10.4321,-10.64202 -14.5733,-12.65763 -32.3166,-15.72948 -2.5907,-0.44849 -49.3125,-0.84642 -103.8265,-0.88423 -82.2036,-0.057 -99.8047,0.15464 -103.1526,1.24095 -2.2202,0.72034 -5.2946,1.5994 -6.8323,1.95347 -15.5238,3.57476 -31.9018,20.71393 -34.8,36.4171 -1.9203,10.40422 -2.4186,39.78412 -2.8183,166.15423 -0.4326,136.80933 0.473,234.51022 2.2574,243.51584 2.0038,10.11375 6.0195,17.53481 13.5563,25.05056 9.0775,9.05278 16.9325,13.60639 25.5423,14.80702 1.5544,0.21685 51.5765,0.33291 111.1603,0.2582 96.86,-0.12163 108.786,-0.29642 112.6027,-1.64919 z M 1516.7278,659.4457 c -0.1841,-3.25856 -0.337,-0.83766 -0.337,5.37978 0,6.21744 0.1494,8.8835 0.3336,5.92463 0.1876,-2.95887 0.1876,-8.04588 0,-11.30441 z"
           id="path2049" />
        <path
           style="fill:#ffffff;stroke-width:1.53646"
           d="m 1642.0267,406.47308 c 15.6729,-0.14491 41.3199,-0.14491 56.9931,0 15.6728,0.14491 2.8495,0.26375 -28.4966,0.26375 -31.3464,0 -44.1697,-0.11849 -28.4965,-0.26375 z"
           id="path2051" />
      </g>
      <path
         style="fill:#ff0000;stroke-width:1.08074"
         d="m 511.8067,794.75323 c -30.1575,-3.58924 -52.5856,-11.28966 -73.4148,-25.2061 -17.5031,-11.6943 -30.9698,-25.94911 -41.9497,-44.40457 -13.592,-22.84647 -20.4403,-53.4142 -18.2767,-81.57932 3.9545,-51.47875 32.2516,-92.6013 80.0403,-116.31817 21.1994,-10.52098 43.7137,-15.65896 68.6165,-15.65896 23.7028,0 45.9885,5.00102 66.8182,14.99416 39.4992,18.95001 64.6873,49.30623 75.175,90.59914 10.6111,41.77887 3.4006,86.52621 -18.6473,115.72254 -3.6529,4.83722 -12.8308,13.81536 -16.9252,16.55687 -11.0998,7.43209 -25.9793,7.47688 -37.3732,0.11279 -10.464,-6.76332 -15.4817,-15.71461 -15.4817,-27.61859 0,-8.12429 -0.1325,-8.23815 -4.6836,-4.0246 -20.6355,19.1048 -52.2109,25.97188 -79.2885,17.24369 -28.9319,-9.32575 -51.8518,-34.97957 -58.2689,-65.21935 -1.6222,-7.64381 -1.5949,-22.07242 0.057,-29.81796 8.4841,-39.79777 43.8269,-69.57533 82.5786,-69.57533 19.3007,0 40.2516,8.36855 55.3927,22.1257 l 4.0694,3.69751 0.4599,-2.47532 c 1.2348,-6.64838 5.9927,-10.75805 12.4546,-10.75805 6.1957,0 10.0359,2.34513 12.4781,7.62018 1.1661,2.51872 1.2279,5.69827 1.2427,63.94302 0.017,68.50331 -0.253,64.60277 4.6519,67.12214 4.6563,2.39186 8.217,0.51238 13.4057,-7.07612 11.2893,-16.51056 18.1523,-46.74175 16.3576,-72.0542 -2.4379,-34.38297 -17.9462,-60.46012 -47.3228,-79.57341 -14.7982,-9.62813 -31.5971,-15.93299 -50.2504,-18.85968 -9.1702,-1.43885 -28.9221,-1.41243 -38.1621,0.0516 -21.281,3.37044 -39.6833,10.94271 -53.5506,22.03504 -19.9604,15.96607 -34.0917,39.66919 -40.0342,67.15125 -1.3135,6.07434 -1.5045,8.85022 -1.5045,21.86661 0,12.931 0.1949,15.80247 1.4697,21.64404 7.5041,34.39049 27.0572,59.52344 58.4489,75.12859 17.9927,8.94442 37.7298,13.10383 58.6366,12.35717 11.7106,-0.41828 19.8539,-1.84918 29.1032,-5.1137 9.6098,-3.39181 13.7746,-3.27762 18.8522,0.517 2.8461,2.12697 5.3849,7.52425 5.3743,11.42576 -0.011,3.147 -1.679,7.5279 -3.9911,10.46738 -4.7005,5.97562 -17.8281,10.67835 -35.4407,12.69596 -5.4857,0.6285 -26.532,0.80144 -31.1164,0.25587 z m 23.4563,-84.40364 c 20.78,-4.9631 36.3482,-21.13563 40.8228,-42.40758 1.308,-6.21774 1.2788,-19.1613 -0.058,-25.68163 -4.2897,-20.92585 -18.9782,-36.15708 -39.8969,-41.37111 -8.0708,-2.01171 -22.6478,-1.99281 -30.1528,0.0387 -14.556,3.94071 -25.6834,13.21468 -32.272,26.89663 -7.6901,15.96929 -8.4229,36.31154 -1.9077,52.95832 3.5051,8.95602 12.2777,19.23166 20.6594,24.19939 4.8422,2.86986 13.5381,5.85885 19.3891,6.66427 6.327,0.87105 16.7571,0.29325 23.4159,-1.29717 z"
         id="path2119" />
    </g>
  </g>
</svg>
