<?xml version="1.0" encoding="UTF-8" standalone="no"?>
<svg
   xmlns:dc="http://purl.org/dc/elements/1.1/"
   xmlns:cc="http://creativecommons.org/ns#"
   xmlns:rdf="http://www.w3.org/1999/02/22-rdf-syntax-ns#"
   xmlns:svg="http://www.w3.org/2000/svg"
   xmlns="http://www.w3.org/2000/svg"
   xmlns:sodipodi="http://sodipodi.sourceforge.net/DTD/sodipodi-0.dtd"
   xmlns:inkscape="http://www.inkscape.org/namespaces/inkscape"
   version="1.1"
   id="svg10"
   width="1306.6667"
   height="1306.6667"
   viewBox="0 0 1306.6667 1306.6667"
   sodipodi:docname="email.svg"
   inkscape:version="1.0.1 (3bc2e813f5, 2020-09-07)">
  <metadata
     id="metadata16">
    <rdf:RDF>
      <cc:Work
         rdf:about="">
        <dc:format>image/svg+xml</dc:format>
        <dc:type
           rdf:resource="http://purl.org/dc/dcmitype/StillImage" />
        <dc:title></dc:title>
      </cc:Work>
    </rdf:RDF>
  </metadata>
  <defs
     id="defs14" />
  <sodipodi:namedview
     pagecolor="#ffffff"
     bordercolor="#666666"
     borderopacity="1"
     objecttolerance="10"
     gridtolerance="10"
     guidetolerance="10"
     inkscape:pageopacity="0"
     inkscape:pageshadow="2"
     inkscape:window-width="1920"
     inkscape:window-height="1001"
     id="namedview12"
     showgrid="false"
     inkscape:zoom="0.61301017"
     inkscape:cx="857.25978"
     inkscape:cy="589.04998"
     inkscape:window-x="-9"
     inkscape:window-y="-9"
     inkscape:window-maximized="1"
     inkscape:current-layer="g905"
     inkscape:document-rotation="0" />
  <g
     inkscape:groupmode="layer"
     inkscape:label="Image"
     id="g18">
    <path
       style="display:inline;fill:#ff0000;stroke:#ff0000;stroke-width:1.63129;stroke-opacity:1"
       d="m 636.20478,1304.6447 c -26.53096,-0.7476 -61.28123,-3.5056 -78.30212,-6.2145 -19.81145,-3.1531 -58.71867,-11.1898 -71.77695,-14.8265 -27.00641,-7.521 -38.6375,-11.2916 -63.62048,-20.6244 -19.64938,-7.3404 -63.78428,-27.5844 -80.54195,-36.9434 -9.75541,-5.4483 -18.06281,-9.906 -18.4609,-9.906 -0.39808,0 -3.12986,-1.8352 -6.07063,-4.0782 -2.94077,-2.2431 -5.82098,-4.0783 -6.4005,-4.0783 -0.5795,0 -5.87869,-3.3033 -11.776,-7.3408 -5.89731,-4.0374 -11.04972,-7.3408 -11.44979,-7.3408 -0.40008,0 -6.98108,-4.7715 -14.62446,-10.6034 -7.64336,-5.8319 -14.30934,-10.6034 -14.81328,-10.6034 -0.50392,0 -2.86904,-1.781 -5.25578,-3.9578 -2.38675,-2.1767 -9.11109,-7.7253 -14.94297,-12.33 -12.31785,-9.7261 -42.31378,-37.4967 -54.43482,-50.3966 -4.60352,-4.8993 -9.7711,-10.3681 -11.48353,-12.1528 -30.60226,-31.8947 -73.523655,-93.0685 -96.285131,-137.23057 -3.721764,-7.22101 -7.539126,-14.59728 -8.483024,-16.3917 -0.943898,-1.79443 -3.268796,-6.76609 -5.16644,-11.04816 -1.897644,-4.28205 -4.901168,-10.88879 -6.674499,-14.68165 -1.773333,-3.79284 -5.154536,-12.03466 -7.513787,-18.31514 -2.359252,-6.28048 -6.010863,-15.82355 -8.114695,-21.20683 -3.87128,-9.9058 -13.969706,-41.85062 -17.01765,-53.83271 -28.8860444,-113.55691 -28.8860444,-220.85842 0,-334.41533 3.418002,-13.43686 13.307206,-44.37935 17.108933,-53.53241 2.167341,-5.21812 3.965528,-10.3567 3.995971,-11.41906 0.03045,-1.06238 1.473702,-4.86793 3.207237,-8.45678 1.733536,-3.58885 3.176793,-7.18591 3.207237,-7.99349 0.03044,-0.80755 2.012611,-5.57909 4.404816,-10.60341 2.392205,-5.0243 5.811343,-12.43847 7.598082,-16.47593 1.786738,-4.03745 4.020897,-8.80898 4.964795,-10.60341 0.943898,-1.79442 4.778744,-9.13525 8.521881,-16.31294 18.018853,-34.55227 42.464264,-72.17295 65.719564,-101.14025 12.56048,-15.6456 25.81816,-31.36958 30.34462,-35.98958 1.81258,-1.85004 7.0521,-7.35565 11.64338,-12.23471 15.01951,-15.96093 47.33364,-45.50623 61.79788,-56.50273 4.48606,-3.41055 8.74351,-7.1186 9.46101,-8.24011 0.71749,-1.12152 1.98146,-2.03912 2.80884,-2.03912 0.82738,0 7.758,-4.77153 15.40136,-10.60341 7.64338,-5.83188 14.22438,-10.60341 14.62446,-10.60341 0.40007,0 5.55248,-3.30338 11.44979,-7.34083 5.89731,-4.03745 11.1965,-7.340824 11.776,-7.340824 0.57952,0 3.45973,-1.835206 6.4005,-4.078236 2.94077,-2.243029 5.67255,-4.078235 6.07063,-4.078235 0.39809,0 8.70549,-4.457695 18.4609,-9.905988 39.96039,-22.317444 91.5263,-42.909068 144.16243,-57.567844 13.35906,-3.720402 52.25313,-11.737216 72.03164,-14.8471073 50.629,-7.96069264 139.55468,-7.96586874 190.35205,-0.01108 66.90406,10.4770703 122.97222,27.4347433 181.01541,54.7476463 7.45417,3.507651 13.87628,6.377546 14.27133,6.377546 0.39505,0 9.24543,4.771536 19.66747,10.603414 10.42205,5.831877 19.28115,10.603413 19.68687,10.603413 0.40572,0 3.14375,1.835206 6.08452,4.078235 2.94076,2.24303 5.82098,4.078236 6.4005,4.078236 0.5795,0 5.8787,3.303374 11.776,7.340824 5.8973,4.03745 11.0497,7.34083 11.4498,7.34083 0.4001,0 6.9811,4.77153 14.6244,10.60341 7.6434,5.83188 14.3235,10.60341 14.8447,10.60341 0.5212,0 2.5193,1.43496 4.4402,3.18879 1.9208,1.75384 8.631,7.33218 14.9115,12.39632 13.5565,10.93096 43.5629,38.71779 55.2865,51.19685 4.5837,4.87906 9.817,10.38467 11.6296,12.23471 10.0687,10.27676 37.559,44.45176 50.5627,62.8578 20.787,29.42292 34.0551,51.77012 50.8768,85.69109 15.7297,31.71892 17.3856,35.32036 22.5013,48.93883 2.3593,6.28048 6.0109,15.82355 8.1147,21.20682 3.8713,9.90581 13.9697,41.85063 17.0177,53.83272 16.3376,64.22647 22.2359,114.57263 20.9338,178.68234 -0.4459,21.9511 -1.6698,47.986 -2.7199,57.85533 -5.1388,48.29793 -19.7759,111.19524 -35.3051,151.71037 -2.0634,5.38328 -5.6819,14.92635 -8.0412,21.20683 -5.0085,13.33289 -6.5386,16.66592 -22.0922,48.12318 -21.0079,42.48845 -41.8262,75.62264 -69.6965,110.92804 -11.3484,14.3759 -26.923,32.9762 -32.3342,38.616 -1.7124,1.7847 -6.8614,7.2232 -11.4421,12.0856 -12.2226,12.9741 -42.2774,40.8095 -54.4762,50.4534 -5.8319,4.6105 -12.5562,10.1637 -14.943,12.3404 -2.3867,2.1768 -4.7519,3.9578 -5.2558,3.9578 -0.5039,0 -7.1699,4.7715 -14.8133,10.6034 -7.6433,5.8319 -14.2243,10.6034 -14.6244,10.6034 -0.4001,0 -5.5525,3.3034 -11.4498,7.3408 -5.8973,4.0375 -11.1965,7.3408 -11.776,7.3408 -0.57952,0 -3.45974,1.8352 -6.4005,4.0783 -2.94077,2.243 -5.67255,4.0782 -6.07064,4.0782 -0.39808,0 -8.70548,4.4577 -18.4609,9.906 -39.96038,22.3174 -91.52629,42.9091 -144.16242,57.5678 -13.08128,3.6431 -51.99096,11.6781 -71.77695,14.8224 -25.84538,4.1071 -80.44494,7.1236 -112.55931,6.2186 z m 73.79208,-87.7304 c 30.4375,-2.8429 53.13404,-6.8845 84.44347,-15.0371 33.64669,-8.7611 46.84024,-12.8846 63.62048,-19.8836 4.03745,-1.684 12.11236,-5.0394 17.94424,-7.4565 40.95325,-16.9734 87.13487,-44.1954 125.60965,-74.0412 30.5764,-23.7188 60.8533,-52.9252 85.5945,-82.5682 15.967,-19.13045 36.7526,-47.14889 36.7526,-49.54161 0,-0.7946 1.1548,-2.4031 2.5662,-3.57446 1.4114,-1.17135 4.0101,-4.74812 5.7748,-7.94838 1.7648,-3.20027 6.1279,-10.5902 9.6958,-16.42208 12.3126,-20.12549 33.6991,-64.37244 40.6066,-84.01165 13.361,-37.98828 18.3854,-55.29215 25.1041,-86.4586 8.9573,-41.55059 10.0519,-54.25161 10.0519,-116.63755 0,-62.38593 -1.0946,-75.08696 -10.0519,-116.63754 -6.7187,-31.16645 -11.7431,-48.47032 -25.1041,-86.4586 -6.8672,-19.5247 -28.1794,-63.6519 -40.5753,-84.01166 -3.5507,-5.83187 -8.4512,-14.0903 -10.8899,-18.35206 -2.4388,-4.26175 -5.0516,-7.74864 -5.8062,-7.74864 -0.7546,0 -1.372,-0.74001 -1.372,-1.64446 0,-2.56662 -20.2246,-29.93877 -36.7526,-49.74132 -16.5339,-19.8096 -33.6509,-37.52967 -54.6502,-56.57547 -12.4616,-11.30237 -17.9538,-15.91575 -30.9443,-25.99278 -38.47478,-29.84579 -84.6564,-57.06775 -125.60965,-74.04119 -5.83188,-2.41707 -13.90679,-5.7725 -17.94424,-7.45651 -23.48204,-9.79431 -69.90483,-22.73387 -104.40284,-29.10051 -59.3739,-10.957518 -141.92436,-10.93813 -200.6492,0.04713 -35.8372,6.70382 -80.85361,19.23106 -104.40283,29.05338 -4.03746,1.68401 -12.11236,5.03944 -17.94424,7.45652 -39.41282,16.33498 -91.90694,47.1242 -123.16272,72.23829 -0.89721,0.7209 -5.66875,4.48516 -10.60341,8.365 -24.59137,19.33475 -55.26987,49.44598 -77.43803,76.00614 -16.528,19.80255 -36.75258,47.1747 -36.75258,49.74132 0,0.90445 -0.59891,1.64446 -1.3309,1.64446 -0.732,0 -3.04596,3.11985 -5.14214,6.933 -2.09616,3.81315 -4.6171,7.94631 -5.60209,9.18479 -8.3703,10.52459 -38.84464,72.03482 -46.56823,93.99457 -18.05151,51.32422 -26.661129,85.43459 -32.605157,129.17806 -4.859214,35.76005 -4.859214,112.07611 0,147.83617 5.944028,43.74347 14.553647,77.85383 32.605157,129.17806 7.58024,21.5522 38.35328,83.66531 46.56823,93.99457 0.98499,1.23848 3.50593,5.37164 5.60209,9.18479 2.09618,3.81315 4.41014,6.933 5.14214,6.933 0.73199,0 1.3309,0.74532 1.3309,1.65627 0,4.94542 42.27211,57.87455 63.16783,79.09285 16.53382,16.789 37.93224,36.3505 51.02278,46.6428 4.93466,3.8798 9.7062,7.6441 10.60341,8.365 31.25578,25.1141 83.7499,55.9033 123.16272,72.2383 5.83188,2.4171 13.90678,5.7725 17.94424,7.4565 35.96377,15.0004 100.79506,30.5503 145.18519,34.8229 31.14355,2.9977 84.67644,3.0427 116.20573,0.098 z"
       id="path22" />
    <path
       style="fill:#ff0000;stroke-width:2.66064;stroke-miterlimit:4;stroke-dasharray:none"
       d=""
       id="path946" />
    <path
       style="fill:#ff0000;stroke-width:2.66064;stroke-miterlimit:4;stroke-dasharray:none"
       d=""
       id="path948" />
    <path
       style="fill:#ff0000;stroke-width:2.66064;stroke-miterlimit:4;stroke-dasharray:none"
       d=""
       id="path952" />
    <g
       id="g905"
       transform="translate(19.953902,0.1873843)">
      <g
         id="g883"
         transform="matrix(1.5645916,0,0,1.5645916,54.997645,-398.93464)">
        <g
           id="g857"
           transform="matrix(0.84911166,0,0,0.84911166,-479.6192,237.87781)">
          <path
             style="fill:#ff0000;stroke-width:2.98992"
             d="M 700.27498,512.82211 V 332.26863 l 90.27759,90.27759 90.27759,90.27759 -90.27759,90.27588 -90.27759,90.27589 z"
             id="path845" />
          <path
             style="fill:#ff0000;stroke-width:2.98992"
             d="m 983.50137,583.25102 c -8.4923,-2.66176 -18.73099,-12.42704 -139.32172,-132.87998 l -130.15582,-130.0071 285.97126,-0.008 285.97121,-0.008 -128.3177,128.36059 c -89.4267,89.45654 -130.687,129.51369 -136.1349,132.16521 -10.3241,5.02475 -26.36439,6.02775 -38.01233,2.37692 z"
             id="path847" />
          <path
             style="fill:#ff0000;stroke-width:2.98992"
             d="m 1208.9853,602.64629 -89.8231,-89.8148 90.2814,-90.28143 90.2814,-90.28143 V 512.3763 c 0,99.05921 -0.2062,180.10251 -0.4583,180.09622 -0.252,-0.005 -40.8787,-40.4281 -90.2814,-89.82623 z"
             id="path849" />
          <path
             style="fill:#ff0000;stroke-width:2.98992"
             d="m 716.7736,702.43601 c 0,-0.57587 39.64168,-40.69957 88.09261,-89.16378 l 88.09262,-88.11673 34.27219,33.83511 c 36.61602,36.14905 42.66273,40.37851 63.1837,44.19479 7.81569,1.45348 13.42068,1.45053 20.38728,-0.0106 19.6248,-4.11634 25.9496,-8.62601 61.9643,-44.18136 l 34.2694,-33.8325 88.0954,88.05182 c 48.4524,48.4285 88.0953,88.55098 88.0953,89.16107 0,0.61009 -127.4519,1.10925 -283.2264,1.10925 -155.77452,0 -283.2264,-0.47116 -283.2264,-1.04703 z"
             id="path851" />
        </g>
        <path
           style="fill:#f9f9f9;stroke-width:0.461021"
           d="m 367.10221,668.35938 c -12.86455,-1.53109 -22.4319,-4.81593 -31.3172,-10.75239 -7.46645,-4.98854 -13.21106,-11.06934 -17.89485,-18.94205 -5.79806,-9.74582 -8.7194,-22.78537 -7.79646,-34.80001 1.68691,-21.95975 13.75785,-39.50175 34.1435,-49.61887 9.04322,-4.48803 18.64734,-6.67978 29.27035,-6.67978 10.11111,0 19.61772,2.13333 28.50323,6.39619 16.84952,8.08367 27.59423,21.033 32.06806,38.64768 4.52647,17.82198 1.45062,36.91025 -7.95454,49.36478 -1.55825,2.06346 -5.47335,5.89334 -7.21993,7.06281 -4.73494,3.17038 -11.08222,3.18948 -15.94262,0.0481 -4.46372,-2.88509 -6.60417,-6.70352 -6.60417,-11.78151 0,-3.46565 -0.0565,-3.51422 -1.99792,-1.71681 -8.80267,8.14971 -22.27207,11.07906 -33.8228,7.35579 -12.34173,-3.97816 -22.11888,-14.92154 -24.85628,-27.82119 -0.69199,-3.26069 -0.68035,-9.41563 0.0243,-12.71971 3.61914,-16.97689 18.69563,-29.67936 35.22628,-29.67936 8.23327,0 17.17048,3.56984 23.62936,9.43835 l 1.73592,1.57728 0.19618,-1.05592 c 0.52674,-2.83606 2.55636,-4.58915 5.31287,-4.58915 2.64295,0 4.2811,1.00038 5.32289,3.2506 0.49743,1.07444 0.5238,2.43077 0.53011,27.27674 0.007,29.22206 -0.10792,27.55818 1.9844,28.63289 1.98628,1.02031 3.5052,0.21857 5.71859,-3.01853 4.81578,-7.04305 7.74339,-19.93904 6.97781,-30.73679 -1.03996,-14.66705 -7.65547,-25.79101 -20.18691,-33.94434 -6.3126,-4.10715 -13.47865,-6.79667 -21.43576,-8.04514 -3.91181,-0.61378 -12.33755,-0.60251 -16.27914,0.022 -9.07802,1.43775 -16.92806,4.66792 -22.84355,9.39968 -8.51469,6.81079 -14.5428,16.92203 -17.07774,28.6453 -0.56032,2.59118 -0.64179,3.77532 -0.64179,9.32783 0,5.51609 0.0831,6.741 0.62694,9.23289 3.20109,14.67026 11.54203,25.39144 24.93306,32.04827 7.67531,3.8155 16.09474,5.58981 25.01314,5.27131 4.99549,-0.17843 8.46925,-0.78883 12.41481,-2.1814 4.09933,-1.44688 5.87595,-1.39816 8.04194,0.22054 1.21409,0.90732 2.29709,3.20969 2.29257,4.87399 -0.005,1.34244 -0.71623,3.21124 -1.70252,4.46516 -2.00513,2.54907 -7.60509,4.55516 -15.11825,5.41583 -2.34009,0.2681 -11.31799,0.34188 -13.2736,0.10915 z m 10.00596,-36.00481 c 8.86431,-2.11715 15.50537,-9.01601 17.41414,-18.09017 0.55797,-2.65236 0.54551,-8.17381 -0.0247,-10.95524 -1.82989,-8.92653 -8.0957,-15.42385 -17.01917,-17.64804 -3.44283,-0.85816 -9.66107,-0.85009 -12.86255,0.0165 -6.20928,1.68102 -10.95599,5.6371 -13.76655,11.47353 -3.28043,6.81216 -3.59303,15.48973 -0.81378,22.5909 1.4952,3.82045 5.2374,8.20382 8.81286,10.32295 2.06558,1.22422 5.77507,2.49926 8.27098,2.84283 2.69896,0.37157 7.14822,0.1251 9.98873,-0.55334 z"
           id="path2119" />
      </g>
    </g>
  </g>
</svg>
