<?xml version="1.0" encoding="UTF-8" standalone="no"?>
<svg
   xmlns:dc="http://purl.org/dc/elements/1.1/"
   xmlns:cc="http://creativecommons.org/ns#"
   xmlns:rdf="http://www.w3.org/1999/02/22-rdf-syntax-ns#"
   xmlns:svg="http://www.w3.org/2000/svg"
   xmlns="http://www.w3.org/2000/svg"
   xmlns:sodipodi="http://sodipodi.sourceforge.net/DTD/sodipodi-0.dtd"
   xmlns:inkscape="http://www.inkscape.org/namespaces/inkscape"
   viewBox="0 0 45 45"
   xml:space="preserve"
   version="1.1"
   id="svg2"
   sodipodi:docname="parking.svg"
   inkscape:version="0.92.2 (5c3e80d, 2017-08-06)"
   width="45"
   height="45"><sodipodi:namedview
     pagecolor="#ffffff"
     bordercolor="#666666"
     borderopacity="1"
     objecttolerance="10"
     gridtolerance="10"
     guidetolerance="10"
     inkscape:pageopacity="0"
     inkscape:pageshadow="2"
     inkscape:window-width="1366"
     inkscape:window-height="705"
     id="namedview14"
     showgrid="false"
     inkscape:zoom="4.9684211"
     inkscape:cx="-44.163136"
     inkscape:cy="21.25"
     inkscape:window-x="-8"
     inkscape:window-y="-8"
     inkscape:window-maximized="1"
     inkscape:current-layer="g14"
     fit-margin-top="0"
     fit-margin-left="0"
     fit-margin-right="0"
     fit-margin-bottom="0" /><metadata
     id="metadata8"><rdf:RDF><cc:Work
         rdf:about=""><dc:format>image/svg+xml</dc:format><dc:type
           rdf:resource="http://purl.org/dc/dcmitype/StillImage" /><dc:title></dc:title></cc:Work></rdf:RDF></metadata><defs
     id="defs6"><clipPath
       id="clipPath16"
       clipPathUnits="userSpaceOnUse"><path
         id="path18"
         d="M 0,38 H 38 V 0 H 0 Z"
         inkscape:connector-curvature="0" /></clipPath></defs><g
     transform="matrix(1.25,0,0,-1.25,-1.25,46.25)"
     id="g10"><g
       id="g12"><g
         clip-path="url(#clipPath16)"
         id="g14"><g
           transform="translate(37,5)"
           id="g20"
           style="fill:#20252b;fill-opacity:1"><path
             id="path22"
             style="fill:#20252b;fill-opacity:1;fill-rule:nonzero;stroke:none"
             d="m 0,0 c 0,-2.209 -1.791,-4 -4,-4 h -28 c -2.209,0 -4,1.791 -4,4 v 28 c 0,2.209 1.791,4 4,4 h 28 c 2.209,0 4,-1.791 4,-4 z"
             inkscape:connector-curvature="0" /></g><g
           transform="translate(17,19)"
           id="g24"
           style="fill:#f7ca00;fill-opacity:1"><path
             id="path26"
             style="fill:#f7ca00;fill-opacity:1;fill-rule:nonzero;stroke:none"
             d="m 0,0 h 3.063 c 2.017,0 3.296,1.465 3.296,3.385 0,1.92 -1.279,3.391 -3.296,3.391 H 0 Z M -5,8.504 C -5,10.008 -4.104,11 -2.504,11 H 3.16 c 4.703,0 8.192,-2.944 8.192,-7.52 0,-4.67 -3.618,-7.48 -8,-7.48 H 0 v -5.479 c 0,-1.599 -1.024,-2.496 -2.4,-2.496 -1.376,0 -2.6,0.897 -2.6,2.496 z"
             inkscape:connector-curvature="0" /></g></g></g></g></svg>