<?xml version="1.0" encoding="UTF-8" standalone="no"?>
<svg
   xmlns:dc="http://purl.org/dc/elements/1.1/"
   xmlns:cc="http://creativecommons.org/ns#"
   xmlns:rdf="http://www.w3.org/1999/02/22-rdf-syntax-ns#"
   xmlns:svg="http://www.w3.org/2000/svg"
   xmlns="http://www.w3.org/2000/svg"
   xmlns:sodipodi="http://sodipodi.sourceforge.net/DTD/sodipodi-0.dtd"
   xmlns:inkscape="http://www.inkscape.org/namespaces/inkscape"
   version="1.1"
   id="Layer_1"
   x="0px"
   y="0px"
   width="4867.79"
   height="2603.5938"
   viewBox="0 0 4867.79 2603.5938"
   enable-background="new 0 0 4916 2605"
   xml:space="preserve"
   sodipodi:docname="pojazd1.svg"
   inkscape:version="0.92.2 (5c3e80d, 2017-08-06)"><metadata
     id="metadata8"><rdf:RDF><cc:Work
         rdf:about=""><dc:format>image/svg+xml</dc:format><dc:type
           rdf:resource="http://purl.org/dc/dcmitype/StillImage" /><dc:title /></cc:Work></rdf:RDF></metadata><defs
     id="defs6" /><sodipodi:namedview
     pagecolor="#ffffff"
     bordercolor="#666666"
     borderopacity="1"
     objecttolerance="10"
     gridtolerance="10"
     guidetolerance="10"
     inkscape:pageopacity="0"
     inkscape:pageshadow="2"
     inkscape:window-width="1366"
     inkscape:window-height="705"
     id="namedview4"
     showgrid="false"
     showguides="false"
     inkscape:zoom="0.073996798"
     inkscape:cx="86.513912"
     inkscape:cy="2572.5313"
     inkscape:window-x="-8"
     inkscape:window-y="-8"
     inkscape:window-maximized="1"
     inkscape:current-layer="Layer_1"
     fit-margin-top="0"
     fit-margin-left="0"
     fit-margin-right="0"
     fit-margin-bottom="0" /><path
     style="fill:#20252b;fill-opacity:1;stroke:none;stroke-width:1003.43688965;stroke-linecap:square;stroke-linejoin:miter;stroke-miterlimit:4;stroke-dasharray:none;stroke-opacity:1;paint-order:markers stroke fill"
     d="m 240.67661,2143.1256 c -131.88955,-8.5637 -134.65749,-9.5023 -182.737605,-61.9668 -74.453995,-81.2433 -64.314185,-153.0537 29.82709,-211.2362 49.206235,-30.4111 50.344555,-33.2186 50.344555,-124.1621 0,-184.9682 124.74916,-450.0058 275.68467,-585.7098 117.4565,-105.6035 218.16439,-148.305 491.09669,-208.23174 230.77809,-50.6712 266.26829,-76.0075 506.96099,-361.9179 264.9398,-314.7127 371.159,-403.4471 578.7979,-483.5211 C 2211.5748,21.182657 2346.0043,0.72155693 2689.271,0.04485693 c 271.6428,-0.5355 325.77,3.33859997 456.9228,32.70360007 557.3086,124.780903 981.1512,417.421203 1248.2675,861.861203 90.136,149.97244 130.5047,257.79144 199.0309,531.58274 66.3264,265.0028 95.3055,327.095 197.2633,422.6688 69.7858,65.4164 77.0344,77.9524 77.0344,133.2259 0,121.42 -83.4642,159.833 -347.5597,159.9583 l -168.4053,0.08 -0.1146,-68.0788 c -0.4271,-268.8699 -115.6897,-472.9424 -331.216,-586.421 -72.284,-38.0622 -87.9709,-40.6198 -249.13,-40.6198 -206.0892,0 -260.0683,20.5025 -400.9496,152.2901 -126.3122,118.1589 -167.9368,214.8071 -176.6896,410.2551 l -6.5788,146.9067 H 2436.576 1686.0057 v -98.3703 c 0,-117.9963 -19.5727,-229.2804 -52.5479,-298.7704 -45.4584,-95.7965 -171.5473,-215.0039 -288.6122,-272.8605 -101.5914,-50.2091 -117.4435,-53.7783 -238.5572,-53.7117 -115.94357,0.057 -139.97777,4.9163 -226.09579,45.6483 -233.6699,110.5212 -373.9413,347.0653 -348.223,587.2192 l 9.7287,90.8454 -83.5518,-2.3184 c -45.9536,-1.2756 -143.815,-6.2313 -217.4699,-11.0137 z M 2385.4249,1221.9878 c 9.4594,-9.4594 17.1988,-37.1925 17.1988,-61.6292 0,-63.9776 -22.9505,-78.828 -121.825,-78.828 -98.8745,0 -121.8251,14.8504 -121.8251,78.828 0,63.9776 22.9506,78.828 121.8251,78.828 48.8892,0 95.0086,-7.5813 104.6262,-17.1988 z M 4179.8366,931.97986 c 0,-32.028 -156.1326,-220.5154 -266.121,-321.2684 -193.4713,-177.226 -453.2965,-324.0143 -700.1494,-395.5494 -114.6829,-33.2339 -256.4399,-56.6851 -427.5518,-70.7312 l -82.4111,-6.7649 v 399.7692 399.7691 l 146.9067,4.6449 c 80.7987,2.5547 412.9512,6.0051 738.1167,7.6676 505.3696,2.5838 591.2099,0.037 591.2099,-17.5369 z M 2488.6179,542.09026 v -396.1168 l -106.6454,9.6639 c -239.3914,21.6931 -398.5133,100.567 -606.0099,300.3885 -139.8163,134.6445 -347.9394,411.4073 -347.9394,462.6908 0,16.0811 92.7607,19.4904 530.2973,19.4904 h 530.2974 z"
     id="path819"
     inkscape:connector-curvature="0" /><path
     style="fill:#20252b;fill-opacity:1;stroke:none;stroke-width:897.53515625;stroke-linecap:square;stroke-linejoin:miter;stroke-miterlimit:4;stroke-dasharray:none;stroke-opacity:1;paint-order:markers stroke fill"
     d="m 965.15433,2571.6011 c -296.56811,-79.8695 -480.40071,-355.4466 -437.94061,-656.5026 32.7001,-231.8549 220.74979,-436.9803 448.80201,-489.5546 132.66487,-30.5842 302.21507,-6.8377 423.84687,59.3627 201.3683,109.5984 332.3156,377.4647 294.9016,603.2514 -57.1212,344.7149 -400.3248,572.1234 -729.60987,483.4431 z M 1184.649,2278.361 c 181.799,-54.7135 264.7945,-251.2071 177.1739,-419.4632 -90.2415,-173.2892 -328.4419,-207.3981 -468.72179,-67.118 -60.67169,60.6716 -78.05859,105.7796 -78.4267,203.4663 -0.2835,75.2084 5.3778,99.4619 34.96531,149.7941 40.43999,68.7934 91.35081,109.1788 167.75778,133.0748 70.1032,21.9244 95.0971,21.9612 167.2515,0.2459 z"
     id="path848"
     inkscape:connector-curvature="0" /><path
     style="fill:#20252b;fill-opacity:1;stroke:none;stroke-width:861.94848633;stroke-linecap:square;stroke-linejoin:miter;stroke-miterlimit:4;stroke-dasharray:none;stroke-opacity:1;paint-order:markers stroke fill"
     d="M 77.743265,1855.571 C 28.27675,1834.0565 0,1780.1588 0,1707.3862 c 0,-73.4499 25.49595,-121.0368 78.264815,-146.0772 54.257485,-25.7469 111.721735,-27.1126 102.250195,-2.4302 -23.75466,61.9036 -36.4748,136.1965 -37.54741,219.2982 -0.71432,55.3374 -6.43512,95.2113 -13.62021,94.9319 -6.81376,-0.2651 -30.035625,-8.1571 -51.604125,-17.5379 z"
     id="path865"
     inkscape:connector-curvature="0" /><path
     style="fill:#20252b;fill-opacity:1;stroke:none;stroke-width:946.14868164;stroke-linecap:square;stroke-linejoin:miter;stroke-miterlimit:4;stroke-dasharray:none;stroke-opacity:1;paint-order:markers stroke fill"
     d="m 4731.4112,1811.5999 c -36.6839,-36.6839 -94.7358,-161.9026 -98.1968,-211.8117 -2.4711,-35.6352 0.7434,-37.8682 60.0398,-41.7071 91.8878,-5.9488 135.6433,34.992 142.7089,133.5287 8.6841,121.1103 -43.5196,181.0225 -104.5519,119.9901 z"
     id="path882"
     inkscape:connector-curvature="0" /><path
     style="fill:#20252b;fill-opacity:1;stroke:none;stroke-width:897.53515625;stroke-linecap:square;stroke-linejoin:miter;stroke-miterlimit:4;stroke-dasharray:none;stroke-opacity:1;paint-order:markers stroke fill"
     d="m 3623.3344,2584.3454 c -296.5681,-79.8695 -480.4007,-355.4466 -437.9406,-656.5026 32.7001,-231.8549 220.7498,-436.9803 448.802,-489.5546 132.6649,-30.5842 302.2151,-6.8377 423.8469,59.3627 201.3683,109.5984 332.3156,377.4647 294.9016,603.2514 -57.1212,344.7149 -400.3248,572.1234 -729.6099,483.4431 z m 219.4947,-293.2401 c 181.799,-54.7135 264.7945,-251.207 177.1739,-419.4632 -90.2415,-173.2892 -328.4419,-207.3981 -468.7218,-67.1179 -60.6717,60.6715 -78.0586,105.7795 -78.4267,203.4662 -0.2835,75.2084 5.3778,99.4619 34.9653,149.7942 40.44,68.7934 91.3508,109.1788 167.7578,133.0747 70.1032,21.9245 95.0971,21.9613 167.2515,0.2459 z"
     id="path848-6"
     inkscape:connector-curvature="0" /></svg>