<?xml version="1.0" encoding="UTF-8" standalone="no"?>
<svg
   xmlns:dc="http://purl.org/dc/elements/1.1/"
   xmlns:cc="http://creativecommons.org/ns#"
   xmlns:rdf="http://www.w3.org/1999/02/22-rdf-syntax-ns#"
   xmlns:svg="http://www.w3.org/2000/svg"
   xmlns="http://www.w3.org/2000/svg"
   xmlns:sodipodi="http://sodipodi.sourceforge.net/DTD/sodipodi-0.dtd"
   xmlns:inkscape="http://www.inkscape.org/namespaces/inkscape"
   viewBox="0 0 3456.8499 2542.5755"
   xml:space="preserve"
   version="1.1"
   id="svg2"
   sodipodi:docname="pojazd2_tlo.svg"
   width="3456.8499"
   height="2542.5754"
   inkscape:version="0.92.2 (5c3e80d, 2017-08-06)"><sodipodi:namedview
     pagecolor="#ffffff"
     bordercolor="#666666"
     borderopacity="1"
     objecttolerance="10"
     gridtolerance="10"
     guidetolerance="10"
     inkscape:pageopacity="0"
     inkscape:pageshadow="2"
     inkscape:window-width="1366"
     inkscape:window-height="705"
     id="namedview33"
     showgrid="false"
     fit-margin-top="0"
     fit-margin-left="0"
     fit-margin-right="0"
     fit-margin-bottom="0"
     inkscape:zoom="0.069644045"
     inkscape:cx="-3410.6465"
     inkscape:cy="548.71036"
     inkscape:window-x="-8"
     inkscape:window-y="-8"
     inkscape:window-maximized="1"
     inkscape:current-layer="svg2" /><metadata
     id="metadata8"><rdf:RDF><cc:Work
         rdf:about=""><dc:format>image/svg+xml</dc:format><dc:type
           rdf:resource="http://purl.org/dc/dcmitype/StillImage" /><dc:title /></cc:Work></rdf:RDF></metadata><defs
     id="defs6"><clipPath
       id="clipPath16"
       clipPathUnits="userSpaceOnUse"><path
         id="path18"
         d="M 0,36 H 36 V 0 H 0 Z"
         inkscape:connector-curvature="0" /></clipPath></defs><path
     style="fill:#f7ca00;fill-opacity:1;stroke:none;stroke-width:682.15429688;stroke-linecap:square;stroke-linejoin:miter;stroke-miterlimit:4;stroke-dasharray:none;stroke-opacity:1;paint-order:markers stroke fill;opacity:0.05"
     d="M 1200.0039 0 L 1174.7793 29.978516 C 1143.6232 67.005416 1142.4177 107.58135 1171.4766 141.18945 C 1195.48 168.95085 1268.4654 184.55133 1376.0879 184.92773 L 1432.1133 185.125 L 1432.1133 282.55859 L 1432.1133 379.99219 L 1366.3438 380.8457 C 1333.2058 381.27579 1283.0108 385.52013 1248.7129 389.76758 C 1237.8598 382.676 1226.3934 376.30374 1214.5859 370.9668 C 1173.1983 352.26002 1164.7282 348.67065 959.24805 347.98047 L 984.75586 320.67383 C 1017.8896 285.20406 1018.0299 263.49859 985.33594 230.80469 C 953.34832 198.81703 905.0317 190.4738 785.19922 196.24414 C 742.67543 198.29181 713.80389 201.55142 693.4082 207.88281 C 683.96338 198.94733 528.74207 203.40386 509.17383 213.71289 C 481.79091 228.13889 475.98148 239.08866 475.82031 276.57812 C 475.64589 317.15243 490.72303 338.19743 527.20703 347.8125 L 392.63867 347.8125 L 318.16992 384.61328 C 187.79842 449.03998 97.332828 579.14957 43.986328 778.94727 C 2.8438285 933.03767 -2.4967469 1018.2971 0.81445312 1468.3047 L 3.8984375 1887.2695 L 29.203125 1940.8594 C 73.590425 2034.8584 170.34915 2122.9435 258.37305 2149.4863 C 273.30194 2153.9881 277.97943 2152.1145 282.20508 2128.8555 C 275.2188 2292.0229 383.81894 2460.0479 544.4082 2526.8848 C 574.0366 2539.2161 608.98231 2542.8915 679.34961 2541.0801 C 760.41181 2538.9936 782.74524 2534.4934 831.96094 2510.3262 C 912.17194 2470.9389 983.28431 2398.4435 1022.1055 2316.4863 C 1051.56 2254.3036 1054.1836 2240.5855 1054.1836 2148.8066 C 1054.1836 2146.3099 1054.1725 2144.0811 1054.168 2141.6973 C 1055.1612 2146.7061 1056.0473 2150.6876 1056.6914 2152.7773 C 1059.643 2162.3544 1193.4707 2164.957 1683.0879 2164.957 L 2305.7305 2164.957 L 2306.6914 2154.9531 C 2311.115 2309.991 2416.6832 2464.5219 2569.0664 2527.9434 C 2598.6948 2540.2747 2633.6405 2543.952 2704.0078 2542.1406 C 2785.07 2540.0541 2807.4015 2535.5539 2856.6172 2511.3867 C 2936.8282 2471.9994 3007.9424 2399.5041 3046.7637 2317.5469 C 3076.2182 2255.3642 3078.8418 2241.6461 3078.8418 2149.8672 C 3078.8418 2148.9419 3078.8365 2148.142 3078.8359 2147.2324 L 3080.9141 2167.375 L 3133.0449 2161.9961 C 3249.7005 2149.9562 3365.4531 2065.6201 3421.4785 1951.8477 L 3453.0605 1887.7148 L 3455.8262 1372.2871 C 3458.9193 795.97982 3459.2237 799.17997 3392.3652 703.48047 C 3343.7854 633.94487 3272.9181 581.05677 3196.2695 557.13477 C 3194.6757 556.63733 3193.1056 556.15969 3191.5352 555.6875 C 3440.4911 550.43439 3433.6256 543.03041 3443.5137 485.26953 C 3448.765 454.59403 3445.5103 444.60299 3421.5137 417.74609 C 3393.3628 386.23979 3393.298 386.22361 3279.8926 381.88281 L 3166.4375 377.54102 L 3166.4375 281.33203 L 3166.4375 185.125 L 3222.4609 184.92773 C 3315.6327 184.60193 3401.6912 168.55476 3422.6484 147.59766 C 3434.9871 135.25886 3442.0778 114.14317 3442.7715 87.667969 C 3443.6471 54.277069 3438.8628 42.504131 3416.6465 23.394531 L 3389.4473 0 L 2294.7266 0 L 1200.0039 0 z M 1617.2363 185.125 L 1719.543 185.125 L 1821.8477 185.125 L 1821.8477 282.55859 L 1821.8477 379.99219 L 1719.543 379.99219 L 1617.2363 379.99219 L 1617.2363 282.55859 L 1617.2363 185.125 z M 2006.9727 185.125 L 2103.0195 185.125 L 2199.0645 185.125 L 2205.3242 245.01367 C 2208.7671 277.95297 2211.584 321.79787 2211.584 342.44727 L 2211.584 379.99219 L 2109.2793 379.99219 L 2006.9727 379.99219 L 2006.9727 282.55859 L 2006.9727 185.125 z M 2399.3574 185.125 L 2495.4668 185.125 L 2591.5762 185.125 L 2591.5762 282.55859 L 2591.5762 379.99219 L 2489.2715 379.99219 L 2386.9648 379.99219 L 2386.9648 327.76367 C 2386.9648 299.03787 2389.7544 255.19288 2393.1621 230.33008 L 2399.3574 185.125 z M 2776.7012 185.125 L 2879.0059 185.125 L 2981.3125 185.125 L 2981.3125 282.55859 L 2981.3125 379.99219 L 2879.0059 379.99219 L 2776.7012 379.99219 L 2776.7012 282.55859 L 2776.7012 185.125 z M 653.34766 310.24219 C 655.85466 313.56373 658.71339 317.10354 661.93945 320.9375 L 674.14258 335.43945 C 662.65679 329.64542 656.61685 321.59181 653.34766 310.24219 z M 671.32031 526.1543 L 671.32031 819.41211 L 671.32031 1112.6699 L 426.29297 1112.6699 L 181.26562 1112.6699 L 186.88867 1027.416 C 201.85567 800.47994 267.02631 632.86626 367.66211 562.47656 C 408.78011 533.71656 413.33677 532.84927 540.60547 529.54688 L 671.32031 526.1543 z M 856.44531 528.06641 L 920.08984 528.06641 C 994.35944 528.06641 1043.2363 545.86473 1088.6816 589.45703 C 1151.4966 649.71063 1153.2146 657.43791 1156.8262 895.87891 L 1160.1113 1112.6699 L 1008.2773 1112.6699 L 856.44531 1112.6699 L 856.44531 820.36719 L 856.44531 528.06641 z M 184.15039 1297.7949 L 1728.4785 1297.7949 L 3272.8066 1297.7949 L 3272.8066 1448.8164 L 3272.8066 1599.8398 L 1728.4785 1599.8398 L 184.15039 1599.8398 L 184.15039 1448.8164 L 184.15039 1297.7949 z M 673.56641 1934.1211 C 735.78661 1934.3458 805.24571 1958.0902 842.66211 1991.9258 C 878.14741 2024.0153 902.41495 2086.1272 902.50195 2145.0859 C 902.64315 2240.614 836.42091 2327.5218 744.32031 2352.6797 C 656.35881 2376.7069 583.9028 2356.1356 523.4082 2289.9609 C 469.816 2231.337 451.22968 2169.0228 468.30078 2105.1953 C 497.33118 1996.6545 572.79891 1933.757 673.56641 1934.1211 z M 2698.2246 1935.1816 C 2760.4448 1935.4063 2829.9039 1959.1507 2867.3203 1992.9863 C 2902.8056 2025.0758 2927.0712 2087.1878 2927.1582 2146.1465 C 2927.2994 2241.6746 2861.0791 2328.5823 2768.9785 2353.7402 C 2681.017 2377.7674 2608.5591 2357.1962 2548.0645 2291.0215 C 2494.4723 2232.3976 2475.8879 2170.0834 2492.959 2106.2559 C 2521.9894 1997.7151 2597.4571 1934.8175 2698.2246 1935.1816 z "
     id="path916" /></svg>