<?xml version="1.0" encoding="UTF-8" standalone="no"?>
<svg
   xmlns:dc="http://purl.org/dc/elements/1.1/"
   xmlns:cc="http://creativecommons.org/ns#"
   xmlns:rdf="http://www.w3.org/1999/02/22-rdf-syntax-ns#"
   xmlns:svg="http://www.w3.org/2000/svg"
   xmlns="http://www.w3.org/2000/svg"
   xmlns:sodipodi="http://sodipodi.sourceforge.net/DTD/sodipodi-0.dtd"
   xmlns:inkscape="http://www.inkscape.org/namespaces/inkscape"
   viewBox="0 0 44.860309 34.383099"
   xml:space="preserve"
   version="1.1"
   id="svg2"
   sodipodi:docname="pojazd3_tlo.svg"
   width="44.86031"
   height="34.383099"
   inkscape:version="0.92.2 (5c3e80d, 2017-08-06)"><sodipodi:namedview
     pagecolor="#ffffff"
     bordercolor="#666666"
     borderopacity="1"
     objecttolerance="10"
     gridtolerance="10"
     guidetolerance="10"
     inkscape:pageopacity="0"
     inkscape:pageshadow="2"
     inkscape:window-width="1366"
     inkscape:window-height="705"
     id="namedview26"
     showgrid="false"
     fit-margin-top="0"
     fit-margin-left="0"
     fit-margin-right="0"
     fit-margin-bottom="0"
     inkscape:zoom="6.4520762"
     inkscape:cx="20.15108"
     inkscape:cy="15.628357"
     inkscape:window-x="-8"
     inkscape:window-y="-8"
     inkscape:window-maximized="1"
     inkscape:current-layer="svg2" /><metadata
     id="metadata8"><rdf:RDF><cc:Work
         rdf:about=""><dc:format>image/svg+xml</dc:format><dc:type
           rdf:resource="http://purl.org/dc/dcmitype/StillImage" /><dc:title /></cc:Work></rdf:RDF></metadata><defs
     id="defs6"><clipPath
       id="clipPath16"
       clipPathUnits="userSpaceOnUse"><path
         id="path18"
         d="M 0,36 H 36 V 0 H 0 Z"
         inkscape:connector-curvature="0" /></clipPath></defs><path
     style="opacity:0.05;fill:#f7ca00;fill-opacity:1;stroke:none;stroke-width:13.34602165;stroke-linecap:square;stroke-linejoin:miter;stroke-miterlimit:4;stroke-dasharray:none;stroke-opacity:1;paint-order:markers stroke fill"
     d="M 26.853516 0.001953125 C 24.94574 0.010202281 23.267007 0.037560125 22.158203 0.087890625 C 18.728082 0.24358862 18.586356 0.26689787 17.8125 0.77929688 C 16.736559 1.4917169 15.93878 2.7899357 15.814453 4.0273438 C 15.806538 4.106126 15.794493 4.6946408 15.785156 4.9121094 L 11.951172 4.9121094 C 5.0864297 4.9121094 5.0010776 4.9622646 2.0566406 10.730469 L 0.013671875 14.732422 L 0.0078125 17.832031 L 0 20.929688 L 0.091796875 22.816406 C 0.17124287 24.466255 0.25366137 24.831055 0.75585938 25.724609 C 1.4213534 26.908715 2.4931094 27.741734 3.8027344 28.09375 C 4.5071426 28.283088 5.1415833 28.354582 5.5820312 28.333984 C 5.5274459 29.060114 5.6088673 29.807744 5.8476562 30.541016 C 6.3504222 32.084917 7.8765442 33.66694 9.3164062 34.134766 C 10.722025 34.591467 12.401901 34.410041 13.759766 33.65625 C 15.791713 32.528258 16.677142 30.408874 16.541016 28.365234 L 22.455078 28.365234 C 26.266653 28.365234 27.859999 28.337165 28.40625 28.234375 C 28.40456 28.829105 28.491914 29.434691 28.685547 30.029297 C 29.188313 31.573198 30.714435 33.153267 32.154297 33.621094 C 33.559916 34.077795 35.239791 33.898321 36.597656 33.144531 C 38.461213 32.110018 39.363914 30.240496 39.396484 28.361328 L 40.023438 28.302734 C 41.614565 28.154153 42.744489 27.613221 43.679688 26.550781 C 44.604391 25.500261 44.859375 24.640457 44.859375 22.576172 L 44.859375 20.929688 L 44.152344 20.929688 L 44.037109 12.300781 C 43.967892 7.0943169 43.841719 3.3965605 43.71875 2.9765625 C 43.462624 2.1017605 41.936514 0.58810975 41.044922 0.32421875 C 40.365613 0.12315875 32.576841 -0.022794344 26.853516 0.001953125 z M 9.7949219 7.2011719 L 11.25 7.2011719 L 11.25 11.013672 L 11.25 14.828125 L 6.8652344 14.828125 C 4.4531584 14.828125 2.4785156 14.779873 2.4785156 14.720703 C 2.4785156 14.661532 3.1266446 13.333761 3.9179688 11.771484 C 5.9249117 7.8092644 6.7082709 7.2011719 9.7949219 7.2011719 z M 34.076172 25.408203 C 34.956 25.408203 35.184157 25.513305 35.916016 26.259766 C 36.650208 27.008606 36.751953 27.237356 36.751953 28.146484 C 36.751953 29.329051 36.29921 30.249848 35.484375 30.726562 C 35.174917 30.90761 34.680677 31.111088 34.384766 31.179688 C 33.755311 31.325599 32.379155 30.879118 31.794922 30.339844 C 31.222285 29.811272 30.879625 28.609697 31.060547 27.769531 C 31.400671 26.190054 32.39941 25.408203 34.076172 25.408203 z M 11.238281 25.919922 C 12.118109 25.919922 12.346267 26.025023 13.078125 26.771484 C 13.812317 27.520324 13.914062 27.749075 13.914062 28.658203 C 13.914062 29.84077 13.461318 30.761567 12.646484 31.238281 C 12.337026 31.419328 11.842786 31.622806 11.546875 31.691406 C 10.91742 31.837318 9.5412642 31.39279 8.9570312 30.853516 C 8.3843943 30.324944 8.0417342 29.121416 8.2226562 28.28125 C 8.5627802 26.701773 9.5615192 25.919922 11.238281 25.919922 z "
     id="path836" /></svg>