<?xml version="1.0" encoding="UTF-8" standalone="no"?>
<svg
   xmlns:dc="http://purl.org/dc/elements/1.1/"
   xmlns:cc="http://creativecommons.org/ns#"
   xmlns:rdf="http://www.w3.org/1999/02/22-rdf-syntax-ns#"
   xmlns:svg="http://www.w3.org/2000/svg"
   xmlns="http://www.w3.org/2000/svg"
   xmlns:sodipodi="http://sodipodi.sourceforge.net/DTD/sodipodi-0.dtd"
   xmlns:inkscape="http://www.inkscape.org/namespaces/inkscape"
   version="1.1"
   id="Layer_1"
   x="0px"
   y="0px"
   width="484.92438"
   height="335.31033"
   viewBox="0 0 484.9244 335.31033"
   enable-background="new 0 0 512 512"
   xml:space="preserve"
   sodipodi:docname="pojazd4.svg"
   inkscape:version="0.92.2 (5c3e80d, 2017-08-06)"><metadata
     id="metadata8"><rdf:RDF><cc:Work
         rdf:about=""><dc:format>image/svg+xml</dc:format><dc:type
           rdf:resource="http://purl.org/dc/dcmitype/StillImage" /><dc:title /></cc:Work></rdf:RDF></metadata><defs
     id="defs6" /><sodipodi:namedview
     pagecolor="#ffffff"
     bordercolor="#666666"
     borderopacity="1"
     objecttolerance="10"
     gridtolerance="10"
     guidetolerance="10"
     inkscape:pageopacity="0"
     inkscape:pageshadow="2"
     inkscape:window-width="1366"
     inkscape:window-height="705"
     id="namedview4"
     showgrid="false"
     fit-margin-top="0"
     fit-margin-left="0"
     fit-margin-right="0"
     fit-margin-bottom="0"
     inkscape:zoom="0.92"
     inkscape:cx="432.4195"
     inkscape:cy="198.75438"
     inkscape:window-x="-8"
     inkscape:window-y="-8"
     inkscape:window-maximized="1"
     inkscape:current-layer="Layer_1" /><path
     style="fill:#f00000;fill-opacity:0;stroke:none;stroke-width:151.89038086;stroke-linecap:square;stroke-linejoin:miter;stroke-miterlimit:4;stroke-dasharray:none;stroke-opacity:1;paint-order:markers stroke fill"
     d=""
     id="path915"
     inkscape:connector-curvature="0" /><path
     style="fill:#f00000;fill-opacity:0;stroke:none;stroke-width:151.89038086;stroke-linecap:square;stroke-linejoin:miter;stroke-miterlimit:4;stroke-dasharray:none;stroke-opacity:1;paint-order:markers stroke fill"
     d=""
     id="path917"
     inkscape:connector-curvature="0" /><path
     style="fill:#f00000;fill-opacity:0;stroke:none;stroke-width:151.89038086;stroke-linecap:square;stroke-linejoin:miter;stroke-miterlimit:4;stroke-dasharray:none;stroke-opacity:1;paint-order:markers stroke fill"
     d=""
     id="path919"
     inkscape:connector-curvature="0" /><path
     style="fill:#20252b;fill-opacity:1;stroke:none;stroke-width:49.75111389;stroke-linecap:square;stroke-linejoin:miter;stroke-miterlimit:4;stroke-dasharray:none;stroke-opacity:1;paint-order:markers stroke fill"
     d="M 437.83789 0 L 275.89648 0.015625 C 120.75172 0.030525 113.1626 0.21985817 95.072266 4.5488281 C 84.686726 7.0340581 69.068966 12.582423 60.367188 16.876953 C 51.577067 21.215073 40.963455 28.56773 33.164062 35.09375 L 24.865234 42.941406 C 23.996364 43.941166 23.311424 44.845404 22.865234 45.615234 C 20.443294 46.367884 19.208176 47.68116 18.166016 49.90625 C 14.345116 58.06381 12.363684 85.641612 13.333984 117.17773 C 13.814984 132.81047 14.221128 164.48514 14.236328 187.56641 L 14.263672 225.45703 C 13.521802 225.55951 12.863162 225.66012 12.013672 225.76953 C -0.49992875 227.38123 -0.89625937 227.84198 0.61914062 238.97852 C 1.4827406 245.3247 4.5302781 253.02483 7.3925781 256.0918 C 10.254879 259.15879 11.104497 261.68613 9.2792969 261.70703 C 7.4540969 261.72793 8.7854813 262.79208 12.238281 264.07227 C 13.751481 264.63333 15.148384 264.76999 16.621094 264.36133 C 18.108324 266.57907 20.72224 268.256 24.53125 269.8418 C 28.7977 271.61806 32.552988 272.89791 33.923828 273.08594 C 32.726588 302.26675 52.838964 328.79881 84.740234 334.28906 C 107.29343 338.17049 127.71642 330.92267 142.8418 313.66992 C 152.59901 302.54042 157.58895 289.28164 157.62109 275.50977 C 159.55913 276.14052 162.85995 275.78239 170.63086 274.44531 C 178.70141 273.05665 178.94869 272.7197 177.99023 264.38281 C 177.64274 261.36027 176.44101 257.08229 174.82031 252.51172 C 179.41343 253.57805 194.91634 253.8051 238.73438 253.80273 L 298.17969 253.79883 C 294.7261 263.60618 292.3726 273.09043 293.68555 274.36523 C 294.41748 275.07583 299.90792 275.6582 305.88672 275.6582 L 316.75586 275.6582 L 317.0293 274.00977 C 317.51897 301.77639 337.27326 326.41922 367.88477 331.6875 C 390.4379 335.56892 410.86288 328.31912 425.98828 311.06641 C 436.12183 299.50763 441.11873 285.65428 440.75391 271.3125 C 442.98747 272.5159 445.69723 271.623 450.07031 269.49609 C 456.59507 266.32269 457.95553 264.48248 457.58203 259.3418 C 457.41073 256.98456 456.85256 254.45752 455.97656 251.82422 C 459.91116 252.52994 470.83691 251.40857 470.19531 249.98047 C 469.71951 248.92095 472.23706 244.66848 475.78906 240.5293 C 483.60846 231.41701 483.69065 230.93791 482.62695 201.17773 L 481.7793 177.41992 L 481.60156 177.41992 C 481.91526 176.00238 482.60574 171.67721 483.33594 166.43945 L 484.92383 155.04883 L 484.08789 155.04883 L 483.85938 141.04688 L 483.63086 126.8457 L 484.50195 126.8457 L 484.50195 89.09375 L 484.50195 51.341797 L 480.80273 51.158203 C 484.00143 49.172943 480.65003 45.268205 475.76953 37.765625 C 468.68823 26.880105 459.98407 17.563515 448.0625 8.109375 L 437.83789 0 z M 409.36133 72.527344 L 413.24023 78.869141 C 415.88263 83.189711 417.2959 98.514591 417.44336 113.93555 C 417.42956 116.3609 417.4177 119.22439 417.4043 122.0332 C 417.13757 135.25274 415.89493 147.09091 413.62109 150.22656 L 412.26758 152.09375 C 410.42047 152.68137 409.22768 153.53718 408.54883 155.04688 L 346.83594 154.98242 C 347.59616 146.39849 347.8336 135.60739 347.41406 124.06055 C 347.00741 112.86819 346.66323 90.191206 346.65039 73.666016 L 346.65039 72.744141 L 409.36133 72.527344 z M 325.06836 72.820312 C 324.82502 77.891633 324.7203 90.427595 324.60156 119.60938 L 324.46484 153.3125 C 324.34702 153.3388 324.24418 153.36608 324.12305 153.39258 C 322.43977 153.7612 321.17127 154.22922 320.22852 154.95508 L 259.35156 154.89258 C 260.26083 146.10008 260.57194 134.62097 260.11914 122.27344 C 259.71793 111.33274 259.38267 89.358625 259.36133 73.046875 L 325.06836 72.820312 z M 234.92578 73.134766 C 234.77843 80.049856 234.69416 92.601575 234.60156 115.35938 L 234.45312 152.04492 C 232.9917 152.64218 232.01177 153.48216 231.43164 154.84375 C 208.43388 154.80655 186.38332 154.74745 166.78516 154.6543 C 167.23181 148.17775 167.25977 137.71848 167.25977 120.13281 C 167.25977 105.3497 166.88487 92.710286 166.25391 84.134766 C 166.26551 80.430856 166.27761 76.878339 166.28711 73.417969 C 185.1137 73.320969 207.71553 73.231096 234.92578 73.134766 z M 124.80664 73.714844 C 135.44479 75.143134 138.07015 78.073805 138.69727 97.890625 C 138.05503 109.79722 137.59766 126.15364 137.59766 139.17188 L 137.59766 151.91992 C 137.40575 152.8726 137.1804 153.71426 136.92773 154.48242 C 100.74383 154.23197 76.724625 153.89559 75.703125 153.54297 C 67.821965 150.82245 66.71875 145.94486 66.71875 113.82812 C 66.71875 89.866445 67.49776 81.086237 69.90625 77.904297 C 71.95732 75.194547 75.78386 74.228644 124.80664 73.714844 z M 38.597656 76.882812 C 39.420836 87.801023 39.687247 103.66256 39.710938 127.41406 L 39.712891 129.50977 C 39.414281 154.48706 37.9653 155.45847 30.96875 156.94336 C 30.78788 156.98176 30.626748 157.02586 30.455078 157.06641 C 30.451078 153.8738 30.445314 150.79579 30.445312 147.25 C 30.445312 85.78788 30.652196 79.542142 38.597656 76.882812 z M 471.02539 126.8457 L 477.76367 126.8457 L 478.22266 126.8457 L 477.98438 139.72852 C 477.84764 147.10934 477.8615 153.51382 478.00586 155.04883 L 477.97461 155.04883 L 471.02539 155.04883 L 471.02539 140.94727 L 471.02539 126.8457 z M 27.994141 178.45703 L 34.416016 179.01953 L 40.837891 179.58398 L 41.425781 194.71094 L 42.013672 209.83984 L 35.183594 209.83984 C 31.427144 209.83984 27.973616 209.49962 27.509766 209.08398 C 27.045906 208.66832 26.964928 201.60742 27.330078 193.39258 L 27.994141 178.45703 z M 467.34766 178.83594 L 473.76367 179.3125 L 475.50586 179.44336 L 475.2793 191.72656 C 475.17097 197.57371 475.15989 202.72015 475.23047 205.41797 L 474.5293 205.41797 C 470.77645 205.41797 467.32669 205.13137 466.86328 204.7793 C 466.39988 204.42723 466.32075 198.44458 466.68555 191.48633 L 467.34766 178.83594 z M 379.61719 195.18945 C 380.1824 195.38718 380.72206 195.58487 381.35547 195.78125 C 380.57615 195.74525 379.79467 195.73129 379.01367 195.71289 C 379.21784 195.53669 379.39866 195.37339 379.61719 195.18945 z M 162.05859 227.88281 C 162.14789 227.88283 162.21902 227.88279 162.30859 227.88281 C 162.39199 228.02003 162.47948 228.15516 162.56055 228.29297 C 162.38435 228.1259 162.22224 228.00589 162.05859 227.88281 z M 380.38672 239.52734 C 391.05782 239.52734 394.39619 240.84182 402.36719 248.18164 C 408.49909 253.82807 411.90868 259.40884 412.17578 264.24023 C 413.26358 283.92178 409.08733 293.02558 395.17383 301.30859 C 381.64083 309.36502 368.1234 307.71571 355.79883 296.50195 C 332.31558 275.13522 347.68246 239.52734 380.38672 239.52734 z M 97.242188 242.12891 C 107.91329 242.12891 111.25166 243.44337 119.22266 250.7832 C 125.3546 256.42962 128.76421 262.01236 129.03125 266.84375 C 130.1191 286.5253 125.94284 295.6291 112.0293 303.91211 C 98.496318 311.96854 84.978867 310.31728 72.654297 299.10352 C 49.171047 277.73679 64.537918 242.12891 97.242188 242.12891 z "
     id="path849-1-6-0-3-3" /></svg>