<?xml version="1.0" encoding="UTF-8" standalone="no"?>
<svg
   xmlns:dc="http://purl.org/dc/elements/1.1/"
   xmlns:cc="http://creativecommons.org/ns#"
   xmlns:rdf="http://www.w3.org/1999/02/22-rdf-syntax-ns#"
   xmlns:svg="http://www.w3.org/2000/svg"
   xmlns="http://www.w3.org/2000/svg"
   xmlns:sodipodi="http://sodipodi.sourceforge.net/DTD/sodipodi-0.dtd"
   xmlns:inkscape="http://www.inkscape.org/namespaces/inkscape"
   version="1.1"
   id="Layer_1"
   x="0px"
   y="0px"
   width="1353.7399"
   height="627.77032"
   viewBox="0 0 1353.7399 627.77032"
   enable-background="new 0 0 1400 692"
   xml:space="preserve"
   sodipodi:docname="pojazd5.svg"
   inkscape:version="0.92.2 (5c3e80d, 2017-08-06)"><metadata
     id="metadata8"><rdf:RDF><cc:Work
         rdf:about=""><dc:format>image/svg+xml</dc:format><dc:type
           rdf:resource="http://purl.org/dc/dcmitype/StillImage" /><dc:title></dc:title></cc:Work></rdf:RDF></metadata><defs
     id="defs6" /><sodipodi:namedview
     pagecolor="#ffffff"
     bordercolor="#666666"
     borderopacity="1"
     objecttolerance="10"
     gridtolerance="10"
     guidetolerance="10"
     inkscape:pageopacity="0"
     inkscape:pageshadow="2"
     inkscape:window-width="1366"
     inkscape:window-height="705"
     id="namedview4"
     showgrid="false"
     fit-margin-top="0"
     fit-margin-left="0"
     fit-margin-right="0"
     fit-margin-bottom="0"
     inkscape:zoom="0.43942712"
     inkscape:cx="420.28105"
     inkscape:cy="469.04704"
     inkscape:window-x="-8"
     inkscape:window-y="-8"
     inkscape:window-maximized="1"
     inkscape:current-layer="Layer_1" /><path
     style="fill:#20252b;fill-opacity:0.83137256;stroke:none;stroke-width:285.76315308;stroke-linecap:square;stroke-linejoin:miter;stroke-miterlimit:4;stroke-dasharray:none;stroke-opacity:1;paint-order:markers stroke fill"
     d="m 602.32146,468.44078 c 1.3627,-3.5509 2.4776,-33.857 2.4776,-67.3469 v -60.8907 h 67.3469 67.3469 v 67.347 67.3469 h -69.8244 c -61.9939,0 -69.5466,-0.724 -67.347,-6.4563 z"
     id="path849"
     inkscape:connector-curvature="0" /><path
     style="fill:#20252b;fill-opacity:0.83137256;stroke:none;stroke-width:285.76315308;stroke-linecap:square;stroke-linejoin:miter;stroke-miterlimit:4;stroke-dasharray:none;stroke-opacity:1;paint-order:markers stroke fill"
     d="m 250.72045,518.69148 c -4.85651,-9.4502 -11.02899,-24.5291 -13.71663,-33.5087 -10.25357,-34.2579 -33.87671,-61.166 -66.89868,-76.2013 -28.42124,-12.9405 -69.51107,-12.7839 -99.099718,0.3777 -25.66516,11.4164 -54.77367,41.9926 -63.53666,66.7403 l -6.1069104,17.2466 -0.76806003,-32.6531 c -0.75217,-31.9778 -0.76798,-40.9652 -0.1705,-96.9387 l 0.29409,-27.5511 278.57142843,-6e-4 278.57145,-6e-4 -0.769,52.2709 c -0.4229,28.749 0.7612,59.0554 2.6314,67.3476 2.6613,11.7998 2.1631,15.0766 -2.2923,15.0766 -3.3393,0 -5.6926,-4.1861 -5.6926,-10.1263 0,-7.5629 -2.7518,-10.817 -10.8703,-12.8546 -10.1872,-2.5568 -271.16613,1.616 -273.93005,4.3799 -0.70102,0.7011 -2.34529,19.4078 -3.65394,41.5705 -1.30865,22.1627 -2.68394,40.6808 -3.05618,41.1514 -0.37225,0.4706 -4.65033,-6.8764 -9.50684,-16.3265 z"
     id="path851"
     inkscape:connector-curvature="0" /><path
     style="fill:#20252b;fill-opacity:0.83137256;stroke:none;stroke-width:285.76315308;stroke-linecap:square;stroke-linejoin:miter;stroke-miterlimit:4;stroke-dasharray:none;stroke-opacity:1;paint-order:markers stroke fill"
     d="m 529.34002,157.03371 c -9.65988,-0.0341 -24.23053,0.54838 -46.56055,1.55078 -97.49148,4.37641 -139.14832,8.46798 -144.53711,14.19531 -3.02762,3.21782 -3.3272,5.78309 -0.79101,6.77539 15.80093,6.18221 15.83489,7.21234 2.06055,62.60938 -10.9298,43.95704 -14.96476,54.46238 -22.00782,57.30078 -4.74332,1.9116 -69.23477,6.16607 -143.3164,9.45507 -138.302533,6.1404 -165.098376,10.13287 -170.9863266,25.47657 -1.91264,4.9843 37.0590566,5.80664 275.5527266,5.80664 h 277.7793 l -1.60547,-84.69532 c -0.8823,-46.58158 -3.1454,-88.08858 -5.02929,-92.23828 -2.00132,-4.40845 -4.4588,-6.17959 -20.5586,-6.23632 z m -136.13476,28.10742 h 5.63476 l -1.13281,58.16211 -1.13086,58.16406 -25.56445,1.2168 c -19.36441,0.9215 -26.11225,-0.216 -27.82813,-4.6875 -2.0283,-5.2856 20.06046,-101.07208 25.24024,-109.45313 0.49464,-0.80035 2.15769,-1.53058 4.46093,-2.11328 l 11.85742,-0.75195 z m 15.63476,0 h 32.65234 32.6543 l 1.13086,55.61718 c 1.11694,54.86196 1.00727,55.65083 -8.16211,58.10743 -5.11254,1.3697 -17.88968,2.51587 -28.39258,2.54687 -30.40269,0.0887 -32.35977,-3.99191 -31.02148,-64.64062 z"
     id="path887"
     inkscape:connector-curvature="0" /><path
     style="fill:#20252b;fill-opacity:0.83137256;stroke:none;stroke-width:285.76315308;stroke-linecap:square;stroke-linejoin:miter;stroke-miterlimit:4;stroke-dasharray:none;stroke-opacity:1;paint-order:markers stroke fill"
     d="m 606.22326,306.52968 c 1.4002,-18.5204 2.571,-50.6632 2.6016,-71.42852 l 0.056,-37.7551 h 65.3062 65.3061 v 71.42852 71.4286 h -67.9078 -67.9077 z"
     id="path855"
     inkscape:connector-curvature="0" /><path
     style="fill:#20252b;fill-opacity:0.83137256;stroke:none;stroke-width:285.76315308;stroke-linecap:square;stroke-linejoin:miter;stroke-miterlimit:4;stroke-dasharray:none;stroke-opacity:1;paint-order:markers stroke fill"
     d="m 583.40376,255.51018 c 0.8986,-187.08921 1.9341,-220.04404 7.0339,-223.84053 3.2891,-2.44856 7.8194,-8.87713 10.0674,-14.28571 2.7564,-6.63179 3.2835,64.591819 1.6189,218.73763 -1.5246,141.17971 -4.017,230.52211 -6.5188,233.67351 -12.6287,15.9069 -13.2542,4.9203 -12.2014,-214.2849 z"
     id="path857"
     inkscape:connector-curvature="0" /><path
     style="fill:#f7ca00;fill-opacity:1;stroke:none;stroke-width:285.76315308;stroke-linecap:square;stroke-linejoin:miter;stroke-miterlimit:4;stroke-dasharray:none;stroke-opacity:1;paint-order:markers stroke fill"
     d=""
     id="path901"
     inkscape:connector-curvature="0" /><path
     style="fill:#f7ca00;fill-opacity:1;stroke:none;stroke-width:285.76315308;stroke-linecap:square;stroke-linejoin:miter;stroke-miterlimit:4;stroke-dasharray:none;stroke-opacity:1;paint-order:markers stroke fill"
     d=""
     id="path903"
     inkscape:connector-curvature="0" /><path
     style="fill:#f7ca00;fill-opacity:1;stroke:none;stroke-width:285.76315308;stroke-linecap:square;stroke-linejoin:miter;stroke-miterlimit:4;stroke-dasharray:none;stroke-opacity:1;paint-order:markers stroke fill"
     d=""
     id="path907"
     inkscape:connector-curvature="0" /><path
     style="fill:#f7ca00;fill-opacity:1;stroke:none;stroke-width:285.76315308;stroke-linecap:square;stroke-linejoin:miter;stroke-miterlimit:4;stroke-dasharray:none;stroke-opacity:1;paint-order:markers stroke fill"
     d=""
     id="path931"
     inkscape:connector-curvature="0" /><path
     style="fill:#f7ca00;fill-opacity:1;stroke:none;stroke-width:285.76315308;stroke-linecap:square;stroke-linejoin:miter;stroke-miterlimit:4;stroke-dasharray:none;stroke-opacity:1;paint-order:markers stroke fill"
     d=""
     id="path933"
     inkscape:connector-curvature="0" /><path
     style="fill:#f7ca00;fill-opacity:1;stroke:none;stroke-width:285.76315308;stroke-linecap:square;stroke-linejoin:miter;stroke-miterlimit:4;stroke-dasharray:none;stroke-opacity:1;paint-order:markers stroke fill"
     d=""
     id="path937"
     inkscape:connector-curvature="0" /><path
     style="fill:#20252b;fill-opacity:0.83137256;stroke:none;stroke-width:285.76315308;stroke-linecap:square;stroke-linejoin:miter;stroke-miterlimit:4;stroke-dasharray:none;stroke-opacity:1;paint-order:markers stroke fill"
     d="m 583.40376,255.51018 c 0.8986,-187.08921 1.9341,-220.04404 7.0339,-223.84053 3.2891,-2.44856 7.8194,-8.87713 10.0674,-14.28571 2.7564,-6.63179 3.2835,64.591819 1.6189,218.73763 -1.5246,141.17971 -4.017,230.52211 -6.5188,233.67351 -12.6287,15.9069 -13.2542,4.9203 -12.2014,-214.2849 z"
     id="path941"
     inkscape:connector-curvature="0" /><path
     style="fill:#20252b;fill-opacity:0.83137256;stroke:none;stroke-width:285.76315308;stroke-linecap:square;stroke-linejoin:miter;stroke-miterlimit:4;stroke-dasharray:none;stroke-opacity:1;paint-order:markers stroke fill"
     d="m 294.11317,574.05788 -27.01238,-1.55 0.29857,-55.9483 c 0.16422,-30.7715 0.92412,-43.5502 1.68867,-28.3972 l 1.39009,27.551 h 138.58902 138.58902 v 28.5715 28.5714 H 446.12555 c -55.84184,0 -106.81123,0.6191 -113.26531,1.3758 -6.45408,0.7567 -23.89026,0.6783 -38.74707,-0.1742 z"
     id="path943"
     inkscape:connector-curvature="0" /><path
     style="fill:#20252b;fill-opacity:0.83137256;stroke:none;stroke-width:285.76315308;stroke-linecap:square;stroke-linejoin:miter;stroke-miterlimit:4;stroke-dasharray:none;stroke-opacity:1;paint-order:markers stroke fill"
     d="m 270.10514,544.28488 v -28.5715 h 138.77551 138.77551 v 28.5715 28.5714 H 408.88065 270.10514 Z"
     id="path945"
     inkscape:connector-curvature="0" /><path
     style="fill:#20252b;fill-opacity:0.83137256;stroke:none;stroke-width:194.47769165;stroke-linecap:square;stroke-linejoin:miter;stroke-miterlimit:4;stroke-dasharray:none;stroke-opacity:1;paint-order:markers stroke fill"
     d="m 911.36736,624.06468 c -40.0454,-10.116 -71.2242,-45.1775 -78.3733,-88.133 l -1.9648,-11.8056 h 16.4554 16.4554 l 4.4464,15.9723 c 5.2521,18.8661 19.6628,37.0436 36.3463,45.8466 8.6602,4.5696 16.3176,6.0717 30.9515,6.0717 14.6339,0 22.2913,-1.5021 30.9515,-6.0717 16.6835,-8.803 31.09418,-26.9805 36.34624,-45.8466 l 4.4464,-15.9723 h 16.4554 16.4554 l -1.9648,11.8056 c -8.4146,50.5592 -47.50994,87.0598 -96.03904,89.6648 -11.297,0.6064 -25.2326,-0.083 -30.968,-1.5318 z"
     id="path992"
     inkscape:connector-curvature="0" /><path
     style="fill:#20252b;fill-opacity:0.83137256;stroke:none;stroke-width:194.47769165;stroke-linecap:square;stroke-linejoin:miter;stroke-miterlimit:4;stroke-dasharray:none;stroke-opacity:1;paint-order:markers stroke fill"
     d="m 1144.8628,621.72808 c -20.9275,-6.9321 -40.9172,-21.9729 -53.0808,-39.9393 -9.776,-14.4399 -18.5978,-38.7369 -18.5978,-51.2224 0,-5.9902 1.1188,-6.4403 16.0093,-6.4403 h 16.0093 l 3.2452,13.6614 c 6.5314,27.4957 26.2722,47.2175 53.5701,53.5186 37.0352,8.5487 77.66,-19.0178 82.6296,-56.0697 l 1.4902,-11.1103 h 17.275 17.275 l -2.2968,14.529 c -5.3357,33.7538 -28.8211,64.637 -60.2196,79.1883 -20.331,9.4223 -51.5906,11.0787 -73.3087,3.8847 z"
     id="path994"
     inkscape:connector-curvature="0" /><path
     style="fill:#20252b;fill-opacity:0.83137256;stroke:none;stroke-width:194.47769165;stroke-linecap:square;stroke-linejoin:miter;stroke-miterlimit:4;stroke-dasharray:none;stroke-opacity:1;paint-order:markers stroke fill"
     d="m 125.04934,413.641 c -14.56175,0.18313 -31.232996,2.92201 -43.300773,7.69141 -31.5121,12.45416 -58.67022,47.82818 -61.65234,80.30468 l -0.890625,9.70899 h -1.84375 l 1.800781,13.13086 c 0.98987,7.2219 5.410064,20.84835 9.824214,30.28125 12.73913,27.2229 33.79583,45.10262 65.519537,55.63672 15.327506,5.0896 46.444606,3.0085 65.837886,-4.4043 31.65055,-12.098 59.2065,-47.16467 62.55468,-79.60547 l 1.23829,-12.00781 1.65039,-0.0195 -1.94727,-13.10938 c -1.07125,-7.2103 -5.64577,-20.78742 -10.16602,-30.16992 -13.04533,-27.0775 -34.30208,-44.71887 -66.14257,-54.89453 -5.76898,-1.84366 -13.74537,-2.65285 -22.48243,-2.54297 z m -4.70312,32.99023 c 31.9309,-0.30134 63.13507,23.75153 69.92188,57.80469 l 1.83007,9.17969 -2.97461,11.75586 c -6.51861,25.7659 -22.47204,43.18923 -47.28711,51.64453 -37.83737,12.89249 -81.337203,-14.13901 -89.068343,-55.34961 l -1.5586,-8.3125 2.67188,-11.08398 c 6.22762,-25.8378 21.98303,-43.44118 46.701163,-52.17578 6.47789,-2.28911 13.1365,-3.40035 19.76367,-3.4629 z"
     id="path996"
     inkscape:connector-curvature="0" /><path
     style="fill:#20252b;fill-opacity:0.83137256;stroke:none;stroke-width:194.47769165;stroke-linecap:square;stroke-linejoin:miter;stroke-miterlimit:4;stroke-dasharray:none;stroke-opacity:1;paint-order:markers stroke fill"
     d="m 550.96206,491.13998 c 0,-6.7222 1.3738,-8.2608 8.6805,-9.7222 4.7743,-0.9549 47.8993,-1.7361 95.8334,-1.7361 h 87.1527 V 336.81058 193.93956 l -7.6151,-0.87895 c -4.5929,-0.53012 -7.981,-2.80818 -8.537,-5.74006 -0.7886,-4.15843 1.316,-4.86111 14.5596,-4.86111 h 15.4814 v 132.96984 132.9699 l 10.4167,1.7218 c 5.7292,0.947 28.3143,1.7355 50.1892,1.7523 l 39.7724,0.031 -5.8345,8.1939 c -3.209,4.5066 -9.0107,15.1316 -12.8928,23.6111 l -7.0582,15.4173 h -140.0742 -140.0741 z"
     id="path998"
     inkscape:connector-curvature="0" /><path
     style="fill:#20252b;fill-opacity:0.83137256;stroke:none;stroke-width:194.47769165;stroke-linecap:square;stroke-linejoin:miter;stroke-miterlimit:4;stroke-dasharray:none;stroke-opacity:1;paint-order:markers stroke fill"
     d="m 1033.1999,483.70878 c -3.8821,-8.4795 -9.6838,-19.1045 -12.8928,-23.6111 l -5.8345,-8.1938 h 40.4669 c 22.2568,0 40.467,0.5816 40.467,1.2924 0,0.7109 -3.7163,7.1524 -8.2584,14.3146 -4.5422,7.1622 -9.6391,17.2056 -11.3266,22.3187 -3.0146,9.1343 -3.3517,9.2965 -19.3157,9.2965 h -16.2476 z"
     id="path1000"
     inkscape:connector-curvature="0" /><path
     style="fill:#20252b;fill-opacity:0.83137256;stroke:none;stroke-width:194.47769165;stroke-linecap:square;stroke-linejoin:miter;stroke-miterlimit:4;stroke-dasharray:none;stroke-opacity:1;paint-order:markers stroke fill"
     d="m 1277.4236,491.12378 c -0.9667,-4.4013 -6.0002,-14.7138 -11.1855,-22.9167 l -9.428,-14.9143 9.7355,-0.8716 c 6.1385,-0.5496 24.0444,3.8972 48.4648,12.0359 l 38.7294,12.9075 v 10.8808 10.8807 h -37.2793 -37.2793 z"
     id="path1002"
     inkscape:connector-curvature="0" /><path
     style="fill:#181818;fill-opacity:1;stroke:none;stroke-width:194.47769165;stroke-linecap:square;stroke-linejoin:miter;stroke-miterlimit:4;stroke-dasharray:none;stroke-opacity:1;paint-order:markers stroke fill"
     d=""
     id="path1004"
     inkscape:connector-curvature="0" /><path
     style="fill:#20252b;fill-opacity:0.83137256;stroke:none;stroke-width:110.71775818;stroke-linecap:square;stroke-linejoin:miter;stroke-miterlimit:4;stroke-dasharray:none;stroke-opacity:1;paint-order:markers stroke fill"
     d="m 572.76746,23.94266 c -5.114,-5.11398 -5.0218,-14.7559095 0.1949,-20.3844895 5.5283,-5.9648205 7.1704,-4.5371405 7.7511,6.7390895 0.394,7.65095 -0.124,11.16236 -2.0157,13.66349 l -2.546,3.36622 z"
     id="path1006"
     inkscape:connector-curvature="0" /><path
     style="fill:#20252b;fill-opacity:0.83137256;stroke:none;stroke-width:110.71775818;stroke-linecap:square;stroke-linejoin:miter;stroke-miterlimit:4;stroke-dasharray:none;stroke-opacity:1;paint-order:markers stroke fill"
     d="m 583.61586,13.442 c 0,-8.5471595 0.6201,-13.442 1.703,-13.442 3.0151,0 10.9483,9.1359905 10.9483,12.60818 0,6.97729 -5.7256,14.27582 -11.1993,14.27582 -0.7986,0 -1.452,-6.0489 -1.452,-13.442 z"
     id="path1008"
     inkscape:connector-curvature="0" /><path
     style="fill:#20252b;fill-opacity:0.83137256;stroke:none;stroke-width:258.74816895;stroke-linecap:square;stroke-linejoin:miter;stroke-miterlimit:4;stroke-dasharray:none;stroke-opacity:1;paint-order:markers stroke fill"
     d="m 673.28701,473.33642 -68.3463,-1.97441 0.93623,-55.43656 c 0.51492,-30.4901 1.97749,-91.60891 3.25015,-135.81956 l 2.31393,-80.38301 h 64.1722 64.1722 l 0.0277,17.55491 c 0.0151,9.6552 1.11007,72.02132 2.43308,138.59139 1.32302,66.57007 1.72637,120.67765 0.89634,120.23907 -0.83003,-0.43858 -32.26498,-1.6859 -69.85544,-2.77183 z"
     id="path1012"
     inkscape:connector-curvature="0" /><path
     style="fill:#20252b;fill-opacity:0.83137256;stroke:none;stroke-width:258.74816895;stroke-linecap:square;stroke-linejoin:miter;stroke-miterlimit:4;stroke-dasharray:none;stroke-opacity:1;paint-order:markers stroke fill"
     d="m 672.72538,474.05372 -68.90791,-1.00407 1.47307,-52.5846 c 0.81019,-28.92154 2.48392,-90.42006 3.7194,-136.66339 l 2.24633,-84.07878 h 63.86388 63.86388 l 2.49671,67.44781 c 1.37319,37.0963 1.96927,99.04665 1.32464,137.66745 l -1.17208,70.21964 z"
     id="path1014"
     inkscape:connector-curvature="0" /><path
     style="fill:#20252b;fill-opacity:0.83137256;stroke:none;stroke-width:258.74816895;stroke-linecap:square;stroke-linejoin:miter;stroke-miterlimit:4;stroke-dasharray:none;stroke-opacity:1;paint-order:markers stroke fill"
     d="m 270.42256,541.27742 v -27.71828 h 138.59139 138.5914 v 27.71828 27.71828 H 409.01395 270.42256 Z"
     id="path1018"
     inkscape:connector-curvature="0" /><path
     style="fill:#20252b;fill-opacity:0.83137256;stroke:none;stroke-width:258.74816895;stroke-linecap:square;stroke-linejoin:miter;stroke-miterlimit:4;stroke-dasharray:none;stroke-opacity:1;paint-order:markers stroke fill"
     d="m 600.58868,210.81019 c 0,-15.24506 0.65237,-21.48167 1.44971,-13.85914 0.79734,7.62252 0.79734,20.09575 0,27.71828 -0.79734,7.62252 -1.44971,1.38591 -1.44971,-13.85914 z"
     id="path1020"
     inkscape:connector-curvature="0" /><path
     style="fill:#20252b;fill-opacity:0.83137256;stroke:none;stroke-width:258.74816895;stroke-linecap:square;stroke-linejoin:miter;stroke-miterlimit:4;stroke-dasharray:none;stroke-opacity:1;paint-order:markers stroke fill"
     d="m 901.83241,622.34414 c -16.25946,-4.741 -51.17388,-33.48438 -51.17388,-42.12897 0,-1.93803 -1.76124,-3.5237 -3.91388,-3.5237 -2.15263,0 -2.88603,-1.66309 -1.62977,-3.69577 1.25626,-2.03267 0.42471,-3.69577 -1.84789,-3.69577 -2.2726,0 -3.10414,-1.66309 -1.84788,-3.69577 1.25626,-2.03267 0.42471,-3.69577 -1.84789,-3.69577 -2.2726,0 -3.17517,-1.54819 -2.00571,-3.44039 1.16946,-1.89224 0.43606,-4.48504 -1.62977,-5.76178 -2.06583,-1.27674 -3.75606,-12.82546 -3.75606,-25.66379 0,-23.1869 -0.077,-23.35781 -11.54928,-25.65228 -6.35211,-1.27042 -69.66545,-2.30986 -140.69633,-2.30986 H 550.78703 l 1.18099,-8.31548 c 1.01033,-7.1139 4.1182,-8.6632 21.50772,-10.72181 11.17971,-1.32348 54.00445,-2.57081 95.16609,-2.77183 l 74.83936,-0.3655 v -73.32296 c 0,-40.32762 -1.08942,-103.39876 -2.42092,-140.15808 -2.19909,-60.71086 -3.04572,-66.99853 -9.23943,-68.61822 -13.8296,-3.61652 -7.40879,-12.15064 9.81246,-13.04208 l 16.63097,-0.86089 v 132.71569 132.71569 l 17.14679,2.35022 c 9.43073,1.29263 32.14134,2.35023 50.468,2.35023 29.23541,0 34.72349,-1.06228 44.75737,-8.66329 17.62361,-13.35052 27.01019,-17.48545 46.79174,-20.61249 27.19552,-4.29904 53.4713,1.21721 75.51491,15.85335 18.61312,12.35844 20.28842,12.73741 61.31952,13.87075 41.808,1.1548 42.3315,1.0645 58.805,-10.14271 22.538,-15.3329 37.4614,-19.87177 65.3368,-19.87177 26.2071,0 41.796,5.29459 65.3118,22.18237 12.1996,8.76109 19.1396,11.157 30.3534,10.47899 8.373,-0.50626 28.2506,3.67571 46.8757,9.86198 31.8376,10.57476 32.338,10.92728 32.338,22.78058 v 12.0396 l -36.0338,1.05777 -36.0337,1.05778 -0.735,21.78867 c -0.4043,11.98378 -1.9237,24.45698 -3.3766,27.71828 -1.4529,3.2613 -2.867,6.76115 -3.1425,7.77749 -3.063,11.30089 -6.8022,18.47885 -9.626,18.47885 -1.8956,0 -3.0566,1.24733 -2.5798,2.77183 0.4768,1.52451 -7.204,10.68229 -17.0684,20.35069 -38.5166,37.75107 -100.8443,36.84062 -141.7927,-2.0713 -6.6062,-6.27763 -12.0112,-13.58229 -12.0112,-16.23256 0,-2.65027 -1.7613,-4.81866 -3.9139,-4.81866 -2.1527,0 -2.886,-1.66309 -1.6298,-3.69577 1.2563,-2.03267 0.5229,-3.69577 -1.6297,-3.69577 -2.1527,0 -3.6454,-1.24732 -3.3171,-2.77183 0.3281,-1.5245 -1.4129,-7.65867 -3.8691,-13.63148 -2.4561,-5.97278 -4.2037,-14.28827 -3.8834,-18.47883 0.3204,-4.19057 0.3982,-13.95146 0.1733,-21.69086 l -0.4092,-14.07164 -15.707,1.13644 -15.707,1.13645 -2.2342,27.71828 c -2.3596,29.27357 -5.5268,40.65347 -11.3146,40.65347 -1.9351,0 -2.4906,1.6631 -1.2343,3.69577 1.2563,2.03268 0.5229,3.69577 -1.6298,3.69577 -2.1526,0 -3.9139,2.12869 -3.9139,4.7304 0,5.62238 -23.48426,28.53154 -29.24777,28.53154 -2.20774,0 -4.01408,1.76125 -4.01408,3.91389 0,2.15264 -1.52107,2.9738 -3.38012,1.82486 -1.85905,-1.14897 -3.96183,-0.34407 -4.67282,1.78905 -0.71096,2.13294 -6.25809,4.52337 -12.32691,5.31204 -6.06879,0.78868 -11.0342,1.79072 -11.0342,2.22671 0,3.3103 -40.48673,1.30985 -54.15559,-2.67582 z m 61.70002,-37.81638 c 20.25755,-9.20173 33.48761,-26.01549 38.36467,-48.757 5.2404,-24.43474 0.5634,-42.29692 -15.35488,-58.64403 -22.547,-23.15433 -53.71059,-28.84162 -82.27324,-15.01468 -50.89585,24.63825 -48.76659,98.6647 3.5211,122.41571 8.21478,3.73144 20.75682,6.78448 27.87118,6.78448 7.11436,0 19.6564,-3.05304 27.87117,-6.78448 z m 237.36857,1.22674 c 28.3535,-11.84683 42.3877,-32.97075 42.975,-64.68482 0.3093,-16.71099 -1.5499,-23.55536 -9.7854,-36.02037 -17.7765,-26.9059 -54.9434,-37.95672 -85.1751,-25.32512 -15.3411,6.40993 -34.4737,28.2121 -38.9342,44.3666 -3.9807,14.41693 -0.8199,36.10812 7.6185,52.28267 15.5314,29.76987 51.7753,42.55343 83.3012,29.38104 z"
     id="path1024"
     inkscape:connector-curvature="0" /><path
     style="fill:#20252b;fill-opacity:0.83137256;stroke:none;stroke-width:258.74816895;stroke-linecap:square;stroke-linejoin:miter;stroke-miterlimit:4;stroke-dasharray:none;stroke-opacity:1;paint-order:markers stroke fill"
     d="m 899.66028,621.89991 c -7.44465,-2.57647 -14.44743,-5.90266 -15.56172,-7.39154 -1.11428,-1.48888 -9.76363,-9.66011 -19.22076,-18.15828 -9.45713,-8.49813 -16.24811,-16.39784 -15.09106,-17.55491 1.15704,-1.15704 0.0653,-2.10371 -2.42613,-2.10371 -2.49141,0 -3.50199,-1.66309 -2.24573,-3.69577 1.25626,-2.03267 0.42471,-3.69577 -1.84789,-3.69577 -2.2726,0 -3.10414,-1.66309 -1.84788,-3.69577 1.25626,-2.03267 0.24569,-3.69577 -2.24574,-3.69577 -2.49141,0 -3.43554,-1.09432 -2.09806,-2.43178 1.33748,-1.3375 0.64825,-4.5808 -1.53163,-7.20742 -2.17987,-2.62658 -3.91529,-14.83705 -3.85647,-27.13436 l 0.10694,-22.35877 H 691.54763 c -136.36123,0 -140.24651,-0.19872 -140.24651,-7.17343 0,-3.94538 1.84065,-8.31101 4.09034,-9.70139 2.8689,-1.77308 2.638,-3.42557 -0.77322,-5.53382 -2.67496,-1.65322 34.05169,-3.14733 81.61479,-3.32024 47.56309,-0.17292 87.271,-1.10705 88.23979,-2.07584 0.96879,-0.9688 -26.02393,-1.76144 -59.98383,-1.76144 h -61.74527 l 2.01391,-56.3605 c 1.10765,-30.99828 3.02194,-92.53286 4.25397,-136.74351 l 2.24005,-80.38301 63.34294,-0.42872 c 34.83862,-0.23579 60.43252,-1.18929 56.87534,-2.11887 -3.55718,-0.92959 -6.46759,-3.88493 -6.46759,-6.56742 0,-5.96737 8.15286,-9.36385 22.47688,-9.36385 h 10.78505 V 314.29176 447.3395 h 53.37056 c 32.25774,0 54.29131,-1.48981 55.6981,-3.76605 4.55004,-7.3621 38.0337,-21.75312 56.22911,-24.16683 22.09639,-2.93119 52.25328,4.79906 72.6075,18.61178 12.86776,8.73234 16.64796,9.3211 59.84756,9.3211 43.3281,0 46.9784,-0.57317 60.4574,-9.49317 16.7693,-11.09737 44.3664,-20.07299 61.7179,-20.07299 16.5776,0 45.0418,9.93066 59.3515,20.70669 6.5841,4.9582 17.1624,8.97386 24.0225,9.11923 10.3209,0.21872 11.0898,0.77861 4.8663,3.54339 -5.737,2.54862 -4.0824,3.18289 7.3915,2.83359 8.1307,-0.24755 29.3352,4.32157 47.1211,10.15356 31.6028,10.36254 32.338,10.8694 32.338,22.29349 0,10.6372 -1.248,11.89616 -13.8591,13.98065 -7.6226,1.25992 -23.8378,2.30936 -36.0338,2.33208 l -22.1746,0.0413 -0.5081,24.34512 c -0.2794,13.38981 -2.3583,26.19537 -4.6197,28.45678 -2.2614,2.26144 -4.1117,7.02263 -4.1117,10.58043 0,3.55781 -2.0788,7.79871 -4.6197,9.42422 -2.5408,1.62551 -11.6878,10.81804 -20.3267,20.42781 -8.6389,9.60978 -15.707,16.42017 -15.707,15.13422 0,-1.28598 -3.0985,0.46593 -6.8854,3.89305 -14.0527,12.71756 -55.0491,16.73922 -81.404,7.98553 -19.3499,-6.42702 -52.1499,-32.27927 -52.1499,-41.10347 0,-2.87624 -1.7613,-5.22956 -3.9139,-5.22956 -2.1527,0 -2.886,-1.66309 -1.6298,-3.69577 1.2563,-2.03267 0.6856,-3.69577 -1.2682,-3.69577 -5.9413,0 -11.667,-22.03555 -11.667,-44.90074 v -21.62313 h -16.7807 -16.7806 l 0.4566,13.85914 c 0.8203,24.89459 -5.3553,52.66473 -11.7117,52.66473 -2.0156,0 -2.637,1.6631 -1.3807,3.69577 1.2563,2.03268 0.2458,3.69577 -2.2457,3.69577 -2.4915,0 -3.3873,1.14255 -1.9909,2.53903 3.242,3.24193 -23.39146,30.72291 -29.77536,30.72291 -2.63648,0 -4.79359,1.76125 -4.79359,3.91389 0,2.15264 -1.6631,2.88603 -3.69578,1.62976 -2.03267,-1.25626 -3.69577,-0.655 -3.69577,1.33614 0,9.23218 -57.78529,12.87602 -80.35022,5.06671 z m 73.68693,-43.40379 c 28.05859,-18.56837 38.33539,-64.22932 20.43443,-90.79259 -28.2019,-41.84887 -84.77669,-43.09641 -114.82559,-2.53204 -11.31256,15.27133 -12.75166,49.1076 -2.90916,68.4005 18.35175,35.97238 63.23275,47.46896 97.30032,24.92413 z m 235.67369,3.80487 c 18.1685,-9.39528 30.7634,-29.43112 32.6269,-51.90255 2.0951,-25.26507 -0.4823,-35.22955 -12.9428,-50.03806 -38.9533,-46.29336 -113.6505,-23.99814 -118.5756,35.3918 -2.7429,33.0754 16.234,62.56022 46.507,72.25899 13.0232,4.17231 38.6826,1.37531 52.3845,-5.71018 z"
     id="path1026"
     inkscape:connector-curvature="0" /><path
     style="fill:#20252b;fill-opacity:0.83137256;stroke:none;stroke-width:258.74816895;stroke-linecap:square;stroke-linejoin:miter;stroke-miterlimit:4;stroke-dasharray:none;stroke-opacity:1;paint-order:markers stroke fill"
     d="m 905.87926,624.6829 c -5.20039,-1.44331 -12.7552,-4.39024 -16.78847,-6.54879 -10.02466,-5.36504 -41.48366,-37.15931 -39.11306,-39.52993 1.052,-1.052 0.15303,-1.91271 -1.99772,-1.91271 -6.92336,0 -16.39325,-30.55423 -16.28804,-52.55271 l 0.10218,-21.3627 H 691.43186 551.06958 l 0.87113,-12.9352 0.87114,-12.93519 75.93188,-0.81065 c 62.36863,-0.66585 66.78461,-1.01501 24.72221,-1.95474 l -51.20965,-1.14408 2.20343,-63.6452 c 1.21188,-35.00485 3.23344,-96.49135 4.49235,-136.63666 l 2.28893,-72.99146 h 58.61256 c 52.22391,0 58.36509,-0.64491 56.34213,-5.91665 -2.91468,-7.59554 4.84547,-12.43394 20.05733,-12.50561 l 12.01125,-0.0566 V 314.29176 447.3395 h 53.37056 c 32.25774,0 54.29131,-1.48981 55.6981,-3.76605 1.28016,-2.07132 10.94111,-8.27638 21.4688,-13.78902 15.88895,-8.31997 23.8556,-10.01922 46.88732,-10.0009 25.06157,0.02 30.16928,1.35405 52.79194,13.78903 24.78871,13.62563 25.47891,13.76694 67.23921,13.76694 41.3469,0 42.7097,-0.26975 67.9389,-13.44834 41.3995,-21.62523 78.3675,-20.18164 114.6564,4.47731 7.2611,4.93407 18.2211,8.9965 24.3554,9.02763 8.6666,0.044 9.9173,0.87831 5.6097,3.7421 -4.1587,2.76475 -2.312,3.52015 7.3915,3.02363 7.1144,-0.36404 27.4873,4.11564 45.2732,9.95485 31.6405,10.38775 32.338,10.87001 32.338,22.35913 0,14.19019 -5.2453,16.17744 -42.8909,16.24979 l -26.2599,0.0505 -2.2175,23.74678 c -1.2196,13.06073 -4.575,29.27592 -7.4564,36.03375 -6.198,14.53635 -39.8062,49.18099 -55.6656,57.3822 -17.332,8.96272 -53.4287,10.50282 -75.3682,3.21569 -19.6666,-6.5322 -52.5412,-32.33164 -52.5412,-41.23345 0,-2.87624 -1.4825,-5.22956 -3.2945,-5.22956 -6.3955,0 -15.1844,-29.99128 -15.1844,-51.81557 V 502.7761 h -16.4382 -16.4382 l 0.102,21.3627 c 0.1054,21.99848 -9.3645,52.55271 -16.2879,52.55271 -2.1507,0 -2.7678,1.14255 -1.3714,2.53903 3.242,3.24193 -23.39146,30.72291 -29.77536,30.72291 -2.63648,0 -4.79359,1.39615 -4.79359,3.10252 0,10.20166 -57.24239,18.36569 -81.52279,11.62697 z m 62.21578,-43.17939 c 18.55894,-8.80676 31.5357,-30.69404 33.17996,-55.9631 1.688,-25.94177 -6.26446,-42.16163 -28.34519,-57.81257 -12.95659,-9.1837 -19.0671,-11.00438 -36.57534,-10.89797 -38.10093,0.23154 -63.44679,22.7061 -66.45012,58.92231 -4.60705,55.55489 46.93923,90.07176 98.19069,65.75133 z m 245.96306,-3.47191 c 17.2677,-11.2527 28.1596,-33.55367 28.2709,-57.88416 0.1379,-30.1083 -18.4897,-53.78405 -48.7204,-61.92433 -65.2839,-17.57915 -112.3467,64.24866 -64.0897,111.43243 6.9749,6.81977 18.1821,14.45689 24.9048,16.97135 16.7221,6.2545 42.562,2.53012 59.6344,-8.59529 z"
     id="path1028"
     inkscape:connector-curvature="0" /><path
     style="fill:#20252b;fill-opacity:0.83137256;stroke:none;stroke-width:194.47769165;stroke-linecap:square;stroke-linejoin:miter;stroke-miterlimit:4;stroke-dasharray:none;stroke-opacity:1;paint-order:markers stroke fill"
     d="m 123.60242,409.35664 c -14.56175,0.18313 -31.232996,2.92201 -43.300776,7.69141 -31.512098,12.45416 -58.670218,47.82818 -61.652338,80.30468 l -0.890625,9.70899 h -1.84375 l 1.800781,13.13086 c 0.98987,7.2219 5.410064,20.84835 9.824214,30.28125 12.73913,27.2229 33.795828,45.10262 65.519538,55.63672 15.327506,5.0896 46.444606,3.0085 65.837886,-4.4043 31.65055,-12.098 59.2065,-47.16467 62.55468,-79.60547 l 1.23829,-12.00781 1.65039,-0.0195 -1.94727,-13.10938 c -1.07125,-7.2103 -5.64577,-20.78742 -10.16602,-30.16992 -13.04533,-27.0775 -34.30208,-44.71887 -66.14257,-54.89453 -5.76898,-1.84366 -13.74537,-2.65285 -22.48243,-2.54297 z m -4.70312,32.99023 c 31.9309,-0.30134 63.13507,23.75153 69.92188,57.80469 l 1.83007,9.17969 -2.97461,11.75586 c -6.51861,25.7659 -22.47204,43.18923 -47.28711,51.64453 -37.83737,12.89249 -81.337206,-14.13901 -89.068344,-55.34961 l -1.5586,-8.3125 2.671878,-11.08398 c 6.22762,-25.8378 21.98303,-43.44118 46.70117,-52.17578 6.477886,-2.28911 13.136496,-3.40035 19.763666,-3.4629 z"
     id="path996-6"
     inkscape:connector-curvature="0" /><path
     style="fill:#20252b;fill-opacity:0.83137256;stroke:none;stroke-width:285.76315308;stroke-linecap:square;stroke-linejoin:miter;stroke-miterlimit:4;stroke-dasharray:none;stroke-opacity:1;paint-order:markers stroke fill"
     d="m 250.72045,518.69148 c -4.85651,-9.4502 -11.02899,-24.5291 -13.71663,-33.5087 -10.25357,-34.2579 -33.87671,-61.166 -66.89868,-76.2013 -28.42124,-12.9405 -69.51107,-12.7839 -99.099725,0.3777 -25.66516,11.4164 -54.77367,41.9926 -63.53666,66.7403 l -6.10691,17.2466 -0.76806003,-32.6531 c -0.75217,-31.9778 -0.76798,-40.9652 -0.1705,-96.9387 l 0.29409,-27.5511 278.57143503,-6e-4 278.57145,-6e-4 -0.769,52.2709 c -0.4229,28.749 0.7612,59.0554 2.6314,67.3476 2.6613,11.7998 2.1631,15.0766 -2.2923,15.0766 -3.3393,0 -5.6926,-4.1861 -5.6926,-10.1263 0,-7.5629 -2.7518,-10.817 -10.8703,-12.8546 -10.1872,-2.5568 -271.16613,1.616 -273.93005,4.3799 -0.70102,0.7011 -2.34529,19.4078 -3.65394,41.5705 -1.30865,22.1627 -2.68394,40.6808 -3.05618,41.1514 -0.37225,0.4706 -4.65033,-6.8764 -9.50684,-16.3265 z"
     id="path851-9"
     inkscape:connector-curvature="0" /><path
     style="fill:#20252b;fill-opacity:0.83137256;stroke:none;stroke-width:285.76315308;stroke-linecap:square;stroke-linejoin:miter;stroke-miterlimit:4;stroke-dasharray:none;stroke-opacity:1;paint-order:markers stroke fill"
     d="m 250.72045,518.69148 c -4.85651,-9.4502 -11.02899,-24.5291 -13.71663,-33.5087 -10.25357,-34.2579 -33.87671,-61.166 -66.89868,-76.2013 -28.42124,-12.9405 -69.51107,-12.7839 -99.099714,0.3777 -25.66516,11.4164 -54.77367,41.9926 -63.53666,66.7403 l -6.10691,17.2466 -0.76806003,-32.6531 c -0.75217,-31.9778 -0.76798,-40.9652 -0.1705,-96.9387 l 0.29409,-27.5511 278.57142403,-6e-4 278.57145,-6e-4 -0.769,52.2709 c -0.4229,28.749 0.7612,59.0554 2.6314,67.3476 2.6613,11.7998 2.1631,15.0766 -2.2923,15.0766 -3.3393,0 -5.6926,-4.1861 -5.6926,-10.1263 0,-7.5629 -2.7518,-10.817 -10.8703,-12.8546 -10.1872,-2.5568 -271.16613,1.616 -273.93005,4.3799 -0.70102,0.7011 -2.34529,19.4078 -3.65394,41.5705 -1.30865,22.1627 -2.68394,40.6808 -3.05618,41.1514 -0.37225,0.4706 -4.65033,-6.8764 -9.50684,-16.3265 z"
     id="path851-91"
     inkscape:connector-curvature="0" /><path
     inkscape:connector-curvature="0"
     style="fill:#20252b;fill-opacity:0.83137256;stroke:none;stroke-width:285.76315308;stroke-linecap:square;stroke-linejoin:miter;stroke-miterlimit:4;stroke-dasharray:none;stroke-opacity:1;paint-order:markers stroke fill"
     d="m 529.34002,157.03371 c -9.65988,-0.0341 -24.23053,0.54838 -46.56055,1.55078 -97.49148,4.37641 -139.14832,8.46798 -144.53711,14.19531 -3.02762,3.21782 -3.3272,5.78309 -0.79101,6.77539 15.80093,6.18221 15.83489,7.21234 2.06055,62.60938 -10.9298,43.95704 -14.96476,54.46238 -22.00782,57.30078 -4.74332,1.9116 -69.23477,6.16607 -143.3164,9.45507 -138.302524,6.1404 -165.098374,10.13287 -170.986324,25.47657 -1.91264,4.9843 37.05906,5.80664 275.552724,5.80664 h 277.7793 l -1.60547,-84.69532 c -0.8823,-46.58158 -3.1454,-88.08858 -5.02929,-92.23828 -2.00132,-4.40845 -4.4588,-6.17959 -20.5586,-6.23632 z m -136.13476,28.10742 h 5.63476 l -1.13281,58.16211 -1.13086,58.16406 -25.56445,1.2168 c -19.36441,0.9215 -26.11225,-0.216 -27.82813,-4.6875 -2.0283,-5.2856 20.06046,-101.07208 25.24024,-109.45313 0.49464,-0.80035 2.15769,-1.53058 4.46093,-2.11328 l 11.85742,-0.75195 z m 15.63476,0 h 32.65234 32.6543 l 1.13086,55.61718 c 1.11694,54.86196 1.00727,55.65083 -8.16211,58.10743 -5.11254,1.3697 -17.88968,2.51587 -28.39258,2.54687 -30.40269,0.0887 -32.35977,-3.99191 -31.02148,-64.64062 z"
     id="path887-3" /><path
     style="fill:#20252b;fill-opacity:0.83137256;stroke:none;stroke-width:285.76315308;stroke-linecap:square;stroke-linejoin:miter;stroke-miterlimit:4;stroke-dasharray:none;stroke-opacity:1;paint-order:markers stroke fill"
     d="m 583.40376,255.51018 c 0.8986,-187.089209 1.9341,-220.044039 7.0339,-223.840529 3.2891,-2.44856 7.8194,-8.87713 10.0674,-14.28571 2.7564,-6.63179 3.2835,64.59182 1.6189,218.737629 -1.5246,141.17971 -4.017,230.52211 -6.5188,233.67351 -12.6287,15.9069 -13.2542,4.9203 -12.2014,-214.2849 z"
     id="path857-8"
     inkscape:connector-curvature="0" /><path
     style="fill:#20252b;fill-opacity:0.83137256;stroke:none;stroke-width:285.76315308;stroke-linecap:square;stroke-linejoin:miter;stroke-miterlimit:4;stroke-dasharray:none;stroke-opacity:1;paint-order:markers stroke fill"
     d="m 583.40376,255.51018 c 0.8986,-187.089209 1.9341,-220.044039 7.0339,-223.840529 3.2891,-2.44856 7.8194,-8.87713 10.0674,-14.28571 2.7564,-6.63179 3.2835,64.59182 1.6189,218.737629 -1.5246,141.17971 -4.017,230.52211 -6.5188,233.67351 -12.6287,15.9069 -13.2542,4.9203 -12.2014,-214.2849 z"
     id="path941-8"
     inkscape:connector-curvature="0" /><path
     style="fill:#20252b;fill-opacity:0.83137256;stroke:none;stroke-width:285.76315308;stroke-linecap:square;stroke-linejoin:miter;stroke-miterlimit:4;stroke-dasharray:none;stroke-opacity:1;paint-order:markers stroke fill"
     d="m 294.11317,574.05788 -27.01238,-1.55 0.29857,-55.9483 c 0.16422,-30.7715 0.92412,-43.5502 1.68867,-28.3972 l 1.39009,27.551 h 138.58902 138.58902 v 28.5715 28.5714 H 446.12555 c -55.84184,0 -106.81123,0.6191 -113.26531,1.3758 -6.45408,0.7567 -23.89026,0.6783 -38.74707,-0.1742 z"
     id="path943-8"
     inkscape:connector-curvature="0" /><path
     style="fill:#20252b;fill-opacity:0.83137256;stroke:none;stroke-width:285.76315308;stroke-linecap:square;stroke-linejoin:miter;stroke-miterlimit:4;stroke-dasharray:none;stroke-opacity:1;paint-order:markers stroke fill"
     d="m 270.10514,544.28488 v -28.5715 h 138.77551 138.77551 v 28.5715 28.5714 H 408.88065 270.10514 Z"
     id="path945-3"
     inkscape:connector-curvature="0" /><path
     style="fill:#20252b;fill-opacity:0.83137256;stroke:none;stroke-width:194.47769165;stroke-linecap:square;stroke-linejoin:miter;stroke-miterlimit:4;stroke-dasharray:none;stroke-opacity:1;paint-order:markers stroke fill"
     d="m 125.04934,413.641 c -14.56175,0.18313 -31.232996,2.92201 -43.300764,7.69141 -31.5121,12.45416 -58.67022,47.82818 -61.65234,80.30468 l -0.89063,9.70899 h -1.84375 l 1.80078,13.13086 c 0.98987,7.2219 5.41007,20.84835 9.82422,30.28125 12.73913,27.2229 33.79583,45.10262 65.519528,55.63672 15.327506,5.0896 46.444606,3.0085 65.837886,-4.4043 31.65055,-12.098 59.2065,-47.16467 62.55468,-79.60547 l 1.23829,-12.00781 1.65039,-0.0195 -1.94727,-13.10938 c -1.07125,-7.2103 -5.64577,-20.78742 -10.16602,-30.16992 -13.04533,-27.0775 -34.30208,-44.71887 -66.14257,-54.89453 -5.76898,-1.84366 -13.74537,-2.65285 -22.48243,-2.54297 z m -4.70312,32.99023 c 31.9309,-0.30134 63.13507,23.75153 69.92188,57.80469 l 1.83007,9.17969 -2.97461,11.75586 c -6.51861,25.7659 -22.47204,43.18923 -47.28711,51.64453 -37.83737,12.89249 -81.337194,-14.13901 -89.068334,-55.34961 l -1.5586,-8.3125 2.67188,-11.08398 c 6.22762,-25.8378 21.98303,-43.44118 46.701154,-52.17578 6.47789,-2.28911 13.1365,-3.40035 19.76367,-3.4629 z"
     id="path996-9"
     inkscape:connector-curvature="0" /><path
     style="fill:#20252b;fill-opacity:0.83137256;stroke:none;stroke-width:258.74816895;stroke-linecap:square;stroke-linejoin:miter;stroke-miterlimit:4;stroke-dasharray:none;stroke-opacity:1;paint-order:markers stroke fill"
     d="m 270.42256,541.27742 v -27.71828 h 138.59139 138.5914 v 27.71828 27.71828 H 409.01395 270.42256 Z"
     id="path1018-5"
     inkscape:connector-curvature="0" /><path
     style="fill:#20252b;fill-opacity:0.83137256;stroke:none;stroke-width:258.74816895;stroke-linecap:square;stroke-linejoin:miter;stroke-miterlimit:4;stroke-dasharray:none;stroke-opacity:1;paint-order:markers stroke fill"
     d="m 600.58868,210.81019 c 0,-15.24506 0.65237,-21.48167 1.44971,-13.85914 0.79734,7.62252 0.79734,20.09575 0,27.71828 -0.79734,7.62252 -1.44971,1.38591 -1.44971,-13.85914 z"
     id="path1020-4"
     inkscape:connector-curvature="0" /><path
     style="fill:#20252b;fill-opacity:0.83137256;stroke:none;stroke-width:194.47769165;stroke-linecap:square;stroke-linejoin:miter;stroke-miterlimit:4;stroke-dasharray:none;stroke-opacity:1;paint-order:markers stroke fill"
     d="m 123.60242,409.35664 c -14.56175,0.18313 -31.232994,2.92201 -43.300774,7.69141 -31.5121,12.45416 -58.67022,47.82818 -61.65234,80.30468 l -0.89062,9.70899 h -1.84375 l 1.80078,13.13086 c 0.98987,7.2219 5.41006,20.84835 9.82421,30.28125 12.73913,27.2229 33.79583,45.10262 65.51954,55.63672 15.327504,5.0896 46.444604,3.0085 65.837884,-4.4043 31.65055,-12.098 59.2065,-47.16467 62.55468,-79.60547 l 1.23829,-12.00781 1.65039,-0.0195 -1.94727,-13.10938 c -1.07125,-7.2103 -5.64577,-20.78742 -10.16602,-30.16992 -13.04533,-27.0775 -34.30208,-44.71887 -66.14257,-54.89453 -5.76898,-1.84366 -13.74537,-2.65285 -22.48243,-2.54297 z m -4.70312,32.99023 c 31.9309,-0.30134 63.13507,23.75153 69.92188,57.80469 l 1.83007,9.17969 -2.97461,11.75586 c -6.51861,25.7659 -22.47204,43.18923 -47.28711,51.64453 -37.83737,12.89249 -81.337204,-14.13901 -89.068344,-55.34961 l -1.5586,-8.3125 2.67188,-11.08398 c 6.22762,-25.8378 21.98303,-43.44118 46.701168,-52.17578 6.477886,-2.28911 13.136496,-3.40035 19.763666,-3.4629 z"
     id="path996-6-4"
     inkscape:connector-curvature="0" /><path
     style="fill:#20252b;fill-opacity:0.83137256;stroke:none;stroke-width:285.76315308;stroke-linecap:square;stroke-linejoin:miter;stroke-miterlimit:4;stroke-dasharray:none;stroke-opacity:1;paint-order:markers stroke fill"
     d="m 250.72045,518.69148 c -4.85651,-9.4502 -11.02899,-24.5291 -13.71663,-33.5087 -10.25357,-34.2579 -33.87671,-61.166 -66.89868,-76.2013 -28.42124,-12.9405 -69.51107,-12.7839 -99.099724,0.3777 -25.66516,11.4164 -54.77367,41.9926 -63.53666,66.7403 l -6.10691,17.2466 -0.76806003,-32.6531 c -0.75217,-31.9778 -0.76798,-40.9652 -0.1705,-96.9387 l 0.29409,-27.5511 278.57143403,-6e-4 278.57145,-6e-4 -0.769,52.2709 c -0.4229,28.749 0.7612,59.0554 2.6314,67.3476 2.6613,11.7998 2.1631,15.0766 -2.2923,15.0766 -3.3393,0 -5.6926,-4.1861 -5.6926,-10.1263 0,-7.5629 -2.7518,-10.817 -10.8703,-12.8546 -10.1872,-2.5568 -271.16613,1.616 -273.93005,4.3799 -0.70102,0.7011 -2.34529,19.4078 -3.65394,41.5705 -1.30865,22.1627 -2.68394,40.6808 -3.05618,41.1514 -0.37225,0.4706 -4.65033,-6.8764 -9.50684,-16.3265 z"
     id="path851-9-7"
     inkscape:connector-curvature="0" /></svg>