<?xml version="1.0" encoding="UTF-8" standalone="no"?>
<svg
   xmlns:dc="http://purl.org/dc/elements/1.1/"
   xmlns:cc="http://creativecommons.org/ns#"
   xmlns:rdf="http://www.w3.org/1999/02/22-rdf-syntax-ns#"
   xmlns:svg="http://www.w3.org/2000/svg"
   xmlns="http://www.w3.org/2000/svg"
   xmlns:sodipodi="http://sodipodi.sourceforge.net/DTD/sodipodi-0.dtd"
   xmlns:inkscape="http://www.inkscape.org/namespaces/inkscape"
   viewBox="0 0 44.860309 33.72971"
   xml:space="preserve"
   version="1.1"
   id="svg2"
   sodipodi:docname="pojazd3.svg"
   width="44.86031"
   height="33.72971"
   inkscape:version="0.92.2 (5c3e80d, 2017-08-06)"><sodipodi:namedview
     pagecolor="#ffffff"
     bordercolor="#666666"
     borderopacity="1"
     objecttolerance="10"
     gridtolerance="10"
     guidetolerance="10"
     inkscape:pageopacity="0"
     inkscape:pageshadow="2"
     inkscape:window-width="1366"
     inkscape:window-height="705"
     id="namedview26"
     showgrid="false"
     fit-margin-top="0"
     fit-margin-left="0"
     fit-margin-right="0"
     fit-margin-bottom="0"
     inkscape:zoom="5.2444444"
     inkscape:cx="-46.42345"
     inkscape:cy="-11.877965"
     inkscape:window-x="-8"
     inkscape:window-y="-8"
     inkscape:window-maximized="1"
     inkscape:current-layer="svg2" /><metadata
     id="metadata8"><rdf:RDF><cc:Work
         rdf:about=""><dc:format>image/svg+xml</dc:format><dc:type
           rdf:resource="http://purl.org/dc/dcmitype/StillImage" /><dc:title /></cc:Work></rdf:RDF></metadata><defs
     id="defs6"><clipPath
       id="clipPath16"
       clipPathUnits="userSpaceOnUse"><path
         id="path18"
         d="M 0,36 H 36 V 0 H 0 Z"
         inkscape:connector-curvature="0" /></clipPath></defs><path
     style="fill:#20252b;fill-opacity:1;stroke:none;stroke-width:13.32429409;stroke-linecap:square;stroke-linejoin:miter;stroke-miterlimit:4;stroke-dasharray:none;stroke-opacity:1;paint-order:markers stroke fill"
     d="m 15.607407,12.968904 c 0.05907,-4.3784438 0.151642,-8.4024868 0.205705,-8.9423178 0.123922,-1.237408 0.920127,-2.535058 1.992567,-3.24747798 0.771338,-0.512399 0.912595,-0.534921 4.331557,-0.690619 4.420786,-0.201322 17.922536,-0.03201 18.825334,0.23607 0.888692,0.263891 2.409807,1.77796798 2.665099,2.65276998 0.122569,0.419998 0.248464,4.117736 0.317456,9.3242018 l 0.114336,8.628178 H 29.77973 15.5 Z"
     id="path836"
     inkscape:connector-curvature="0" /><path
     style="fill:#20252b;fill-opacity:1;stroke:none;stroke-width:13.34974003;stroke-linecap:square;stroke-linejoin:miter;stroke-miterlimit:4;stroke-dasharray:none;stroke-opacity:1;paint-order:markers stroke fill"
     d="M 3.802066,27.639588 C 2.492441,27.287572 1.42131,26.454514 0.755816,25.270408 0.253618,24.376854 0.170276,24.012418 0.09083,22.362569 L 0,20.476318 H 22.430155 44.86031 v 1.64631 c 0,2.064285 -0.255074,2.923484 -1.179778,3.974004 -0.935197,1.06244 -2.066209,1.604603 -3.657337,1.753184 l -1.26458,0.118089 v -0.657508 c 0,-0.862624 -0.826597,-2.497964 -1.587919,-3.141542 -1.536755,-1.299083 -3.808056,-1.637034 -5.537768,-0.823973 -1.169396,0.549681 -2.335106,1.892641 -2.695111,3.10491 -0.156823,0.528082 -0.285134,1.073283 -0.285134,1.211558 0,0.202936 -1.194819,0.251409 -6.197034,0.251409 h -6.197034 v -0.629935 c 0,-0.838538 -0.836337,-2.478625 -1.587919,-3.113969 -1.536756,-1.299083 -3.808056,-1.637034 -5.537768,-0.823973 -1.169396,0.549681 -2.335107,1.892641 -2.695112,3.10491 -0.156824,0.528082 -0.285134,1.073283 -0.285134,1.211558 0,0.32227 -1.10889,0.312004 -2.350616,-0.02176 z"
     id="path848"
     inkscape:connector-curvature="0" /><path
     style="fill:#20252b;fill-opacity:1;stroke:none;stroke-width:13.34974003;stroke-linecap:square;stroke-linejoin:miter;stroke-miterlimit:4;stroke-dasharray:none;stroke-opacity:1;paint-order:markers stroke fill"
     d="m 0.007272,17.831192 0.0073,-3.098517 2.042503,-4.001299 C 5.001512,4.9631712 5.087241,4.9127592 11.951983,4.9127592 h 4.255646 v 8.0084748 8.008475 H 8.103815 1e-6 Z M 11.249986,11.014455 V 7.2008942 H 9.794354 c -3.086651,0 -3.869841,0.609231 -5.876784,4.5714528 -0.791324,1.562277 -1.43877,2.888915 -1.43877,2.948086 0,0.05917 1.973517,0.107581 4.385593,0.107581 h 4.385593 z"
     id="path866"
     inkscape:connector-curvature="0" /><path
     style="fill:#20252b;fill-opacity:1;stroke:none;stroke-width:15.01540565;stroke-linecap:square;stroke-linejoin:miter;stroke-miterlimit:4;stroke-dasharray:none;stroke-opacity:1;paint-order:markers stroke fill"
     d="M 9.3166673,33.487755 C 7.8768051,33.032222 6.349899,31.492559 5.847133,29.989229 c -0.974759,-2.914625 0.65658,-6.085788 3.5732323,-6.946008 1.4014107,-0.413324 1.9800007,-0.416492 3.3242167,-0.01821 4.560429,1.351253 5.208431,7.731126 1.01545,9.997603 -1.357865,0.733982 -3.037746,0.909833 -4.4433647,0.465133 z m 3.3302017,-2.820204 c 0.814835,-0.464187 1.266612,-1.359985 1.266612,-2.511476 0,-0.885238 -0.101323,-1.108031 -0.835512,-1.837192 -0.731858,-0.726846 -0.960119,-0.82979 -1.839948,-0.82979 -1.6767618,0 -2.6761208,0.762059 -3.0162448,2.300031 -0.180922,0.818088 0.163156,1.98877 0.735793,2.503452 0.584233,0.525103 1.9591758,0.959018 2.5886318,0.81694 0.295911,-0.0668 0.79121,-0.265676 1.100668,-0.441965 z"
     id="path842"
     inkscape:connector-curvature="0" /><path
     style="fill:#20252b;fill-opacity:1;stroke:none;stroke-width:15.01540565;stroke-linecap:square;stroke-linejoin:miter;stroke-miterlimit:4;stroke-dasharray:none;stroke-opacity:1;paint-order:markers stroke fill"
     d="m 31.821294,33.487755 c -1.439862,-0.455533 -2.966768,-1.995196 -3.469534,-3.498526 -0.974759,-2.914625 0.65658,-6.085788 3.573232,-6.946008 1.401411,-0.413324 1.980001,-0.416492 3.324217,-0.01821 4.560428,1.351253 5.20843,7.731126 1.01545,9.997603 -1.357865,0.733982 -3.037746,0.909833 -4.443365,0.465133 z m 3.330202,-2.820204 c 0.814835,-0.464187 1.266612,-1.359985 1.266612,-2.511476 0,-0.885238 -0.101323,-1.108031 -0.835512,-1.837192 -0.731858,-0.726846 -0.960119,-0.82979 -1.839948,-0.82979 -1.676762,0 -2.676121,0.762059 -3.016245,2.300031 -0.180922,0.818088 0.163156,1.98877 0.735793,2.503452 0.584233,0.525103 1.959176,0.959018 2.588632,0.81694 0.295911,-0.0668 0.79121,-0.265676 1.100668,-0.441965 z"
     id="path842-3"
     inkscape:connector-curvature="0" /></svg>