<?xml version="1.0" encoding="UTF-8" standalone="no"?>
<svg
   xmlns:dc="http://purl.org/dc/elements/1.1/"
   xmlns:cc="http://creativecommons.org/ns#"
   xmlns:rdf="http://www.w3.org/1999/02/22-rdf-syntax-ns#"
   xmlns:svg="http://www.w3.org/2000/svg"
   xmlns="http://www.w3.org/2000/svg"
   xmlns:sodipodi="http://sodipodi.sourceforge.net/DTD/sodipodi-0.dtd"
   xmlns:inkscape="http://www.inkscape.org/namespaces/inkscape"
   version="1.1"
   id="Layer_1"
   x="0px"
   y="0px"
   width="4853.8218"
   height="2590.6648"
   viewBox="0 0 4853.8217 2590.6648"
   enable-background="new 0 0 4916 2605"
   xml:space="preserve"
   sodipodi:docname="pojazd1_tlo.svg"
   inkscape:version="0.92.2 (5c3e80d, 2017-08-06)"><metadata
     id="metadata8"><rdf:RDF><cc:Work
         rdf:about=""><dc:format>image/svg+xml</dc:format><dc:type
           rdf:resource="http://purl.org/dc/dcmitype/StillImage" /><dc:title /></cc:Work></rdf:RDF></metadata><defs
     id="defs6" /><sodipodi:namedview
     pagecolor="#ffffff"
     bordercolor="#666666"
     borderopacity="1"
     objecttolerance="10"
     gridtolerance="10"
     guidetolerance="10"
     inkscape:pageopacity="0"
     inkscape:pageshadow="2"
     inkscape:window-width="1366"
     inkscape:window-height="705"
     id="namedview4"
     showgrid="false"
     showguides="true"
     inkscape:zoom="0.073996798"
     inkscape:cx="-180.53745"
     inkscape:cy="1127.8742"
     inkscape:window-x="-8"
     inkscape:window-y="-8"
     inkscape:window-maximized="1"
     inkscape:current-layer="g819"
     fit-margin-top="0"
     fit-margin-left="0"
     fit-margin-right="0"
     fit-margin-bottom="0" /><g
     id="g819"
     style="opacity:0.05"><path
       inkscape:connector-curvature="0"
       id="path4522"
       d="m 3657.5142,2578.7275 c -93.621,-18.3862 -224.5458,-86.1852 -296.6244,-153.6064 -70.3363,-65.7913 -137.17,-177.8284 -165.6822,-277.742 -13.2719,-46.508 -18.5528,-53.6607 -22.4495,-30.4067 l -5.0952,30.4067 h -742.3355 c -697.8087,0 -742.362,-1.4186 -742.7767,-23.6497 -0.2419,-13.0073 -11.3943,8.0516 -24.7816,46.7975 -71.856,207.9684 -251.159,358.5151 -473.6792,397.7114 -265.239,46.7209 -550.7383,-133.8708 -636.6244,-402.6949 -13.8779,-43.4378 -25.5595,-65.5812 -25.9592,-49.2077 -0.6649,27.2339 -6.1952,29.2825 -64.9188,24.0476 -35.3055,-3.1473 -124.395,-8.8389 -197.9766,-12.6482 -147.1441,-7.6173 -181.833399,-21.8954 -224.933599,-92.5815 -36.6177002,-60.0548 -33.22120016,-86.4012 17.7037,-137.3261 l 44.1373,-44.1372 -36.5639,-20.9848 C 9.9350008,1804.5722 -12.902999,1722.1768 7.4097008,1646.7411 23.636401,1586.4798 82.889501,1539.3839 142.5913,1539.2952 c 28.4313,-0.041 37.805,-10.7872 57.3031,-65.6853 33.599,-94.6 143.3662,-256.4092 219.2596,-323.2132 95.819,-84.3433 207.3121,-133.3155 424.9489,-186.65454 106.5657,-26.11745 221.8449,-61.9135 256.176,-79.54679 68.4129,-35.13852 170.397,-136.17055 371.7173,-368.24723 228.2378,-263.10656 343.9554,-351.40285 562.2817,-429.039224 184.5373,-65.62106 258.7628,-75.9444 601.4579,-83.6512695 296.5827,-6.66985 336.4815,-4.79729 466.2364,21.8817795 536.4005,110.289974 964.8514,386.878534 1235.3692,797.498714 114.0784,173.16004 172.5616,319.48156 252.0542,630.62496 30.3076,118.6268 32.7321,122.948 61.6035,109.7933 42.5677,-19.3952 122.2084,-1.0379 146.6041,33.7912 31.0243,44.2934 27.8005,178.5099 -5.0774,211.3878 -25.3065,25.3065 -25.0988,26.3483 12.4207,62.2943 47.5486,45.5545 59.4747,90.5001 39.8178,150.0612 -21.0334,63.7316 -73.4751,86.9027 -227.9441,100.7159 -210.0102,18.7798 -268.5586,16.4249 -275.7494,-11.0915 -4.0031,-15.3182 -6.7325,-11.1971 -7.748,11.6984 -2.9831,67.2638 -92.4344,220.5029 -174.2946,298.5844 -94.1928,89.8447 -164.9497,127.9417 -284.8066,153.3461 -99.8755,21.1691 -130.2908,21.8544 -216.7074,4.8833 z m 221.5187,-308.6243 c 71.6381,-31.5345 150.2168,-120.8129 169.56,-192.6485 33.1644,-123.1629 -20.9178,-261.9855 -127.8093,-328.0715 -144.8691,-89.5657 -332.6111,-47.7795 -419.9368,93.4665 -34.7445,56.198 -40.6773,79.0167 -40.2511,154.8145 0.8203,145.9599 66.0413,240.2477 198.3687,286.7773 78.6091,27.6408 132.7102,24.1159 220.0685,-14.3383 z m -2694.1496,10.2471 c 69.9442,-20.9558 158.1721,-98.5205 188.8232,-166.0022 73.6664,-162.1843 -30.8584,-371.3381 -206.652,-413.5104 -164.7455,-39.5218 -329.145,62.9899 -363.067,226.3915 -30.9568,149.118 35.0111,276.5999 176.2713,340.6412 69.3136,31.4238 129.2039,35.0765 204.6245,12.4799 z M 138.1863,1718.3065 c -3.3992,-13.0073 -6.1803,-2.365 -6.1803,23.6497 0,26.0146 2.7811,36.6569 6.1803,23.6496 3.3991,-13.0073 3.3991,-34.292 0,-47.2993 z m 2275.5653,-511.0607 c 26.2869,-23.7892 34.2069,-80.1842 15.4123,-109.7423 -25.6903,-40.4026 -165.9074,-59.1915 -237.7866,-31.863 -66.2296,25.1805 -59.7637,152.6381 8.4993,167.5341 61.2528,13.3662 187.3462,-1.9205 213.875,-25.9288 z m 93.6003,-669.60145 V 117.15016 l -77.7061,9.50431 c -286.9676,35.0993 -461.599,119.5308 -668.7127,323.31206 -160.7956,158.20833 -380.2828,453.53495 -355.5296,478.37574 9.9098,9.94478 396.6852,22.37772 841.802,27.05983 l 260.1464,2.73643 z M 4190.7166,928.00652 C 4222.9191,895.77779 3914.0962,571.08107 3733.0432,446.80847 3463.1675,261.56883 3143.7315,151.68896 2797.785,125.0974 l -114.7498,-8.82036 v 406.56041 406.56042 l 43.9208,5.62294 c 76.9855,9.85605 1453.4948,3.25986 1463.7606,-7.01429 z"
       style="fill:#f7ca00;fill-opacity:1;stroke-width:13.51409817" /></g></svg>