<?xml version="1.0" encoding="UTF-8" standalone="no"?>
<svg
   xmlns:dc="http://purl.org/dc/elements/1.1/"
   xmlns:cc="http://creativecommons.org/ns#"
   xmlns:rdf="http://www.w3.org/1999/02/22-rdf-syntax-ns#"
   xmlns:svg="http://www.w3.org/2000/svg"
   xmlns="http://www.w3.org/2000/svg"
   xmlns:sodipodi="http://sodipodi.sourceforge.net/DTD/sodipodi-0.dtd"
   xmlns:inkscape="http://www.inkscape.org/namespaces/inkscape"
   viewBox="0 0 3456.8499 2542.5755"
   xml:space="preserve"
   version="1.1"
   id="svg2"
   sodipodi:docname="pojazd2.svg"
   width="3456.8499"
   height="2542.5754"
   inkscape:version="0.92.2 (5c3e80d, 2017-08-06)"><sodipodi:namedview
     pagecolor="#ffffff"
     bordercolor="#666666"
     borderopacity="1"
     objecttolerance="10"
     gridtolerance="10"
     guidetolerance="10"
     inkscape:pageopacity="0"
     inkscape:pageshadow="2"
     inkscape:window-width="1366"
     inkscape:window-height="705"
     id="namedview33"
     showgrid="false"
     fit-margin-top="0"
     fit-margin-left="0"
     fit-margin-right="0"
     fit-margin-bottom="0"
     inkscape:zoom="0.11"
     inkscape:cx="1604.7675"
     inkscape:cy="902.46253"
     inkscape:window-x="-8"
     inkscape:window-y="-8"
     inkscape:window-maximized="1"
     inkscape:current-layer="svg2" /><metadata
     id="metadata8"><rdf:RDF><cc:Work
         rdf:about=""><dc:format>image/svg+xml</dc:format><dc:type
           rdf:resource="http://purl.org/dc/dcmitype/StillImage" /><dc:title /></cc:Work></rdf:RDF></metadata><defs
     id="defs6"><clipPath
       id="clipPath16"
       clipPathUnits="userSpaceOnUse"><path
         id="path18"
         d="M 0,36 H 36 V 0 H 0 Z"
         inkscape:connector-curvature="0" /></clipPath></defs><path
     style="fill:#20252b;fill-opacity:1;stroke:none;stroke-width:682.15429688;stroke-linecap:square;stroke-linejoin:miter;stroke-miterlimit:4;stroke-dasharray:none;stroke-opacity:1;paint-order:markers stroke fill"
     d="m 1338.6234,548.066 c -18.0843,-59.4487 -89.5185,-146.2662 -123.3295,-149.8887 -27.8211,-2.9806 90.3901,-16.544 151.0507,-17.3313 l 65.7679,-0.8536 v -97.434 -97.4339 l -56.0245,-0.1959 c -107.6225,-0.3764 -180.6079,-15.9784 -204.6113,-43.7398 -29.0589,-33.6081 -27.8542,-74.1842 3.3019,-111.2111 L 1200.0032,0 h 1094.7225 1094.7225 l 27.198,23.3947 c 22.2163,19.1096 27.0016,30.8821 26.126,64.273 -0.6937,26.4752 -7.7844,47.5908 -20.1231,59.9296 -20.9572,20.9571 -107.016,37.0055 -200.1878,37.3313 l -56.0245,0.1959 v 96.2079 96.2079 l 113.4567,4.3428 c 113.4054,4.3408 113.4693,4.357 141.6202,35.8633 23.9966,26.8569 27.2518,36.8474 22.0005,67.5229 -11.6888,68.2797 0.1306,66.1905 -415.0272,73.3644 -205.4682,3.5506 -668.5755,6.4618 -1029.1276,6.4694 -615.8678,0.013 -655.863,-1.0183 -660.736,-17.0371 z M 1821.8483,282.5584 V 185.1245 H 1719.5426 1617.237 v 97.4339 97.434 h 102.3056 102.3057 z m 389.7358,59.8897 c 0,-20.6494 -2.8169,-64.4947 -6.2598,-97.434 l -6.2596,-59.8896 h -96.046 -96.0459 v 97.4339 97.434 h 102.3056 102.3057 z m 379.9924,-59.8897 v -97.4339 h -96.1096 -96.1096 l -6.1961,45.2052 c -3.4077,24.8628 -6.196,68.7081 -6.196,97.4339 v 52.2288 h 102.3056 102.3057 z m 389.7358,0 V 185.1245 H 2879.0066 2776.701 v 97.4339 97.434 h 102.3056 102.3057 z"
     id="path916"
     inkscape:connector-curvature="0" /><g
     transform="matrix(96.481481,0,0,-96.481481,10906.205,-433.016)"
     id="g10"><path
       style="fill:#1a1a1a;fill-opacity:1;stroke:none;stroke-width:13.5411396;stroke-linecap:square;stroke-linejoin:miter;stroke-miterlimit:4;stroke-dasharray:none;stroke-opacity:1;paint-order:markers stroke fill"
       d="m -107.58819,-7.9766443 c -0.38854,0.226301 -0.4484,0.957688 -0.10638,1.299708 0.35711,0.357112 2.76496,0.302003 3.1388,-0.07184 0.75105,-0.751049 -0.0309,-1.439661 -1.62487,-1.430892 -0.588,0.0032 -1.22139,0.09459 -1.40755,0.203022 z"
       id="path952"
       inkscape:connector-curvature="0" /><path
       style="fill:#000000;fill-opacity:1;stroke:none;stroke-width:6.63436937;stroke-linecap:square;stroke-linejoin:miter;stroke-miterlimit:4;stroke-dasharray:none;stroke-opacity:1;paint-order:markers stroke fill"
       d="m -105.3435,-8.1357913 c -0.7249,0.09771 -1.04889,0.930042 -0.53734,1.380455 0.29564,0.2603 0.70526,0.334439 1.81711,0.328879 1.08434,-0.0055 1.46634,-0.128961 1.69985,-0.549739 0.1794,-0.323272 0.1794,-0.343611 0,-0.666884 -0.13083,-0.235749 -0.2886,-0.364534 -0.5385,-0.439569 -0.33289,-0.09995 -1.84895,-0.132958 -2.44112,-0.05315 z"
       id="path918"
       inkscape:connector-curvature="0" /></g><path
     style="fill:#20252b;fill-opacity:1;stroke:none;stroke-width:682.15429688;stroke-linecap:square;stroke-linejoin:miter;stroke-miterlimit:4;stroke-dasharray:none;stroke-opacity:1;paint-order:markers stroke fill"
     d="m 1056.691,2152.7773 c -2.0645,-6.6986 -6.4553,-31.3892 -9.7573,-54.8678 -15.468,-109.9832 -104.53166,-223.7793 -215.95056,-275.9185 -112.504,-52.6469 -252.0565,-46.9171 -356.969,14.6566 -94.4263,55.4192 -175.4967,171.9956 -188.67,271.3007 -5.6967,42.944 -8.4165,47.1329 -26.9702,41.5381 -88.0239,-26.5428 -184.7836,-114.629 -229.1709,-208.628 L 3.8979403,1887.2697 0.81514029,1468.3038 C -2.4960597,1018.2962 2.8432403,933.0374 43.98574,778.947 97.33224,579.1493 187.79814,449.0406 318.16964,384.6139 l 74.4683,-36.8006 h 385.362 c 384.83566,0 385.43186,0.032 436.58566,23.153 56.9687,25.7497 106.2123,75.328 115.0869,115.8691 3.2045,14.6386 7.5148,32.0963 9.5784,38.7949 2.9661,9.6278 191.3832,12.1792 899.4239,12.1792 865.8798,0 897.7315,0.6429 957.5944,19.326 76.6486,23.922 147.5154,76.8099 196.0952,146.3455 66.8585,95.6995 66.5548,92.4987 63.4617,668.806 l -2.7665,515.4277 -31.581,64.1327 c -56.0254,113.7724 -171.7784,198.1081 -288.434,210.148 l -52.1297,5.3802 -5.5389,-53.6666 c -12.279,-118.9722 -100.0602,-236.3345 -218.8532,-292.6039 -60.6437,-28.7255 -73.9579,-31.2693 -163.6623,-31.2693 -90.1332,0 -102.5139,2.3956 -160.8692,31.1282 -117.8449,58.0236 -210.7228,182.2953 -221.7111,296.6521 l -4.5488,47.3404 H 1683.088 c -489.6172,0 -623.4454,-2.6021 -626.397,-12.1792 z M 3272.8068,1448.817 V 1297.7943 H 1728.4787 184.15074 v 151.0227 151.0226 H 1728.4787 3272.8068 Z M 671.32054,819.412 V 526.1542 l -130.7141,3.3918 c -127.2687,3.3024 -131.8272,4.1704 -172.9452,32.9304 -100.6358,70.3897 -165.8051,238.0026 -180.7721,464.9387 l -5.6228,85.2547 h 245.0271 245.0271 z m 485.50656,76.4673 c -3.6116,-238.441 -5.3303,-246.1695 -68.1453,-306.4231 -45.4453,-43.5923 -94.32216,-61.3901 -168.59176,-61.3901 h -63.645 v 292.3019 292.3018 h 151.83286 151.8329 z"
     id="path849"
     inkscape:connector-curvature="0" /><path
     style="fill:#20252b;fill-opacity:1;stroke:none;stroke-width:699.81176758;stroke-linecap:square;stroke-linejoin:miter;stroke-miterlimit:4;stroke-dasharray:none;stroke-opacity:1;paint-order:markers stroke fill"
     d="m 544.40884,2526.8839 c -171.7099,-71.4652 -283.996,-258.6171 -259.0807,-431.8208 16.1836,-112.5052 112.0768,-237.8508 221.0079,-288.8882 51.641,-24.1953 69.674,-27.2047 163.0179,-27.2047 93.1012,0 111.4475,3.0432 162.4549,26.9471 75.3416,35.3075 156.726,113.3698 193.16016,185.2756 26.4985,52.2967 29.2155,66.9539 29.2155,157.6145 0,91.7789 -2.6243,105.4963 -32.0788,167.679 -38.82116,81.9572 -109.93446,154.4521 -190.14546,193.8394 -49.2157,24.1672 -71.5486,28.6679 -152.6108,30.7544 -70.3673,1.8114 -105.3122,-1.865 -134.9406,-14.1963 z M 744.32094,2352.68 c 92.1006,-25.1579 158.3218,-112.0653 158.1806,-207.5934 -0.087,-58.9587 -24.3544,-121.0709 -59.8397,-153.1604 -37.4164,-33.8356 -106.875,-57.5799 -169.0952,-57.8046 -100.7675,-0.3641 -176.2351,62.5326 -205.2655,171.0734 -17.0711,63.8275 1.5142,126.1427 55.1064,184.7666 60.4946,66.1747 132.9519,86.7456 220.9134,62.7184 z"
     id="path899"
     inkscape:connector-curvature="0" /><path
     style="fill:#20252b;fill-opacity:1;stroke:none;stroke-width:699.81176758;stroke-linecap:square;stroke-linejoin:miter;stroke-miterlimit:4;stroke-dasharray:none;stroke-opacity:1;paint-order:markers stroke fill"
     d="m 2569.0664,2527.9439 c -171.7099,-71.4652 -283.996,-258.6171 -259.0807,-431.8208 16.1836,-112.5052 112.0768,-237.8508 221.0079,-288.8882 51.641,-24.1953 69.674,-27.2047 163.0179,-27.2047 93.1012,0 111.4475,3.0432 162.4549,26.9471 75.3416,35.3075 156.726,113.3698 193.1603,185.2756 26.4985,52.2967 29.2155,66.9539 29.2155,157.6145 0,91.7789 -2.6243,105.4963 -32.0788,167.679 -38.8213,81.9572 -109.9346,154.4521 -190.1456,193.8394 -49.2157,24.1672 -71.5486,28.6679 -152.6108,30.7544 -70.3673,1.8114 -105.3122,-1.865 -134.9406,-14.1963 z M 2768.9785,2353.74 c 92.1006,-25.1579 158.3218,-112.0653 158.1806,-207.5934 -0.087,-58.9587 -24.3544,-121.0709 -59.8397,-153.1604 -37.4164,-33.8356 -106.875,-57.5799 -169.0952,-57.8046 -100.7675,-0.3641 -176.2351,62.5326 -205.2655,171.0734 -17.0711,63.8275 1.5142,126.1427 55.1064,184.7666 60.4946,66.1747 132.9519,86.7456 220.9134,62.7184 z"
     id="path899-4"
     inkscape:connector-curvature="0" /><path
     style="fill:#20252b;fill-opacity:1;stroke:none;stroke-width:636.47247314;stroke-linecap:square;stroke-linejoin:miter;stroke-miterlimit:4;stroke-dasharray:none;stroke-opacity:1;paint-order:markers stroke fill"
     d="m 689.21193,318.02797 c -26.00274,-30.9025 -28.20128,-42.75196 -13.79755,-74.36471 16.23293,-35.62739 44.07444,-45.85091 137.05834,-50.3284 119.83248,-5.77034 168.14866,2.57322 200.13628,34.56088 32.6939,32.6939 32.5539,54.39855 -0.5798,89.86832 l -26.37467,28.23413 H 849.20093 712.74732 Z"
     id="path828"
     inkscape:connector-curvature="0" /><path
     style="fill:#20252b;fill-opacity:1;stroke:none;stroke-width:636.47247314;stroke-linecap:square;stroke-linejoin:miter;stroke-miterlimit:4;stroke-dasharray:none;stroke-opacity:1;paint-order:markers stroke fill"
     d="m 557.02976,341.77472 c -38.99781,-9.18096 -55.03024,-30.23655 -54.85039,-72.03571 0.16117,-37.45633 5.97114,-48.39736 33.35406,-62.81061 20.18346,-10.62374 184.68855,-15.0257 184.68855,-4.94203 0,3.0304 -10.3689,13.66599 -23.042,23.63466 -18.5714,14.60826 -22.63468,25.02807 -20.94262,53.70489 3.23525,54.83073 20.77591,61.59565 168.26611,64.89536 89.1582,1.99468 70.20007,3.1219 -65.19058,3.87612 -105,0.58491 -205.02741,-2.26029 -222.28313,-6.32268 z"
     id="path830"
     inkscape:connector-curvature="0" /></svg>