<?xml version="1.0" encoding="UTF-8" standalone="no"?>
<svg
   xmlns:dc="http://purl.org/dc/elements/1.1/"
   xmlns:cc="http://creativecommons.org/ns#"
   xmlns:rdf="http://www.w3.org/1999/02/22-rdf-syntax-ns#"
   xmlns:svg="http://www.w3.org/2000/svg"
   xmlns="http://www.w3.org/2000/svg"
   xmlns:sodipodi="http://sodipodi.sourceforge.net/DTD/sodipodi-0.dtd"
   xmlns:inkscape="http://www.inkscape.org/namespaces/inkscape"
   version="1.1"
   x="0px"
   y="0px"
   viewBox="0 0 300 300"
   enable-background="new 0 0 1000 1000"
   xml:space="preserve"
   id="svg182"
   sodipodi:docname="pricelist.svg"
   inkscape:version="1.0.1 (3bc2e813f5, 2020-09-07)"
   width="300"
   height="300"><defs
   id="defs186"><clipPath
     clipPathUnits="userSpaceOnUse"
     id="clipPath238"><circle
       style="fill:#ff0000;fill-rule:evenodd"
       id="circle240"
       cx="500.04999"
       cy="499.95001"
       r="440.58823" /></clipPath><clipPath
     clipPathUnits="userSpaceOnUse"
     id="clipPath238-6"><circle
       style="fill:#ff0000;fill-rule:evenodd"
       id="circle240-0"
       cx="500.04999"
       cy="499.95001"
       r="440.58823" /></clipPath></defs><sodipodi:namedview
   pagecolor="#ffffff"
   bordercolor="#666666"
   borderopacity="1"
   objecttolerance="10"
   gridtolerance="10"
   guidetolerance="10"
   inkscape:pageopacity="0"
   inkscape:pageshadow="2"
   inkscape:window-width="1920"
   inkscape:window-height="1017"
   id="namedview184"
   showgrid="false"
   inkscape:zoom="0.74"
   inkscape:cx="392.43956"
   inkscape:cy="356.58465"
   inkscape:window-x="-8"
   inkscape:window-y="-8"
   inkscape:window-maximized="1"
   inkscape:current-layer="layer4"
   fit-margin-top="0"
   fit-margin-left="0"
   fit-margin-right="0"
   fit-margin-bottom="0" />
<metadata
   id="metadata176"> Svg Vector Icons : http://www.onlinewebfonts.com/icon <rdf:RDF><cc:Work
     rdf:about=""><dc:format>image/svg+xml</dc:format><dc:type
       rdf:resource="http://purl.org/dc/dcmitype/StillImage" /><dc:title></dc:title></cc:Work></rdf:RDF></metadata>

<g
   inkscape:groupmode="layer"
   id="layer2"
   inkscape:label="obrazek"
   style="display:inline"
   transform="translate(-51.351351,-8.1081081)"><g
     id="g2456"
     transform="matrix(0.34013605,0,0,0.34013605,51.351353,8.1081081)"
     style="fill:#ff0000"><circle
       style="display:inline;fill:#ff0000;stroke-width:2.91375"
       id="path1577"
       cx="441"
       cy="441"
       r="441" /><path
       style="display:inline;fill:#ff0000;stroke-width:1.35135"
       d="m 410.00713,880.54659 c -3.3446,-0.29617 -13.98649,-1.49577 -23.64865,-2.66577 C 269.14944,863.6879 161.31221,801.26066 89.314583,705.92137 1.9320666,590.20942 -22.60935,438.64408 23.632016,300.27242 54.157816,208.92766 116.94331,127.35179 197.84496,73.921198 289.76314,13.214867 398.80488,-10.835835 507.30442,5.6655304 583.2803,17.220471 651.28291,46.698704 713.8678,95.208031 c 18.50256,14.341259 58.49858,54.337289 72.83984,72.839839 52.57269,67.82727 82.13393,140.18773 92.39178,226.15798 2.2461,18.82427 2.24886,75.263 0.004,93.24324 -11.48346,92.00065 -43.44333,167.43468 -99.71197,235.34754 -12.63896,15.25446 -40.99832,43.70618 -55.87138,56.05334 -65.63867,54.49116 -140.43945,87.1477 -227.1024,99.14838 -14.80244,2.04977 -72.74445,3.75847 -86.41112,2.54824 z"
       id="path1613" /><path
       style="display:inline;fill:#ff0000;stroke-width:1.35135"
       d="M 409.33145,880.55113 C 339.82157,873.4722 292.2414,859.88127 237.70983,831.52869 191.53378,807.52039 148.39202,774.29752 114.73686,736.82892 43.575205,657.60397 4.4076483,560.34423 0.97589399,454.34098 -2.5085676,346.70966 33.366725,242.57621 102.77833,158.84406 116.56813,142.20925 148.36909,111.06588 165.83479,97.09151 229.99257,45.758631 304.82817,14.385484 389.06118,3.5088388 411.01021,0.67465593 464.76328,0.29065944 487.03415,2.808948 587.16659,14.131465 676.10511,55.75014 746.73338,124.33489 c 74.31252,72.16238 118.13856,160.17751 131.68737,264.46555 2.86326,22.03916 3.27116,77.16653 0.72993,98.64865 -12.86381,108.74307 -58.47757,200.04673 -137.4335,275.09643 -65.77654,62.52234 -150.96999,102.64298 -245.22357,115.48454 -14.82529,2.01988 -74.99475,3.76022 -87.16216,2.52107 z"
       id="path1615" /><path
       style="display:inline;fill:#ff0000;stroke-width:1.35135"
       d="M 409.33145,880.50664 C 407.10172,880.2556 398.89226,879.3706 391.08821,878.53997 256.58186,864.2235 132.31735,783.92943 62.514001,666.23027 23.747498,600.864 3.310797,530.29659 0.95403858,453.66531 -2.2469504,349.5834 31.199539,249.08442 96.560027,166.39139 110.84161,148.32256 148.54244,110.61303 166.57257,96.362664 333.50214,-35.572343 568.55299,-30.788783 728.92605,107.80722 c 73.10533,63.17836 123.72266,149.04386 143.08229,242.71988 7.06289,34.17545 8.71722,51.06161 8.78039,89.62469 0.0691,42.11453 -2.50139,65.37554 -11.37705,102.9574 -43.59872,184.60817 -202.95847,321.46187 -392.24843,336.85198 -15.87241,1.2905 -58.19147,1.63081 -67.8318,0.54547 z"
       id="path1617" /><path
       style="display:inline;fill:#ff0000;stroke-width:1.35135"
       d="M 401.22334,879.96155 C 296.20975,869.30809 202.50257,825.28975 129.56425,752.35143 68.562636,691.34981 26.204697,612.73851 9.4529348,529.43909 2.7999086,496.35642 1.3441595,480.45539 1.3404832,440.82747 1.3367897,401.0141 2.6668168,386.57524 9.4853176,352.4066 37.632125,211.35828 138.61378,89.024227 272.23596,34.097787 c 149.14776,-61.308351 317.97026,-37.4460869 443.8703,62.738976 17.36041,13.814557 55.1581,51.612247 68.97265,68.972657 84.26368,105.89202 115.29203,242.74475 84.93581,374.6154 -14.00543,60.84111 -39.59243,115.58314 -77.51538,165.84011 -71.48469,94.7343 -175.37344,155.22558 -294.9862,171.76159 -18.17269,2.5123 -78.62455,3.72714 -96.2898,1.93503 z"
       id="path1619" /></g></g><g
   inkscape:groupmode="layer"
   id="layer4"
   inkscape:label="obrazek 2"
   style="display:inline"
   transform="translate(-51.351351,-8.1081081)"><g
     id="surface1"
     transform="matrix(0.4222973,0,0,0.4222973,102.99976,50.559026)"
     style="fill:#ffffff"><path
       d="m 348.94531,221.64062 v -96.89453 c 0,-2.77343 -1.28125,-5.33593 -3.09375,-7.36328 L 237.21875,3.308594 C 235.19141,1.175781 232.30859,0 229.42969,0 H 57.195312 C 25.398438,0 0,25.929688 0,57.730469 V 383.41406 c 0,31.80078 25.398438,57.30469 57.195312,57.30469 H 193.14844 C 218.86328,483.40234 265.60547,512 318.85156,512 c 80.88672,0 146.94141,-65.73438 146.94141,-146.72656 0.10937,-70.75 -50.6875,-129.86719 -116.84766,-143.63282 z M 240.10156,37.457031 312.98437,114.17969 h -47.27343 c -14.08594,0 -25.60938,-11.62891 -25.60938,-25.714846 z M 57.195312,419.375 c -19.953124,0 -35.851562,-16.00781 -35.851562,-35.96094 V 57.730469 c 0,-20.0625 15.898438,-36.386719 35.851562,-36.386719 H 218.75781 v 67.121094 c 0,25.929686 21.02344,47.058596 46.95313,47.058596 h 61.89062 v 83.33984 c -3.19922,-0.10547 -5.76172,-0.42578 -8.53515,-0.42578 -37.24219,0 -71.4961,14.30078 -97.32032,36.71094 H 86.222656 c -5.871094,0 -10.671875,4.80078 -10.671875,10.66797 0,5.87109 4.800781,10.67187 10.671875,10.67187 H 201.89844 c -7.57813,10.67188 -13.875,21.34375 -18.78125,33.08203 H 86.222656 c -5.871094,0 -10.671875,4.80078 -10.671875,10.67188 0,5.86718 4.800781,10.67187 10.671875,10.67187 h 89.957034 c -2.66797,10.67188 -4.05469,22.51563 -4.05469,34.35938 0,19.20703 3.73437,38.20312 10.45703,54.21093 H 57.195312 Z m 261.765628,71.39062 c -69.14844,0 -125.38672,-56.23828 -125.38672,-125.38671 0,-69.14844 56.1289,-125.38672 125.38672,-125.38672 69.2539,0 125.38281,56.23828 125.38281,125.38672 0,69.14843 -56.23438,125.38671 -125.38281,125.38671 z m 0,0"
       style="fill:#ffffff;fill-opacity:1;fill-rule:nonzero;stroke:none"
       id="path2533" /><path
       d="M 86.222656,223.02734 H 194.32031 c 5.8711,0 10.67188,-4.80468 10.67188,-10.67187 0,-5.8711 -4.80078,-10.67188 -10.67188,-10.67188 H 86.222656 c -5.871094,0 -10.671875,4.80078 -10.671875,10.67188 0,5.86719 4.800781,10.67187 10.671875,10.67187 z m 0,0"
       style="fill:#ffffff;fill-opacity:1;fill-rule:nonzero;stroke:none"
       id="path2535" /><path
       d="m 315.4375,299.53906 c 0.85547,0.21094 1.70703,0.32031 2.5625,0.32031 1.06641,0 2.02734,-0.10937 2.98828,-0.42968 14.08594,1.17578 25.07813,12.91406 25.07813,27.21484 0,5.86719 4.80078,10.66797 10.66796,10.66797 5.8711,0 10.67188,-4.80078 10.67188,-10.66797 0,-23.47656 -16.64453,-43.11328 -38.73438,-47.70312 v -6.82813 c 0,-5.87109 -4.80468,-10.67187 -10.67187,-10.67187 -5.87109,0 -10.67188,4.80078 -10.67188,10.67187 v 7.25781 c -21.34375,5.1211 -37.24218,24.4375 -37.24218,47.27344 0,26.89063 21.875,48.66016 48.66015,48.66016 15.04688,0 27.32032,12.26953 27.32032,27.3164 0,15.04688 -12.16797,27.42578 -27.32032,27.42578 -15.04687,0 -27.3164,-12.27343 -27.3164,-27.32031 0,-5.86719 -4.80469,-10.67187 -10.67188,-10.67187 -5.87109,0 -10.67187,4.80468 -10.67187,10.67187 0,22.94531 15.89843,42.15235 37.24218,47.27344 v 10.99219 c 0,5.87109 4.80079,10.67187 10.67188,10.67187 5.86719,0 10.67187,-4.80078 10.67187,-10.67187 v -10.67188 c 22.08985,-4.58984 38.73438,-24.22265 38.73438,-47.69922 0,-26.89062 -21.875,-48.66015 -48.66016,-48.66015 -15.04687,0 -27.3164,-12.27344 -27.3164,-27.31641 0,-13.875 10.45703,-25.50391 24.00781,-27.10547 z m 0,0"
       style="fill:#ffffff;fill-opacity:1;fill-rule:nonzero;stroke:none"
       id="path2537" /></g></g></svg>
