<?xml version="1.0" encoding="UTF-8" standalone="no"?>
<svg
   xmlns:dc="http://purl.org/dc/elements/1.1/"
   xmlns:cc="http://creativecommons.org/ns#"
   xmlns:rdf="http://www.w3.org/1999/02/22-rdf-syntax-ns#"
   xmlns:svg="http://www.w3.org/2000/svg"
   xmlns="http://www.w3.org/2000/svg"
   xmlns:sodipodi="http://sodipodi.sourceforge.net/DTD/sodipodi-0.dtd"
   xmlns:inkscape="http://www.inkscape.org/namespaces/inkscape"
   version="1.1"
   id="svg10"
   width="1306.6667"
   height="1306.6667"
   viewBox="0 0 1306.6667 1306.6667"
   sodipodi:docname="telephone.svg"
   inkscape:version="1.0.1 (3bc2e813f5, 2020-09-07)">
  <metadata
     id="metadata16">
    <rdf:RDF>
      <cc:Work
         rdf:about="">
        <dc:format>image/svg+xml</dc:format>
        <dc:type
           rdf:resource="http://purl.org/dc/dcmitype/StillImage" />
        <dc:title></dc:title>
      </cc:Work>
    </rdf:RDF>
  </metadata>
  <defs
     id="defs14" />
  <sodipodi:namedview
     pagecolor="#ffffff"
     bordercolor="#666666"
     borderopacity="1"
     objecttolerance="10"
     gridtolerance="10"
     guidetolerance="10"
     inkscape:pageopacity="0"
     inkscape:pageshadow="2"
     inkscape:window-width="1920"
     inkscape:window-height="1001"
     id="namedview12"
     showgrid="false"
     inkscape:zoom="0.61301017"
     inkscape:cx="857.25978"
     inkscape:cy="596.60966"
     inkscape:window-x="-9"
     inkscape:window-y="-9"
     inkscape:window-maximized="1"
     inkscape:current-layer="g2117"
     inkscape:document-rotation="0" />
  <g
     inkscape:groupmode="layer"
     inkscape:label="Image"
     id="g18">
    <path
       style="display:inline;fill:#ff0000;stroke:#ff0000;stroke-width:1.63129;stroke-opacity:1"
       d="m 636.20478,1304.6447 c -26.53096,-0.7476 -61.28123,-3.5056 -78.30212,-6.2145 -19.81145,-3.1531 -58.71867,-11.1898 -71.77695,-14.8265 -27.00641,-7.521 -38.6375,-11.2916 -63.62048,-20.6244 -19.64938,-7.3404 -63.78428,-27.5844 -80.54195,-36.9434 -9.75541,-5.4483 -18.06281,-9.906 -18.4609,-9.906 -0.39808,0 -3.12986,-1.8352 -6.07063,-4.0782 -2.94077,-2.2431 -5.82098,-4.0783 -6.4005,-4.0783 -0.5795,0 -5.87869,-3.3033 -11.776,-7.3408 -5.89731,-4.0374 -11.04972,-7.3408 -11.44979,-7.3408 -0.40008,0 -6.98108,-4.7715 -14.62446,-10.6034 -7.64336,-5.8319 -14.30934,-10.6034 -14.81328,-10.6034 -0.50392,0 -2.86904,-1.781 -5.25578,-3.9578 -2.38675,-2.1767 -9.11109,-7.7253 -14.94297,-12.33 -12.31785,-9.7261 -42.31378,-37.4967 -54.43482,-50.3966 -4.60352,-4.8993 -9.7711,-10.3681 -11.48353,-12.1528 -30.60226,-31.8947 -73.523655,-93.0685 -96.285131,-137.23057 -3.721764,-7.22101 -7.539126,-14.59728 -8.483024,-16.3917 -0.943898,-1.79443 -3.268796,-6.76609 -5.16644,-11.04816 -1.897644,-4.28205 -4.901168,-10.88879 -6.674499,-14.68165 -1.773333,-3.79284 -5.154536,-12.03466 -7.513787,-18.31514 -2.359252,-6.28048 -6.010863,-15.82355 -8.114695,-21.20683 -3.87128,-9.9058 -13.969706,-41.85062 -17.01765,-53.83271 -28.8860444,-113.55691 -28.8860444,-220.85842 0,-334.41533 3.418002,-13.43686 13.307206,-44.37935 17.108933,-53.53241 2.167341,-5.21812 3.965528,-10.3567 3.995971,-11.41906 0.03045,-1.06238 1.473702,-4.86793 3.207237,-8.45678 1.733536,-3.58885 3.176793,-7.18591 3.207237,-7.99349 0.03044,-0.80755 2.012611,-5.57909 4.404816,-10.60341 2.392205,-5.0243 5.811343,-12.43847 7.598082,-16.47593 1.786738,-4.03745 4.020897,-8.80898 4.964795,-10.60341 0.943898,-1.79442 4.778744,-9.13525 8.521881,-16.31294 18.018853,-34.55227 42.464264,-72.17295 65.719564,-101.14025 12.56048,-15.6456 25.81816,-31.36958 30.34462,-35.98958 1.81258,-1.85004 7.0521,-7.35565 11.64338,-12.23471 15.01951,-15.96093 47.33364,-45.50623 61.79788,-56.50273 4.48606,-3.41055 8.74351,-7.1186 9.46101,-8.24011 0.71749,-1.12152 1.98146,-2.03912 2.80884,-2.03912 0.82738,0 7.758,-4.77153 15.40136,-10.60341 7.64338,-5.83188 14.22438,-10.60341 14.62446,-10.60341 0.40007,0 5.55248,-3.30338 11.44979,-7.34083 5.89731,-4.03745 11.1965,-7.340824 11.776,-7.340824 0.57952,0 3.45973,-1.835206 6.4005,-4.078236 2.94077,-2.243029 5.67255,-4.078235 6.07063,-4.078235 0.39809,0 8.70549,-4.457695 18.4609,-9.905988 39.96039,-22.317444 91.5263,-42.909068 144.16243,-57.567844 13.35906,-3.720402 52.25313,-11.737216 72.03164,-14.8471073 50.629,-7.96069264 139.55468,-7.96586874 190.35205,-0.01108 66.90406,10.4770703 122.97222,27.4347433 181.01541,54.7476463 7.45417,3.507651 13.87628,6.377546 14.27133,6.377546 0.39505,0 9.24543,4.771536 19.66747,10.603414 10.42205,5.831877 19.28115,10.603413 19.68687,10.603413 0.40572,0 3.14375,1.835206 6.08452,4.078235 2.94076,2.24303 5.82098,4.078236 6.4005,4.078236 0.5795,0 5.8787,3.303374 11.776,7.340824 5.8973,4.03745 11.0497,7.34083 11.4498,7.34083 0.4001,0 6.9811,4.77153 14.6244,10.60341 7.6434,5.83188 14.3235,10.60341 14.8447,10.60341 0.5212,0 2.5193,1.43496 4.4402,3.18879 1.9208,1.75384 8.631,7.33218 14.9115,12.39632 13.5565,10.93096 43.5629,38.71779 55.2865,51.19685 4.5837,4.87906 9.817,10.38467 11.6296,12.23471 10.0687,10.27676 37.559,44.45176 50.5627,62.8578 20.787,29.42292 34.0551,51.77012 50.8768,85.69109 15.7297,31.71892 17.3856,35.32036 22.5013,48.93883 2.3593,6.28048 6.0109,15.82355 8.1147,21.20682 3.8713,9.90581 13.9697,41.85063 17.0177,53.83272 16.3376,64.22647 22.2359,114.57263 20.9338,178.68234 -0.4459,21.9511 -1.6698,47.986 -2.7199,57.85533 -5.1388,48.29793 -19.7759,111.19524 -35.3051,151.71037 -2.0634,5.38328 -5.6819,14.92635 -8.0412,21.20683 -5.0085,13.33289 -6.5386,16.66592 -22.0922,48.12318 -21.0079,42.48845 -41.8262,75.62264 -69.6965,110.92804 -11.3484,14.3759 -26.923,32.9762 -32.3342,38.616 -1.7124,1.7847 -6.8614,7.2232 -11.4421,12.0856 -12.2226,12.9741 -42.2774,40.8095 -54.4762,50.4534 -5.8319,4.6105 -12.5562,10.1637 -14.943,12.3404 -2.3867,2.1768 -4.7519,3.9578 -5.2558,3.9578 -0.5039,0 -7.1699,4.7715 -14.8133,10.6034 -7.6433,5.8319 -14.2243,10.6034 -14.6244,10.6034 -0.4001,0 -5.5525,3.3034 -11.4498,7.3408 -5.8973,4.0375 -11.1965,7.3408 -11.776,7.3408 -0.57952,0 -3.45974,1.8352 -6.4005,4.0783 -2.94077,2.243 -5.67255,4.0782 -6.07064,4.0782 -0.39808,0 -8.70548,4.4577 -18.4609,9.906 -39.96038,22.3174 -91.52629,42.9091 -144.16242,57.5678 -13.08128,3.6431 -51.99096,11.6781 -71.77695,14.8224 -25.84538,4.1071 -80.44494,7.1236 -112.55931,6.2186 z m 73.79208,-87.7304 c 30.4375,-2.8429 53.13404,-6.8845 84.44347,-15.0371 33.64669,-8.7611 46.84024,-12.8846 63.62048,-19.8836 4.03745,-1.684 12.11236,-5.0394 17.94424,-7.4565 40.95325,-16.9734 87.13487,-44.1954 125.60965,-74.0412 30.5764,-23.7188 60.8533,-52.9252 85.5945,-82.5682 15.967,-19.13045 36.7526,-47.14889 36.7526,-49.54161 0,-0.7946 1.1548,-2.4031 2.5662,-3.57446 1.4114,-1.17135 4.0101,-4.74812 5.7748,-7.94838 1.7648,-3.20027 6.1279,-10.5902 9.6958,-16.42208 12.3126,-20.12549 33.6991,-64.37244 40.6066,-84.01165 13.361,-37.98828 18.3854,-55.29215 25.1041,-86.4586 8.9573,-41.55059 10.0519,-54.25161 10.0519,-116.63755 0,-62.38593 -1.0946,-75.08696 -10.0519,-116.63754 -6.7187,-31.16645 -11.7431,-48.47032 -25.1041,-86.4586 -6.8672,-19.5247 -28.1794,-63.6519 -40.5753,-84.01166 -3.5507,-5.83187 -8.4512,-14.0903 -10.8899,-18.35206 -2.4388,-4.26175 -5.0516,-7.74864 -5.8062,-7.74864 -0.7546,0 -1.372,-0.74001 -1.372,-1.64446 0,-2.56662 -20.2246,-29.93877 -36.7526,-49.74132 -16.5339,-19.8096 -33.6509,-37.52967 -54.6502,-56.57547 -12.4616,-11.30237 -17.9538,-15.91575 -30.9443,-25.99278 -38.47478,-29.84579 -84.6564,-57.06775 -125.60965,-74.04119 -5.83188,-2.41707 -13.90679,-5.7725 -17.94424,-7.45651 -23.48204,-9.79431 -69.90483,-22.73387 -104.40284,-29.10051 -59.3739,-10.957518 -141.92436,-10.93813 -200.6492,0.04713 -35.8372,6.70382 -80.85361,19.23106 -104.40283,29.05338 -4.03746,1.68401 -12.11236,5.03944 -17.94424,7.45652 -39.41282,16.33498 -91.90694,47.1242 -123.16272,72.23829 -0.89721,0.7209 -5.66875,4.48516 -10.60341,8.365 -24.59137,19.33475 -55.26987,49.44598 -77.43803,76.00614 -16.528,19.80255 -36.75258,47.1747 -36.75258,49.74132 0,0.90445 -0.59891,1.64446 -1.3309,1.64446 -0.732,0 -3.04596,3.11985 -5.14214,6.933 -2.09616,3.81315 -4.6171,7.94631 -5.60209,9.18479 -8.3703,10.52459 -38.84464,72.03482 -46.56823,93.99457 -18.05151,51.32422 -26.661129,85.43459 -32.605157,129.17806 -4.859214,35.76005 -4.859214,112.07611 0,147.83617 5.944028,43.74347 14.553647,77.85383 32.605157,129.17806 7.58024,21.5522 38.35328,83.66531 46.56823,93.99457 0.98499,1.23848 3.50593,5.37164 5.60209,9.18479 2.09618,3.81315 4.41014,6.933 5.14214,6.933 0.73199,0 1.3309,0.74532 1.3309,1.65627 0,4.94542 42.27211,57.87455 63.16783,79.09285 16.53382,16.789 37.93224,36.3505 51.02278,46.6428 4.93466,3.8798 9.7062,7.6441 10.60341,8.365 31.25578,25.1141 83.7499,55.9033 123.16272,72.2383 5.83188,2.4171 13.90678,5.7725 17.94424,7.4565 35.96377,15.0004 100.79506,30.5503 145.18519,34.8229 31.14355,2.9977 84.67644,3.0427 116.20573,0.098 z"
       id="path22" />
    <path
       style="fill:#ff0000;stroke-width:2.66064;stroke-miterlimit:4;stroke-dasharray:none"
       d=""
       id="path946" />
    <path
       style="fill:#ff0000;stroke-width:2.66064;stroke-miterlimit:4;stroke-dasharray:none"
       d=""
       id="path948" />
    <path
       style="fill:#ff0000;stroke-width:2.66064;stroke-miterlimit:4;stroke-dasharray:none"
       d=""
       id="path952" />
    <g
       id="g2158"
       transform="translate(576.0986,-47.307535)">
      <g
         id="g2117"
         transform="matrix(1.0390769,0,0,1.0390769,-1568.6481,-168.82069)">
        <path
           style="fill:#ff0000;stroke-width:2.15226"
           d="m 1427.2811,1177.877 c -0.4186,-1.0885 -2.3174,-1.9793 -4.2219,-1.9793 -1.9042,0 -4.9719,-1.1877 -6.8173,-2.6392 -1.8454,-1.4515 -4.1449,-2.6392 -5.1102,-2.6392 -0.9652,0 -2.3905,-1.1876 -3.1675,-2.6391 -0.7764,-1.4516 -2.2066,-2.6392 -3.1772,-2.6392 -0.9706,0 -4.272,-2.8206 -7.3357,-6.2681 -3.0644,-3.4474 -7.2969,-8.1819 -9.4056,-10.521 -2.1084,-2.3392 -3.834,-5.724 -3.834,-7.5221 0,-1.798 -0.8845,-3.7641 -1.9655,-4.3691 -1.1105,-0.6215 -2.3269,-3.9503 -2.7972,-7.653 -0.4575,-3.6043 -1.651,-7.8685 -2.6529,-9.4759 -2.7431,-4.4012 -2.725,-559.85885 0,-564.21701 1.012,-1.60746 2.2421,-6.33708 2.7341,-10.51025 0.4923,-4.17322 1.4133,-7.58766 2.0471,-7.58766 1.0694,0 2.43,-2.09579 6.8407,-10.53858 2.1156,-4.04948 10.3728,-12.45663 13.3612,-13.6033 1.2145,-0.46633 2.2085,-1.75679 2.2085,-2.86826 0,-1.14433 1.1498,-2.02077 2.6519,-2.02077 1.4585,0 3.6691,-1.18766 4.9116,-2.63919 1.2429,-1.45153 3.0396,-2.63918 3.9928,-2.63918 0.9524,0 3.0476,-0.82636 4.655,-1.83634 1.6072,-1.01002 5.6944,-2.22672 9.0829,-2.70388 3.3878,-0.47703 6.8747,-1.72908 7.7489,-2.7822 1.3709,-1.65198 21.5145,-1.9147 146.808,-1.9147 133.768,0 145.4114,0.17377 147.6531,2.20239 1.4384,1.30179 5.5279,2.45134 10.0009,2.81117 4.4515,0.35827 8.0016,1.35282 8.6224,2.41614 0.5801,0.9941 2.4417,1.80742 4.1366,1.80742 2.0751,0 6.5058,3.37861 13.5686,10.34698 5.7679,5.69087 10.8649,11.33208 11.3269,12.53608 0.4624,1.20401 1.7495,2.18911 2.8608,2.18911 1.3581,0 2.0206,1.27683 2.0206,3.89318 0,2.1413 0.8849,4.38834 1.966,4.99345 1.0817,0.60512 2.5139,4.03167 3.1832,7.61453 0.6693,3.5829 1.8629,6.72965 2.6525,6.99286 1.0285,0.34269 1.4238,81.15572 1.3937,285.06974 -0.049,248.14267 -0.2921,284.91937 -1.9793,287.15277 -1.0656,1.4087 -1.9375,3.7928 -1.9375,5.2979 0,1.505 -1.1877,4.9522 -2.6393,7.6605 -1.4515,2.7083 -2.6393,6.0447 -2.6393,7.4142 0,1.3802 -1.1761,2.7977 -2.6389,3.1802 -1.9217,0.5025 -2.6392,1.7999 -2.6392,4.7726 0,2.6635 -0.6573,4.0822 -1.8907,4.0822 -1.0398,0 -2.267,1.1876 -2.728,2.6391 -0.4624,1.4517 -1.6881,2.6392 -2.7279,2.6392 -1.0397,0 -1.8907,0.8908 -1.8907,1.9794 0,1.0886 -1.1073,1.9794 -2.4611,1.9794 -1.3537,0 -3.9712,1.1876 -5.8165,2.6392 -1.8453,1.4515 -3.9118,2.6391 -4.5919,2.6391 -0.6799,0 -2.3117,1.1877 -3.6251,2.6392 -1.3138,1.4515 -4.0354,2.6392 -6.0487,2.6392 -2.0128,0 -4.5503,0.8908 -5.6393,1.9793 -1.7368,1.7372 -21.0348,1.9795 -157.6438,1.9795 -137.1512,0 -155.7548,-0.2356 -156.4243,-1.9795 z m 167.7669,-15.1802 c 2.3765,-1.4487 5.869,-2.6341 7.7613,-2.6341 3.5178,0 14.9699,-9.9619 14.9699,-13.0222 0,-0.8214 0.7789,-1.4933 1.731,-1.4933 4.5086,0 12.7843,-18.359 12.7843,-28.3618 0,-2.9483 -0.8041,-6.5317 -1.7864,-7.9633 -0.9828,-1.4316 -2.1308,-5.2542 -2.5518,-8.4947 -0.4235,-3.2405 -1.6954,-6.5721 -2.832,-7.4033 -1.1367,-0.8312 -2.0669,-2.2067 -2.0669,-3.0567 0,-0.8499 -0.847,-1.8704 -1.8819,-2.2675 -1.0349,-0.3972 -5.1531,-3.9414 -9.1511,-7.8761 -6.2001,-6.1023 -8.009,-7.1602 -12.3034,-7.196 -2.7693,-0.024 -6.1873,-0.9138 -7.5962,-1.9794 -3.3524,-2.5355 -13.1732,-2.5093 -15.7245,0.044 -1.1216,1.1215 -4.3449,1.9795 -7.438,1.9795 -4.8337,0 -6.2916,0.8194 -12.7278,7.1539 -3.9979,3.9347 -8.1162,7.4789 -9.151,7.8761 -1.0349,0.3972 -1.882,1.5679 -1.882,2.6018 0,1.0338 -0.8489,2.2054 -1.8867,2.6036 -1.0627,0.4079 -2.2952,3.496 -2.821,7.0691 -0.5141,3.4896 -1.7431,7.5162 -2.7317,8.9478 -0.9887,1.4316 -1.7977,5.0151 -1.7977,7.9635 0,10.0025 8.2757,28.3615 12.7843,28.3615 0.9521,0 1.7315,0.6719 1.7315,1.4932 0,3.0604 11.4515,13.0223 14.9695,13.0223 1.8927,0 5.3848,1.1854 7.7612,2.6343 2.7971,1.7052 6.6476,2.6342 10.9186,2.6342 4.2709,0 8.1215,-0.929 10.9185,-2.6342 z m 117.2842,-121.5598 c 1.34,-1.1672 4.0899,-2.5151 6.1105,-2.9955 2.2358,-0.5317 4.2948,-2.2792 5.262,-4.4659 0.8738,-1.9758 2.4866,-4.2868 3.5839,-5.1355 1.7679,-1.3672 1.9958,-28.73743 1.9958,-239.94166 0,-225.52314 -0.1262,-238.48963 -2.3094,-240.08701 -1.2701,-0.92873 -2.3093,-2.2537 -2.3093,-2.94444 0,-0.6907 -1.93,-2.70359 -4.2885,-4.47309 l -4.2891,-3.21723 h -132.6183 -132.6186 l -3.6291,3.45031 c -1.9957,1.89766 -3.6289,3.91056 -3.6289,4.47308 0,0.56252 -1.0393,1.78264 -2.3093,2.71137 -2.1847,1.59738 -2.3093,14.56387 -2.3093,240.08701 0,225.52316 0.126,238.48966 2.3093,240.08706 1.27,0.9287 2.3093,2.0969 2.3093,2.5958 0,1.4989 6.8597,7.3791 8.6087,7.3791 0.8937,0 2.3457,0.8684 3.2265,1.9298 2.3272,2.804 10.5797,2.9703 139.4603,2.811 103.6442,-0.1281 115.2476,-0.352 117.4435,-2.2642 z"
           id="path2039" />
      </g>
    </g>
  </g>
</svg>
